<?xml version="1.0" encoding="utf-8"?>
<!-- Generator: Adobe Illustrator 18.1.0, SVG Export Plug-In . SVG Version: 6.00 Build 0)  -->
<!DOCTYPE svg PUBLIC "-//W3C//DTD SVG 1.1//EN" "http://www.w3.org/Graphics/SVG/1.1/DTD/svg11.dtd">
<svg version="1.1" id="Layer_1" xmlns="http://www.w3.org/2000/svg" xmlns:xlink="http://www.w3.org/1999/xlink" x="0px" y="0px"
	 viewBox="0 0 534.3 182.4" style="enable-background:new 0 0 534.3 182.4;" xml:space="preserve">
<g>
	<path d="M388.5,126.1c12.9,0,13.7-19.9,29.9-23.2c18.7-3.9,21.3,11.1,33.2,11.8c13.7,0.8,25.9-29.6,33.4-38.5
		c3.7-4.5,20.3-21.1,21.3-10.1c1.3,14.1-50.8,40.4-26.5,60.3c14.9,12.3,18.1-12.1,27.4-12c9.9,0.1,2.7,8,8.3,10.5
		c2,0.9,13.9-0.6,14.7,0.9c5.5,9.7-53.4,14.7-61.1,7.3c-10.9-10.5,2.5-21.4-17.4-11c-12.6,6.6-20.2,13.5-35.2,16.1
		c-13,2.3-21-1.6-33.1-4.9c-3.3-0.9-13.5-2.8-16.4-3.2c-11-1.8,0.6-6.8-8.4-4.8c-7.7,1.7-30.7,48.9-37.1,42.9
		c-6.1-5.7,27.7-44,17.7-51.4c-2.5-1.8-15.2,5-18.1,6.3c-11.1,4.6-16.2,4.7-28,5.6c-7.1,0.5-14,2.6-21.1,3.8
		c-15.7,2.6-13.4-0.1-26.2-5.3c-10.2-4.2-2.4-2.4-13.4-1.3c-7.6,0.8-17.8,7.1-26,8.7c-13,2.5-15.6-0.5-26.6-3.6
		c-12.1-3.4-15.6-0.6-29.1,3c-11.9,3.2-11.7,1.3-23-0.9c-9.9-1.9-15.8,2.6-25.2,2.1c-28.1-1.3-3-29.1,9.6-35.4
		c4.6-2.3,25.4-9.3,30.7-3.1c8.7,10.4-7.4,16.5-5.4,25.2c3.6,15.8,32,1.6,38.4-5.4c10.4-11.5,15.7-29.4,26-42
		c5.8-7.1,36.5-46.6,49.9-32.7c20.2,20.9-64.4,62.1-62.6,78.7c2,18.6,37.9,4.1,46-1.7c17.3-12.2,21.2-36.1,37.5-50.4
		c22.3-19.6,29.2-5.4,13.2,15c-6.4,8.3-33.5,25-28.8,37.7c4.1,11.1,16.1,6.1,23.2,3.9c4.8-1.5,8.2-5,13.5-5.8
		c6.7-1,12.6,3.5,19.5,2.5c18-2.7,33.2-20,43.7-33.4c3.3-4.2,11.5-24.9,16.3-26.3c11-3.3,3,8.4,0.8,13.3c-1.8,3.9-29.9,41-22.5,45
		c6.5,3.4,12.9-13.9,22.7-8.2C381.8,116.5,371.9,127.2,388.5,126.1C390.2,126.1,384.7,126.4,388.5,126.1z M239,47.7
		c-1.9-5.2-62.9,59.2-42.4,56.6c7.4-0.9,31-27.9,35.1-32.5C235.2,68,254.5,47.7,239,47.7C239,47.5,239.3,47.7,239,47.7z M129.3,99.3
		c-8.9,1.8-40.6,20.4-21.4,27.6C119.5,131.3,149.2,103.4,129.3,99.3C128.2,99.6,130.7,99.6,129.3,99.3z M424.3,107.7
		c-10.9,1.6-26.5,12.2-9.5,20.4C430.3,135.6,444.9,108.4,424.3,107.7C422.3,108,429,107.9,424.3,107.7z M278.5,81
		c0.1-9.9-14.9,8.5-14.9,13.5C268.8,93.3,276.1,85.6,278.5,81C278.6,78.5,278.3,81.4,278.5,81z"/>
	<path d="M59.3,108.7c-1.6-9.7-35.3,17.3-46.4-3c-1.6-2.9-0.3-8.4-2.1-11.4c-0.7-1.2-8.3-5.2-8.3-5.1c-2.6-11.3,2.3-3,8.6-8.2
		c14.5-11.9,23.2-30.6,37-44.6c8.1-8.2,29.9-32.2,42.6-29.4c-2.4,6.5-16.4,10.9-21.9,15.4c-6.2,4.9-11.1,11.2-16.3,17
		c-5.7,6.3-36.9,39.1-17.9,39.3C46.9,78.7,67,57.1,75.6,49.2c12.8-11.7,38-31.7,18.8-44.9c6.5-8.6,17.2-3.8,18.4,5.4
		c1,8.1-13.3,22.7-18.4,28C81.3,51.2,65.3,66,49,75.4c-7.3,4.2-46.4,27-14.5,31.9c13.4,2.1,38.4-35.7,38.3-11.5
		c0,15.2-13.9,39.1-20.1,53.3c-3.5,8.1-9.1,23.6-17.3,28.9c-6,3.8-23.8,6.1-24-6.8c-0.1-7.5,10.9-9.7,15.3-8.7
		c6.9,1.6-2.5,17.6,10.6,2.4C47.4,153.1,57.6,123.8,59.3,108.7C59.1,107.5,59.1,110.1,59.3,108.7z"/>
	<path d="M529.9,76.3c11.6,0.4-1.4,9.1-1.4,8.9C528.3,85.9,516.9,76.3,529.9,76.3C533.9,76.4,528,76.3,529.9,76.3z"/>
	<path d="M322.5,77.9c-12-3.2,2.1-6.4,2.3-7.3C324.7,71.2,335.4,76.5,322.5,77.9C321.3,77.6,324.6,77.7,322.5,77.9z"/>
</g>
</svg>
