<?xml version="1.0" encoding="utf-8"?>
<!-- Generator: Adobe Illustrator 18.1.0, SVG Export Plug-In . SVG Version: 6.00 Build 0)  -->
<!DOCTYPE svg PUBLIC "-//W3C//DTD SVG 1.1//EN" "http://www.w3.org/Graphics/SVG/1.1/DTD/svg11.dtd">
<svg version="1.1" id="Layer_1" xmlns="http://www.w3.org/2000/svg" xmlns:xlink="http://www.w3.org/1999/xlink" x="0px" y="0px"
	 viewBox="0 0 984 80" style="enable-background:new 0 0 984 80;" xml:space="preserve">
<g style="stroke: #0000ff; stroke-width: 4px; fill: #ff0000">
	<path d="M750.8,31.2c-1.8,2.6-7.3,1.4-9.9,3.4c-2.8,2.1-5.6,5.7-6.4,9.1c-0.8,3.2-0.6,8.7,3.5,9.6c3,0.7,7.2-2.5,9.5-4.1
		c1.1-0.8,3.1-3.4,4.7-3.2c2.5,0.3,0.2,2.6,0.1,3.9c-0.4,4.3,4.5,5.3,7.8,4.5c3.7-0.8,6.8-3.4,10.4-4.1c4.9-1,2.2,3.7,5.8,4.5
		c4.8,1,10.9-11.9,15.6-6.6c2.2,2.5,0.1,7.2,5,7.5c4,0.2,6.9-3.2,9.2-5.8c1.7-1.9,3.3-3.1,4.4-0.6c0.5,1.2-0.7,2.8,0.7,3.8
		c1.1,0.8,3.3-0.5,4.2-1c2.8-1.7,6.1-5.7,9-2.6c2.7,2.8,2.3,3.3,6.6,3.3c-2,3.2-7.5,4.3-10.9,2.5c-2.3-1.2-1.6-2.1-4.1-0.9
		c-2.2,1-3.6,1.9-6.2,2.2c-4.1,0.4-7.3-0.6-11.4,0.9c-3.6,1.3-7.4,2.2-10.1-1.4c-2-2.7-1.1-6.4-4.9-3.3c-3.3,2.7-5.9,5.4-10.6,5.6
		c-1.4,0.1-2.5,0-3.6-0.9c-1-0.8-1.2-2.8-2.2-3.4c-1.4-0.7-3.4,1.1-4.5,1.6c-1.7,0.7-3.5,1.1-5.4,1.4c-3.8,0.7-7.2,0.6-10.1-2
		c-1.8-1.6-0.9-2.1-3.7-1.1c-2.2,0.8-4,2.2-6.4,2.4c-3.8,0.3-6.1-1.9-6.8-5.5c-0.2-1.1,0.2-3.7-1-4.4c-1.4-0.8-3.4,0.9-4.4,1.6
		c-6,3.9-16.6,10.4-22.6,2.8c-2.4-3-2.2-5-6.4-2.5c-1.9,1.2-8.9,7.1-9.9,2.8c-0.6-2.8,4.5-7.3-0.9-7.7c-1.6-0.1-3.5,0.4-5.1,0.6
		c-1.7,0.2-5,0-6.4,0.7c-1.2,0.6-1,1.6-1.6,2.6c-1,1.8-1.3,2.4-3.2,3.4c-3.1,1.6-8.4,3.9-12,2.6c-1.5-0.5-2.3-2.1-3.8-2.6
		c-1.9-0.6-4.2,0.2-6.2,0.4c-3.4,0.4-8.6,0.2-10.2-3.6c-2.3-5.7,8.6-14.6,13.8-13.1c5,1.4,1,6.3-2.5,6.9c-2.7,0.5-8.7-2.1-6.2,3.9
		c1.3,3.2,5.9,4.1,8.9,3.6c1.7-0.3,3.2-1.2,4.8-1.3c2.5-0.2,2.5,0.7,4.3,2.1c2.3,1.8,8.1,1.1,4.4-1.8c-0.9-0.7-2.4-0.5-2.4-1.9
		c-0.1-2.2,4.1-2.2,5.4-2.4c4-0.7,8.1-0.8,12.1-1.1c3.3-0.3,11.2-3.1,13.6,0.1c0.8,1.1,0.1,2.8,1.4,3.5c1.3,0.7,3.4-1.5,4.5-2
		c5.3-2.4,6-0.2,8.6,3.8c5.6,8.5,18.7-1.1,23.7-6.4c2-2.2,1-3.6,1.9-6c0.6-1.6,2.5-2.6,3.7-3.8c3.5-3.7,6.1-8.5,10.1-11.6
		c0.9-0.7,3.4-2.6,4.5-1.3c1.2,1.4-1.3,4.7-2,5.7C745.8,28.9,744.9,29.9,750.8,31.2C750.1,32.1,750.3,31.1,750.8,31.2z"/>
	<path d="M173,48.9c-5.7,0.8-9.1,5.1-13.4,8.7c-7.9,6.6-1.1-4.3-2.2-6.8c-1.2-3-6.9,3.2-8.9,4.5c-4.6,2.9-9.5,7.1-15.4,6.8
		c-2.7-0.2-4.7-2.4-7.4-2.3c-2.6,0.1-5.3,1.9-7.9,2.3c-2.8,0.5-5.6,0.5-8-1.2c-1.9-1.4-2.3-4.4-4.8-3.6c-1.7,0.5-3.8,2.7-5.7,3.5
		c-2.2,0.9-4.7,2.1-7,2.6c-2.3,0.5-3.9,0-5.4-2c-1.7-2.3-0.1-5.9-1.8-7.8c-2.3-2.4-8.2,2.3-10.8,3.3c-3.3,1.2-4.5,1.7-7.7-0.1
		c-3.3-1.7-3.6-2-7,0.3c-3,2.1-12,6.8-14.2,1.2C44.1,55,48,44.8,51.3,43.5c3-1.3,2.3,1,1.8,2.8c-0.8,2.8-2.5,6.1-1,9
		c3.1,6.2,10.4-4.4,12.8-6.1c4.1-3.1,3.9,4.4,7.7,5.6c4.6,1.5,11.2-4.3,13.7-7.8c3-4.2,4-9.6,6.4-14.2c1.5-2.9,6.9-13.1,11.5-11.6
		c5.4,1.7-13.1,23.5-13.9,26.7c-0.9,3.4-1,11.1,3.3,12.7c3.1,1.2,10.7-4.4,12.3-6.8c2-2.9,1.5-8.1,3-11.5c2-4.6,4.9-8.9,8.4-12.6
		c1.6-1.8,8.5-10,11.6-7.9c3.6,2.4-4.5,12.8-6.1,15.3c-1.6,2.4-3.2,4.7-4.9,6.9c-1.7,2.1-4.4,4.3-5.5,6.8c-2.5,5.2,3.7,9.1,8.2,8.5
		c2-0.2,4.9-0.7,6.1-2.6c1-1.6,0.4-4,1.1-5.8c1.5-3.4,8.9-9.3,12.8-8.4c5.7,1.4-2.8,8.5-4.7,10c-1.7,1.4-4.3,2.9-2.6,5.2
		c1.4,1.9,5.2,1.2,7.2,0.7c5-1.3,10.1-5.9,13.6-9.5c4.3-4.5,7.1-9.3,9.2-15.1c0.7-1.9,2.1-5.8,3.8-7c3.2-2.4,3.4,1.3,2.5,3.6
		c-1.1,3-3.2,5.5-4.5,8.4c-1.2,2.9-2.1,6.1-3,9.2c-2.3,8.2,5.6,0.6,8.5-0.8c3.7-1.8,13.2-3.3,11.9,3.9c-0.4,2-2.5,4.6-4.1,5.8
		c-1.3,0.9-5.2,2.2-5.2-0.4c0-2.6,3.9-2,4.4-4C178.2,49.7,175,49,173,48.9C170.9,49.2,173.8,48.9,173,48.9z M111.1,45.1
		c-0.3,5.6,5.2-2.2,6.4-3.8c1.4-1.9,2.7-3.9,4-5.9c1.1-1.9,4.3-5.8,4.4-7.9c0.1-4.7-6.4,2.2-7.6,3.6
		C115.8,33.9,110.6,41.1,111.1,45.1C111.1,45.4,111,44.1,111.1,45.1z M132.2,53.4c2.4-0.2,9.2-8.5,3.9-7.8
		C133.6,45.9,128.3,53.5,132.2,53.4C133,53.3,131.2,53.4,132.2,53.4z M93.5,38.3c1.2,0.7,8.6-9,6.6-10.6
		C97.7,25.7,93.9,36.9,93.5,38.3C93.6,38.4,93.7,37.8,93.5,38.3z"/>
	<path d="M843.3,48c-2.3,2.5-4.8,7.4,0.7,7.3c1.7,0,5.1-1,4.8-3.2c-0.2-1.5-2.7-0.7-2.1-2.6c0.8-2.6,10.4-3.5,12.9-4.5
		c2.9-1.1,8.5-4.4,8.9,0.5c0.2,2.8-3.9,7.5,0.5,8.4c3.7,0.8,8.6-2.9,11-5.3c1.1-1.1,2.7-3.1,4.1-1.5c1.5,1.6-0.6,3,2.2,4
		c3.7,1.3,10.9-3.5,14.4-4.8c1.6-0.6,3.4-1.6,5.2-0.9c1.4,0.5,2,2.3,3.6,2.7c1.8,0.4,3.9-1,5.5-1.8c3.1-1.6,2.8-2.2,3.2-5.4
		c1.1-8.9,8-18.4,16.2-22.1c3.2-1.4,7.4-1.5,6.2,3c-1.1,4.3-6.2,9.4-9,12.8c-1.8,2.3-7.9,6.4-8.4,9.3c-0.6,3.9,5.5,5.1,8.1,4.8
		c1.7-0.2,4.7-1.6,6.4-1c1.7,0.7,1.7,2.6,2.4,4c2.8,6.1,6.4,0,9.5-2.6c3.5-3,6.7-2.1,7,2.6c0.3,4.4-1.6,9-2.4,13.4
		c-0.7,3.8-1,7.6-2.7,11.1c-1.7,3.4-6,5.3-8.5,1.4c-0.7-1.1-1.3-3.4,0.5-4c1.7-0.5,3,2.2,4.6,2c2.8-0.4,3.1-9.6,3.4-11.7
		c0.3-1.7,2.7-10.7,0.7-11.9c-1.3-0.7-2.5,1.5-3.3,2.2c-1.9,1.8-3.9,2.6-6.4,3.4c-4.2,1.4-6.8,0.7-8.6-3.5c-2.1-4.8-3.2-2.7-8-3.2
		c-3.6-0.4-6.4-4.1-9.7-3.4c-4.3,1-8.4,3.7-11.3,6.7c-2.1,2.2-6.6,4.6-9.1,1.1c-3.5-4.8,5.5-3.9,6.2-5.7c1.4-3.6-8.5,1.3-9.3,1.5
		c-4.6,1.2-7.7,3.3-12.4,2.1c-3.2-0.8-3.6-0.1-6.4,1.5c-2.2,1.3-4.8,1.9-7.4,2.1c-5.7,0.5-5.4-1.9-4-6.3c0.6-1.9,1.9-4-0.4-5
		c-1.6-0.7-3.8,0.5-5,1.4c-3.5,2.5-3.5,6.9-7.9,8.7c-2.4,1-12.1,4.4-13,0.4C835.7,53.7,842.3,46.1,843.3,48
		C843,48.3,843.2,47.9,843.3,48z M922.4,38.6c1.5,2.7,4-1.9,5.1-3.3c2.3-2.8,7.6-7.4,8.3-11.1c1-5.2-5.3-0.2-6.8,1.4
		C926.1,29,923.6,34.5,922.4,38.6C922.6,39,922.6,38,922.4,38.6z"/>
	<path d="M354,50c0,2.9-1.9,4.2-4.5,4.9c-2.6,0.6-6.2,0.2-3.4-2.5c0.9-0.8,2.4-0.6,2.7-2.1c0.2-1-0.7-2.6-1.6-3.1
		c-1.7-1-2.4,0.3-3.8,1.4c-1.5,1.1-3,1.5-4.6,2.3c-6.3,3.2-12.8,7.2-19.7,3.3c-1.4-0.8-1.7-1.4-3.4-1.3c-1.9,0.1-3.7,1.8-5.6,2.1
		c-4.8,0.6-4.8-2.4-6.9-5.4c-3.4-4.7-11.3,7.6-12.9,1.3c-0.9-3.3,3.1-7.5,3-10.8c-0.1-4.3-4.1,0.2-6.2,1.1c-3.9,1.6-5,1.5-6.8,5.6
		c-1.5,3.4-3.4,5.8-6.7,7.5c-2.9,1.5-5.9,2.6-8.9,1.1c-1.7-0.9-2-1.9-4.1-1.8c-1.8,0.1-3.1,1.2-5,0.6c-8-2.2-2.8-13.3,1.1-16.9
		c1.9-1.7,6.7-3.1,3.6,0.4c-1,1.1-1.8,0.9-2.5,2.4c-0.7,1.6-1.2,4.8-0.9,6.5c0.7,3.6,2.9,4.3,5.8,3.5c1-0.3,1.7-1.1,2.8-0.6
		c1.5,0.7,1.6,3.2,3.4,3.9c2.4,0.9,5-0.9,6.4-2.8c0.9-1.3,1.8-3.5,1.9-5.1c0.1-1.4-1-3.1,0.2-4.4c0.8-0.8,1.8-0.6,2.8-0.6
		c2.6,0,3.7,0.5,6.1-0.7c3.2-1.5,5.7-3.6,8.2-6c5.5-5.4,6.6-13.9,11.3-20.1c1.5-1.9,4.7-5.9,4.9-1.5c0.2,3.7-2.8,7.7-4.6,10.7
		c-1.7,2.9-4.2,5.4-5.7,8.4c-1.8,3.6-2.8,7.7-4.1,11.4c-0.9,2.8-2.6,7.8,2.2,5.4c2.5-1.2,5.4-5.6,8.7-4.4c3,1.1,1.5,6.1,4.4,7.7
		c3.8,2.2,5.8-3.3,9.3-2.9c2.6,0.4,3.8,4.2,6.9,4.7c3.5,0.5,8.2-2,11.2-3.7C345,46,352.2,39.5,354,50C354,52.1,353.9,49.2,354,50z"
		/>
	<path d="M545.7,49.6c5-0.9,9-3.3,13.8-4.7c2.5-0.7,4.2,0.7,6.6,0.3c3.2-0.6,5.4-3.3,8.9-1.9c3,1.3,2.3,2.6-0.1,3.9
		c-2.7,1.4-3.4,0.5-6,0.6c-5.5,0.3-4,7.3-7.7,9.5c-6.4,3.8-1.3-6.4-2.6-8.2c-2.2-3.2-10.2,2.1-13.4,2.7c-2.3,0.4-4.8,0.8-7-0.1
		c-2.3-0.9-2.5-2.8-4.3-3.9c-3.4-2.3-8.3,1-11.1,2.8c-3.9,2.6-9.6,6-13.9,2.5c-3.6-2.9-1.2-9.4-4.5-11.5c-2.7-1.7-10.3,0-11,3.2
		c-0.6,2.5,0.5,3.7-1.7,5.9c-2.1,2.2-5.6,4.1-8.6,4.8c-6.4,1.6-5.9-4-4-8.2c1.1-2.3,2.5-4.5,4.4-6.1c2.8-2.2,4.7-1,8.1-1.4
		c3.1-0.3,6.1-1.3,9.2-1.5c2.3-0.2,5.8-1.2,8-0.6c4.1,1.1,2.2,9.7,6.3,12.4c2.1,1.4,4.9,0.7,6.7-1c1.9-1.9,0.7-4.3,2.1-6.1
		c2-2.5,3.9-0.2,5.8,0.8c2.4,1.2,4.2,0.7,6.4-0.5c2.4-1.3,5.7-4.4,8.6-4.4c3,0.1,2.4,2,0.6,3.5c-1.4,1.1-6,1.9-6,4.1
		C539.4,48.8,544,49.5,545.7,49.6C546.4,49.4,543.7,49.5,545.7,49.6z M489.8,47.6c0.1-1.6-2.2-5.1-4.1-4.6c-1.5,0.4-3.1,5-3.2,6.5
		C482.2,55.3,489.5,51.8,489.8,47.6C489.8,46.7,489.6,50.5,489.8,47.6z"/>
	<path d="M31.6,34c-0.2-5.3-3.6-9.2-8.6-7.6c-1.2,0.4-4.4,2-5.2,0c-0.8-2,4.9-4,6.3-4.2c4.6-1,7.7-2.8,9.6-7.6
		c1.2-3.2-0.1-12.2-5.5-10.6c-2,0.6-1,2.2-2.3,3.3c-1.4,1.2-2.3,0.3-3.5,2c-1.4,1.8-2.2,5.6-3,7.7c-1.3,3.4-2.6,6.8-4,10.1
		c-1.9,4.9-3.5,10-5.1,14.9c-1.7,5.1-2.5,11-6.3,15.1c-1.1,1.2-3.3,3.8-4.1,1.4c-0.6-1.9,2.6-6.1,3.4-7.7c2.2-4.6,3.8-9.3,5.4-14.2
		c1.7-5.3,4.1-10.3,5.9-15.5c2-5.7,3.9-11.7,6.9-16.9c1.6-2.7,2.2-3.6,5-3.9c2.2-0.2,5.8-0.6,8.1,0c5.5,1.4,6.1,8.6,4.1,13
		c-1.6,3.5-8.2,6.8-7.2,10.6c0.5,2,2.6,3.5,3.2,5.6c0.8,2.7,0.3,5.7-0.1,8.4c-1.1,6.2-2.3,11.3-6.9,15.9c-2,2-10.7,8.1-12.1,1.7
		c-0.8-3.5,2.5-2.3,4.3-2c2.5,0.5,4.6,1.4,6.5-0.6C30.5,48.8,31.1,39.5,31.6,34C31.5,32.4,31.6,34.4,31.6,34z"/>
	<path d="M398.2,49.1c-1.9,2.9-6.6,3.1-9.7,3.8c-4.1,0.9-6.7,1.1-10.5-0.6c-3.4-1.5-5.1,0.7-8.5,1.2c-1.2,0.2-2.8,0.5-3.9-0.1
		c-1.2-0.6-1.2-1.8-2.1-2.5c-1.4-1.2-3.8,0.4-4.5-0.7c-0.5-0.8,5.1-6.9,5.8-7.9c3.9-5.9,6-12.8,9.7-18.9c0.9-1.5,4.1-7.2,5.9-7.2
		c3.1,0.1-0.3,4.9-1.2,6.5c-1.4,2.7-4.2,6-5.1,8.8c-0.9,2.9,2.1,2.7,4.4,1.2c2.3-1.5,2.4-4.7,3.3-7.1c1.2-3.4,3.3-6.5,6.5-8.4
		c2.9-1.7,4-0.5,2.6,2.4c-1.5,3.3-4.2,6.1-5.8,9.4c-1.5,3.3-1.3,7.4,0.7,10.2c1.1,1.5,1.9,1.2,1.3,3.3c-0.5,1.8-2.7,2.8-3.8,4
		c-2.3,2.6-1,4.3,2.3,4.5C390.1,51.4,394.1,48.4,398.2,49.1C397.5,50.3,397,48.9,398.2,49.1z M368.1,46.7c-0.3,5.5,5.5,4.9,8,2
		c1.5-1.8,2.4-3.3,4.2-4.8c1.8-1.5,2.1-1.4,1.4-3.8c-1.3-4.5-3.8-7.1-8.5-4.6C370.2,37.1,368.4,43.5,368.1,46.7
		C368,47.8,368.1,46.4,368.1,46.7z"/>
	<path d="M400.1,48c3.9-2.8,9.7-5.4,12.6-9.1c3-3.8,4.5-9.1,6.6-13.4c0.4-0.8,4.3-10.6,5.4-5.6c0.3,1.5-1.9,4.7-2.5,6.2
		c-1.1,2.5-2.3,5-3.4,7.6c-1,2.6-4.3,10-2.7,12.6c0.8,1.4,4,1.9,3.8,3.9c-0.1,1.5-3.6,2.3-4.8,2.2c-1.9-0.2-3-2.4-4.8-2.4
		c-1.7,0-2.6,2.6-4.3,2.6c-2.9,0-0.4-3.3-1.8-4.7C403.3,46.9,401.4,48.4,400.1,48C403,45.9,400.5,48.1,400.1,48z"/>
	<path d="M179.4,32.6c2.4,0,0.8,2-0.3,2.8c-0.8,0.5-6.4,2.4-7.4,1.7C167.7,34.3,179.2,32,179.4,32.6
		C179.6,32.6,179.4,32.5,179.4,32.6z"/>
	<path d="M980.3,56.1c-4-0.9,0.3-5,2.6-4.4C986.1,52.4,982.6,56.2,980.3,56.1C980,56,982.4,56.1,980.3,56.1z"/>
	<path d="M338.2,38.2c-3.3,0-2.1-3.7,0.7-3.5C342.8,35,340.3,37.3,338.2,38.2C337.1,38.2,338.8,38,338.2,38.2z"/>
	<path d="M752.4,31c2.1-1,4.3-1.2,6.7-0.8C758,31.5,754.2,32,752.4,31z"/>
</g>
</svg>
