<?xml version="1.0" encoding="utf-8"?>
<!-- Generator: Adobe Illustrator 18.1.0, SVG Export Plug-In . SVG Version: 6.00 Build 0)  -->
<!DOCTYPE svg PUBLIC "-//W3C//DTD SVG 1.1//EN" "http://www.w3.org/Graphics/SVG/1.1/DTD/svg11.dtd">
<svg version="1.1" id="Layer_1" xmlns="http://www.w3.org/2000/svg" xmlns:xlink="http://www.w3.org/1999/xlink" x="0px" y="0px"
	 viewBox="0 0 870 145" style="enable-background:new 0 0 870 145;" xml:space="preserve">
<g>
	<path d="M250,110.3c-0.5-3.4,4-8.4-0.4-10.1c-3.7-1.4-12.4,4.7-16.1,5.6c-1.8,0.4-4.6,1.4-4.3-1.5c0.2-2.2,4.4-3.1,6.1-3.7
		c4.7-1.7,12.5-2.1,16.1-5.9c2-2.1,4.1-5.3,5.4-7.9c1.1-2.2,1.9-4.8,2.5-7.2c0.3-1.3,3.2-7.6,2.7-8.9c-1.1-3.3-4.9-0.2-6.8,1.3
		c-3.9,3-7.8,6.6-13.4,5.7c-2.1-0.3-2.9-2.3-4.6-2.7c-2.7-0.7-2.5,0.4-5.1,2c-2.7,1.7-9.4,4-12.2,1.6c-5.7-5,8.3-22.6-7-17.2
		c-3.9,1.4-6.4,4.9-8.8,8.1c-1.5,1.9-5.2,11.1-7.5,10.9c-5.3-0.5-0.2-7,0.6-9.1c2.7-6.7-1.7-9.1-8.2-8.7c-5.5,0.4-10.6,4.9-14.9,8
		c-3.5,2.6-6.6,8.7-11.1,9.5c-6.8,1.2-6.5-3.8-6.4-8.3c0.2-6.9-2.9-3.3-7.8-3.6c-6.1-0.3-5.4-3-9.7,2.2c-2.3,2.8-6,7.4-9.7,8.2
		c-12.3,2.8,1.2-16.8-5.5-17.4c-3.1-0.3-8.4,7.9-10.1,9.9c-3.1,3.6-7.1,8.1-11.8,9.5c-2.1,0.6-4.3,0.9-6-0.8
		c-1.3-1.3-0.6-4.9-2.5-5.6c-2.5-0.9-10.8,6.1-14,6.7c-1.6,0.3-6.3,1-7.8-0.4c-1.5-1.4-0.5-1.8-0.9-3.6c-0.4-1.6,0.6-3-1.4-4
		c-2.1-1.1-7.3,2.9-9.6,3.2c-4.2,0.6-6.4-2.9-10.6-2.2c-4.1,0.6-9.7,5.9-14,3.8c-3.5-1.7-3.3-7.6-6-10c-3.1-2.7-9.1,0.4-12.2,2.5
		c-4.8,3.2-7.7,9.4-12.4,12.4c-3,1.9-6,1.5-4.3-2.6c1.8-4.2,9.4-8.5,13-11.2c4.4-3.2,11.4-3.5,15-7.5c3.2-3.7,1.9-8.4,3-12.8
		c1.6-6.2,5.1-12.5,7.8-18.3c1.6-3.5,12.4-27.9,17.4-18.9c1.6,2.8,0.2,11.3-0.5,14.4c-0.9,4.1-3.1,8.7-4.8,12.6
		c-2,4.6-4.2,9.2-7.4,13.1c-3.3,4.1-8,8.1-9,13.6c-2.3,12.4,12.8,9.6,16.9,1.8c2.5-4.7,1.4-23.1,10-22c3.8,0.5,5.3,6.2,5.1,9.4
		c-0.3,4.3-5.1,7.9-7.6,11.4c-8.8,12.5,13.5,1.8,17.7-1.1c5.1-3.5,21.1-17.1,24.8-5c1.4,4.6-3.9,9.3-2.4,13.9
		c1.8,5.5,6.5,0.9,9.1-1.7c3.8-3.8,14.6-20.7,21.2-13.1c3.9,4.5-2.4,8.6-1.6,12.9c1,5.5,6.5-0.3,8.5-2.7c2.7-3.2,2.9-7.4,4.9-10.6
		c4.1-6.5,3.3,2.6,5.5,4.8c7.1,7.1,13.4-10.4,18.1-8.8c5.2,1.7-11.4,18.9-3.3,21.3c2.8,0.8,10-7.4,12.2-9.1c4.6-3.3,10.3-7,16.1-7.6
		c5-0.5,8.7,3.6,13,3.4c2.3-0.1,4.6-2.8,6.7-3.8c2.6-1.3,5.5-1.7,8.4-1.8c14.1-0.3-0.3,13.4,4.9,18.6c5.4,5.4,16.7-11.6,19.4-14.6
		c3-3.3,7.3-6.7,11.7-7.8c2.2-0.5,4.2-0.5,6.4,0.1c1,0.3,6.8,1.1,7.3,1.5c3,2.3-0.4,8.8-1,11.8c-1,5.4-2.5,10.6-4.1,15.8
		c-1.7,5.3-3.4,10.8-5.5,16C256,101.2,253.6,108.8,250,110.3C249.8,108.8,251.4,109.7,250,110.3z M52.8,24c-1.6-8.7-5.5,1.4-7.4,5.2
		c-3.1,6.1-6.6,12.3-8.2,19.1c-2,8.3,4.5,1.2,6.7-2.3C47.8,39.9,51.6,31,52.8,24C52.6,22.9,52.7,24.5,52.8,24z M79,77.3
		c5.5-1.3,10.4-4.8,14-9.2c2-2.4,5.8-7.1,0.7-7.8C90.6,60,82.3,66,80,68.1C78,69.9,72.5,77.1,79,77.3C79.8,77.1,76.4,77.2,79,77.3z
		 M254.2,58.5c-5.4,1.8-19.1,17.2-7.5,14.3C252.6,71.4,269.2,59.9,254.2,58.5C253.6,58.7,256.8,58.8,254.2,58.5z M63.3,53.8
		c-2.9-3.9-5.9,2.9-4.9,4.7C60.2,61.8,63,55.2,63.3,53.8C63,53.3,62.8,56.1,63.3,53.8z"/>
	<path d="M357.5,35.9c-1.8,4-5.6,7.2-7.1,11.1c-0.9,2.2-0.4,5.4-0.9,7.7c-0.3,1.3-2.1,4.8-1.9,6.2c1.3,9.5,12.2-5,13.8-8.6
		c1.4-3.3,1.5-7.5,6.3-7.6c3.7,0,5.9,3.7,6.1,7.1c0.2,3.6-5.1,11-2.8,14.2c2.5,3.4,7.7-1.1,9.7-2.8c4.3-3.4,5-6.7,7.9-10.9
		c2.3-3.3,3.5-3.3,4.1,0.6c0.5,3.2-3.3,10.2-0.1,13.1c3.5,3.2,7.6-3.2,9.6-5.6c5-6.1,9.5-13.7,15.5-19c9.9-8.8,12.4,9.7,9.5,10.4
		c-2.3-6.1-3.4-12.1-10.4-5.2c-3.3,3.3-9.2,10.2-10.5,14.5c2.2,0.4,3.9-0.2,6-0.2c2.4,0,5.1,1.6,7.4,1c2.6-0.7,5.7-7.4,7.5-7.2
		c0.6,3.9-0.4,5.1,3.3,5.9c3.2,0.7,8.3-1.8,10.9-3.6c6.5-4.5,7.5-13.9,9.2-21.1c1.5-6.4,3.5-12.7,6.5-18.6
		c1.7-3.4,11.3-22.2,14.6-9.1c1.3,5.2-3.1,18.1-5.6,22.5c-1.2,2.1-8.6,16.3-10.9,14.8c-1.9-1.3,7-11.3,7.8-12.9
		c1.1-2.3,7.7-21.7,3.9-22.7c-3.8-1-13,23.9-14.3,26.9c-0.9,2.2-4.4,7.6-3.3,9.9c1.4,3,4.7,0.1,3.3,4.5c-0.9,2.7-10.4,10.4-3.9,13
		c6.6,2.6,12.1-14,13.8-16.9c4.6-8,14.4-3.7,21.6-4.4c3.2-0.3,8-3.1,10.9-0.1c2.7,2.8-1.4,9.9-1.5,13.2c-0.2,9,6-0.2,9.3-3.5
		c2.2-2.2,4.6-5.3,7.6-6.3c4.2-1.5,7.4,1.6,11.7,0.9c3.4-0.5,8.7-1.6,11.6,1.3c2.8,2.7,0.4,6.7,2.5,9.2c2.7,3.2,8.7,1.1,11.1-1.4
		c2.6-2.7,1.5-7,3.6-10.3c1.7-2.6,5.8-6.6,9.3-5.8c3.2,0.8,4.2,6.9,0.9,8.4c-3,1.4-0.7-2.6-3.4-3.2c-2.9-0.6-8.1,7.4-0.9,6.7
		c-4.7,9.5,5.5,7.5,11.5,4.7c8-3.8,13.4-9.7,18-17.1c4.3-6.9,5.5-15.4,3.6-23.3c-1-4.2-3.3-7.5-6.7-10.2c-1.9-1.4-8.9-3.3-6.3-5.6
		c1.7-1.5,8,2.2,9.2,3.1c3,2.3,4.7,5.9,6,9.3c3.4,9,2.3,18.7-2.4,27c-3.7,6.4-9.9,13.2-16,17.4c-3.4,2.3-6.3,3.8-10.3,4.7
		c-5.9,1.3-6.5,0.4-11.7-1.4c-7.3-2.7-16.6,7.4-20-3.5c-1-3.1,1-5.7-3.4-6.5c-5.5-0.9-6.7,3.3-7.9,7c-1.1,3.3-4.8,8.7-7.1,3.3
		c-1.5-3.3,3.2-5.7,2.6-8.4c-2.1-9.1-16.1,8.6-17.9,10.5c-2.1,2.2-5.5,7.3-8.7,3.7c-2.4-2.6,1.1-6.6-0.3-9
		c-3.4-5.7-13.1,11.9-19,7.5c-6.4-4.7,4.7-11.9,6.3-15.2c1.8-3.8-1.4-4.5-5.1-3.8c-4.5,0.9-5.6,4.2-7.6,7.7
		c-2.1,3.7-12.4,17.9-17.9,15c-3.9-2,0.6-6.8-3.3-8.3c-1.9-0.7-12.7,3.4-15,4.2c-1.2,0.4-3,1.8-4.1,2c-3.8,0.8-0.8-0.1-3.6-1.4
		c-3.2-1.5-8.9-1.2-12.1,0.4c-2.5,1.3-7,5.8-2.1,7c3.8,1,10.2-3.4,14.1-3.6c-0.5,5.2-7.6,5.4-11.7,6c-4.3,0.7-4.3,0.3-7.7-1.3
		c-1.9-0.9-1.8-2.3-4.5-2.4c-1.6,0-3.5,2-5.1,1.1c-1.9-1.1-0.5-6.4-2-7.9c-3.4-3.6-9.2,4.2-13.1,5.3c-15.5,4.6-2.6-14-5.3-19.1
		c-3-5.5-8,5.8-9.3,8c-2.8,4.7-5.2,7.7-10.9,9.1c-2,0.5-4,0.1-5.9,1.1c-2.6,1.5-4.1,4.3-6.9,5.6c-3.6,1.6-9.8,2-12.1-1.7
		c-3.2-5.1,2-8,6.2-8.4c5.9-0.6,10.7,2,13.4-4.5c3.8-9.1-1.3-5-6-4.3c-4.7,0.7-8.3-2.7-5.3-7.6c3.2-5.2,10.3-2.6,14.8-4.3
		C350.3,43.1,355.5,34.5,357.5,35.9C356.9,37.3,357.4,35.8,357.5,35.9z M474.7,61.2c4.7-1.1,7.3-3.5,10.2-7.2
		c1.7-2.1,5.9-5.9,1.5-6.5C481.9,46.9,469,61.2,474.7,61.2C475.6,61,472.9,61.2,474.7,61.2z M337.8,54.3c2.7-0.9,10.4-8.5,3.3-9.1
		C337.9,45,332.3,54.3,337.8,54.3C338,54.3,336.1,54.3,337.8,54.3z M331.7,72.5c-0.2-0.7,11.1-2.1,2.4-3.9
		C328,67.2,326.1,72.6,331.7,72.5C331.7,72.6,330.5,72.5,331.7,72.5z"/>
	<path d="M357.7,34.3c0.9-8.9,1.6-27.5-11.7-25.8C333.9,10,324.3,19.7,317,28.8c-7.6,9.6-10.2,21.5-13.9,32.9
		c-1.1,3.2-3.8,12.9,2.7,12.5c5.2-0.3,10.6-11.1,12.6-15.1c2.2-4.5,5.8-10.4,4.9-15.4c-0.5-2.9-2.2-3.1-0.1-5.4
		c1.6-1.8,5.3-2.1,6.4,0.2c1.4,3-3.2,11.9-4.4,14.8c-2.6,6.2-6.1,11.7-9.4,17.5c-2.5,4.3-6.7,8.6-12.3,7.6
		c-6.4-1.2-5.6-9.7-4.9-14.6c0.8-5.6,3.8-10.7,5.2-16.2c1.7-6.6,4.3-12.4,8.1-18.1c7.9-11.7,20.3-22.8,34.6-25c7-1,11.3,4.5,13.4,11
		C360.7,17.8,361.2,35.8,357.7,34.3C357.8,33.7,357.9,34.4,357.7,34.3z"/>
	<path d="M644.1,44.5c0.2,5-1.2,7.7-3.7,11.8c-2,3.1-2.9,4.7,1.6,5.4c1.5,0.2,5.1-1.6,4.2,1.6c-0.8,2.8-6.5,2.6-8.7,2.1
		c-2.4-0.5-3.3-1.7-5.8-1.5c-1.9,0.1-3.6,1.6-5.6,1.7c-4.4,0.3-6.4-3.1-7.9-6.8c-0.9-2.4-2.4-6.9,0.5-8.1c2.4-1,7.3,3.9,9.2,4.9
		c7,3.4,11.6-2.2,12.5-8.9c0.2-1.9,0.9-6.6-1.7-7c-2.4-0.4-4.8,5.2-6.9,6c-2.9,1.2-4.2-0.2-4.3-3.2c-0.2-4.1,3.3-6.3,6.4-8.1
		C642.5,29.4,644.1,37.1,644.1,44.5C644.2,47,644.1,43.3,644.1,44.5z M621.3,58.1c0.1,2.3,4.5,5.2,5.7,2
		C627.7,58.3,621.2,54.9,621.3,58.1C621.4,60.2,621.3,57.1,621.3,58.1z"/>
	<path d="M831,96.8c3.8-15,17.7-26.4,21-41.7c0.9-4-0.3-4.4-3.3-7.1c-1-0.9-2-2.8-3.6-2.9c-1.8-0.1-2.2,2.2-3.7,2.4
		c-5.9,0.9-2.6-12.4,6.2-6c3.6,2.6,4.4,5.7,8.5,1.8c1.2-1.1,2.5-5.1,4.8-4c3.1,1.5-4.9,16.5-6,19.1c-3.5,8.1-8.1,15.4-12.1,23.3
		c-2.1,4.1-4.1,8.2-6.1,12.3C836.1,95.7,831,104.7,831,96.8C831.1,96.5,831,98.5,831,96.8z"/>
	<path d="M682.4,59.5c0.2-3.9-5.2-5.7-4.8-9.2c0.3-2,5-3.9,3.6-6.2c-2-3.4-7,5.7-11,3.3c-3.6-2.2-0.6-5.8,1.5-7.9
		c3.2-3.1,4.3-2.6,8.5-1.3c2.9,0.9,5.9,1.2,6.5,4.6c0.6,3.4-3.1,5.3-3,8.4c0.1,2.3,2.6,3.7,3.1,5.9c0.6,2.7-1.2,7.2-2.4,9.6
		c-2.7,5.7-9.7,6.9-13,0.9c-2.8-5.1-1.7-14.6,2.3-5.6c1.1,2.4,0.9,5.6,4.6,5C681.2,66.6,682.5,61.8,682.4,59.5
		C682.5,57.7,682.5,62.3,682.4,59.5z"/>
	<path d="M249.4,111.9c-1.1,6.8-3.8,12.2-7.2,18.1c-2.8,5-5.7,14.7-13.1,14.7c-9.4,0-9.5-32.2-2.3-35.3c2,4.8-1.4,12.5-1.7,17.6
		c-0.1,3,0.1,15.4,5.6,14.8c4.4-0.5,7.8-11.7,9.4-15.1C241.2,124.8,247.7,111.4,249.4,111.9C249.1,113.9,249.2,111.9,249.4,111.9z"
		/>
	<path d="M752.3,46.9c-1,6.5-3.2,13.1-6.6,18.7c-2.3,3.9-6.7,6.5-4.1-0.1c2.4-6.1,7-11.1,6.9-17.5c0-1.7-2.2-2.8,0.6-3.7
		C750.7,43.7,753.6,46.2,752.3,46.9C752.2,47.7,752.4,46.9,752.3,46.9z"/>
	<path d="M722.2,31.8c-0.6,7.6-1.3,15.1-3.1,22.5c-0.2,1-0.9,5.7-2.4,3c-1.1-1.9,1.5-7.2,1.8-9.3c0.4-2.5,0.6-5.3,0.6-7.8
		c0-3.9-2.5-7.4-1.5-11.2C720.2,19.7,722.8,31.8,722.2,31.8C721.9,36,722.3,31.8,722.2,31.8z"/>
	<path d="M695.5,119.3c1.9-5.7,4.4-19.3,9.7-22.6c1.5,4.1-2.2,11.4-3.5,15.4C700.9,114.7,699.2,124.4,695.5,119.3
		C696.1,117.3,695.9,119.9,695.5,119.3z"/>
	<path d="M761.6,108.2c1.6-4.6,5.6-14.9,10-17.3c1.6,4-2.8,10.5-4.5,14.2C766.2,107,762,114.8,761.6,108.2
		C761.8,107.6,761.7,109.5,761.6,108.2z"/>
	<path d="M819.2,54.8c-0.8,2.7-7.4,19.9-8.3,10.6c-0.3-2.6,3.1-8.7,4.7-10.7C819.4,49.9,817.1,54.1,819.2,54.8
		C818.8,56.2,819.2,54.8,819.2,54.8z"/>
	<path d="M398.9,39.5c-0.8,3-4.2,6.2-4.6,1C393.9,36.5,397.4,35.7,398.9,39.5C398.6,40.6,398.6,38.8,398.9,39.5z"/>
	<path d="M864.7,63.6c0.8-4,6.8-3.7,4.9,0.2C868.1,67,866.3,65.8,864.7,63.6C865,62.2,865.2,64.3,864.7,63.6z"/>
	<path d="M175.2,38.3c-2.8-0.1-3.9-4.7-0.6-4.5C177.2,34,178.5,38.5,175.2,38.3C173.7,38.3,176.3,38.4,175.2,38.3z"/>
	<path d="M717.5,68.2c0,2.2-4,4.6-4.2,1.3C713.3,66.7,716.4,65.1,717.5,68.2C717.5,69.8,717.4,67.9,717.5,68.2z"/>
	<path d="M788.2,22.4c0.4-6.9,5.4,3.9,1.3,3.5C788.4,25.1,788,23.9,788.2,22.4C788.3,21,788.4,23.3,788.2,22.4z"/>
	<path d="M788.1,41.9c0-1.7-0.4-3.1,0.8-4.4C789.2,38.3,789.3,41.9,788.1,41.9C788.1,40.7,788.2,41.9,788.1,41.9z"/>
	<path d="M782.1,68.1c-0.5,0.6-1,1.2-1.6,1.7C779.5,68.1,780.5,66.6,782.1,68.1C781.5,68.8,781.6,67.6,782.1,68.1z"/>
</g>
</svg>
