<?xml version="1.0" encoding="utf-8"?>
<!-- Generator: Adobe Illustrator 18.1.0, SVG Export Plug-In . SVG Version: 6.00 Build 0)  -->
<!DOCTYPE svg PUBLIC "-//W3C//DTD SVG 1.1//EN" "http://www.w3.org/Graphics/SVG/1.1/DTD/svg11.dtd">
<svg version="1.1" id="Layer_1" xmlns="http://www.w3.org/2000/svg" xmlns:xlink="http://www.w3.org/1999/xlink" x="0px" y="0px"
	 viewBox="0 0 964.9 109.5" style="enable-background:new 0 0 964.9 109.5;" xml:space="preserve">
<g>
	<path d="M403.4,27.5c-3.7,9.7-8,18.1-10.2,28.5c-3,14.5,7,18,18.1,10.3c4.3-2.9,7.8-11.2,11.5-13.3c4.4-2.5,4.6-0.2,3.4,4.3
		c-2.3,8.6-16.7,17.5-24.8,17c-3.9-0.2-9-1.7-11.4-4.8c-2.9-3.7-0.2-7.6-5.1-7.8c-6.6-0.3-17.2,22.9-27.3,15.8
		c-4.3-3,0.7-8.5-1.3-10.4c-2.3-2.3-6,2.2-8.2,3.4c-2.5,1.3-4.2,2.4-7,2.4c-3.9,0-4.5-2.4-7.6-2.9c-4.3-0.6-12.1,3.5-16.2,1.3
		c-7.5-4.2,2.8-18.9-7.9-8.9c-4,3.7-5.6,7.8-12,7.6c-2.8-0.1-4.4-2.2-7.1-2.6c-3.4-0.5-6.2,1.7-9.3,2.6c-4.8,1.4-8.7,2-12.8-1
		c-3.5-2.6-7.2-9.2-12.7-8.7c-4.9,0.4-3.2,5.3-7.5,6.3c-3.9,0.9-2.5-3.1-5.8-3c-6.3,0.2-13.8,22.2-22.7,10
		c-2.7-3.7,8.7-28.7-5.1-15.6c-1.8,1.7-10.9,26.5-12.7,13.4c-0.5-3.9,6.5-9.1,4.2-13.1c-3.3-5.9-8.9-0.9-11.6,2.7
		c-3.5,4.8-12.6,24.6-17.5,10.1c-1.1-3.3,1.6-5-2.2-6.5c-1.5-0.6-5.2,2.7-7.1,3.1c-3.1,0.6-6-0.8-8.7-0.1c-4.6,1.2-5.8,6.1-11.4,4.8
		c-5.7-1.3-4.3-5.5-6.8-9.2c-1.6-2.4-5.3-6.9-9.7-4.3c-3.5,2-2.9,9.9-6.2,12.9c-4.2,3.8-8.8,4.1-11.9-1.2c-3-5.1,1.9-11.6-0.6-15.6
		c-2.5-4.1-6.2-3.1-8.2,0.1c-3.4,5.2,0.6,10.1-5.5,15.1c-3.8,3.2-9.6,6.2-14,2.5c-4-3.4-0.5-9.4-2-13.5C77.9,47.3,67.7,65.4,65,70.2
		c-7.1,12.2-3.6-5.9,0.3-10.3c6.1-6.9,18.1-15.1,20.6-2.5c0.5,2.7-0.9,11.1,1.6,12.9c3.3,2.5,8.8-1.8,10.9-4.5
		c5.2-6.3-1.1-9.2,1.6-14.8c2.7-5.5,10.6-1,14.6-0.8c4.4,0.2,8.5-1.9,12.5-0.5c3.8,1.4,6.4,8.2,11.8,5.1c8.7-5,6.2-21.9,10.5-29.7
		c1.9-3.4,7.9-13,12.3-12.5c7.2,0.7,3.8,10.2,2.3,14.8c-1.6,4.8-3.2,10.8-6.4,14.8c-4.1,5.2-10.1,6.5-12.7,13.2
		c-1.8,4.8-2.1,13.8,4.9,14c7.7,0.2,9-11.5,12.9-15.5c9.8-10-4.8,13,8.1,8.3c6.4-2.3,14-20,11.4-2.9c-1.4,9.1-1.8,17.7,6.4,5.6
		c3.5-5.1,5.3-11.6,12.4-12.3c4.3-0.4,6.9,2,10.9,1.9c3.8-0.2,8.9-6.3,12.9-1.8c3.8,4.3-1.8,8.9-2.2,13.1c-1.4,16,16.1-2.7,19.7-7.4
		c2.5-3.3,16-33.3,17.5-33.1c6.6,1.1-12.8,31.2,1.9,34.5c8.3,1.8,8-9.3,14.2-13.1c3.4-2.1,4.2-3.3,7.8-0.9c1.8,1.2,3,8.3,5.1,8.4
		c2.1,0.1,13.3-18.8,16.8-6.2c1.6,5.8-7.5,9-9,13.4c-3.2,9.3,5.9,3,9.9-0.6c2.4-2.2,11.4-14.8,15.9-11.5c3.3,2.5-7.8,13.5-4.9,17.2
		c3.8,4.8,13.1-1.3,15.1-4.4c2.6-4.2,2.6-16.5,9.4-18c8.5-1.8,4.5,10.4,3.8,10.2c-3.5-0.7-2.1-9.7-6.3-0.4c-2.2,4.8-1.3,5,3.1,5.6
		c-0.6,3.1-11.6,11.4-0.3,10.1c3.7-0.4,6.8-5.2,10-7c4.6-2.5,8.8-3.9,13.2-7c4.1-3,7.8-6.4,13.1-7c4.3-0.5,7.1,1.8,10.5-0.7
		C390.7,47,400,24.1,403.4,27.5C403.2,27.9,403.3,27.4,403.4,27.5z M380,55c-0.7-4.8-31.2,18.6-16.7,19.3
		C369.3,74.7,388.4,55,380,55C380,55,380.2,55,380,55z M149,41.2c2.7,6.3,18.7-19.4,13.2-22.4C155.8,15.2,149.7,37,149,41.2
		C149.1,41.6,149.1,40.1,149,41.2z M126.1,60.9c-1.7-8.7-10.1-5.5-11,2.2C113.7,76,125.7,70.2,126.1,60.9
		C125.9,60,126,64.2,126.1,60.9z M274.8,60.9c3.7-0.8,15.9-9.5,6.3-12.4C277.7,47.4,267.4,60.8,274.8,60.9
		C275.6,60.7,272.2,60.8,274.8,60.9z M289.6,61.1c-1.1-5.3-2.5-2.8-6.5-1c-1.2,0.6-10.9,4.2-11.1,4.7C270,71,287.4,65.9,289.6,61.1
		C289.4,60,289.3,61.8,289.6,61.1z M293.7,57.2c3,4.9,9.2-4.3,8.3-6.6C299.4,43.7,294.4,54.4,293.7,57.2
		C294,57.7,294.5,53.9,293.7,57.2z"/>
	<path d="M567.6,55.2c0.2-3-2.4-5.1-1.8-7.9c0.7-3.2,4.4-6.2,6.1-9.1c2.9-5.1,1.3-13.1,4.3-17.3c5.2-7.4,7,2.7,6.7,7.5
		c-0.5,7.5-7.3,15.1,3.5,16c19.2,1.6,18.1-19.9,23-33c1.9-5.1,6.7-16.8,11.8-7.8c2.5,4.4-0.1,11.6-1.8,15.7c-2,5-3.5,10.3-6.3,14.8
		c-2.3,3.6-10.3,8.6-10.7,12.4c-0.7,5.5,5.9,7,10.6,8c11.1,2.2,5.5-4.1,11.5-9.7c3.6-3.4,12.4-4.1,14,1.9c1.9,6.9-7.6,7.1-9.6,11.1
		c-5.7,11.2,26.6,2.9,27.9,4.9c2.8,4.2-26.8,3.9-29.8,2.4c-4.7-2.4-6.8-5.2-12.5-6.7c-5.6-1.5-11.1-3.4-16.1-2.5
		c-3.9,0.7-3.7,6.1-4.9-1.5c-0.3-1.7,3.2-3.6,2.4-5.4c-1.3-2.8-4.2-1-6.6-1.3c-7.8-0.8-9.9-0.4-13.7,5.5
		C573.4,56.7,567.6,65.5,567.6,55.2C567.7,53.1,567.6,56.1,567.6,55.2z M617.2,11.5c-1.5,0.7,0-4.1-3.7,2.3
		c-0.9,1.6-6.8,17.9-4.7,19C614.2,35.6,617,13.5,617.2,11.5C617.3,11.4,617,13.5,617.2,11.5z M625.8,51.5c-0.1,5.5,9-0.1,8.8-3.6
		C634.1,41.8,625.9,47.3,625.8,51.5C625.7,53.6,625.8,48.2,625.8,51.5z"/>
	<path d="M7.6,71.1c8.8,1.5,15.4-2,20.6-8.7c4.7-6.1,5-8.9,3.7-15.5c-1.5-7.8-2.7-15,0-22.7C33.1,20.5,38.3,6.4,43,7.5
		c5.1,1.2,3.9,14.1,3.5,17.5c-0.5,4.4-6.7,20.7-5,24.3c3,6.2,12.7,1.3,15.7-2c1.3-1.5,8.7-17.9,10.5-17.3c4.6,1.6-9.2,20.8-11,22.4
		c-4.4,3.7-6.9,2.9-11.9,3.1c-6.9,0.2-6.3,1.1-10.7,7.3c-6.6,9.2-11.8,14-23.6,13C2.2,75.1-4.9,71.1,7.6,71.1
		C11.5,71.8,5.6,71.1,7.6,71.1z M41.5,27.8c0.4-2,0-3.6-1.4-4.7c-4.7-1-7,17.4-3.1,18.1C39.2,41.7,41,29.7,41.5,27.8
		C41.3,26.3,41,29.6,41.5,27.8z"/>
	<path d="M445.5,61.6c0.4-7.6,10.6-14.1,17.1-16.6c9-3.5,12.8,4.9,21.1,3.7c8.4-1.2,12.4-9.3,16.7,3.3c1,2.8,0,6.8,2.7,8.9
		c1.9,1.4,7.5-0.6,8.2,1.3c1.3,3.7-11.6,2.1-13.8-1.9c-1.5-2.8,0.4-10-3.2-11.5c-7.5-3.3-9.7,25.9-14.3,10
		c-0.9-3.1-1.4-11.6-8.4-8.4c-3.4,1.5-1.1,10.1-4.2,13.5c-2.9,3.2-11.5,6.6-15,3.3C448.2,63.2,454.5,56.1,445.5,61.6
		C445.7,58.1,446.6,60.9,445.5,61.6z M466.2,55.4c-0.9-9.8-10.9-0.8-10.1,4.9C457.3,69.2,466.3,61.6,466.2,55.4
		C466.2,54.7,466.3,59.1,466.2,55.4z"/>
	<path d="M718,25.6c16.4,2.9,9.5,14.5,1.9,24c-3.2,4-7,6.1-1.4,9.3c5.1,3,7.6-1.5,10.3-3.9c1-0.9,2.5-7.6,3.7-0.3
		c1,5.6-5.4,9-9.8,9.2c-3.8,0.1-6.3-2.4-9.6-3.2c-2.4-0.6-5.1-0.2-7.3-0.8c-3.1-0.8-9.7-2.9-10.5-7c-1.1-6.1,5-3.6,8.3-2.5
		c5.2,1.8,6.9,3.1,11.8,0.4c7.1-4,17.4-21.3,2.4-21.7c-9.5-0.3-4.5,6.4-7,12.2c-2.4,5.5-7.9,7-11.1,1.4
		C691.4,28.3,717.6,29.4,718,25.6C720.2,26,718,25.7,718,25.6z M707.1,36.5c-0.2-3.6-2.7-3.4-4.5-0.7
		C699.2,41.1,707.1,44,707.1,36.5C707.1,36.2,707.1,38.2,707.1,36.5z"/>
	<path d="M826.8,89.1c2-8.1,6.5-15.8,9.8-23.4c0.9-2,3-4.9,2.5-7.1c-0.6-2.5-3.9,0.3-4.7-1.4c-0.6-1.5,4.4-4.4,4.8-5
		c1.3-2.4,1.6-5,1.4-7.7c-0.6-8.2-4.7-5.9-9.7-1.8c-2.7,2.2-9.2,6.7-10.2,10.1c-2.2,6.9,2.2,3.6,6.3,5.7c-2.6,3.1-9.8,3-10.8-1.6
		c-0.7-3.3,4.6-7.3,6.1-9.5c3-4.3,6.1-8,10.9-10.5c2-1,3.6-3.1,6.2-2.3c3.2,1,1.9,4.7,3.8,6c3.5,2.2,5.2-0.9,6.4,4.2
		c1.3,5.4-4.6,14.9-6.6,19.5c-3.3,7.4-6.6,15.2-10.4,22.3C831.6,88.5,827.2,96.8,826.8,89.1C827,88.3,826.9,90.8,826.8,89.1z"/>
	<path d="M932,53.8c-0.7-9.7,3.8-20.2,7.7-28.8c1-2.2,3.3-11.2,5.6-11c4.1,0.3-0.6,7.9-1.4,10.1c-3.4,8.6-7.8,20-7.1,29.4
		c0.3,4.7-0.5,5.6,4.8,6.9c4.6,1.1,13.2-3.1,15.8-7c6.9-10.2-6.1,3-8.8-0.8c-3.4-4.9,9.4-12,13.7-9.1
		C976.4,53.4,930.3,80.5,932,53.8C931.7,49.8,931.9,54.8,932,53.8z"/>
	<path d="M767.8,27.3c7.3,0.4,7.3,5.6,5.8,10.7c-1.4,4.9-2.7,0.5-2.3,5.7c0.2,1.8,3,3.7,3.2,6.2c0.3,4.9-4.8,12-9.9,11.7
		c-2.1-0.1-12.8-6.9-10.7-10.2c2.9-4.7,7.9,5.1,10.2,5.2c6,0.4,6.9-6.7,4-9.8c-3.6-3.9-10.5-2.6-12.1-9.7
		C754.2,29.7,761.8,28.1,767.8,27.3C770.9,27.5,766.7,27.5,767.8,27.3z M765,37.4c2.8,0,8-5,2.8-5.6C765.1,31.5,761.7,37.5,765,37.4
		z"/>
	<path d="M771.9,94.5c2.9-7.5,6.5-12.3,10.9-18.8c4.2-6.3,6.5-15.5,12.3-20.4c1.3,7.1-8.7,21.9-11.9,28.1
		C782.7,84.6,772,104.2,771.9,94.5C772.1,94.1,772,96.1,771.9,94.5z"/>
	<path d="M917.6,40.3c-1.1,5.6-2.3,17.6-6.1,21.8c-5.3,5.8-6.3,1.5-4.3-4.6c1.4-4.3,3.3-14.4,6.2-17.5
		C915,38.2,917.1,35.2,917.6,40.3C916.8,44.2,917.5,39.7,917.6,40.3z"/>
	<path d="M678.1,33.9c-0.7,6.7-5.5,26.1-14.9,25.3c0.7-7.4,8.5-14.1,9.9-21.9c0.3-1.7-0.6-6.7,1-7.8C677,27.6,678.8,33.6,678.1,33.9
		C678.1,34.3,678.2,33.8,678.1,33.9z"/>
	<path d="M913.3,19.7c0.2,3.8-3.9,9.7-7.5,11c-8.7,3.2-0.9-4.1-0.4-6.8c0.8-3.8-2.8-6.4,0.2-10.2C909.9,8.1,913.2,14.5,913.3,19.7
		C913.4,22.4,913.2,16.7,913.3,19.7z"/>
	<path d="M534.6,45.6c-0.5,4.2-17.2,20.7-19.7,15c-0.3-0.7,15.6-11.3,15.3-17.1c-0.1-1.7-4.2-6.7-0.4-7.3
		C533.7,35.8,534.6,43.3,534.6,45.6C534.2,48.8,534.6,41.7,534.6,45.6z"/>
	<path d="M856.2,106.3c0.7-2.2,7-20.3,11.1-19.6C871.7,87.5,856.2,116.9,856.2,106.3C856.3,106,856.2,108,856.2,106.3z"/>
	<path d="M885.7,35.4c0-1.6,0.7-2.4,2.1-2.6c1,3.8-3.5,15.8-6.4,18.5C878.4,45.2,886.8,41,885.7,35.4
		C885.9,35,886.1,37.6,885.7,35.4z"/>
	<path d="M877.4,64.3c-0.5,1.4-4.8,15.3-6.3,14.6C869.6,78.3,875,59.6,877.4,64.3C876.7,66.5,877.1,63.9,877.4,64.3z"/>
	<path d="M891.1,23.6c0,1.8-0.7,3.1-1.9,4.1c-2.7,0.3-3.5-6-0.5-6.1C890.5,21.6,890.2,23.3,891.1,23.6
		C890.7,24.8,891.1,23.6,891.1,23.6z"/>
	<path d="M799.6,46.7c0-3.3,1.2-8.4,4.3-10.2C804.5,38.3,801.5,47.2,799.6,46.7C799.6,46.3,799.7,46.7,799.6,46.7z"/>
</g>
</svg>
