<?xml version="1.0" encoding="utf-8"?>
<!-- Generator: Adobe Illustrator 18.1.1, SVG Export Plug-In . SVG Version: 6.00 Build 0)  -->
<!DOCTYPE svg PUBLIC "-//W3C//DTD SVG 1.1//EN" "http://www.w3.org/Graphics/SVG/1.1/DTD/svg11.dtd">
<svg version="1.1" id="Layer_1" xmlns="http://www.w3.org/2000/svg" xmlns:xlink="http://www.w3.org/1999/xlink" x="0px" y="0px"
	 viewBox="0 54 21 21" enable-background="new 0 54 21 21" xml:space="preserve">
<path id="facebook-circle-icon" fill="#231F20" d="M10.5,54C4.7,54,0,58.7,0,64.5S4.7,75,10.5,75S21,70.3,21,64.5S16.3,54,10.5,54z
	 M13.6,60.2c0,0-1,0-1.4,0c-0.5,0-0.6,0.3-0.6,0.8c0,0.4,0,1.3,0,1.3h2.1l-0.3,2.3h-1.9v6.8H8.8v-6.8H7.4v-2.3h1.4c0,0,0-0.3,0-1.8
	c0-1.7,0.9-2.6,2.9-2.6c0.3,0,1.8,0,1.8,0L13.6,60.2L13.6,60.2z"/>
</svg>
