<?xml version="1.0" encoding="utf-8"?>
<!-- Generator: Adobe Illustrator 18.1.1, SVG Export Plug-In . SVG Version: 6.00 Build 0)  -->
<!DOCTYPE svg PUBLIC "-//W3C//DTD SVG 1.1//EN" "http://www.w3.org/Graphics/SVG/1.1/DTD/svg11.dtd">
<svg version="1.1" id="Layer_1" xmlns="http://www.w3.org/2000/svg" xmlns:xlink="http://www.w3.org/1999/xlink" x="0px" y="0px"
	 viewBox="0 54 21 21" enable-background="new 0 54 21 21" xml:space="preserve">
<path id="twitter-4-icon" fill="#FFFFFF" d="M10.5,54C4.7,54,0,58.7,0,64.5S4.7,75,10.5,75S21,70.3,21,64.5S16.3,54,10.5,54z
	 M15.8,62.7c0.2,3.4-2.4,7.2-6.9,7.2c-1.3,0-2.7-0.4-3.7-1.1c1.3,0.2,2.6-0.2,3.6-1c-1.1,0-1.9-0.8-2.3-1.7c0.4,0.1,0.8,0.1,1.1,0
	c-1.2-0.3-2-1.3-1.9-2.4C6,63.8,6.4,63.9,6.8,64c-1.2-0.8-1.5-2.2-0.8-3.3c1.2,1.5,3,2.4,5,2.5c-0.3-1.5,0.8-3,2.4-3
	c0.7,0,1.3,0.3,1.8,0.8c0.6-0.1,1.1-0.3,1.5-0.6c-0.2,0.6-0.6,1-1.1,1.3c0.5-0.1,0.9-0.2,1.4-0.4C16.6,61.9,16.3,62.3,15.8,62.7z"/>
</svg>
