<?xml version="1.0" encoding="utf-8"?>
<!-- Generator: Adobe Illustrator 18.1.1, SVG Export Plug-In . SVG Version: 6.00 Build 0)  -->
<!DOCTYPE svg PUBLIC "-//W3C//DTD SVG 1.1//EN" "http://www.w3.org/Graphics/SVG/1.1/DTD/svg11.dtd">
<svg version="1.1" id="Layer_1" xmlns="http://www.w3.org/2000/svg" xmlns:xlink="http://www.w3.org/1999/xlink" x="0px" y="0px"
	 viewBox="0 0 252 360" enable-background="new 0 0 252 360" xml:space="preserve">
<path fill="#FFFFFF" d="M14.2,202.6v0.3c0,0.9,0.3,1.4,1.2,1.4c0.6,0,1.1-0.3,1.1-1.1c0-0.8-0.4-1.1-1.6-1.5
	c-1.6-0.6-2.3-1.2-2.3-2.7c0-1.7,1.1-2.6,2.8-2.6c1.6,0,2.8,0.7,2.8,2.4v0.3h-1.7c0-0.9-0.3-1.3-1-1.3c-0.8,0-1,0.5-1,1.1
	c0,0.6,0.2,0.9,0.9,1.2l1.4,0.6c1.4,0.6,1.7,1.3,1.7,2.4c0,1.9-1.2,2.8-3.1,2.8c-2,0-2.9-0.9-2.9-2.6v-0.4L14.2,202.6L14.2,202.6z"
	/>
<path fill="#FFFFFF" d="M19.8,196.7h1.7v2h1v1.2h-1v3.7c0,0.5,0.1,0.7,0.6,0.7c0.1,0,0.3,0,0.4,0v1.2c-0.4,0-0.7,0.1-1.2,0.1
	c-1.4,0-1.6-0.4-1.6-1.8v-3.9h-0.9v-1.2h0.9V196.7z"/>
<path fill="#FFFFFF" d="M23.4,200.7v-0.2c0-1.6,1.1-2.1,2.4-2.1c2.1,0,2.5,0.9,2.5,2.1v3.6c0,0.6,0,0.9,0.2,1.3h-1.7
	c-0.1-0.2-0.2-0.5-0.2-0.7h0c-0.4,0.7-0.9,0.9-1.7,0.9c-1.2,0-1.6-1-1.6-2c0-1.3,0.5-1.8,1.7-2.1l1-0.3c0.5-0.1,0.7-0.3,0.7-0.8
	c0-0.5-0.2-0.9-0.8-0.9c-0.5,0-0.8,0.3-0.8,0.9v0.2L23.4,200.7L23.4,200.7z M26.5,202c-0.3,0.2-0.5,0.3-0.7,0.3
	c-0.7,0.2-1,0.5-1,1.1c0,0.5,0.2,0.9,0.6,0.9s1.1-0.3,1.1-1.1V202z"/>
<path fill="#FFFFFF" d="M29.9,196.7h1.7v2h1v1.2h-1v3.7c0,0.5,0.1,0.7,0.6,0.7c0.1,0,0.3,0,0.4,0v1.2c-0.4,0-0.7,0.1-1.2,0.1
	c-1.4,0-1.6-0.4-1.6-1.8v-3.9H29v-1.2h0.9L29.9,196.7L29.9,196.7z"/>
<path fill="#FFFFFF" d="M34.9,202.3v0.6c0,0.8,0.2,1.6,0.9,1.6c0.6,0,0.8-0.4,0.9-1.3h1.6c-0.1,1.6-0.8,2.5-2.5,2.5
	c-2.5,0-2.6-2-2.6-3.6c0-1.8,0.3-3.5,2.7-3.5c2,0,2.5,1.4,2.5,3.5v0.4L34.9,202.3L34.9,202.3z M36.7,201.2c0-1-0.2-1.6-0.9-1.6
	c-0.7,0-0.9,0.7-0.9,1.4v0.3H36.7z"/>
<polygon fill="#FFFFFF" points="41.4,205.4 41.4,196.4 43.2,196.4 43.2,203.9 46.4,203.9 46.4,205.4 "/>
<path fill="#FFFFFF" d="M47.3,196.3H49v1.5h-1.7V196.3z M47.3,198.6H49v6.8h-1.7V198.6z"/>
<path fill="#FFFFFF" d="M50.3,196.4h1.7v2.9h0c0.4-0.6,0.8-0.8,1.4-0.8c1.4,0,2.1,1.1,2.1,3.6c0,2.5-0.6,3.6-2.1,3.6
	c-0.7,0-1.2-0.3-1.5-0.9h0v0.7h-1.7V196.4z M53,204.2c0.8,0,0.9-0.8,0.9-2.2c0-1.5-0.2-2.2-0.9-2.2c-0.8,0-0.9,0.8-0.9,2.2
	C52.1,203.5,52.2,204.2,53,204.2"/>
<path fill="#FFFFFF" d="M56.8,198.6h1.7v0.9h0c0.3-0.6,0.9-1.1,1.6-1.1c0.1,0,0.2,0,0.3,0v1.7c-0.2,0-0.4,0-0.6,0
	c-0.6,0-1.3,0.3-1.3,1.2v4.1h-1.7C56.8,205.4,56.8,198.6,56.8,198.6z"/>
<path fill="#FFFFFF" d="M61,200.7v-0.2c0-1.6,1.1-2.1,2.4-2.1c2.1,0,2.5,0.9,2.5,2.1v3.6c0,0.6,0,0.9,0.2,1.3h-1.7
	c-0.1-0.2-0.2-0.5-0.2-0.7h0c-0.4,0.7-0.9,0.9-1.7,0.9c-1.2,0-1.7-1-1.7-2c0-1.3,0.5-1.8,1.7-2.1l1-0.3c0.5-0.1,0.7-0.3,0.7-0.8
	c0-0.5-0.2-0.9-0.8-0.9c-0.5,0-0.8,0.3-0.8,0.9v0.2L61,200.7L61,200.7z M64.2,202c-0.3,0.2-0.5,0.3-0.7,0.3c-0.7,0.2-1,0.5-1,1.1
	c0,0.5,0.2,0.9,0.6,0.9c0.5,0,1.1-0.3,1.1-1.1V202z"/>
<path fill="#FFFFFF" d="M67.2,198.6h1.7v0.9h0c0.3-0.6,0.9-1.1,1.6-1.1c0.1,0,0.2,0,0.3,0v1.7c-0.2,0-0.4,0-0.6,0
	c-0.6,0-1.3,0.3-1.3,1.2v4.1h-1.7C67.2,205.4,67.2,198.6,67.2,198.6z"/>
<path fill="#FFFFFF" d="M71.8,206.3c0.2,0,0.3,0,0.5,0c0.6,0,0.9-0.3,0.9-1l-1.9-6.8h1.8l1,4.7h0l0.9-4.7h1.7l-1.7,6.3
	c-0.6,2.3-1,2.7-2.6,2.7h-0.7L71.8,206.3L71.8,206.3z"/>
<path fill="#FFFFFF" d="M15,211.3c2.1,0,2.7,1.2,2.7,3.6c0,2.3-0.7,3.6-2.7,3.6c-2.1,0-2.7-1.2-2.7-3.6
	C12.4,212.6,13.1,211.3,15,211.3 M15,217.3c0.7,0,0.9-0.7,0.9-2.4c0-1.7-0.2-2.4-0.9-2.4c-0.9,0-0.9,1-0.9,2.4S14.2,217.3,15,217.3"
	/>
<path fill="#FFFFFF" d="M19.2,212.7h-0.9v-1.2h0.9v-0.8c0-1.2,0.7-1.6,1.8-1.6c0.3,0,0.6,0,0.9,0v1.2c-0.1,0-0.2,0-0.3,0
	c-0.5,0-0.7,0.2-0.7,0.6v0.6h1v1.2h-1v5.6h-1.7C19.2,218.3,19.2,212.7,19.2,212.7z"/>
<path fill="#FFFFFF" d="M30.3,219.4l-1.1-1.1c-0.2,0-0.3,0.1-0.6,0.1c-0.2,0-0.4,0-0.6,0c-2.7,0-3.1-2-3.1-4.7
	c0-2.7,0.3-4.7,3.1-4.7s3.1,2,3.1,4.7c0,1.5-0.1,2.8-0.7,3.7l1,1L30.3,219.4z M28,217.2c1.1,0,1.2-0.9,1.2-3.3
	c0-2.4-0.2-3.3-1.2-3.3c-1.1,0-1.2,0.9-1.2,3.3C26.7,216.2,26.9,217.2,28,217.2"/>
<path fill="#FFFFFF" d="M35.7,217.5L35.7,217.5c-0.4,0.7-1,1-1.7,1c-1.1,0-1.7-0.6-1.7-1.9v-5H34v4.7c0,0.7,0.2,0.9,0.7,0.9
	c0.6,0,0.9-0.4,0.9-1.1v-4.5h1.7v6.8h-1.7C35.7,218.3,35.7,217.5,35.7,217.5z"/>
<path fill="#FFFFFF" d="M40.2,215.2v0.6c0,0.8,0.2,1.6,0.9,1.6c0.6,0,0.8-0.4,0.9-1.3h1.6c0,1.6-0.8,2.5-2.5,2.5
	c-2.5,0-2.6-2-2.6-3.6c0-1.8,0.3-3.5,2.7-3.5c2,0,2.5,1.4,2.5,3.5v0.4L40.2,215.2L40.2,215.2z M42,214.2c0-1-0.2-1.6-0.9-1.6
	c-0.7,0-0.9,0.7-0.9,1.4v0.3H42z"/>
<path fill="#FFFFFF" d="M46.3,215.2v0.6c0,0.8,0.2,1.6,0.9,1.6c0.6,0,0.8-0.4,0.9-1.3h1.6c0,1.6-0.8,2.5-2.5,2.5
	c-2.5,0-2.6-2-2.6-3.6c0-1.8,0.3-3.5,2.7-3.5c2,0,2.5,1.4,2.5,3.5v0.4L46.3,215.2L46.3,215.2z M48.1,214.2c0-1-0.2-1.6-0.9-1.6
	c-0.7,0-0.9,0.7-0.9,1.4v0.3H48.1z"/>
<path fill="#FFFFFF" d="M50.8,211.6h1.7v0.8h0c0.4-0.7,1-1,1.7-1c1.1,0,1.7,0.6,1.7,1.9v5h-1.7v-4.7c0-0.7-0.2-0.9-0.7-0.9
	c-0.6,0-0.9,0.4-0.9,1.1v4.5h-1.7L50.8,211.6L50.8,211.6z"/>
<path fill="#FFFFFF" d="M58.6,216.1v0.2c0,0.6,0.3,1,0.9,1c0.5,0,0.9-0.3,0.9-0.8c0-0.4-0.3-0.6-0.6-0.8l-1.2-0.4
	c-1-0.3-1.4-0.9-1.4-1.9c0-1.1,0.7-2,2.5-2c1.6,0,2.3,0.7,2.3,1.9v0.3h-1.6c0-0.7-0.2-1-0.8-1c-0.4,0-0.8,0.3-0.8,0.7
	c0,0.3,0.2,0.6,0.8,0.8l1.1,0.3c1.1,0.4,1.5,0.9,1.5,2c0,1.4-1.1,2.1-2.5,2.1c-2,0-2.5-0.9-2.5-2.2v-0.3H58.6z"/>
<rect x="63.1" y="209.3" fill="#FFFFFF" width="1.7" height="9"/>
<path fill="#FFFFFF" d="M66.1,213.6v-0.2c0-1.6,1.1-2.1,2.4-2.1c2.1,0,2.5,0.9,2.5,2.1v3.6c0,0.6,0,0.9,0.2,1.3h-1.7
	c-0.1-0.2-0.2-0.5-0.2-0.7h0c-0.4,0.7-0.9,0.9-1.7,0.9c-1.2,0-1.7-1-1.7-2c0-1.3,0.5-1.8,1.7-2.1l1-0.3c0.5-0.1,0.7-0.3,0.7-0.8
	c0-0.5-0.2-0.9-0.8-0.9c-0.5,0-0.8,0.3-0.8,0.9v0.2L66.1,213.6L66.1,213.6z M69.3,214.9c-0.3,0.2-0.5,0.3-0.7,0.3
	c-0.7,0.2-1,0.5-1,1.1c0,0.5,0.2,0.9,0.6,0.9s1.1-0.3,1.1-1.1V214.9z"/>
<path fill="#FFFFFF" d="M72.2,211.6h1.7v0.8h0c0.4-0.7,1-1,1.7-1c1.1,0,1.7,0.6,1.7,1.9v5h-1.7v-4.7c0-0.7-0.2-0.9-0.7-0.9
	c-0.6,0-0.9,0.4-0.9,1.1v4.5h-1.7L72.2,211.6L72.2,211.6z"/>
<path fill="#FFFFFF" d="M82.1,217.6L82.1,217.6c-0.4,0.6-0.9,0.9-1.6,0.9c-1.4,0-2.1-1.1-2.1-3.6c0-2.5,0.6-3.6,2.1-3.6
	c0.6,0,1.1,0.3,1.4,0.8h0v-2.9h1.7v9h-1.7C82.1,218.3,82.1,217.6,82.1,217.6z M81.1,217.2c0.8,0,0.9-0.8,0.9-2.2
	c0-1.5-0.2-2.2-0.9-2.2c-0.8,0-0.9,0.8-0.9,2.2S80.4,217.2,81.1,217.2"/>
<path fill="#FFFFFF" d="M41.4,178.4c2-3.7,2.8-8,2.3-12.5c-1.3-12.1-12.1-20.7-24.2-19.4c-12,1.3-20.7,12.1-19.4,24.2
	c1.3,12.1,12.2,20.7,24.2,19.4c3.5-0.4,6.8-1.6,9.6-3.5c0,0,12.5,3.6,12.4,3.6C46.2,189.6,41.4,178.4,41.4,178.4 M22.8,172.6
	c-0.3,2.1-1.7,3.3-3.7,3.7c-0.7,0.1-1.5,0.2-2.3,0.1c-2.3-0.2-3.8-1.1-4.3-3.1c-0.2-0.6-0.2-1.4-0.2-2.3h3.9c0,0.6,0,1.2,0.2,1.7
	c0.2,0.4,0.6,0.6,1.2,0.6c0.6,0,1-0.2,1.2-0.6c0.2-0.4,0.2-1.1,0-1.5c-0.2-0.3-0.6-0.6-1.1-0.8c-0.4-0.2-0.9-0.3-1.3-0.5
	c-0.9-0.3-1.7-0.7-2.3-1.2c-0.7-0.6-1.2-1.3-1.4-2.3c-0.1-0.5-0.1-1.1-0.1-1.7c0-0.6,0.2-1.1,0.3-1.5c0.6-1.6,2-2.6,4-2.8
	c0.9-0.1,2,0,2.7,0.3c1.3,0.4,2.2,1.2,2.6,2.5c0.2,0.6,0.3,1.4,0.3,2.3h-3.8l0,0c0-0.9,0-1.7-0.6-1.9c-0.3-0.1-0.8-0.1-1.1,0
	c-0.3,0.1-0.5,0.4-0.5,0.7c-0.1,0.4,0,0.8,0.1,1.1c0.1,0.3,0.4,0.4,0.6,0.6c0.3,0.1,0.6,0.3,0.9,0.4c0.3,0.1,0.6,0.3,0.9,0.4
	c0.6,0.3,1.2,0.5,1.7,0.8c1.1,0.6,1.9,1.4,2.2,2.7C22.9,170.9,22.9,171.9,22.8,172.6 M32,176.1h-7.8v-15.4h3.9v12H32L32,176.1
	L32,176.1z"/>
<path fill="#FFFFFF" d="M200.8,210c0,0-0.2,0.1-0.6,0.1c-0.5,0-1-0.3-1.2-0.5c-0.3-0.2-0.9-0.5-1.4-0.7c-1,0-1.7-0.3-2.2-0.9
	c-0.5-0.6-0.8-1.5-0.8-2.5c0-1.4,0.6-2.6,1.5-3.2c0.4-0.2,0.9-0.3,1.4-0.3c1.8,0,2.9,1.3,2.9,3.4c0,1.4-0.5,2.6-1.3,3.1
	c0.2,0.1,0.4,0.3,0.6,0.3c0.3,0.1,0.6,0.3,0.9,0.3s0.6,0,0.6,0L200.8,210z M198.7,204c-0.1-0.3-0.5-0.9-1.2-0.9
	c-0.5,0-0.9,0.2-1.1,0.6c-0.2,0.4-0.3,1-0.3,1.8c0,1.2,0.2,1.9,0.6,2.2c0.2,0.2,0.5,0.2,0.8,0.2c0.9,0,1.3-0.7,1.3-2.4
	C198.9,204.8,198.9,204.4,198.7,204"/>
<path fill="#FFFFFF" d="M204.7,209c-0.2-0.1-0.3-0.3-0.4-0.5c-0.3,0.3-0.8,0.5-1.3,0.5c-0.7,0-1.3-0.3-1.4-0.8
	c-0.1-0.2-0.1-0.5-0.1-1v-3.2l1.3-0.3v3.2c0,0.4,0,0.7,0.1,0.8c0.1,0.1,0.3,0.2,0.5,0.2c0.3,0,0.7-0.2,0.8-0.5v-3.5l1.2-0.3v3.8
	c0,0.3,0.1,0.7,0.3,0.9L204.7,209z"/>
<path fill="#FFFFFF" d="M207.8,206.8L207.8,206.8c0,0.8,0.4,1.2,1.1,1.2c0.4,0,0.9-0.2,1.2-0.5l0.5,0.8c-0.6,0.5-1.2,0.7-1.9,0.7
	c-1.4,0-2.3-1-2.3-2.6c0-0.9,0.2-1.5,0.6-2c0.4-0.5,0.9-0.7,1.6-0.7c0.6,0,1.1,0.2,1.4,0.5c0.5,0.5,0.6,1.2,0.6,2.2v0.3L207.8,206.8
	L207.8,206.8z M209.3,205.8c0-0.4,0-0.6-0.2-0.7c-0.1-0.2-0.3-0.3-0.6-0.3c-0.5,0-0.8,0.4-0.8,1.1l0,0L209.3,205.8L209.3,205.8
	L209.3,205.8z"/>
<path fill="#FFFFFF" d="M212.7,206.8L212.7,206.8c0,0.8,0.4,1.2,1.1,1.2c0.4,0,0.9-0.2,1.2-0.5l0.5,0.8c-0.6,0.5-1.2,0.7-1.9,0.7
	c-1.4,0-2.3-1-2.3-2.6c0-0.9,0.2-1.5,0.6-2c0.4-0.5,0.9-0.7,1.6-0.7c0.6,0,1.1,0.2,1.4,0.5c0.5,0.5,0.6,1.2,0.6,2.2v0.3L212.7,206.8
	L212.7,206.8z M214.2,205.8c0-0.4,0-0.6-0.2-0.7c-0.1-0.2-0.3-0.3-0.6-0.3c-0.5,0-0.8,0.4-0.8,1.1l0,0L214.2,205.8L214.2,205.8
	L214.2,205.8z"/>
<path fill="#FFFFFF" d="M219.1,208.9v-3.2c0-0.6-0.1-0.7-0.4-0.7c-0.3,0-0.6,0.2-0.9,0.4v3.5h-1.3v-3.6c0-0.4,0-0.8-0.2-1.2l1.2-0.3
	c0.1,0.2,0.2,0.4,0.2,0.6c0.2-0.1,0.3-0.3,0.6-0.4c0.3-0.1,0.6-0.2,0.9-0.2c0.6,0,1,0.3,1.2,0.7c0.1,0.2,0.1,0.4,0.1,0.7v3.6H219.1z
	"/>
<path fill="#FFFFFF" d="M223.2,209c-0.6,0-1.3-0.2-2-0.6l0.5-0.9c0.4,0.3,1.1,0.6,1.7,0.6c0.4,0,0.6-0.3,0.6-0.6
	c0-0.3-0.3-0.5-0.8-0.6l-0.6-0.1c-0.3,0-0.7-0.3-0.9-0.5c-0.2-0.2-0.3-0.6-0.3-0.9c0-1,0.8-1.6,1.9-1.6c0.8,0,1.3,0.3,1.8,0.5
	l-0.4,0.9c-0.5-0.3-0.9-0.3-1.2-0.3c-0.4,0-0.6,0.2-0.6,0.5c0,0.3,0.2,0.4,0.6,0.5l0.6,0.2c0.6,0.2,0.8,0.3,1,0.6
	c0.2,0.2,0.3,0.5,0.3,0.9C225.3,208.3,224.5,209,223.2,209"/>
<path fill="#FFFFFF" d="M227.5,209c-0.6,0-1-0.3-1.2-0.7c-0.1-0.3-0.1-0.4-0.1-1.1v-3.7c0-0.6,0-1.1-0.1-1.5l1.3-0.3
	c0,0.3,0.1,0.6,0.1,1.3v3.9c0,0.9,0,1,0.1,1.1c0,0.1,0.2,0.1,0.3,0.1c0,0,0.1,0,0.1,0l0.2,0.8C228.1,209,227.8,209,227.5,209"/>
<path fill="#FFFFFF" d="M232.3,209.1c-0.3-0.1-0.6-0.3-0.7-0.6c-0.1,0.1-0.2,0.2-0.3,0.3c-0.3,0.2-0.6,0.3-1,0.3
	c-1.1,0-1.7-0.6-1.7-1.5c0-1.2,0.8-1.7,2.4-1.7c0.1,0,0.2,0,0.3,0v-0.2c0-0.6-0.1-0.7-0.6-0.7c-0.4,0-0.9,0.2-1.4,0.6l-0.6-0.9
	c0.3-0.2,0.5-0.3,0.8-0.4c0.5-0.2,0.9-0.3,1.4-0.3c0.9,0,1.4,0.3,1.6,0.9c0.1,0.2,0.1,0.3,0.1,0.9l0,1.7c0,0.6,0,0.8,0.5,1.1
	L232.3,209.1z M231.2,206.7c-0.9,0-1.2,0.2-1.2,0.8c0,0.4,0.3,0.6,0.6,0.6c0.3,0,0.5-0.1,0.7-0.3L231.2,206.7L231.2,206.7z"/>
<path fill="#FFFFFF" d="M236.5,208.9v-3.2c0-0.6-0.1-0.7-0.4-0.7c-0.3,0-0.6,0.2-0.9,0.4v3.5h-1.3v-3.6c0-0.4,0-0.8-0.2-1.2l1.2-0.3
	c0.1,0.2,0.2,0.4,0.2,0.6c0.2-0.1,0.3-0.3,0.6-0.4c0.3-0.1,0.6-0.2,0.9-0.2c0.6,0,1,0.3,1.2,0.7c0.1,0.2,0.1,0.4,0.1,0.7v3.6H236.5z
	"/>
<path fill="#FFFFFF" d="M242.1,208.9c0-0.1,0-0.2-0.1-0.3c-0.3,0.3-0.7,0.4-1.2,0.4c-1.3,0-2-1-2-2.5s0.9-2.6,2.1-2.6
	c0.3,0,0.6,0.1,0.9,0.3c0-0.1,0-0.4,0-0.7v-1.7l1.3,0.2v5.2c0,1.2,0.1,1.6,0.2,1.8L242.1,208.9L242.1,208.9z M241.8,205.2
	c-0.3-0.2-0.5-0.3-0.7-0.3c-0.6,0-0.9,0.5-0.9,1.6c0,1.1,0.2,1.4,0.9,1.4c0.3,0,0.5-0.2,0.6-0.3V205.2z"/>
<path fill="#FFFFFF" d="M197.6,218.7c-0.9,0-1.5-0.3-2-0.9c-0.6-0.6-0.8-1.4-0.8-2.6c0-1.3,0.3-2.2,1-2.8c0.5-0.4,1.1-0.6,1.7-0.6
	c0.7,0,1.3,0.2,1.8,0.6L199,213c-0.6-0.4-0.9-0.5-1.4-0.5c-0.8,0-1.4,0.3-1.7,1.1c-0.2,0.5-0.3,1.1-0.3,1.7c0,0.9,0.2,1.6,0.5,2
	c0.3,0.4,1,0.7,1.6,0.7c0.4,0,0.8-0.1,1.1-0.3v-2h-1.3l-0.2-0.6h2.2v3.1C198.9,218.5,198.3,218.7,197.6,218.7"/>
<path fill="#FFFFFF" d="M202.8,218.7c-1.3,0-2.1-1-2.1-2.6c0-1.6,0.8-2.5,2-2.5c0.8,0,1.3,0.4,1.7,0.9c0.3,0.4,0.4,1,0.4,1.8
	C204.9,217.8,204,218.7,202.8,218.7 M203.8,214.8c-0.2-0.4-0.6-0.6-1-0.6c-0.4,0-0.8,0.2-1,0.5c-0.2,0.3-0.2,0.7-0.2,1.3
	c0,0.7,0.1,1.3,0.3,1.6c0.2,0.3,0.6,0.5,1,0.5c0.5,0,0.9-0.3,1.1-0.7c0.1-0.3,0.1-0.6,0.1-1.1C204,215.6,204,215.1,203.8,214.8"/>
<path fill="#FFFFFF" d="M207.9,218.6h-0.7l-1.7-4.8l0.8-0.2l1.1,3.3c0.1,0.4,0.3,0.8,0.3,0.8l0,0c0,0,0.1-0.4,0.2-0.8l1.1-3.2h0.8
	L207.9,218.6z"/>
<path fill="#FFFFFF" d="M211.2,216.3v0.1c0,0.5,0,0.8,0.2,1.1c0.3,0.4,0.7,0.6,1.2,0.6c0.5,0,0.9-0.1,1.2-0.5l0.3,0.5
	c-0.4,0.4-1,0.6-1.6,0.6c-1.3,0-2.1-1-2.1-2.6c0-0.8,0.2-1.3,0.6-1.8c0.4-0.5,0.9-0.7,1.4-0.7c0.5,0,1,0.2,1.3,0.5
	c0.4,0.4,0.6,0.9,0.6,2v0.1L211.2,216.3L211.2,216.3z M213.2,214.6c-0.2-0.3-0.5-0.4-0.9-0.4c-0.7,0-1.1,0.5-1.1,1.5h2.2
	C213.4,215.2,213.4,214.8,213.2,214.6"/>
<path fill="#FFFFFF" d="M217.6,214.5c0,0-0.1,0-0.2,0c-0.3,0-0.6,0.1-0.8,0.3c-0.2,0.2-0.3,0.4-0.3,0.8v3h-0.8v-3.7
	c0-0.7-0.2-1-0.2-1l0.8-0.2c0,0,0.2,0.4,0.2,0.8c0.3-0.5,0.9-0.8,1.4-0.8c0.1,0,0.3,0,0.3,0L217.6,214.5z"/>
<path fill="#FFFFFF" d="M221.4,218.5v-3.3c0-0.5,0-0.6-0.2-0.8c-0.1-0.1-0.3-0.2-0.5-0.2c-0.4,0-1,0.3-1.3,0.7v3.6h-0.8v-3.7
	c0-0.7-0.2-1-0.2-1l0.7-0.2c0,0,0.2,0.3,0.2,0.8c0.5-0.5,1-0.8,1.5-0.8s1,0.3,1.2,0.7c0.1,0.2,0.1,0.4,0.1,0.6v3.7L221.4,218.5
	L221.4,218.5z"/>
<path fill="#FFFFFF" d="M229.1,218.5V215c0-0.5-0.2-0.7-0.6-0.7c-0.4,0-0.8,0.3-1.3,0.7v3.5h-0.8v-3.4c0-0.3,0-0.5-0.1-0.6
	c-0.1-0.1-0.3-0.2-0.5-0.2c-0.4,0-0.7,0.2-1.2,0.6v3.6h-0.7v-3.7c0-0.7-0.2-1-0.2-1l0.7-0.2c0,0,0.2,0.4,0.2,0.7
	c0.3-0.3,0.9-0.7,1.4-0.7c0.5,0,0.9,0.3,1.1,0.8c0.5-0.5,1.1-0.8,1.5-0.8c0.7,0,1.2,0.6,1.2,1.3v3.6L229.1,218.5L229.1,218.5z"/>
<path fill="#FFFFFF" d="M232.2,216.3v0.1c0,0.5,0,0.8,0.2,1.1c0.3,0.4,0.7,0.6,1.2,0.6s0.9-0.1,1.2-0.5l0.3,0.5
	c-0.4,0.4-1,0.6-1.6,0.6c-1.3,0-2.1-1-2.1-2.6c0-0.8,0.2-1.3,0.6-1.8c0.4-0.5,0.9-0.7,1.4-0.7c0.5,0,1,0.2,1.3,0.5
	c0.4,0.4,0.6,0.9,0.6,2v0.1L232.2,216.3L232.2,216.3z M234.2,214.6c-0.2-0.3-0.5-0.4-0.9-0.4c-0.7,0-1.1,0.5-1.1,1.5h2.2
	C234.4,215.2,234.4,214.8,234.2,214.6"/>
<path fill="#FFFFFF" d="M239.3,218.5v-3.3c0-0.5,0-0.6-0.2-0.8c-0.1-0.1-0.3-0.2-0.5-0.2c-0.4,0-1,0.3-1.3,0.7v3.6h-0.7v-3.7
	c0-0.7-0.2-1-0.2-1l0.7-0.2c0,0,0.2,0.3,0.2,0.8c0.5-0.5,1-0.8,1.5-0.8c0.5,0,1,0.3,1.2,0.7c0.1,0.2,0.1,0.4,0.1,0.6v3.7
	L239.3,218.5L239.3,218.5z"/>
<path fill="#FFFFFF" d="M243.6,214.3h-1v3.1c0,0.6,0.1,0.7,0.6,0.7c0.2,0,0.3,0,0.5-0.1l0.1,0.5c-0.3,0.1-0.5,0.2-0.9,0.2
	c-0.3,0-0.4,0-0.6-0.1c-0.3-0.2-0.5-0.5-0.5-0.9v-3.4h-0.6v-0.6h0.6c0-0.5,0.1-1.2,0.1-1.2l0.8-0.2c0,0-0.1,0.8-0.1,1.4h1.2
	L243.6,214.3z"/>
<path fill="#FFFFFF" d="M215.8,159.7c-1.4,0.1-2.8,1.9-2.2,4c-0.2,0.1-0.8,0.1-1-0.3c-0.1,0.7-1.5,1.4-2.5,1.4c0.6-0.6,0.9-2,2-2.6
	c1.1-0.7,1.6-1.2,2-2.4c-0.5,0.3-3.1,0.9-3.9,0.1c1.7-0.3,3.7-1.2,4.8-1.9l-0.4-0.4c-1.1,0.6-2.5,1.1-3.2,1.4
	c-0.3-2.2,1.8-2.1,2-1.5c0.9-1,0.3-2.4-0.4-2.6c0.6-1.7,0-2.8-0.6-3.4c-0.1,1.8-2.2,2.1-2.4,3.5c-0.1-1.1-0.2-4.1-0.3-5.6
	c-0.2-2.7-3.6-3.7-4.1-3.7c-2.3,0.1-2.5-0.2-2.4-1.2c-1.2,1.3-0.8,2.4,0.2,3c-0.1,0.8-1.4,1.4-2.1,1.6c1.8,1.7,4,0.7,5-0.3
	c0.1-0.1,0.1-0.1,0.2-0.2c0.4,0.6,0.6,1.8,0.6,2.5c-1.7-0.1-2,1.2-2,1.7c2.2-0.9,2.4,3.2,3,3.9c-0.6,0-1.5-1.3-3-1.4
	c-1.7-0.1-2.3,0.8-3.1,0.8c0.1,1.2,1.6,1.9,2.6,2c-0.5,1.3,0,2.1,1,2.4c0-1.2,1.4-1.5,3-0.6c1.9,1.1,2.8,1.2,4.3,0.7
	c-0.3,0.6-0.9,0.6-1.7,1.4c-1.2,1.2-1.2,2.6-2.5,3.2c1.5,0.7,3.8-0.3,4.2-0.9c0.6,0.4,1.4,0.2,1.7-0.3c-1-2.3,0.7-3.7,1.4-3.6
	C215.8,160.3,216.1,159.7,215.8,159.7 M207.8,158.7c-0.8-0.3-2-0.5-2.6,0.4c-0.3-0.6,0.2-1.6,0.5-1.8c-1.7,0-2.6-0.5-2.9-1
	c0.6-0.3,2.2-0.9,3.5,0c0.9,0.6,1.3,1,2.4,1.3c0.4-0.4,0.3-0.2,0.3-0.3c-0.9-0.6-1.2-5.2-2.9-5.4c0.3-0.6,1.1-0.5,1.8-0.3
	c0-1-0.4-2.7-1-3.7c1-0.5,1.7,0,2,1.3c0.3,1.3-0.1,4.5,0.8,7.5l0.5-0.5c-0.3-1.7,1.6-2.3,2-3.2c0.2,1.2-0.1,1.7-0.4,2
	c0.7,0.1,1,0.7,0.9,1.2c-1.6-0.3-2.6,1.4-2.2,2.7C209.3,159.2,208.5,159,207.8,158.7 M203.2,146c1.3,0.6,1.7-0.5,4.1,1
	c-1.6,0.5-2.8,2.5-4.6,2c1.3-0.6,1.2-1.6,1.9-2C204.1,146.8,203.2,146.6,203.2,146"/>
<path fill="#FFFFFF" d="M232.4,153.4c0-2.6-0.1-4.6-0.1-5.3c0.1,0,0.2,0,0.3,0.1c1.8,0.6,2.3,2.9,6.1,0.3c-2,0.3-2.1-1.5-3.1-1.5
	c1.4-0.8,1.5-2.6,1.5-2.6c-1.2,0.9-3.9,1-4.4,1.3c-0.7,0.4-1.6,0.9-2.2,1.3c-1.6,0.9-0.5,5.5-0.6,7.2c-0.9-2.6-2.6-2.2-3.5-3.6
	c-0.7,1.2,0,3.2,0.3,3.8c-1,0.8-0.7,2.3-0.5,2.6c0.9-0.6,2.1-0.5,2.5,0.6c-1.1,0.7-2.9,0.8-4.2-0.4l-0.5,0.5
	c0.9,1.2,3.1,1.6,4.8,0.7c0,0.3-0.1,0.6-0.2,0.9c-0.9,0.4-2,0.7-3.2,0.3c0.2,1.3,1.7,2.3,3.1,2.6c-0.5,0.4-1.1,0.5-1.5,0.5
	c0.3,0.7,0.4,1.7-0.1,2.5c-0.7-0.5-1.1-0.9-1.3-2.7c-0.3-1.8-1.6-3.6-2.6-4c0,0.6,0,0.3,0,0.8c2.7,2,1.2,5.5,4,6.8
	c1-1.2,1-1.6,0.9-2.7c1-0.3,1.7-1.1,2-1.7c-0.9,0.5-2.5-0.3-2.9-1c1.7,0,3.2-1.3,4.8-2.9c1.4-1.4,3.3-1.2,3.1-0.1
	c1-0.1,1.4-1.5,1-2.3c1.4-0.5,2.5-1.5,2.7-3.2C236.7,153,234.2,151.4,232.4,153.4 M234.7,154.8c0.8,0.6,0.5,1.5,0.3,1.7
	c-0.7-1.2-2.8-0.7-4.9,1.6c-0.1,0.2-0.3,0.4-0.6,0.6c0.2-2.8-2.1-2.9-2.8-2.6c0.1-0.8,0.6-1.4,0.9-1.4c-0.7-0.8-0.8-1.8-0.9-2.5
	c1.1,0.5,2.8,1.8,3.1,4l0.7-0.5c-0.2-4-0.2-4-0.2-6.6c0-0.4,0-1.2,1.2-1.2c0,1,0.2,3.7,0.2,7.3h0.4c0.4-1,1.7-2.3,3.3-2.1
	c1.1,0.1,1.4,0,2.1-0.2C237.1,154.1,235.2,154.7,234.7,154.8 M231.6,147.2c0.8-0.6,1.3-0.8,1.7-1c0.7,0,1.8,0,2.5-0.4
	c-0.7,0.9-0.8,1.2-2,1.3c1.5,0.1,2.1,1.5,2.9,1.7C234.2,149.6,233.9,147.1,231.6,147.2"/>
<path fill="#FFFFFF" d="M222.1,162.1c-0.1,0-0.3,0-0.3,0.2c-0.1,0-0.3,0-0.5-0.1v-0.8c0.1,0,0.3-0.2,0.3-0.4c0-0.2-0.2-0.4-0.4-0.4
	c-0.2,0-0.4,0.2-0.4,0.4c0,0.2,0.1,0.3,0.2,0.3v0.8c-0.1,0-0.3,0-0.4,0c-0.1-0.1-0.2-0.3-0.4-0.3c-0.2,0-0.4,0.2-0.4,0.4
	c0,0.2,0.2,0.4,0.4,0.4c0.1,0,0.3-0.1,0.3-0.2c0.2,0,0.3,0,0.5,0v1.2c-0.1,0.1-0.2,0.2-0.2,0.4c0,0.2,0.2,0.4,0.4,0.4
	c0.2,0,0.4-0.2,0.4-0.4c0-0.2-0.1-0.3-0.3-0.4v-1.2c0.1,0,0.3,0,0.4,0c0,0.2,0.2,0.3,0.4,0.3c0.2,0,0.4-0.2,0.4-0.4
	C222.6,162.3,222.4,162.1,222.1,162.1"/>
<path fill="#FFFFFF" d="M218.6,161.8c-0.2,0-0.3,0.1-0.4,0.3c-0.2,0-0.3,0-0.4,0v-0.8c0.1-0.1,0.2-0.2,0.2-0.3
	c0-0.2-0.2-0.4-0.4-0.4c-0.2,0-0.4,0.2-0.4,0.4c0,0.2,0.1,0.3,0.3,0.4v0.8c-0.2,0-0.3,0-0.4,0.1c-0.1-0.1-0.2-0.2-0.3-0.2
	c-0.2,0-0.4,0.2-0.4,0.4c0,0.2,0.2,0.4,0.4,0.4c0.2,0,0.3-0.1,0.4-0.3c0.1,0,0.3,0,0.4,0v1.2c-0.1,0.1-0.3,0.2-0.3,0.4
	c0,0.2,0.2,0.4,0.4,0.4c0.2,0,0.4-0.2,0.4-0.4c0-0.2-0.1-0.3-0.2-0.4v-1.2c0.1,0,0.3,0,0.5,0c0.1,0.1,0.2,0.2,0.3,0.2
	c0.2,0,0.4-0.2,0.4-0.4C219,162,218.8,161.8,218.6,161.8"/>
<path fill="#FFFFFF" d="M224,165.4c-0.3-1.7-0.9-6.3-0.9-7.8l-0.7,0c0,0.3,0,0.6,0.1,1c-0.9-0.3-2-0.4-3.1-0.4
	c-1.2,0-2.3,0.2-3.1,0.4c0-0.4,0-0.8,0.1-1l-0.7,0c-0.1,1.5-0.7,6.2-0.9,7.8c-0.4,0.2-0.7,0.6-0.7,1.3c0,0,3.8,0,5.3,0s5.3,0,5.3,0
	C224.7,165.9,224.4,165.5,224,165.4 M219.4,165.3c-0.6,1.2-1.7,1.2-2.7,0.5c-0.4-0.3-0.8-0.4-1.2-0.5c0.2-1.2,0.5-3.3,0.7-5.2
	c1.3-0.6,2.9-0.7,3.2,0.8c0.4-1.5,2-1.3,3.2-0.8c0.2,1.8,0.5,4,0.6,5.2c-0.4,0-0.8,0.2-1.2,0.5C221.1,166.4,220,166.5,219.4,165.3"
	/>
<path fill="#FFFFFF" d="M211.3,167.2c2.2,0.8,4.7,1.3,7.4,0c-0.3,1.2-0.9,1.9-1.5,2.4c0.4,0.9,0.9,2.1,1.2,3
	c0.7,0.5,0.6,1.3,0.5,1.8c-0.1,0.5-1.7,1.1-2.3,0.9c-0.5-0.2-0.5-0.4-0.8-0.3c-0.7,0.1-2.9,2.2-5,0.2v-4.4c0.8-0.5,1.5-0.9,1.9-1.4
	C212.2,168.9,211.5,168,211.3,167.2 M213.6,169.2c-0.6,0.9-1.1,1.3-2.1,1.9v3.6c1.4,1.2,3.2,0.2,3.9-0.3c-0.2-0.3-0.3-0.6-0.4-1
	c-1.7,0.2-2.4-0.7-2.8-2c0,0,0.3-0.2,0.6-0.4c0.6,2,1.7,1.7,2.6,1.7c0.6-0.5,1.4-0.7,2.1-0.6c-0.2-0.8-0.7-1.8-1.2-2.7
	c0.5-0.3,1.1-0.7,1.4-1.3c-2.3,0.9-3.4,0.6-5.3,0C212.7,168.6,213.2,168.9,213.6,169.2 M217.6,172.7c-0.4-0.1-1.7,0.2-1.8,0.6
	c-0.1,0.3,0.1,0.9,0.6,1.2c0.3,0.2,1.4-0.2,1.6-0.4C218.2,173.8,218,172.8,217.6,172.7"/>
<path fill="#FFFFFF" d="M228.2,170.1c0-1.4-1-2.6-2.5-2.6c-1.4,0-3.1,0.7-3.2,1.9c-2,1.2-3,2.3-2.7,3.3c-0.7,0.7-0.2,2.1,1.9,1.2
	c-0.6,0.5-0.7,1.2-0.7,1.7h6.9C227,172,228.2,172.6,228.2,170.1 M226.1,169.7c-0.3-0.1-1.9-0.2-2.3,1c-0.3,0-0.6-0.1-0.8-0.3
	c-0.2,0.3-0.5,0.4-0.9,0.6c0.4,0.8,1.1,0.6,1.6,0.3c0,0.1,0,0.2,0,0.3c0,1.8,2,2.3,3.2,1.6c-0.2,0.6-0.1,1.4,0,1.9H222
	c0.1-0.5,0.7-1.1,1.2-1.4l-0.4-0.7c-0.5,0.2-1,0.4-1.6,0.6c-1.3,0.3-1.2-0.6,0.1-1v-0.4h-0.9c0.2-0.9,2-2.1,2.8-2.4
	c0-1,1.3-1.3,2.3-1.4c1.3,0,1.6,1.4,1.6,1.8c0,0.6-0.2,1.9-0.9,2.3c-1.1,0.6-2-0.2-2-0.9c0-0.8,0.6-1.3,1.5-1.2
	C226.9,170.4,226.9,169.9,226.1,169.7"/>
<path fill="#FFFFFF" d="M226,183.1v-1.3v-0.3h-0.3h-0.4c0-1.7-0.5-3-1.2-3.8l-0.2-0.3l-0.2,0.3c-0.8,0.8-1.2,2.1-1.2,3.8H222h-0.4
	v0.3v1.2c-0.9,0.3-1.6,0.8-2.3,1.4l0,0l0.4,0.5l0,0c1.2-0.9,2-1.5,4.1-1.5c2.2,0,3.1,0.9,3.7,1.9l0.6-0.3
	C227.6,184.3,227,183.6,226,183.1 M223.7,178.4c0.5,0.7,0.8,1.7,0.9,3.1h-1.7C223,180.1,223.2,179.1,223.7,178.4 M222.2,182.9v-0.8
	h3.2v0.8c-0.5-0.1-1-0.2-1.6-0.2C223.2,182.7,222.6,182.8,222.2,182.9"/>
<path fill="#FFFFFF" d="M225.5,186.1c0.2-0.6,0-1.1-0.3-1.4c-0.3-0.3-0.8-0.5-1.3-0.5l0.6,0.7l-1.1,0.9l-0.5-0.6
	c0,0,0.2-0.2,0.4-0.4c-0.4-0.4-0.9-0.8-1.7-0.6c-0.3,0.7,0,1.3,0.4,1.7c0.3-0.2,0.4-0.4,0.4-0.4l0.5,0.6l-1.3,1.1l0.4,0.5l1.3-1.2
	l0.4,0.5c0,0-0.3,0.4,0.1,0.9c0.3-0.3,0.8-0.7,1.1-1c-0.4-0.5-0.9-0.3-0.9-0.3l-0.4-0.5l1.1-0.9L225.5,186.1z"/>
<path fill="#FFFFFF" d="M216.9,178.4c-0.2-1-1.3-1.1-1.7-0.6c-0.5-0.4-1.6-0.3-1.7,0.6c-1.7-0.3-1.5,1.4-1.3,1.8
	c0.2,0.4,0.7,1.5,1,2.2c0,0-0.1,0-0.2,0c-0.1,0.4-0.1,0.9,0,1.3c0.1,0,0.2,0,0.3,0.1c-0.2,0.5-0.5,1.4-0.7,1.7
	c0.3,0.1,0.5,0.3,0.9,0.3c0,0-0.1,0.3-0.2,0.6c0.5,0.2,1.4,0.3,2,0.3c0.6,0,1.5-0.1,2-0.3c-0.1-0.3-0.2-0.6-0.2-0.6
	c0.3-0.1,0.6-0.2,0.9-0.3c-0.2-0.4-0.5-1.2-0.7-1.7c0.1,0,0.2,0,0.3-0.1c0.1-0.4,0-0.9,0-1.3c0,0-0.1,0-0.2,0c0.3-0.7,0.8-1.8,1-2.2
	C218.5,179.7,218.7,178.1,216.9,178.4 M215.2,178.5c0.1-0.5,1.4-0.6,1.1,0.5c-0.3,1-0.6,2.2-0.8,3.2c-0.1,0-0.2,0-0.3,0
	c-0.1,0-0.2,0-0.3,0c-0.3-1-0.6-2.2-0.8-3.2C213.8,177.9,215.1,178,215.2,178.5 M216.9,182.8c0,0.2,0,0.3,0,0.5
	c-0.4,0.1-1.2,0.2-1.7,0.2c-0.6,0-1.3-0.1-1.7-0.2c0-0.2,0-0.3,0-0.5c0.3-0.1,1.4-0.2,1.7-0.2S216.6,182.7,216.9,182.8 M212.7,179.9
	c-0.4-0.9,0.6-1.2,0.7-0.6c0.3,0.8,0.6,2,0.9,2.9c-0.3,0-0.5,0-0.7,0.1C213.6,181.9,213.1,180.9,212.7,179.9 M217.2,185.3
	c-0.2,0.1-0.5,0.2-0.8,0.2c0,0.2,0.1,0.5,0.1,0.6c-0.4,0.1-1,0.1-1.4,0.1s-1,0-1.4-0.1c0-0.2,0.1-0.4,0.1-0.6
	c-0.3,0-0.6-0.1-0.8-0.2c0.1-0.4,0.3-0.8,0.5-1.4c0.5,0.1,1,0.2,1.6,0.2c0.6,0,1.1,0,1.6-0.2C216.9,184.5,217.1,184.8,217.2,185.3
	 M217.7,179.9c-0.4,1-0.8,2-0.9,2.3c-0.2,0-0.5,0-0.7-0.1c0.3-0.9,0.6-2.1,0.9-2.9C217.1,178.7,218,179,217.7,179.9"/>
<path fill="#FFFFFF" d="M213.7,170.2c0.5,0.1,0.8,0,1.2,0c0.2,0,0.6,0.1,0.5,0.6c0,0.3,0,0.4,0.1,0.6c-0.4,0-0.9,0.1-1.2,0
	C214,171.2,214.1,170.6,213.7,170.2"/>
<path fill="#FFFFFF" d="M252,162.7c-0.2,0-0.7,0.2-1,0.3c0.6-0.6,1-1.3,1-1.9c-0.3,0.1-0.8,0.3-1.3,0.4c0.9-0.8,1.5-1.7,1.2-3
	c-0.3,0.1-0.7,0.4-1.1,0.6c0.8-1.3,0.8-2.4,0.5-3.1c-0.4,0.3-0.8,0.8-1.3,1.1c0.3-1.5,0.3-2.4-0.3-3.1c-0.6,1.2-1.2,2.1-2.1,3.2
	c0.1-1,0-2.2-0.7-2.9c0,0-0.2,1.4-0.7,1.8c-0.1-1.3-0.5-2.1-1.2-2.8c0,0,0,1.4-0.4,2.3c-0.3-1.2-0.9-2-1.7-2.9
	c0,2.6-0.6,7.4-2.7,10.7c-0.3,1.9-0.5,4.8-3.6,6.6c-0.5-0.3-1.2-0.7-2.4-0.7c-0.3-1.4,1.6-2.8,3.2-3.8c1.7-1.1,2.4-2,2.3-3.4
	c0-1.6-1.1-2.2-2.2-2.3c-1.5-0.1-2.8,1.3-3.1,1.9c-0.5,0.2-1.8,0.6-2.3,0.8c-0.6,0.2-1.3,0.4-1.7,0.8c0.3,0.2,1,0.2,1.3,0.2
	c0.5-0.1,2.2-0.4,3.8-0.6c0.6,0.3,1.5,0.9,0.5,1.5c-1.4,0.9-2,1.1-3.9,2.1c-3,1.6-2,5.6-1.3,5.9c0,1.4,1.2,3.8,2,4.6
	c0.4,1.7-0.1,4.2-0.6,5.3c-0.4-1-1.2-3.4-1.6-4.8c0.5-2.6-0.3-3.8-0.9-4.2c-0.6-0.5-1.4-0.3-2,0.6c0.9-0.1,1.2,1,1.2,2.2
	c0,1.4-0.4,2.5-1.4,2.5c0.1,1.2,1.4,1.5,2,0.9c0.1,0.3,0.6,1.8,1.1,3.2c0.3,0.8,0.6,1.6,0.8,2c0.2,0.4,1.7,0.5,1.8,0
	c0.2-0.7,0.4-1.2,0.8-2c0.3-0.6,0.7-1.4,1.3-2.5c0.4,0.7,0.9,1.7,1.2,2.5c0.1,0.3,0.3,0.6,0.3,0.7c0.1,1.2,0,5.2-0.3,7.6
	c-3.3-0.9-4.3,0.7-4,1.9c0.5-0.5,1.1-0.5,1.5-0.2c-0.1,0.9,0.1,1.5,1.1,1.8c0.9-2.5,4.4-2,4.7-1.7c0-0.5,0.5-1.7-1.3-2
	c0-2.2,0.3-4.8,0.4-5.4c0.1-0.6,0.1-0.9-0.1-1.8c-0.1-0.3-0.2-0.6-0.3-1c-0.2-0.9-0.5-2-0.5-3.3c0.3,0.3,1,0.6,1.5,0.4
	c0.4,1.7,0.9,1.2,1.2,1.8c0.1,0.3,0.2,0.7,0.2,1c0,0.3,0.1,0.6,0.3,0.8c1.2,0,2.2-0.3,2.9-0.8c0.2-0.2,0.4-0.3,0.6-0.5
	c-0.3-1.7-0.8-2.6-1.7-3.7c-0.3-1.4-0.9-2.7-1.8-3.9c1.2-0.4,2.3-1.3,2.9-2c0.6,0,1.2-0.5,1.2-1.4c0.3,0,0.6,0,0.9-0.1
	c0-0.3-0.1-0.6-0.1-0.9c0.4,0,0.9,0,1.2,0c-0.1-0.3-0.3-0.7-0.4-0.9c0.4,0,0.9,0,1.4,0c-0.2-0.4-0.4-0.8-0.6-1.2
	c0.5,0,1.2-0.2,1.9-0.3c-0.2-0.2-0.4-0.4-0.8-0.8c1.6-0.5,2.3-1.6,2.4-2.1c-0.3,0-0.7,0.1-1,0.1C251.3,164.2,251.9,163.5,252,162.7
	 M243.6,155.3c0.4,0.6,0.7,1.8,0.7,2.9c0.5-0.5,0.9-1.3,1-1.9c0.2,0.5,0.2,1.7,0.1,2.2c0.6-0.5,0.9-1.2,1.3-1.8
	c0.1,0.5,0.1,0.9,0,1.4c-1.2,1.3-3.2,3-5.3,4.8C242.5,160.5,243.3,158.5,243.6,155.3 M233.4,182.5L233.4,182.5
	c-0.2,0.4-0.3,0.9-0.4,1.4c-0.1,0.4-1.1,0.3-1.2,0c-0.1-0.3-0.3-0.8-0.5-1.4c-0.6-1.4-1.3-3.5-1.5-4.4c-0.4,0.6-0.8,0.9-1.2,0.6
	c1.6-0.7,1-4.9,0.4-5.2c0.8-0.7,1.6,1.9,1.1,3.8c0.5,1.3,1.4,4,1.7,5.2c0.1,0.3,0.1,0.4,0.2,0.5c0.1,0.3,0.6,0.3,0.6,0
	c0-0.1,0.1-0.3,0.1-0.5c0.4-1.2,1.1-3.7,1-5.3c0.7,0.1,0.9,0.8,1.2,1.7C234.4,180.3,233.8,181.3,233.4,182.5 M250,165.4
	c-0.4,0.4-1.6,0.9-3.1,1c0.3,0.3,0.8,0.5,1.1,0.7c-0.4,0.1-1,0.1-1.5,0.1c0.3,0.4,0.6,0.9,0.7,1.2c-0.4,0-0.8,0-1.3,0
	c0.2,0.5,0.3,0.6,0.5,1c-0.3,0-0.9,0-1.2,0c0.1,0.3,0.3,0.7,0.4,0.9c-0.2,0-0.5,0-0.7,0c-1.4,2-3.4,4-7.1,3.8
	c0.1,0.3,0.2,0.6,0.2,0.6c0.6,0,1.7-0.1,2.5-0.2c0.6,0.6,1.6,2.1,2.1,4.4c0.4,0.3,1.1,1.4,1.4,2.8c-0.6,0.4-1.2,0.6-2.1,0.7
	c-0.3-1.8-1.3-1.9-1.7-3.4c-0.6,0.1-1.5-0.4-1.8-1.3h-0.9c-0.2,1.7,0.2,3.4,0.6,4.7c0.1,0.6,0.3,1.2,0.3,1.8
	c0.1,1.1-0.3,5.2-0.3,6.9c0.8,0,1.4,0.2,1.4,0.8c-1.2-0.4-3.4-0.1-4.3,1.5c-0.3-0.1-0.4-0.8,0-1c-0.5-0.5-0.9-0.9-1.7-0.6
	c0.4-0.6,1.2-1,3.9-0.3c0.3-0.9,0.5-6.6,0.5-7.9c0-0.2-0.1-0.6-0.3-1.1c-0.6-1.6-2-4.3-2.3-6.2c-0.5,0-1.1,0.1-1.3-0.1
	c-0.6-0.6-1.8-2.4-2-4.2c-0.4-0.7-1.2-3.5,1-5c1.4-1.1,4.9-2.3,4.8-3.6c0-0.7-1.3-1.3-1.7-1.6c-0.4-0.3-0.3-0.5,0.1-0.8
	c2-2,4.3,0,3,2.3c-1,1.7-6.1,3.2-5,6.5c1.1,0.1,1.7,0.5,2.1,1.1c1-0.3,5-2.1,5.4-7.1c1-0.6,2-1.3,3-2.1c0.2,1.3,0,9.4-7.4,11.3
	c0.2,0.7,1.8,0.9,2.7-0.3c0.9,0.2,2-0.5,2-1.2c0.8,0,1.7-0.9,1.5-1.7c1-0.3,1.4-1.6,1-2.6c0.9-0.4,1.2-1.4,0.8-2.4
	c0.7-0.5,0.9-1.7,0.3-2.4c0.3-0.6,0.3-1.2,0-1.6c1.3-1.2,3-2.8,4.1-4.7c0.1,1.3-0.6,2.4-1.4,3.6c1.4-0.9,1.7-1.1,2.6-1.8
	c-0.3,1.5-2,2.9-2.6,3.5c0.8-0.3,2.1-0.9,3-1.4c-0.8,1.7-2.2,2.6-3,3.1c1.2-0.2,2-0.4,2.7-0.6c-0.7,0.8-1.9,1.6-3.4,2
	c1.2,0,2-0.2,3.1-0.5c-0.7,0.8-1.8,1.5-3.1,1.7C248.5,165.4,248.8,165.5,250,165.4"/>
<path fill="#FFFFFF" d="M241.9,164.8c-0.1,1.6-1.4,4-2.8,5.2h0.9c1-0.9,2.6-2.6,2.9-5.8C242.8,164.2,242.2,164.6,241.9,164.8"/>
<path fill="#FFFFFF" d="M236.5,161.4c0.1-0.2,0.1-0.5,0.6-0.6c0.4-0.1,0.4,0.2,0.6,0.3c0.3,0,0.2,0,0,0.2c-0.1,0.2-0.1,0.5-0.5,0.6
	c-0.5,0-0.4-0.2-0.6-0.2C236.3,161.6,236.3,161.5,236.5,161.4"/>
<path fill="#FFFFFF" d="M241.3,179.7c0.4,0,0.8,0,1.1-0.1c0.3,0.5,0.5,0.7,0.6,0.9c-0.5,0.1-1,0.2-1.4,0.1
	C241.6,180.7,241.6,180.3,241.3,179.7"/>
<path fill="#FFFFFF" d="M240.9,194.6c-0.4,0.1-1,0.2-1.8,0.2h-1c-3.5-0.1-7-1.1-9.2-3.3c3-3-0.5-5.5-2.4-2.9
	c-0.6,0.8-1.1,1.4-1.5,2.1c-0.3,0.6-0.1,1.3,0.6,2.2c0.4,0.5,1.4,1.4,2.3,1.9h-17.2c0.8-0.6,1.8-1.4,2.3-1.9c0.8-1,1-1.6,0.7-2.2
	c-0.4-0.8-0.9-1.3-1.5-2.1c-1.9-2.6-5.4-0.1-2.4,2.9c-2.2,2.2-5.7,3.2-9.2,3.3h-0.9c-0.8,0-1.4-0.1-1.8-0.2
	c-0.7-0.2-0.9,0.1-0.5,1.4c0.3,0.8,0.5,2.2,0.6,3.1h42.9c0.1-0.9,0.3-2.3,0.6-3.1C241.8,194.7,241.6,194.4,240.9,194.6 M227.5,188.6
	c0.6-0.8,1.4-0.6,1.7,0.1c0.4,0.7-0.2,1.5-0.9,2.1C227.4,189.7,227.3,188.9,227.5,188.6 M226.1,192.1c-0.3-0.5-0.5-0.8-0.3-1.2
	c0.2-0.5,0.6-0.9,0.9-1.4c0.6,2.3,4.1,4.6,6.7,5.3h-4.1C228.2,194.2,226.9,193.2,226.1,192.1 M209.5,188.7c0.3-0.6,1.2-0.8,1.7-0.1
	c0.3,0.3,0.1,1.2-0.9,2.2C209.7,190.2,209.2,189.4,209.5,188.7 M212,189.4c0.4,0.6,0.7,1,0.9,1.4c0.2,0.5,0,0.8-0.3,1.2
	c-0.8,1.1-2.2,2-3.2,2.6h-4.2C207.9,194,211.4,191.8,212,189.4 M240.1,198.3h-41.4c-0.2-1.3-0.4-2.2-0.7-2.9h42.7
	C240.5,196.1,240.3,197,240.1,198.3"/>
<path fill="#FFFFFF" d="M204.3,197.4C204.3,197.4,204.3,197.4,204.3,197.4l0.1,0.3c0,0,0,0,0,0c0,0,0,0,0,0c0,0,0,0,0.1,0
	c0.2,0,0.4,0,0.5,0c0.1,0,0.1,0,0.1,0c0,0,0,0,0,0s0,0-0.1,0c0,0-0.1,0-0.2-0.3c-0.2-0.4-0.6-1.4-0.6-1.5c0,0,0-0.1,0-0.1
	c0,0,0,0-0.1,0.1l-0.6,1.5c0,0.1-0.1,0.2-0.2,0.2c0,0,0,0-0.1,0s0,0,0,0c0,0,0,0,0,0c0.1,0,0.3,0,0.3,0c0.1,0,0.2,0,0.3,0
	c0,0,0,0,0,0c0,0,0,0,0,0h0c-0.1,0-0.1,0-0.1-0.1c0,0,0-0.1,0-0.1l0-0.1l0,0H204.3z M203.6,197.2L203.6,197.2l0.3-0.8v0c0,0,0,0,0,0
	l0.3,0.8l0,0H203.6z"/>
<path fill="#FFFFFF" d="M205.5,197c0,0.3,0.1,0.6,0.2,0.6c0.2,0.2,0.4,0.2,0.6,0.2c0.2,0,0.3,0,0.5-0.2c0.2-0.2,0.2-0.5,0.2-0.7
	v-0.3c0-0.4,0-0.4,0-0.5s0-0.1,0.1-0.1s0,0,0.1,0c0,0,0,0,0,0s0,0,0,0c-0.1,0-0.3,0-0.3,0c0,0-0.2,0-0.3,0c0,0,0,0,0,0c0,0,0,0,0,0
	c0,0,0.1,0,0.1,0c0.1,0,0.1,0,0.1,0.1s0,0.1,0,0.5v0.3c0,0.3,0,0.5-0.1,0.6c-0.1,0.1-0.3,0.1-0.3,0.1c-0.1,0-0.2,0-0.3-0.1
	c-0.1-0.1-0.2-0.3-0.2-0.6v-0.3c0-0.4,0-0.4,0-0.5s0-0.1,0.1-0.1c0,0,0,0,0.1,0s0,0,0,0s0,0,0,0c-0.1,0-0.3,0-0.3,0
	c-0.1,0-0.2,0-0.3,0c0,0,0,0,0,0c0,0,0,0,0,0s0.1,0,0.1,0c0.1,0,0.1,0,0.1,0.1v0.5L205.5,197L205.5,197z"/>
<path fill="#FFFFFF" d="M208.1,197.1c0,0.2,0,0.4,0,0.5s0,0.1-0.1,0.1c0,0,0,0-0.1,0c0,0,0,0,0,0c0,0,0,0,0,0c0.1,0,0.3,0,0.3,0
	c0.1,0,0.3,0,0.5,0c0.5,0,0.7-0.2,0.8-0.3c0.1-0.1,0.3-0.4,0.3-0.7s-0.1-0.5-0.3-0.6c-0.3-0.3-0.7-0.3-1-0.3c-0.1,0-0.3,0-0.4,0
	c-0.1,0-0.2,0-0.3,0c0,0,0,0,0,0c0,0,0,0,0,0c0,0,0.1,0,0.1,0c0.1,0,0.1,0,0.1,0.1s0,0.1,0,0.5L208.1,197.1L208.1,197.1z
	 M208.4,196.6v-0.5c0,0,0,0,0,0c0,0,0.1,0,0.2,0c0.2,0,0.5,0,0.7,0.3c0.1,0.1,0.3,0.3,0.3,0.6c0,0.3,0,0.5-0.2,0.6
	c-0.2,0.1-0.3,0.2-0.6,0.2c-0.2,0-0.3,0-0.3-0.1c0,0,0-0.1,0-0.2c0,0,0-0.3,0-0.5L208.4,196.6L208.4,196.6z"/>
<path fill="#FFFFFF" d="M211.4,197.4C211.5,197.4,211.5,197.4,211.4,197.4l0.1,0.3c0,0,0,0,0,0c0,0,0,0,0,0c0,0,0,0,0.1,0
	c0.2,0,0.4,0,0.5,0c0.1,0,0.1,0,0.1,0c0,0,0,0,0,0s-0.1,0-0.1,0c0,0-0.1,0-0.2-0.3c-0.2-0.4-0.6-1.4-0.6-1.5c0,0,0-0.1,0-0.1
	c0,0,0,0-0.1,0.1l-0.6,1.5c0,0.1-0.1,0.2-0.2,0.2c0,0,0,0-0.1,0s0,0,0,0c0,0,0,0,0,0c0.1,0,0.3,0,0.3,0c0.1,0,0.2,0,0.3,0
	c0,0,0,0,0,0c0,0,0,0,0,0h0c-0.1,0-0.1,0-0.1-0.1c0,0,0-0.1,0-0.1l0-0.1l0,0H211.4z M210.8,197.2
	C210.8,197.2,210.8,197.2,210.8,197.2l0.3-0.8v0c0,0,0,0,0,0l0.3,0.8l0,0H210.8z"/>
<path fill="#FFFFFF" d="M213.8,196.2c0.1-0.1,0.1-0.2,0.2-0.2c0,0,0,0,0.1,0s0,0,0,0s0,0,0,0c-0.1,0-0.2,0-0.3,0c0,0-0.2,0-0.3,0
	c0,0,0,0,0,0c0,0,0,0,0,0c0,0,0,0,0.1,0l0,0c0,0,0,0,0,0.1c0,0.1-0.3,0.4-0.3,0.5c-0.1-0.2-0.2-0.3-0.3-0.6c0,0,0,0,0-0.1
	c0,0,0,0,0,0h0c0,0,0,0,0,0s0,0,0,0c-0.1,0-0.2,0-0.3,0c-0.1,0-0.3,0-0.4,0c0,0,0,0,0,0s0,0,0,0c0,0,0,0,0.1,0
	c0.1,0,0.1,0.1,0.2,0.2l0.4,0.7l-0.5,0.7c-0.1,0.1-0.1,0.2-0.2,0.2c0,0-0.1,0-0.1,0c0,0,0,0,0,0c0,0,0,0,0,0h0c0,0,0.2,0,0.2,0
	s0.2,0,0.2,0h0c0,0,0,0,0,0s0,0,0,0h0c0,0,0,0,0,0c0,0,0,0,0-0.1l0.3-0.6c0.1,0.2,0.3,0.4,0.4,0.7c0,0,0,0,0,0c0,0,0,0,0,0
	c0,0,0,0,0.1,0c0.2,0,0.4,0,0.4,0h0.1c0,0,0,0,0,0c0,0,0,0,0,0s0,0-0.1,0c0,0-0.1,0-0.1-0.1c0-0.1-0.5-0.7-0.6-0.9L213.8,196.2z"/>
<path fill="#FFFFFF" d="M217.9,197.4L217.9,197.4l0.1,0.3c0,0,0,0,0,0c0,0,0,0,0,0c0,0,0,0,0.1,0c0.2,0,0.4,0,0.5,0
	c0.1,0,0.1,0,0.1,0c0,0,0,0,0,0s-0.1,0-0.1,0c0,0-0.1,0-0.2-0.3c-0.2-0.4-0.6-1.4-0.6-1.5c0,0,0-0.1,0-0.1c0,0,0,0-0.1,0.1l-0.6,1.5
	c0,0.1-0.1,0.2-0.2,0.2c0,0,0,0-0.1,0c0,0,0,0,0,0c0,0,0,0,0,0c0.1,0,0.3,0,0.3,0c0.1,0,0.2,0,0.3,0c0,0,0,0,0,0c0,0,0,0,0,0h0
	c-0.1,0-0.1,0-0.1-0.1c0,0,0-0.1,0-0.1l0-0.1c0,0,0,0,0,0H217.9z M217.2,197.2L217.2,197.2l0.3-0.8v0c0,0,0,0,0,0l0.3,0.8l0,0H217.2
	z"/>
<path fill="#FFFFFF" d="M219.4,197.1c0,0.2,0,0.4,0,0.5s0,0.1-0.1,0.1c0,0,0,0-0.1,0c0,0,0,0,0,0c0,0,0,0,0,0c0.1,0,0.3,0,0.3,0
	c0.1,0,0.2,0,0.4,0c0,0,0,0,0,0c0,0,0,0,0,0c0,0-0.1,0-0.1,0c-0.1,0-0.1-0.1-0.1-0.1c0-0.1,0-0.3,0-0.5v-1h0.3
	c0.2,0,0.3,0.1,0.3,0.1v0c0,0,0,0,0,0c0,0,0,0,0,0c0-0.1,0-0.3,0-0.3c0,0,0,0,0,0s-0.1,0-0.2,0h-1c-0.1,0-0.2,0-0.3,0
	c0,0-0.1,0-0.1,0c0,0,0,0,0,0c0,0,0,0.3,0,0.3c0,0,0,0,0,0s0,0,0,0c0,0,0,0,0-0.1c0,0,0.1-0.1,0.3-0.1h0.4L219.4,197.1L219.4,197.1z
	"/>
<path fill="#FFFFFF" d="M223.6,196.9C223.6,196.9,223.6,196.9,223.6,196.9c0,0,0.3,0,0.4,0c0.1,0,0.1,0,0.1,0.1c0,0,0,0,0,0.1v0
	c0,0,0,0,0,0s0-0.1,0-0.2c0-0.1,0-0.1,0-0.1v0c0,0,0,0,0,0c0,0,0,0-0.1,0c0,0-0.1,0-0.1,0L223.6,196.9L223.6,196.9v-0.7c0,0,0,0,0,0
	h0.4c0.1,0,0.1,0,0.2,0.1c0,0,0,0.1,0,0.1c0,0,0,0,0,0c0,0,0,0,0,0c0,0,0-0.2,0-0.2c0,0,0-0.1,0-0.1l0,0h0c0,0,0,0-0.1,0
	c0,0-0.6,0-0.6,0c-0.1,0-0.2,0-0.3,0c0,0,0,0,0,0c0,0,0,0,0,0s0.1,0,0.1,0c0.1,0,0.1,0,0.1,0.1s0,0.1,0,0.5v0.4c0,0.3,0,0.4,0,0.5
	s0,0.1-0.1,0.1c0,0,0,0-0.1,0c0,0,0,0,0,0c0,0,0,0,0,0c0.1,0,0.3,0,0.3,0c0,0,0.2,0,0.4,0c0,0,0,0,0,0c0,0,0,0,0,0s-0.1,0-0.1,0
	c-0.1,0-0.1-0.1-0.1-0.1c0-0.1,0-0.3,0-0.5L223.6,196.9L223.6,196.9z"/>
<path fill="#FFFFFF" d="M225.2,197.1c0,0.3,0,0.4,0,0.6c0,0.1,0,0.1-0.1,0.1c0,0,0,0-0.1,0c0,0,0,0,0,0c0,0,0,0,0,0
	c0.1,0,0.3,0,0.3,0c0.1,0,0.2,0,0.4,0c0,0,0,0,0,0c0,0,0,0,0,0c0,0-0.1,0-0.1,0c-0.1,0-0.1,0-0.1-0.1s0-0.3,0-0.6v-0.4
	c0-0.4,0-0.4,0-0.5s0-0.1,0.1-0.1c0,0,0,0,0.1,0c0,0,0,0,0,0c0,0,0,0,0,0c-0.1,0-0.3,0-0.3,0c-0.1,0-0.2,0-0.3,0c0,0,0,0,0,0
	s0,0,0,0s0,0,0.1,0c0,0,0.1,0,0.1,0.1s0,0.1,0,0.5L225.2,197.1L225.2,197.1z"/>
<path fill="#FFFFFF" d="M226.7,197.1c0,0.2,0,0.4,0,0.5s0,0.1-0.1,0.1c0,0,0,0-0.1,0c0,0,0,0,0,0c0,0,0,0,0,0c0.1,0,0.3,0,0.3,0
	c0.1,0,0.3,0,0.5,0c0.5,0,0.7-0.2,0.8-0.3c0.1-0.1,0.3-0.4,0.3-0.7s-0.1-0.5-0.3-0.6c-0.3-0.3-0.7-0.3-1-0.3c-0.1,0-0.3,0-0.4,0
	s-0.2,0-0.3,0c0,0,0,0,0,0c0,0,0,0,0,0s0.1,0,0.1,0c0.1,0,0.1,0,0.1,0.1s0,0.1,0,0.5L226.7,197.1L226.7,197.1z M227,196.6v-0.5
	c0,0,0,0,0,0c0,0,0.1,0,0.2,0c0.2,0,0.5,0,0.7,0.3c0.1,0.1,0.2,0.3,0.2,0.6c0,0.3,0,0.5-0.2,0.6c-0.1,0.1-0.3,0.2-0.6,0.2
	c-0.2,0-0.3,0-0.3-0.1c0,0,0-0.1,0-0.2c0,0,0-0.3,0-0.5L227,196.6L227,196.6z"/>
<path fill="#FFFFFF" d="M229.3,197.1c0,0.2,0,0.4,0,0.5s0,0.1-0.1,0.1c0,0,0,0-0.1,0c0,0,0,0,0,0c0,0,0,0,0,0c0.1,0,0.3,0,0.3,0
	c0.1,0,0.3,0,0.7,0c0.1,0,0.1,0,0.1-0.1c0,0,0-0.2,0-0.3s0,0,0,0s0,0,0,0c0,0.1,0,0.2-0.1,0.2c-0.1,0-0.2,0-0.2,0
	c-0.3,0-0.3,0-0.3-0.2c0-0.1,0-0.3,0-0.4v-0.2v0c0,0,0.3,0,0.3,0c0.1,0,0.1,0,0.1,0.1c0,0,0,0.1,0,0.1s0,0,0,0v0c0,0,0-0.1,0-0.2
	c0-0.1,0-0.2,0-0.2s0,0,0,0c0,0,0,0,0,0c0,0,0,0-0.1,0c0,0-0.3,0-0.4,0c0,0,0,0,0,0v-0.6v0c0,0,0.3,0,0.3,0c0.1,0,0.1,0,0.2,0.1
	c0,0,0,0.1,0,0.1v0c0,0,0,0,0,0c0,0,0-0.1,0-0.2c0-0.1,0-0.1,0-0.2l0,0h0c0,0,0,0-0.1,0c0,0-0.6,0-0.6,0c-0.1,0-0.2,0-0.3,0
	c0,0,0,0,0,0c0,0,0,0,0,0s0.1,0,0.1,0c0.1,0,0.1,0,0.1,0.1s0,0.1,0,0.5L229.3,197.1L229.3,197.1z"/>
<path fill="#FFFFFF" d="M231.5,196.6v-0.5c0-0.1,0-0.1,0.1-0.1c0,0,0.1,0,0.1,0c0,0,0,0,0,0s0,0,0,0c-0.1,0-0.3,0-0.3,0
	s-0.2,0-0.3,0c0,0,0,0,0,0c0,0,0,0,0,0s0.1,0,0.1,0c0.1,0,0.1,0,0.1,0.1s0,0.1,0,0.5v0.4c0,0.2,0,0.4,0,0.5s0,0.1-0.1,0.1
	c0,0,0,0-0.1,0c0,0,0,0,0,0c0,0,0,0,0,0c0.1,0,0.3,0,0.3,0c0.2,0,0.3,0,0.7,0c0.1,0,0.1,0,0.2-0.1c0-0.1,0-0.3,0-0.3c0,0,0,0,0,0
	s0,0,0,0c0,0,0,0.1-0.1,0.1c0,0.1-0.2,0.1-0.3,0.1c-0.2,0-0.3,0-0.3,0c0,0,0-0.2,0-0.5L231.5,196.6L231.5,196.6z"/>
<path fill="#FFFFFF" d="M233,197.1c0,0.3,0,0.4,0,0.6c0,0.1,0,0.1-0.1,0.1c0,0,0,0-0.1,0c0,0,0,0,0,0c0,0,0,0,0,0c0.1,0,0.3,0,0.3,0
	c0.1,0,0.2,0,0.4,0c0,0,0,0,0,0c0,0,0,0,0,0s-0.1,0-0.1,0c-0.1,0-0.1,0-0.1-0.1s0-0.3,0-0.6v-0.4c0-0.4,0-0.4,0-0.5s0-0.1,0.1-0.1
	c0,0,0,0,0.1,0c0,0,0,0,0,0c0,0,0,0,0,0c-0.1,0-0.2,0-0.3,0c-0.1,0-0.2,0-0.3,0c0,0,0,0,0,0s0,0,0,0s0.1,0,0.1,0c0,0,0.1,0,0.1,0.1
	s0,0.1,0,0.5L233,197.1L233,197.1z"/>
<path fill="#FFFFFF" d="M234.7,197.8c0.1,0,0.3,0,0.4-0.1c0.2-0.1,0.2-0.3,0.2-0.4c0-0.2-0.1-0.4-0.4-0.6l0,0
	c-0.2-0.2-0.3-0.3-0.3-0.3c0-0.1,0.1-0.3,0.3-0.3c0.2,0,0.2,0.1,0.3,0.1s0,0.1,0,0.2c0,0,0,0,0,0c0,0,0,0,0-0.1c0-0.2,0-0.3,0-0.3
	c0,0,0,0,0,0s-0.2,0-0.3,0c-0.3,0-0.6,0.2-0.6,0.5c0,0.2,0.1,0.4,0.4,0.6l0.1,0.1c0.2,0.2,0.3,0.3,0.3,0.4
	C235.1,197.6,235,197.7,234.7,197.8c-0.1-0.1-0.3-0.2-0.3-0.3c0,0,0-0.1,0-0.1c0,0,0,0,0,0c0,0,0,0,0,0.1c0,0,0,0.2,0,0.3
	c0,0,0,0.1,0,0.1C234.5,197.8,234.6,197.8,234.7,197.8"/>
<path fill="#FFFFFF" d="M227.4,147.3c0-0.4-0.7-0.6-0.9-0.7c-0.3,0-0.6,0.6-1,0.9c-0.3-1.7-0.2-2.5,0-3.3c0.7,1.4,1.7,1.6,2.3,1.6
	c-1.8-1.4-1.5-2.7-2-2.8c-0.3,0-0.6,0-0.7,0c-0.6,0-0.7,1.2-0.8,1.8c-0.4-0.8-0.8-1.4-1.5-2.3c-0.6-1.7-1.4-1.3-2.3-2
	c0.6,1,0.1,1.6,1.6,2.3c0.4,0.4,0.9,0.9,1.2,1.4c-0.3,0.3-0.4,0.5-0.6,0.7c-0.2,0.3-0.3,1.3-0.9,2.1c0.9-0.4,1.2-0.9,1.5-1.4
	c2.7,2,0.5,7.2-0.1,8.3c-0.6-0.4-1.4-0.6-2-0.7L221,153l-0.6-2h0.3c0.3,0,0.4-0.2,0.4-0.4l1.8,0.6l0.8,0.3l-0.5-0.7l-0.9-1.2
	l0.9-1.2l0.5-0.7l-0.8,0.3l-1.7,0.5c-0.1-0.4-0.4-0.6-0.8-0.6l0.6-1.9l0.3-0.8l-0.7,0.5l-1.2,0.9l-1.2-0.9l-0.7-0.5l0.3,0.8l0.6,1.9
	c-0.3,0-0.6,0.2-0.8,0.6l-1.7-0.5l-0.8-0.3l0.5,0.7l0.9,1.2l-0.9,1.2l-0.5,0.7l0.8-0.3l1.8-0.6c0,0.2,0,0.4,0.3,0.4h0.3l-0.6,2
	l-0.1,0.2c-0.7,0.1-1.5,0.3-2.1,0.8c-1.8-3.5-1.3-7,0.2-8.2c0,0.7,0.6,1.7,0.9,2c-0.2-0.8,0.1-2.1-0.3-2.5c-0.3-0.3-0.7-0.3-1.2-0.3
	c0.3-0.5,0.7-1.2,1.4-2.1c1.1-0.5,1.4-1.7,1.6-2.3c-1.2,0.4-2,1-2.2,2c-0.4,0.6-0.9,1.2-1.4,1.9c0-0.9-0.5-1.2-1.2-1.3
	c-2,0.4-1.8,1.8-3.5,2.8c1.2,0.4,2.9-2.1,3.5-1.8c0.1,1.5-0.3,2.7-0.3,3.6c-0.3-0.3-0.4-0.6-0.7-0.6c-0.3,0-0.9,0-1.3,0.5
	c-0.1,0.8-0.1,2.2-0.8,4c1.1-1,1.6-2.9,1.8-3.5c0.3,0.4,0.6,1.2,0.6,2c0.1,1.4,1,3.7,1.7,4.9c-0.2,0.4-0.3,0.8-0.2,1.3
	c-0.6,0.4-0.6,1-0.4,1.4c0.2,0.4,0.8,0.7,1.4,0.5l0.2-0.1c0.7-0.3,2-0.8,3.5-0.8c1.5,0,2.9,0.5,3.5,0.8l0.2,0.1
	c0.6,0.3,1.2,0,1.4-0.5c0.2-0.4,0.1-1-0.4-1.4c0.1-0.5,0-1-0.3-1.4h0c1.3-1.9,1.4-5.5,2.5-6.6c0.1,1.3,0.8,2.3,1.4,2.5
	C227.3,149.9,227.3,148.1,227.4,147.3 M221.3,149l1-0.3l-0.5,0.6l-0.1,0.2l0.1,0.2l0.5,0.6L221,150
	C221.1,149.8,221.2,149.5,221.3,149 M216.5,150.4l0.5-0.6l0.1-0.2l-0.1-0.2l-0.5-0.6l1,0.3c0,0.4,0.2,0.7,0.3,1L216.5,150.4z
	 M220.5,150.1h-0.8l0.1-1.4C220.9,148.2,220.8,149.3,220.5,150.1 M220.2,152.4l-0.7-0.5l-0.2-0.1l-0.2,0.1l-0.7,0.5l0.4-1.4h0.8
	L220.2,152.4z M219.2,147.1l0.2,0.1l0.2-0.1l0.7-0.5l-0.4,1.3h0c-0.1-0.2-0.2-0.3-0.4-0.3c-0.2,0-0.3,0.1-0.4,0.3h0l-0.4-1.3
	L219.2,147.1z M218.3,150.1c-0.4-0.8-0.5-1.9,0.7-1.4l0.1,1.4H218.3z M219.4,152.5l0.9,0.7c-0.4,0-0.7,0-0.9,0c-0.2,0-0.5,0-0.9,0
	L219.4,152.5z M215.6,157.4l-0.2,0.1c-0.3,0.1-0.5,0-0.5-0.1c-0.1-0.1,0-0.4,0.3-0.6c0,0,0.1,0,0.1-0.1l0.6,0.6
	C215.8,157.3,215.7,157.3,215.6,157.4 M217.8,156.6l-0.7-0.7c0.6-0.1,1.2-0.3,1.7-0.3l0.4,0.8C218.8,156.5,218.3,156.5,217.8,156.6
	 M221.6,156.8l-0.4-0.9c0.6,0.1,1.2,0.3,1.7,0.5l0.2,0.9C222.7,157.1,222.2,156.9,221.6,156.8 M219.4,155c-1.3,0-2.7,0.3-3.8,0.8
	c0-0.3,0.1-0.5,0.3-0.6c0.6-0.8,2.3-1.1,3.6-1.1c1.2,0,2.9,0.3,3.6,1.1c0.2,0.2,0.3,0.4,0.3,0.6C222.1,155.3,220.7,155,219.4,155"/>
<path fill="#FFFFFF" d="M210.2,175.4c0.2-1.5-0.1-1.6-0.5-2c-0.4-0.3-1-0.4-1.6-0.8c-0.4-0.3-0.6-0.7-1.1-1.3
	c0.1-1.5,1.8-3.4,2.3-3.1v-0.8c-0.7-0.3-2,0.5-3.1,3c-0.1-0.1-0.2-0.2-0.3-0.3c0.1-0.6-0.1-1.1-0.5-1.5c0.4-0.3,1.5-0.8,2.1-1.2
	c0.7-0.5,0.9-0.7,1.7-0.5c0,0,0.2-0.2,0.2-0.4c-0.6-0.8-1.6-0.6-2.2,0.2c-0.5,0.4-1.7,1.2-2.4,1.4c-1.1-0.9-2.7-1.7-3.9-2.9
	c0,0,1.6,0,2.3-0.3c0.2-0.1,0.7-0.9,0.5-1.7c-0.3-0.1-0.6-0.3-1-0.5c-0.4-0.3-0.9-0.5-1.1-0.7c-0.7-0.5-1-1-2.2-1.3
	c0.1-0.6,0.2-0.4,0.7-0.8c0.7-0.5,1.1-1,1.3-1.5c0.2-0.4,0-1.3-0.6-0.2c-0.2,0.4-0.7,0.9-1.3,1.1c0-0.3,0.1-0.6,0.1-0.7
	c1.7-1.2,1.6-2.3,1.4-3.4c-0.1-0.6-0.7-0.9-0.6-0.2c0,0.4,0.4,1.6-0.8,2.3c0-0.5-0.2-0.8-0.3-1c1.1-1.4,0.6-2.8,0.2-3.4
	c-0.3-0.4-1-0.6-0.7,0.1c0.3,0.5,0.7,1.9-0.1,2.5c-0.3-0.3-0.6-0.5-0.7-0.9c0.1-1.5,0-2.5-0.2-3c-0.2-0.5-0.7-0.9-0.6-0.1
	c0,0.9,0.1,1.9,0,2c-0.1,0-1.2-1-1.7-1.3c-0.5-0.3-1-0.2-0.5,0.4c0.5,0.6,1.9,1.6,1.7,2c-0.1,0.2-1.2-0.6-1.7-0.8
	c-0.6-0.2-0.7,0.1-0.3,0.5c0.7,0.6,1.2,1,2.5,1.4c1.2,0.4,1.8,2.1,1.4,4.5c0,0.1-0.2,0.1-0.3,0c0-0.9-0.2-2-0.4-2.5
	c-0.3-0.6-0.9-0.6-0.6,0.2c0.2,0.7,0.3,1.4,0.2,2.3c-1-0.2-1.4-0.4-1.8-0.7c0-0.5,0.2-1.2,0.3-1.9c0-0.7-0.3-1.1-0.6-0.3
	c-0.2,0.8-0.3,1.2-0.5,1.8c-0.3-0.1-0.6-0.2-0.7-0.4c-0.1-0.1,0-1-0.1-1.7c-0.1-0.8-0.3-0.7-0.6-0.1c-0.1,0.3-0.2,0.7-0.2,1.2
	c-0.3-0.2-0.6-0.6-0.6-0.9c0-0.8,0.2-1.6,0.3-2.1c0.1-0.4-0.2-1.1-0.5-0.2c-0.2,0.6-0.3,1.2-0.4,1.7c-0.3,0-0.6-1.5-0.8-2.5
	c-0.1-0.4-0.4-0.9-0.5,0c-0.1,1.1,0.1,2.1,0.4,2.6c-0.5,0-1-1-1.4-1.5c-0.3-0.5-0.5,0-0.4,0.2c0.3,1.9,1.8,2.6,2.5,2.7
	c1.1,1.5,3.1,2.2,4.8,2.9c-2.2,0-2.8,0.9-3.8,0.3c0,0.9,0.5,1.2,0.9,1.4c0.3,0.1,0.6,0.2,0.7,0.2c0.2,1,1.2,1,2,1
	c-0.2,2,0,4.6,1.8,6.6c0,1-0.1,2.3-0.1,3.2c-1.4,1.3-2.7,4.1-3.2,5.6c-0.4,1.2-0.9,2-1.8,2.5c0.7,0.8,1.8,0.4,2.4,0
	c0,0.7,0.2,1.2,0.3,1.5c-0.4,0.6-0.7,1-0.6,1.8c-0.5,0.1-0.8,0.4-1,0.7c-0.2,0.2,0,1.1,0.2,1.5c0.6,1.3,0.1,4.2,0,5
	c0.3,0,0.7,0,0.8-0.3c0.1,0.1,0.5,0.4,0.6,0.9c0,0.3-0.2,1.1,0.3,1.2c0.4,0.1,2,0,2.2-0.3c-0.2-0.2-0.4-0.6-0.6-1c0-0.4,0-1-0.2-1.2
	c-0.2-0.3-0.6-1.1-0.9-1.4c-0.1-0.5-0.1-2.9,0.1-3.8c0.4-0.3,3.2-2.4,3.8-4.4c0.5,0.2,0.3,1.6,0.3,3.4c0,0.5,0.6,0.7,0.9,0.8
	c0.8,0.1,1.8,0.8,3.1,2.6c0.3-0.3,0.6-0.5,0.6-0.5c0.2,0.2,0.3,0.7,0.5,1.1c0.1,0.3,1.1,0.4,1.9,0.2c0.3-0.1,0.4-0.1,0.6-0.4
	c-0.9-1.7-1.5-2.8-2.8-3.7c-0.6-0.4-1.3-0.6-2-1.1c0.4-0.8,1.6-4.5,0.9-5.9c-0.3-0.5-1.1-0.9-2.2-0.7c0.9-1.1,2.7-3.2,3-3.9
	c0.2,0.3,1.3,0.1,2.1,0.4c0.3,0.1,1.1,1.2,1.2,1.5c0.1,0.6,0.1,1.4-0.3,3.2c0.3,0,0.3-0.1,0.6-0.2c0,0.5-0.1,0.9-0.5,1.6
	c0.1,0.6,0.4,1.7,0.7,1.8c0.4-1.2,1.9-2.9,1.9-4C210.8,177.1,210.2,176,210.2,175.4 M195.5,162.6c-0.2-0.3-0.3-0.6-0.4-0.6
	c0.9-0.5,1.9-0.1,2.5-0.7c0.4,0.2,1,0,1.3,0c0.9-0.1,2,0.8,2.8,1.4c0.3,0.3,0.6,0.4,0.9,0.5c-0.2,0.7-0.2,0.8,0.4,0.9
	c0,0.2-0.2,0.3-0.9,0.3c-0.7-0.1-1.5,0-1.8,0c-2,1-2.6-0.6-2.6-1.7l0,0l0,0C196.4,163.3,195.9,163,195.5,162.6 M203.6,179.1
	c0.7,0.9-0.3,4.6-0.7,5.2c-0.3,0.6,0.3,1,0.6,1.1c1.4,0.4,2.9,1.8,3.4,2.9l-0.5,0.2c-1.1-1.5-1.4-1-1.7-0.7c-0.3-0.5-1.6-2-2.5-2
	c-0.8-0.1-0.8-0.6-0.7-0.9c0.1-0.8,0-2,0-2.6c-0.1-0.5-0.6-1.2-0.9-1.2c0.2-0.4,0-1.7,1-2.2C202.5,178.4,203.5,178.9,203.6,179.1
	 M209.6,179.9c-0.1,0-0.2,0-0.3-0.2c0.3-0.9,0.3-1.3,0.3-1.5c-0.2,0.1-0.3,0-0.4,0c0.3-1.4,0.1-2.2-0.1-2.8
	c-0.2-0.6-0.9-1.4-1.2-1.5c-0.4-0.2-0.8-0.5-1.6-0.6c-1.7-1.4-2.1-0.6-3.3-0.7c-0.2-0.2-0.5-0.5-0.5-0.5l-0.5,0.4
	c0,0,0.5,0.6,0.6,1.1c0,0,1.1-0.2,1.9,0c-0.3,1.1-1.8,2.5-3.2,4c-1.5,1.7-1.5,2-1.5,3.4c0,1.6-2.1,3.9-3.8,5
	c-0.1,0.4-0.3,3.9-0.1,4.4c0.1,0.2,0.6,0.7,0.9,1.2c0.1,0.2,0.1,0.7,0.2,1.1c-0.2,0-0.4,0-0.6-0.1c-0.1-0.5-0.5-1.2-1.2-1.6
	c0.2-1.9,0.4-3-0.3-4.9c0-0.2,0.9-0.7,0.9-0.7s0.3-1.4,1.1-2.1c-0.6-1.5-0.7-3.5-0.7-3.5s-0.3,0.5-0.9,0.9c1.5-4.9,1.8-3.5,3.7-7
	c1.2-5.7-2-6.8-1.5-8.8c1.2,1.1,1.7,0.7,2.7,0.5c0.9,0.7,2.1,2.3,3.2,2.7c1.9,0.6,1.8,2.4,1.5,3.2c0.8,0,1.4,0.3,1.7,0.7
	c1.3,2,2.1,1.4,2.9,2.3c0.3,0.4,0,1.5,0.4,2.6c0.3,0.7,0.4,1.4,0.4,1.7C210.2,178.7,209.7,179.4,209.6,179.9"/>
<path fill="#FFFFFF" d="M199.8,163.1c0.4,0,0.6-0.3,0.9-0.1c0-0.1-0.3-0.1-0.3-0.2c0,0,0-0.1,0-0.1c0-0.3-0.2-0.6-0.7-0.7
	c-0.1,0.3-0.7,0.5-0.9,0.7c0.1,0,0.2,0,0.2,0C199.3,162.8,199.2,163.1,199.8,163.1"/>
<path fill="#FFFFFF" d="M229.4,166.3h-10h-10H209v0.4v7.2c0.1,0.1,0.3,0.2,0.4,0.3c0.3,0.4,0,1.5,0.4,2.6c0,0,0,0.1,0,0.1h9.2v14.7
	c-1.1-0.4-3.3-1.5-5.3-3.5c-2.5-2.4-3.8-5.4-4-8.8c-0.1,0.2-0.1,0.3-0.2,0.5c-0.1,0-0.2,0-0.3-0.2c0.3-0.9,0.3-1.3,0.3-1.5
	c-0.2,0.1-0.3,0-0.4,0c0.3-1.4,0.1-2.2-0.1-2.8c0,0,0-0.1-0.1-0.2v3.5c0,3.9,1.4,7.2,4.2,10c2.5,2.4,5.2,3.5,6,3.8l0.1,0l0.1,0
	c0.8-0.3,3.5-1.4,6-3.8c2.8-2.7,4.2-6.1,4.2-10v-0.6c-0.3,0.4-0.5,0.6-0.8,0.7c0,3.7-1.4,6.8-4,9.4c-2,2-4.3,3-5.3,3.5v-14.8h9.3
	v1.4c0.9-1.2,0.5-4.4,0-4.7v2.8h-19.3v-9.2h9.6h9.6v6.3c0.3-0.2,0.6,0,0.8,0.4v-7.1v-0.4H229.4z"/>
<line fill="#FFFFFF" x1="179.1" y1="140.9" x2="179.1" y2="218.5"/>
<rect x="178.7" y="140.9" fill="#FFFFFF" width="0.7" height="77.7"/>
<path fill="#FFFFFF" d="M131.6,192c-0.9,0-1.5,0.7-1.5,2.1h3c0-0.7-0.1-1.2-0.3-1.5C132.6,192.2,132.1,192,131.6,192"/>
<polygon fill="#FFFFFF" points="108.5,173.2 106.4,180 110.7,180 "/>
<path fill="#FFFFFF" d="M113,192c-0.9,0-1.5,0.7-1.5,2.1h3.1c0-0.7-0.1-1.2-0.3-1.5C113.9,192.2,113.5,192,113,192"/>
<path fill="#FFFFFF" d="M163.7,167.2c-0.3,0-0.6,0.4-1,0.4c-0.4,0-0.3,0-0.7-0.3c-0.8-0.3-0.5-0.3-0.9-0.6c-0.2-0.1-0.7-0.2-0.5-0.5
	c0.4-0.6,1.2-1.2,0.5-1.6c-1-0.6-1.7-1.7-2.3-2.6c-0.4-0.6-0.9-1.2-1.4-1.7c-0.1-0.1-0.4-0.3-0.4-0.4c0-0.1,0.2-0.3,0.4-0.4
	c0.5-0.3,0.7-0.7,0.5-1.5c-0.1-0.5,0.3-1.1,0.4-1.6c0-0.1,0.2-0.5,0.2-0.6c0-0.3,0-0.5,0-0.7c0.2,0,0.7,0,1.1-0.1
	c0.5-0.2,0.6-0.2,0.3-0.7c-0.3-0.6-0.3-1.4-0.6-1.9c-0.2-0.4,0.2-0.6,0.4-0.8c0.6-0.5,0.7-0.5,0.3-1.2c-0.5-0.7-0.9-1.3-1.4-2
	s-0.9-2.3-0.3-2.9c0,0,0.1-0.2-0.1-0.3c0,0-0.1-0.1-0.1-0.1c0-0.1,0-0.8,0.1-1.5c0-0.3,0-0.5,0-0.7c0-0.3,0-0.5,0-0.8
	c0-0.1,0.2-0.1,0.2-0.3c0,0,0-0.1-0.1-0.2c-0.1,0-0.2-0.1-0.3-0.1c-0.1,0-0.3,0-0.3,0c-0.1,0-0.1,0.2-0.1,0.4c0,0.1,0,0.2,0,0.3
	c0,0.3,0,0.4,0,0.6c0,0.5,0,0.8-0.1,1.4c0,0.8,0,0.8-0.8,0.6c-0.4-0.1-0.8-0.2-1.2-0.3c-0.3,0-0.5-0.1-0.7-0.3
	c-0.2-0.3-0.4-0.7-0.3-1c0.3-0.1,0.6-0.2,0.7-0.3c0.2-0.2-0.4-0.4-0.5-0.6c-0.5-1.6-3.2-1.4-3.5,0.3c0,0,0,0.1-0.1,0.1
	c-0.1,0-0.2,0.2-0.3,0.3c-0.1,0.1,0,0.2,0,0.3c0,0.1,0.1,0.2,0.2,0.2l0.6,0.1l0,0c0,0,0,0,0.1,0l0,0c0,0,0,0,0,0.1c0,0,0,0.1,0,0.1
	c0,0,0,0.1,0,0.2c0,0,0,0.1,0,0.1c0,0,0,0,0,0c0,0,0,0,0,0c0,0,0,0,0,0l0,0c0,0,0,0,0,0h0c0,0,0.1,0,0.2,0c0,0,0,0,0,0
	c0,0,0,0.1,0,0.2c0,0,0,0.1,0,0.1c0,0,0.1,0,0.1,0c0,0,0,0.1,0,0.1c0,0,0,0,0,0l0,0c0,0,0,0,0.1,0c0,0,0,0,0,0.1c0,0.1,0,0.1,0,0.2
	c0.1,0.2,0.3,0.1,0.5,0l0,0c0,0,0,0,0.1,0l0,0c0.1,0,0.2,0,0.2,0.1s0.1,0.1,0.2,0.2l0,0c-0.2,0.2-0.6,0.4-0.7,1.1c0,0.6,0,0.9,0,1.5
	c0,0.6-0.3,1.3-0.4,1.9c0,0.5-0.3,0.5-0.7,0.4c-0.6-0.1-1,0-0.8,0.7c0,0.2-0.1,0.3-0.2,0.5c-1,1.4-1.3,3-0.9,4.7
	c0.2,0.8,0.2,1.5-0.2,2.1c-0.2,0.3-0.1,0.5,0.2,0.7c0.6,0.5,1.8,0.6,2.4,0.2c0.3-0.2,0.4-0.3,0.3-0.7c0-0.1-0.2-0.4-0.2-0.6
	c0-0.2,0.1-0.4,0.1-0.6s-0.1-0.5-0.1-0.6c0-0.3,0.1-0.4,0.3-0.4c0.3-0.1,0.1,0,0.2,0.1c0.3,0.6,0.1,0.7,0.1,1c0,0.4,0,1.3-0.1,1.7
	c-0.1,1.1,0.1,2.1,1,2.8c0,0,0.1,0.1,0.1,0.1c0.1,0,0.1,0,0.2,0.1c0,0.2,0.1,0.3,0.1,0.5c0,0.1,0,0.2,0,0.3c0,0.3,0.1,0.5,0.1,0.7
	c0,0.3,0.1,0.5,0.1,0.8l0,0c0.1,0.3,0.2,0.6,0.2,1l0,0c0,0.2,0,0.3,0,0.5c-0.1,0.2-0.2,0.1-0.6,0c-0.3-0.1-0.5-0.1-0.6-0.1
	c-0.1,0-1.5,0.3-1.9,0.1c-0.4-0.1-1.8,0-2.2-0.1c-0.2,0-1.9-0.1-2.4,0.1c-0.6,0.2-0.7,0.2-1,0.1c-0.1,0-1.1,0.3-1.4,0.3
	c-0.2,0-0.6-0.1-0.7-0.1c-0.1-0.1-0.1-0.4-0.1-0.6c-0.1-0.2-0.1-0.1-0.1-0.4c0-0.7,0-1.2,0-2.1c0-0.9-0.3-1.5-0.4-2.3
	c0-0.2,0.1-0.4,0-0.6c0-0.1,0-0.1,0-0.2c-0.3-1-0.2-1.7-0.1-1.9c0.1,0,0.3,0,0.6,0c0.6,0,0.4-0.3,0.5-0.8c0-0.9,0.1-1.4,0.1-2.3
	c0-0.7,0.2-1.2,0.6-1.7c0.4-0.5,0.5-0.8,0.9-1.2c0,0,0,0,0,0c0,0,0.1-0.2,0-0.3c-0.2-0.1-0.4-0.2-0.6-0.3c0,0-0.1-0.1,0-0.2
	c0,0,0-0.1,0-0.1c0-0.1,0-0.2,0-0.3c0-0.3,0-0.2-0.2-0.5c-0.3-0.4-0.8-1.2-0.9-1.7c-0.1-0.4-0.3-1-0.5-1.4c-0.3-0.6-0.6-1.1-1.2-1.5
	c-0.1-0.1-0.3-0.2-0.5-0.4c-0.1-0.1,0-0.4,0-0.5s-0.3,0.1-0.3,0c-0.2-0.3-0.1-0.6-0.1-0.9c0,0,0.3,0,0.5-0.1
	c0.3-0.1,0.4-0.3,0.1-0.5c-0.3-0.2-0.5-0.3-0.5-0.5c0-0.5-0.5-0.9-1.1-0.9c-0.7,0-1.4-0.1-1.7,0.8c-0.1,0.3-0.3,0.4-0.6,0.6
	c-0.2,0.1-0.4,0.4,0,0.6c0.2,0,0.4,0.1,0.7,0.1c0,0.1,0,0.2,0,0.3c0,0.1,0,0.3,0,0.4c0,0,0,0,0,0.1c0,0,0,0.1,0.1,0.1h0
	c0,0,0,0,0.1,0c0,0,0,0.1,0,0.1l0,0c0,0,0,0,0,0l0,0v0c0,0,0,0,0,0l0,0l0,0c0,0,0,0.1,0.1,0.1l0,0l0,0c0,0,0,0.1,0,0.1l0,0
	c0,0,0,0,0,0c0,0,0,0,0,0.1l0,0c0,0,0,0,0.1,0.1c0,0,0.1,0,0.1,0s0.1,0,0.2,0c0.1,0,0.2,0,0.2,0c0,0.1,0.1,0.1,0.1,0.2v0
	c0,0,0,0.1,0,0.2c-0.1,0.1-0.3,0.2-0.3,0.3c-0.2,0.4-0.3,0.8-0.3,1.2c0,0.1,0,0.3,0,0.3c0,0-0.1,0.1-0.1,0.1c-0.1,0-0.2,0-0.3,0
	c-0.1,0-0.3,0-0.4,0.1c-0.1,0.1-0.2,0.1-0.3,0.3c0,0.2-0.2,0.3-0.1,0.6c0,0.2,0,0.6,0,0.8c0,0.4,0,0.6,0,0.9c0.1,0.4,0.2,0.8,0,1.4
	c-0.2,0.5-0.3,1-0.6,1.4c-0.2,0.1-0.3,0.2-0.5,0.3c0,0-0.1,0.1-0.1,0.2c0,0,0,0,0,0c0,0,0,0-0.1,0.1c0,0-0.2,0.1-0.2,0.1
	c0,0-0.1,0.1-0.2,0.1c-0.1,0-0.3,0.2-0.3,0.2c0,0-0.1,0.1-0.1,0.1c0,0,0,0,0,0.1c0,0-0.1,0.1-0.1,0.2c0,0,0,0.1,0,0.1
	c0,0,0,0.1,0.1,0.1c0,0,0.1,0.1,0.3,0.1c0,0,0.1,0,0.1,0c0,0,0.1,0,0.1,0s0.1,0,0.1,0s0.1,0,0.1,0c0.1,0,0.1,0,0.1-0.1l0.1-0.1
	c0.1-0.1,0.2-0.3,0.3-0.5l0,0c0,0.1,0.2,0.3,0.3,0.3l0,0l0,0c0,0,0.1,0,0.1-0.1c0,0,0-0.1,0.1-0.1c0.1,0,0.2-0.1,0.2-0.2
	c0,0,0.1-0.1,0.2-0.2l0,0c0,0,0,0,0,0c0,0,0.1,0,0.2,0s0.1,0,0.2,0c-0.1,0.2-0.3,0.5-0.3,0.5c0,0.3,0.2,0.7,0.3,1
	c0.4,0.6,0.6,1.1,0.3,1.8c-0.2,0.4-0.4,1.7-0.4,1.7s0.3,0.4,0.7,0.6c0,0.2,0,0.5,0,0.7c0,0.2,0.3,0.3,0.3,0.4v0.1
	c-0.1,0.7,0,1.4,0.1,2.1c0,0.1,0,0.1,0,0.2c0,0.2,0,0.4,0,0.6v0c0,0.1,0,0.2,0,0.3c0,0.2-0.1,0.3-0.2,0.5c-0.2,0-0.4,0-0.5,0.1
	c-0.1,0-0.4,0-0.8,0.2h0c-0.1,0-0.2,0-0.3,0.1c0,0,0,0-0.1,0c-0.3,0-0.7,0.2-1,0.3c-0.2-0.1-0.6,0-0.7-0.1c-0.4-0.1-0.6,0.1-1,0
	c-0.3-0.1-1.8-0.3-2-0.2c-0.1,0-0.4-0.2-0.5-0.3c-0.1-0.1-0.1-0.3-0.2-0.6c-0.1-0.4-0.2-0.9-0.3-1.2c0-0.1,0-0.6,0-0.7
	c0-0.1,0.2,0,0.3,0c0.2,0,0.3,0,0.5,0c1,0,0.7,0.2,0.6-0.9c-0.1-1-0.1-1.8-0.2-2.8c0-0.6-0.3-1.2-0.4-1.8c0-0.1-0.3-0.9-0.3-0.9
	c0.1,0,0.4,0.2,0.6,0.3c0.1,0,0.2,0,0.3-0.1c0,0,0,0,0,0c0.3-0.2,0.5-0.6,0.7-0.9c0.1,0.1,0.2,0.2,0.3,0.2c0,0,0,0,0.1,0
	c0.2-0.1-0.1-0.4-0.2-0.5c-0.5-0.5-1-0.9-1.7-1.4c0,0-0.3,0-0.4,0c-0.2-0.1-0.1-0.3-0.1-0.3c0-0.1,0.1-0.2,0.1-0.3
	c0-0.3-0.1-0.8-0.1-1.2c0-0.3,0.1-0.4,0-0.7c-0.1-0.3-0.3-0.6-0.3-0.9c0-0.1,0-0.2,0-0.3c0-0.4,0-0.5-0.1-0.7
	c-0.1-0.2-0.3,0-0.3-0.3c0-2-0.3-2.8-0.7-3.7c-0.6-1.4-0.7-1.1-1.7-1.5c-0.3-0.1-0.2-0.3-0.4-0.6c-0.1-0.1-0.1,0-0.1,0
	c-0.3,0.1-0.3-0.4-0.3-0.4c0.5-0.1,0.4-0.1,0.7-0.2c0.2-0.1,0.3-0.3,0.1-0.3c-0.1-0.1-0.4-0.2-0.6-0.3c-0.8-1.7-2.6-1.3-2.9,0.3
	c-0.4,0.2-0.6,0.4-0.7,0.5c0,0.1,0,0.2,0.1,0.3c0.2,0.1,0.3,0.1,0.8,0.1c0,0,0,0,0,0c0,0.1,0,0.1,0.1,0.2l0,0v0.1l0,0v0
	c0,0.1,0,0.2,0,0.3l0,0v0v0c0,0.1,0.1,0.1,0.2,0.1c0.1,0,0.1,0,0.1,0v0v0l0,0c0,0,0,0.1,0.1,0.1l0,0c0,0,0,0.1,0,0.1l0,0l0,0
	c0,0,0,0,0.1,0c0,0,0,0,0.1,0.1l0,0c0,0.1,0,0.1,0.1,0.2c0,0,0.1,0.1,0.2,0c0,0,0.1,0,0.1,0l0,0l0,0c0,0,0,0,0.1,0l0,0c0,0,0,0,0,0
	l0,0h0c0.1,0.1,0.2,0.3,0.2,0.4c-0.1,0.3-0.1,0.7-0.3,1.1c-0.1,0.4-0.3,0.8-0.3,1c0,0-0.1,0.1-0.1,0c0,0-0.1,0-0.1-0.1
	c-0.1,0-0.1,0-0.2,0c-0.1,0-0.2,0.1-0.3,0.2c-0.1,0-0.1,0-0.1,0.1c0,0.1,0,0.2,0,0.4c0.2,0.8,0.3,0.9,0.4,1.9c0,0.2,0,0.3,0.1,0.5
	c0,0.1,0,0.2,0,0.3c0,0.1-0.2,1-0.4,1.2c-0.2,0.2-0.3,0.3-0.5,0.5c0,0,0,0,0,0.1c-0.1,0.2-0.2,0.4-0.3,0.6c0,0,0,0.1-0.1,0.2v0l0,0
	c0,0,0,0,0,0l0,0c0,0,0,0,0,0c0,0-0.1,0.1-0.1,0.1l0,0c-0.1,0.2-0.3,0.4-0.2,0.6c0,0,0,0.1,0,0.2c0,0.1,0.1,0.7,0.2,0.7
	c0.1,0,0-0.2,0-0.4c0.1,0.1,0.3,0.2,0.3,0.1c0,0,0-0.1,0-0.1c0.1,0,0.2-0.2,0.3-0.6c0,0,0.1-0.1,0.1-0.2l0.5,0.3c0,0,0,0,0,0
	c0,0,0.1-0.1,0.1-0.2c0.2-0.3,0.5-0.9,0.5-0.8c0,0.4,0.1,1.3,0,1.4c0,0.3,0,0.6,0.1,0.7c0.2,0.1,0.6-0.1,0.8-0.2
	c0.3-0.1,0.5,0.6,0.4,1c-0.1,0.3-0.1,0.6-0.3,0.8c-0.5,0.7-0.2,1.4-0.2,2.1c0,0.1,0,0.5,0.1,0.6c0.1,0,0.5-0.1,0.5,0
	c0.1,0.3,0.2,0.6,0.2,1c0,0.9,0.3,1.9,0.4,2.8c0.1,0.8-0.3,1.3-0.9,1.3c-0.6,0-1.3-0.1-2-0.1c-0.3,0-0.2-0.2-0.7-0.2
	c-0.2,0-0.9,0-1.1,0c-0.4-0.2-0.8-0.3-1.2-0.4c-0.4,0-0.8,0.1-1.2,0.2c-0.4,0-0.8,0-1.3,0c-0.8,0.1-0.9,0-1-0.7
	c-0.1-0.9-0.3-1.5-0.4-2.3c-0.1-0.6-0.4-1.4-0.6-1.7c-0.3-0.3-0.2-0.6-0.1-1.1c0.1-0.7,0.4-1.7,0.3-2.3c0-0.2-0.1-0.3-0.3-0.5
	c0-0.1,0.3,0,0.3-0.1c0.1,0,0-0.3,0-0.5c0-0.2,0.1-0.5,0.2-0.7c0.1-0.1,0.5-0.1,0.6-0.2c-0.2-0.2-0.3-0.8-0.4-1
	c-0.6-1-0.5-1.4-1.1-2.4c-0.2-0.3-0.4-1.2-0.4-1.5c0-0.6,0-1.6,0-2.2c0-1.2-0.4-1.9-1.4-2.6c0,0,0,0,0-0.1l0,0
	c0-0.1-0.1-0.2-0.2-0.3c0,0,0-0.1-0.1-0.2c0-0.1-0.1-0.1-0.2,0c-0.1-0.2-0.2-0.4-0.2-0.5c0.2,0,0.3,0,0.4,0c0.2,0,0.2-0.3,0.1-0.3
	c-0.1-0.1-0.2-0.2-0.4-0.3c-0.1-0.1-0.2-0.1-0.3-0.3c-0.1-0.4-0.5-1.1-1.4-1.1c-1.1,0-1.3,1.1-1.3,1.1c0,0.1,0,0.1-0.2,0.2
	c-0.1,0-0.2,0.1-0.4,0.2c-0.2,0.1-0.2,0.4,0.1,0.4c0.2,0,0.4,0,0.8,0c0,0,0,0.1,0,0.1c0,0,0,0,0,0c0,0,0,0.1,0,0.1
	c0.1,0.2,0.1,0.6,0.2,0.6c0,0,0.2,0,0.2,0l0,0c0,0,0,0,0,0.1c0,0,0,0,0,0l0,0l0,0l0,0l0,0c0,0,0,0,0,0l0,0l0,0h0l0,0l0,0
	c0,0,0,0,0,0.1h0h0c0,0,0,0,0,0l0,0c0,0,0,0,0,0l0,0c0,0,0,0,0,0c0,0,0,0,0,0l0,0c0.1,0.1,0.3,0.1,0.5,0c0,0,0,0,0.1,0
	c0,0,0,0.1,0,0.1c-0.1,0.3-0.2,0.5-0.3,0.9c0,0.1-0.2,0.3-0.3,0.3c-0.8,0.4-0.6,1.8-0.8,2.5c-0.1,0.9,0,1.2-0.1,1.7
	c0,0.1-0.1,0.2,0,0.3c0.1,0.1,0.5,0.1,0.6,0.2c0.2,0,0.1,0.2,0.1,0.2s-0.4,0.8-0.7,1c-0.3,0.2-0.1,0.8-0.2,0.9
	c0,0.1-0.7,0.6-0.8,0.6c0,0,0,0.3,0,0.6c0,0.3,0,0.6,0.1,0.6c0.1,0,0.3,0,0.8,0c0.1,0.3,0.4,0.3,0.5,0.4c0.1,0.1,0.2,0.4,0.1,0.6
	c-0.1,0.6,0.4,1.3-0.1,2c-0.1,0.2,0,1.4,0,1.5c0.1,0.1,0.2,0.1,0.2,0.2c0,0.9,0,1.6,0.2,2.2c0.1,0.3,0.2,0.4,0.3,0.8
	c0.1,0.3,0.3,1.3,0.3,1.7c0,0.2-0.6,0-0.8-0.1c-0.3-0.1-0.6,0-0.9,0c-0.4-0.1-0.5-0.1-0.9-0.1c-0.3,0-0.8-0.1-1.1,0
	c-0.3,0.1-0.6,0.1-0.9,0.2c-0.3,0.1-0.8,0.1-1.2,0.1c-0.5,0-1-0.1-1.2-0.4c-0.2-0.3-0.4-0.5-0.6-0.8c-0.1-0.3-0.2-0.7-0.3-1.1
	c-0.2-0.6-0.5-1.1-0.8-1.6c0-0.1,0-0.2-0.1-0.3c0.3-0.2,0.2-0.8,0.2-1.1c0-0.3-0.1-0.6-0.1-0.8c0-0.2,0-0.3,0-0.6
	c0.2-0.2,0.4-0.4,0.6-0.6c0.2-0.2,0.3-0.5,0.4-0.6c0.1-0.1-0.1-1.2,0-1.2c0.1,0,0.2,0.3,0.3,0.3c0,0.2,0,0.4,0.2,0.7
	c0.1,0.1,0.2,0.1,0.7,0.1c0.3,0-0.1,0.6,0.6,0.5c0.2,0,0.3,0,0.3-0.1c0.2-0.1,0-0.3,0.3-0.6c1-0.9,0.6-0.9,0.6-1.7
	c0-0.6,0.7-0.6,0.3-1.3c0-0.1,0.1,0,0.3-0.1c0.1,0,0.1-0.2,0.2-0.2c0.1,0,0.1,0,0.1,0c-0.1,0.1,0,0.7,0,1c0,0.3,0,0.6,0.4,0.7
	c0.4,0,0.3-0.3,0.4-0.6c0-0.2,0-0.6,0-0.6c0-0.1,0-0.1,0-0.1c0,0,0.3-0.2,0.3-0.3c0.2-0.3,0.5-0.6,0.5-0.6c0.1-0.1,0.5-0.6,0.2-1
	c-0.2-0.3-0.4-0.6-0.7-0.9c-0.1-0.1-0.2-0.3-0.3-0.4c-0.1-0.1-0.2-0.1-0.2-0.1c-0.1-0.1-0.2-0.3-0.3-0.4c-0.4-0.5-0.9-1-1.2-1.5
	c-0.2-0.3-0.5-0.2-0.8-0.2c-0.7,0-1.7,0.2-2.5,0c-0.8-0.2-1.4-1-2.3-1.3c0,0-0.2,0-0.2-0.1s0-0.3,0-0.3c0-0.1,0-0.2,0-0.2
	c0.3,0.1,0.5,0.1,0.6,0.1c0-0.1,0-0.1,0-0.2c-0.1-0.2-0.3-0.3-0.3-0.3c0.2-0.5,0.1-1.1-0.6-1.5c-0.9-0.5-1.7-0.4-2.2,0.4
	c-0.3,0-0.4,0-0.5,0.1c0,0.1,0,0.1,0.3,0.3c0,0.1,0,0.1,0,0.2c0,0,0,0,0,0.1l0,0c0,0,0,0.1,0,0.2c0,0.1,0,0.2,0.1,0.2
	c0,0,0.1,0.1,0.1,0.2c0,0,0,0.1,0,0.2c0,0.1,0,0.2-0.1,0.3c0,0,0,0.1,0,0.1s0,0,0,0s0,0,0,0c0,0,0.1,0,0.2,0c0,0.1,0.1,0.2,0.1,0.3
	c0,0.2,0,0.4,0.1,0.5h0h0h0c0.1,0,0.2,0,0.3,0c0,0,0.1,0,0.1,0c0.1,0.1,0.1,0.3,0,0.3c-0.4,0.3-0.7,0.7-0.8,0.8
	c-0.2,0.3-0.1,0.8,0,1.2c0,0.2,0,0.4-0.1,0.4c0,0,0,0-0.1,0c-0.2,0-0.3,0.6-0.3,0.7l0,0.1c0.1,0.2,0.1,0.7,0,1.2
	c-0.1,0.5-0.2,1.1-0.3,1.4c-0.3,0.8-0.4,1.2-0.5,2.1c0,0.1,0.1,0.1,0.1,0.1c0.3,0,0.5,0.1,0.8,0.2c0.1,0,0.1,0,0.2,0.1
	c0.2,0,0.4,0,0.6,0.1c0,0,0.1,0,0.1,0.1c0,0,0.1,0.1,0.1,0.1c0,0.1,0.1,0.2,0.1,0.3v0c0,0,0,0,0,0.1c0.1,0.4,0,0.9,0.1,1.3
	c0.1,0.6,0,1.2,0.1,1.7c0.1,0.4,0.2,0.6,0.5,0.9c0,0.1,0.1,0.1,0.2,0.2c0.2,0.1,0.3,0.2,0.5,0.3c0,0,0,0,0,0.1v0c0,0,0,0.1,0,0.1
	l0,0c0.2,1.1,1.1,2.5,0.3,3.5c-0.3,0.1-0.5,0.1-0.7,0c-0.2,0-0.4,0-0.7-0.2s-0.3,0-0.9,0c-0.3,0-0.4-0.1-0.7,0
	c-0.3,0.1-0.7,0.1-0.9,0.2c-0.3,0.1-0.6,0-0.9,0.2c-0.2,0.1-0.4,0.1-0.6,0.1l-0.5,0.1v39.5c21.6,0,43.2,0,64.9,0V167
	C164.1,167.4,163.9,167.2,163.7,167.2 M125.4,153.9c0,0.1,0,0.1,0,0.2c0,0-0.1,0-0.1-0.1c-0.1-0.2,0.1-0.3,0.2-0.5
	C125.6,153.6,125.5,153.9,125.4,153.9 M106.4,149.6c0.5,0.2,1,0,1,0s-0.3,0.2-0.6,0.4c-0.2,0.2-0.3,0.5-0.4,0.5
	C106.4,150.2,106.4,149.6,106.4,149.6 M105.5,163.4L105.5,163.4L105.5,163.4L105.5,163.4z M107.5,171.7h2.2l4.6,13.9h-1.9l-1.3-4.3
	h-5.2l-1.3,4.3h-1.7L107.5,171.7z M106.7,198.1c-1,0-2-0.4-2.7-1.2c-0.8-0.9-1.1-2.1-1.1-3.5c0-2.7,1.6-4.7,3.8-4.7
	c0.9,0,1.7,0.3,2.3,0.8l-0.6,0.7c-0.6-0.4-1.1-0.6-1.7-0.6c-1.1,0-1.8,0.6-2.3,1.6c-0.3,0.6-0.4,1.4-0.4,2.4c0,0.9,0.1,1.4,0.3,2
	c0.5,1.2,1.4,1.7,2.5,1.7c0.7,0,1.2-0.2,1.8-0.6l0.6,0.7C108.5,197.9,107.6,198.1,106.7,198.1 M115.6,194.8h-4.2v0.2
	c0,0.6,0.1,1.1,0.3,1.4c0.4,0.6,1,0.8,1.7,0.8c0.6,0,1.2-0.2,1.6-0.6l0.4,0.7c-0.6,0.6-1.4,0.8-2.3,0.8c-1.8,0-3-1.3-3-3.5
	c0-1.1,0.3-1.8,0.8-2.5c0.6-0.6,1.2-0.9,2-0.9c0.7,0,1.4,0.3,1.8,0.7c0.6,0.6,0.8,1.2,0.8,2.8L115.6,194.8L115.6,194.8z
	 M155.6,161.7c0.1,0,0.3,0,0.3,0.1c0,0,0,0,0.1,0s0,0,0.1,0c0.2,0.1,0.4,0.3,0.5,0.3c0.9,0.9,2,1.6,2.6,2.9c0.1,0.2,0,0.3-0.1,0.4
	c-0.2,0.4-0.2,0.4-0.3,0.7c-0.2,0.3-0.2,0.4-0.9,0.3c0,0-0.4,0-0.6,0h0c0,0,0,0-0.1,0s-0.1,0-0.2,0c-0.2,0-0.4,0-0.6,0
	c0,0-0.1,0-0.1-0.1c0,0,0,0,0,0c0,0,0,0,0,0s0,0,0-0.1c-0.1-0.2-0.2-0.4-0.2-0.6c0-0.3,0-0.6,0.1-0.8c0-0.1,0-0.2,0-0.3s0-0.2,0-0.2
	v0c0-0.3,0-0.6,0-0.9c0-0.1,0-0.3,0-0.3v0v0c0-0.2-0.1-0.4-0.1-0.6c0-0.1-0.2-0.3-0.2-0.4c0,0-0.1-0.1-0.1-0.1l0,0c0,0,0,0,0-0.1
	C155.4,161.8,155.5,161.7,155.6,161.7 M141.3,162.6C141.3,162.6,141.3,162.5,141.3,162.6c0-0.1,0-0.2,0-0.3l0,0c0-0.1,0-0.2,0-0.3v0
	c0-0.1,0-0.2,0-0.3c0,0.1,0.1,0.3,0.1,0.4c0,0,0,0.2,0.1,0.4c0,0,0,0,0,0.1l0,0c0.2,0.6,0.5,1.5,0.6,1.9c0,0.1,0.2,0.9-0.4,1
	c0,0-0.1,0-0.1,0c0,0,0,0,0,0c-0.1,0-0.2-0.1-0.2-0.1v0c-0.1-0.1-0.2-0.3-0.2-0.4c0-0.1-0.1-0.3-0.1-0.3
	C141,164,141.3,163.3,141.3,162.6 M116,159c-0.1-0.4,0.4-1.2,0.4-1.2s0.2,0.3,0.2,0.7c0,0.3,0.1,0.7,0.1,0.7
	c0.2,0.2,0.1,0.1,0.3,0.1c0.1,0,0.3,0,0.4,0.1c0.3,0.9,0.5,1.3,0.8,2.3c0.1,0.3,0.5,1.7,0.5,2.1c0,0,0,0-0.4,0c0,0-0.4,0-0.5,0
	c-0.2,0-0.3,0-0.4,0c-0.1,0-0.1,0.2-0.2,0.2c-0.2,0-0.3,0-0.3,0c-0.1,0-0.3-0.3-0.3-0.5c0-0.2-0.1-0.6-0.2-1.2
	C116.2,161,116.4,160.1,116,159 M122.5,198h-1.1v-4.5c0-0.7,0-0.9-0.3-1.1c-0.1-0.2-0.4-0.3-0.7-0.3c-0.6,0-1.4,0.4-1.8,0.9v5h-1
	v-5.2c0-0.9-0.3-1.4-0.3-1.4l1-0.3c0,0,0.3,0.5,0.3,1.1c0.7-0.7,1.4-1,2.1-1c0.7,0,1.4,0.4,1.6,1c0.1,0.3,0.2,0.5,0.2,0.8L122.5,198
	L122.5,198z M119.5,177.1c-0.9-1.7-1.6-3.4-1.6-3.4s0.2,2,0.2,3.8l0.1,8.1h-1.7v-13.8h1.9l4.6,8.9c0.7,1.3,1.2,2.8,1.3,2.9
	c0,0-0.2-2.3-0.2-4.2l-0.1-7.6h1.6v13.9h-1.7L119.5,177.1z M126.9,197.4c0.3,0,0.5,0,0.6-0.1l0.2,0.7c-0.3,0.2-0.7,0.3-1.2,0.3
	c-0.3,0-0.6-0.1-0.9-0.2c-0.5-0.2-0.6-0.6-0.6-1.3v-4.6h-0.9v-0.8h0.9c0-0.6,0.1-1.7,0.1-1.7l1.1-0.3c0,0-0.1,1.1-0.1,1.9h1.7
	l-0.3,0.8H126v4.3C126,197.2,126.3,197.4,126.9,197.4 M128.4,184.3l5.9-9.9c0.5-0.9,0.9-1.3,0.9-1.3s-0.6,0-1.4,0h-5.2l0.5-1.4h7.9
	v1.4l-5.8,9.8c-0.5,0.8-0.9,1.3-0.9,1.3s0.6,0,1.2,0h5.5l-0.4,1.4h-8.3L128.4,184.3L128.4,184.3z M134.3,194.8h-4.2v0.2
	c0,0.6,0.1,1.1,0.3,1.4c0.4,0.6,1,0.8,1.7,0.8c0.6,0,1.2-0.2,1.6-0.6l0.4,0.7c-0.6,0.6-1.4,0.8-2.3,0.8c-1.8,0-3-1.3-3-3.5
	c0-1.1,0.3-1.8,0.8-2.5c0.6-0.6,1.2-0.9,2-0.9c0.7,0,1.4,0.3,1.8,0.7c0.6,0.6,0.8,1.2,0.8,2.8L134.3,194.8L134.3,194.8z M141.2,198
	h-1.1v-4.5c0-0.7,0-0.9-0.3-1.1c-0.1-0.2-0.4-0.3-0.7-0.3c-0.6,0-1.4,0.4-1.8,0.9v5h-1v-5.2c0-0.9-0.3-1.4-0.3-1.4l1-0.3
	c0,0,0.3,0.5,0.3,1.1c0.7-0.7,1.4-1,2.1-1c0.7,0,1.4,0.4,1.6,1c0.1,0.3,0.2,0.5,0.2,0.8L141.2,198L141.2,198z M140.4,185.6h-1.7
	l4.6-13.9h2.2l4.6,13.9h-1.9l-1.3-4.3h-5.2L140.4,185.6z M147.9,198.3c-0.5-0.2-0.8-0.5-0.9-1c-0.6,0.6-1.2,0.9-1.9,0.9
	c-1.7,0-2.1-1-2.1-1.9c0-1.5,1.3-2.4,3.5-2.4c0.3,0,0.5,0,0.5,0v-0.5c0-0.6,0-0.8-0.2-1c-0.2-0.3-0.5-0.4-0.9-0.4
	c-0.8,0-1.7,0.4-2.1,0.8l-0.5-0.8c0.9-0.6,1.8-0.9,2.8-0.9c0.9,0,1.6,0.3,1.8,1.1c0.1,0.3,0.2,0.9,0.1,1.4l0,2.2
	c0,1.1,0,1.4,0.5,1.6L147.9,198.3z M153.2,192.3c0,0-0.2,0-0.3,0c-0.4,0-0.8,0.2-1.1,0.5c-0.3,0.3-0.4,0.5-0.4,1.1v4.2h-1v-5.2
	c0-1-0.2-1.4-0.2-1.4l1-0.3c0,0,0.3,0.5,0.2,1.1c0.5-0.7,1.2-1.1,1.9-1.1c0.2,0,0.3,0.1,0.3,0.1L153.2,192.3z M158.3,198.3
	c-0.4,1.3-1,2.2-2.2,2.5l-0.3-0.7c0.9-0.3,1.2-0.7,1.5-2l-0.4,0.1c-0.1-0.4-0.4-1.7-0.7-2.4l-1.4-4.2l1-0.3l1.4,4.3
	c0.2,0.6,0.4,1.7,0.4,1.7h0c0,0,0.3-0.9,0.4-1.4l1.3-4.4h1.2L158.3,198.3z M156.8,185.9c-1.5,0-3-0.6-4-1.8
	c-1.2-1.3-1.7-3.2-1.7-5.3c0-4.1,2.5-7.2,5.8-7.2c1.3,0,2.6,0.4,3.5,1.2l-0.9,1.1c-0.9-0.6-1.6-0.9-2.6-0.9c-1.6,0-2.8,0.9-3.4,2.4
	c-0.4,0.9-0.6,2-0.6,3.7c0,1.3,0.1,2.1,0.4,2.9c0.7,1.7,2.1,2.6,3.7,2.6c1,0,1.8-0.3,2.7-0.9l0.9,1.1
	C159.5,185.4,158.2,185.9,156.8,185.9"/>
<path fill="#FFFFFF" d="M144.1,196.2c0,0.8,0.4,1.2,1.2,1.2c0.7,0,1.3-0.4,1.6-1l0-1.7c-0.2,0-0.3,0-0.5,0
	C144.7,194.6,144.1,195.1,144.1,196.2"/>
<polygon fill="#FFFFFF" points="142.2,180 146.6,180 144.5,173.2 "/>
<rect x="99.3" y="217.2" fill="#FFFFFF" width="64.9" height="1.3"/>
<path fill="#FFFFFF" d="M109.4,215.2c0,0-0.3,0.1-0.5,0.1c-0.3,0-0.6-0.1-1-0.3c0,0-0.1-0.1-0.2-0.1c-0.2-0.1-0.5-0.3-0.7-0.4
	c0.3-0.1,0.6-0.4,0.8-0.6c0.6-0.7,0.9-1.6,0.9-2.8c0-1.1-0.2-2-0.6-2.6c-0.3-0.5-0.9-1.3-2.3-1.3c-1.2,0-1.8,0.6-2.2,1.2
	c-0.4,0.6-0.7,1.6-0.7,2.6c0,1.2,0.3,2.1,0.8,2.8c0.3,0.5,1,1.1,2,1.1l0,0c0.7,0.1,0.9,0.3,1.4,0.6c0.4,0.3,1,0.6,1.4,0.6
	c0.3,0,0.5,0,0.6-0.1h0l0.3-0.7L109.4,215.2z M107.3,213.3c-0.4,0.6-0.9,0.8-1.5,0.8c-0.9,0-1.4-0.5-1.6-0.9
	c-0.3-0.6-0.5-1.4-0.5-2.4c0-0.9,0.1-1.6,0.4-2.1c0.3-0.6,0.9-0.9,1.6-0.9c1,0,1.4,0.6,1.7,1.1c0.3,0.6,0.4,1.3,0.4,2.3
	C107.8,212.1,107.7,212.8,107.3,213.3"/>
<path fill="#FFFFFF" d="M113.8,207.2v5.2c0,0.6-0.1,0.9-0.3,1.2c-0.3,0.3-0.7,0.5-1.3,0.5c-0.9,0-1.2-0.3-1.4-0.6
	c-0.1-0.2-0.2-0.6-0.2-1.2v-5h-0.7v5.2c0,0.6,0.1,1,0.3,1.3c0.4,0.6,1,0.9,2,0.9c0.9,0,1.4-0.2,1.9-0.6s0.5-0.9,0.5-1.7v-5.2
	L113.8,207.2L113.8,207.2z"/>
<polygon fill="#FFFFFF" points="116.7,214 116.7,211.1 119.2,211.1 119.2,210.4 116.7,210.4 116.7,207.9 119.8,207.9 119.9,207.2 
	115.9,207.2 115.9,214.6 119.9,214.6 119.9,214 "/>
<polygon fill="#FFFFFF" points="121.9,214 121.9,211.1 124.4,211.1 124.4,210.4 121.9,210.4 121.9,207.9 125,207.9 125.1,207.2 
	121.1,207.2 121.1,214.6 125.2,214.6 125.2,214 "/>
<path fill="#FFFFFF" d="M130.4,207.2v4.8c0,0.3,0,0.7,0,1.4c-0.1-0.3-0.3-0.6-0.5-1l-2.8-5.2v0h-0.8v7.4h0.8v-5c0-0.4,0-0.9,0-1.2
	c0.1,0.3,0.3,0.6,0.5,1.1l2.7,5.2v0h0.7v-7.4H130.4z"/>
<path fill="#FFFFFF" d="M136.7,211.3c-0.3-0.3-0.6-0.5-1.2-0.7l-0.8-0.3c-0.4-0.1-0.7-0.3-0.9-0.5c-0.2-0.2-0.3-0.5-0.3-0.8
	c0-0.8,0.6-1.2,1.5-1.2c0.6,0,1.1,0.1,1.7,0.6l0,0l0.3-0.6l0,0c-0.6-0.4-1.3-0.6-2-0.6c-1.3,0-2.3,0.8-2.3,2c0,0.5,0.2,0.9,0.5,1.2
	c0.3,0.3,0.7,0.5,1.2,0.6l0.7,0.2c0.4,0.1,0.7,0.3,1,0.5c0.2,0.2,0.3,0.5,0.3,0.9c0,0.5-0.2,0.9-0.5,1.1c-0.3,0.2-0.6,0.3-1.2,0.3
	c-0.7,0-1.3-0.2-1.9-0.6l-0.1,0l-0.3,0.6l0,0c0.7,0.4,1.4,0.6,2.2,0.6c0.6,0,1.2-0.1,1.6-0.4c0.6-0.4,0.9-1,0.9-1.7
	C137.2,212.1,137,211.6,136.7,211.3"/>
<polygon fill="#FFFFFF" points="139.2,214 139.2,207.2 138.4,207.2 138.4,214.6 142,214.6 142.1,214 "/>
<path fill="#FFFFFF" d="M146.1,207.3L146.1,207.3l-0.9,0l-2.4,7.3l0,0.1h0.7l0.8-2.3h2.7l0.7,2.3v0h0.8L146.1,207.3z M146.8,211.6
	h-2.3l1.2-3.6L146.8,211.6z"/>
<path fill="#FFFFFF" d="M153.6,207.2l0,4.8c0,0.3,0,0.7,0,1.4c-0.1-0.3-0.3-0.6-0.5-1l-2.8-5.2v0h-0.9v7.4h0.8l0-5
	c0-0.4,0-0.9,0-1.2c0.1,0.3,0.3,0.6,0.5,1.1l2.7,5.2v0h0.8v-7.4H153.6z"/>
<path fill="#FFFFFF" d="M159.4,207.8c-0.7-0.5-1.2-0.6-2.4-0.6h-1.3v7.4h1.6c1,0,1.7-0.1,2.3-0.8c0.6-0.6,1-1.6,1-2.9
	C160.7,209.5,160.3,208.4,159.4,207.8 M159.9,211c0,0.9-0.3,1.7-0.7,2.3c-0.4,0.6-1.1,0.6-1.9,0.6h-0.8v-6.1h0.8
	c0.8,0,1.4,0.1,1.8,0.6C159.7,209,159.9,209.8,159.9,211"/>
<path fill="#FFFFFF" d="M152.9,144.8L152.9,144.8L152.9,144.8L152.9,144.8z"/>
</svg>
