<?xml version="1.0" encoding="utf-8"?>
<!-- Generator: Adobe Illustrator 18.1.1, SVG Export Plug-In . SVG Version: 6.00 Build 0)  -->
<!DOCTYPE svg PUBLIC "-//W3C//DTD SVG 1.1//EN" "http://www.w3.org/Graphics/SVG/1.1/DTD/svg11.dtd">
<svg version="1.1" id="Layer_1" xmlns="http://www.w3.org/2000/svg" xmlns:xlink="http://www.w3.org/1999/xlink" x="0px" y="0px"
	 viewBox="0 0 591.4 185.1" style="enable-background:new 0 0 591.4 185.1;" xml:space="preserve">
<path style="fill:#010101;" d="M33.3,145.6v0.6c0,2,0.6,3.3,2.8,3.3c1.3,0,2.5-0.8,2.5-2.6c0-1.9-1-2.6-3.8-3.6
	c-3.8-1.3-5.5-2.9-5.5-6.4c0-4.1,2.5-6.2,6.5-6.2c3.8,0,6.5,1.6,6.5,5.7v0.6h-4.1c0-2-0.7-3.1-2.3-3.1c-1.9,0-2.4,1.2-2.4,2.5
	c0,1.3,0.4,2.1,2.2,2.9l3.3,1.4c3.2,1.4,4,3,4,5.6c0,4.5-2.7,6.5-7.3,6.5c-4.8,0-6.7-2.2-6.7-6.2v-0.9H33.3z"/>
<path style="fill:#010101;" d="M46.5,131.7h4.1v4.6H53v2.8h-2.4v8.6c0,1.2,0.3,1.7,1.5,1.7c0.3,0,0.7,0,0.9-0.1v2.8
	c-0.9,0.1-1.7,0.2-2.7,0.2c-3.2,0-3.8-1-3.8-4.2V139h-2.1v-2.8h2.1V131.7z"/>
<path style="fill:#010101;" d="M54.8,141.1v-0.4c0-3.7,2.5-4.9,5.6-4.9c4.9,0,5.8,2,5.8,4.9v8.4c0,1.5,0.1,2.2,0.5,3.1h-3.9
	c-0.3-0.5-0.4-1.1-0.5-1.7h-0.1c-0.9,1.7-2.1,2.1-4.1,2.1c-2.8,0-3.8-2.4-3.8-4.6c0-3,1.2-4.2,4-5l2.3-0.6c1.2-0.3,1.6-0.8,1.6-1.9
	c0-1.2-0.5-2-1.9-2c-1.2,0-1.9,0.8-1.9,2.1v0.4H54.8z M62.3,144.2c-0.6,0.4-1.2,0.7-1.7,0.8c-1.7,0.4-2.3,1.2-2.3,2.6
	c0,1.2,0.4,2.2,1.5,2.2c1.1,0,2.5-0.7,2.5-2.5V144.2z"/>
<path style="fill:#010101;" d="M70.2,131.7h4.1v4.6h2.4v2.8h-2.4v8.6c0,1.2,0.3,1.7,1.4,1.7c0.3,0,0.7,0,0.9-0.1v2.8
	c-0.9,0.1-1.7,0.2-2.7,0.2c-3.2,0-3.8-1-3.8-4.2V139h-2.1v-2.8h2.1V131.7z"/>
<path style="fill:#010101;" d="M82,144.8v1.3c0,1.9,0.5,3.7,2,3.7c1.4,0,1.9-1,2.2-3h3.7c-0.2,3.7-1.9,5.8-5.8,5.8
	c-5.9,0-6.2-4.6-6.2-8.5c0-4.3,0.8-8.2,6.3-8.2c4.8,0,5.8,3.2,5.8,8.1v0.9H82z M86.2,142.4c-0.1-2.4-0.4-3.8-2.1-3.8
	c-1.6,0-2.1,1.7-2.1,3.2v0.6H86.2z"/>
<polygon style="fill:#010101;" points="97.2,152.2 97.2,131 101.4,131 101.4,148.7 109,148.7 109,152.2 "/>
<path style="fill:#010101;" d="M111,130.8h4.1v3.5H111V130.8z M111,136.2h4.1v15.9H111V136.2z"/>
<path style="fill:#010101;" d="M118.1,131h4.1v6.7h0.1c0.9-1.3,1.9-1.9,3.4-1.9c3.3,0,4.9,2.5,4.9,8.4c0,5.9-1.5,8.4-4.9,8.4
	c-1.6,0-2.7-0.6-3.6-2.1H122v1.7h-3.9V131z M124.4,149.4c1.8,0,2.1-1.8,2.1-5.2c0-3.5-0.4-5.2-2.1-5.2c-1.8,0-2.2,1.8-2.2,5.2
	C122.2,147.7,122.6,149.4,124.4,149.4"/>
<path style="fill:#010101;" d="M133.2,136.2h3.9v2.1h0.1c0.8-1.5,2-2.5,3.7-2.5c0.2,0,0.5,0,0.7,0.1v3.9c-0.4,0-0.9-0.1-1.3-0.1
	c-1.4,0-3,0.7-3,2.9v9.6h-4.1V136.2z"/>
<path style="fill:#010101;" d="M143.2,141.1v-0.4c0-3.7,2.5-4.9,5.6-4.9c4.9,0,5.8,2,5.8,4.9v8.4c0,1.5,0.1,2.2,0.5,3.1h-3.9
	c-0.3-0.5-0.4-1.1-0.5-1.7h-0.1c-0.9,1.7-2.1,2.1-4.1,2.1c-2.8,0-3.9-2.4-3.9-4.6c0-3,1.2-4.2,4-5l2.3-0.6c1.2-0.3,1.6-0.8,1.6-1.9
	c0-1.2-0.5-2-1.9-2c-1.2,0-1.9,0.8-1.9,2.1v0.4H143.2z M150.7,144.2c-0.6,0.4-1.2,0.7-1.7,0.8c-1.7,0.4-2.3,1.2-2.3,2.6
	c0,1.2,0.4,2.2,1.5,2.2c1.1,0,2.5-0.7,2.5-2.5V144.2z"/>
<path style="fill:#010101;" d="M157.7,136.2h3.9v2.1h0.1c0.8-1.5,2-2.5,3.7-2.5c0.2,0,0.5,0,0.7,0.1v3.9c-0.4,0-0.9-0.1-1.3-0.1
	c-1.4,0-3,0.7-3,2.9v9.6h-4.1V136.2z"/>
<path style="fill:#010101;" d="M168.5,154.3c0.4,0.1,0.7,0.1,1.1,0.1c1.5,0,2.1-0.8,2.2-2.3l-4.5-15.9h4.3l2.4,11h0.1l2.1-11h4.1
	l-3.9,14.9c-1.4,5.5-2.3,6.3-6.1,6.3h-1.7V154.3z"/>
<path style="fill:#010101;" d="M35.3,166.1c4.9-0.1,6.3,2.8,6.3,8.4c0,5.5-1.6,8.4-6.3,8.4c-4.9,0.1-6.3-2.8-6.3-8.4
	C29.1,169.1,30.7,166.1,35.3,166.1 M35.3,180.1c1.7,0,2.2-1.6,2.2-5.6s-0.5-5.6-2.2-5.6c-2,0-2.2,2.3-2.2,5.6
	C33.1,177.8,33.3,180.1,35.3,180.1"/>
<path style="fill:#010101;" d="M45.1,169.3h-2.1v-2.8h2.1v-1.8c0-2.9,1.6-3.8,4.3-3.8c0.7,0,1.5,0,2.2,0.1v2.9c-0.3,0-0.5,0-0.8,0
	c-1.2,0-1.6,0.4-1.6,1.3v1.4h2.4v2.8h-2.4v13.1h-4.1V169.3z"/>
<path style="fill:#010101;" d="M71,185.1l-2.5-2.6c-0.4,0.1-0.8,0.3-1.3,0.3c-0.4,0.1-0.9,0.1-1.5,0.1c-6.4,0-7.2-4.6-7.2-11
	c0-6.4,0.8-11,7.2-11c6.4,0,7.2,4.6,7.2,11c0,3.6-0.2,6.6-1.6,8.6l2.3,2.3L71,185.1z M65.6,179.8c2.5,0,2.9-2.2,2.9-7.8
	c0-5.7-0.4-7.8-2.9-7.8c-2.5,0-2.9,2.2-2.9,7.8C62.7,177.6,63.1,179.8,65.6,179.8"/>
<path style="fill:#010101;" d="M83.8,180.6L83.8,180.6c-0.9,1.6-2.4,2.3-4.1,2.3c-2.5,0-4.1-1.4-4.1-4.5v-11.8h4.1v11
	c0,1.6,0.5,2.2,1.7,2.2c1.4,0,2.2-0.9,2.2-2.6v-10.6h4.1v15.9h-3.9V180.6z"/>
<path style="fill:#010101;" d="M94.4,175.1v1.3c0,1.9,0.5,3.7,2,3.7c1.4,0,1.9-1,2.2-3h3.7c-0.1,3.7-1.9,5.8-5.8,5.8
	c-5.9,0-6.2-4.6-6.2-8.5c0-4.3,0.8-8.2,6.3-8.2c4.8,0,5.8,3.2,5.8,8.1v0.9H94.4z M98.6,172.7c-0.1-2.4-0.4-3.8-2.1-3.8
	c-1.6,0-2.1,1.7-2.1,3.2v0.6H98.6z"/>
<path style="fill:#010101;" d="M108.6,175.1v1.3c0,1.9,0.5,3.7,2,3.7c1.4,0,1.9-1,2.2-3h3.7c-0.1,3.7-1.9,5.8-5.8,5.8
	c-5.9,0-6.2-4.6-6.2-8.5c0-4.3,0.8-8.2,6.3-8.2c4.8,0,5.8,3.2,5.8,8.1v0.9H108.6z M112.8,172.7c-0.1-2.4-0.4-3.8-2.1-3.8
	c-1.6,0-2.1,1.7-2.1,3.2v0.6H112.8z"/>
<path style="fill:#010101;" d="M119.3,166.6h3.9v1.9h0.1c0.9-1.6,2.3-2.3,4.1-2.3c2.5,0,4.1,1.4,4.1,4.5v11.8h-4.1v-11
	c0-1.6-0.5-2.2-1.7-2.2c-1.4,0-2.2,0.9-2.2,2.6v10.6h-4.1V166.6z"/>
<path style="fill:#010101;" d="M137.5,177.3v0.5c0,1.4,0.7,2.3,2.1,2.3c1.2,0,2.1-0.6,2.1-1.9c0-1-0.7-1.5-1.5-1.8l-2.9-1
	c-2.3-0.8-3.4-2.2-3.4-4.4c0-2.6,1.7-4.8,5.9-4.8c3.7,0,5.4,1.7,5.4,4.5v0.7h-3.7c0-1.6-0.5-2.4-1.8-2.4c-1,0-1.9,0.6-1.9,1.7
	c0,0.8,0.4,1.4,1.8,1.9l2.5,0.8c2.6,0.9,3.5,2.2,3.5,4.6c0,3.3-2.5,5-5.9,5c-4.6,0-5.9-2-5.9-5.1v-0.6H137.5z"/>
<rect x="148.1" y="161.3" style="fill:#010101;" width="4.1" height="21.1"/>
<path style="fill:#010101;" d="M155.2,171.4v-0.4c0-3.7,2.5-4.9,5.6-4.9c4.9,0,5.8,2,5.8,4.9v8.4c0,1.5,0.1,2.2,0.5,3.1h-3.9
	c-0.3-0.5-0.4-1.1-0.5-1.7h-0.1c-0.9,1.7-2.1,2.1-4.1,2.1c-2.8,0-3.9-2.4-3.9-4.6c0-3,1.2-4.2,4-5l2.3-0.6c1.2-0.3,1.6-0.8,1.6-1.9
	c0-1.2-0.5-2-1.9-2c-1.2,0-1.9,0.8-1.9,2.1v0.4H155.2z M162.6,174.5c-0.6,0.4-1.2,0.7-1.7,0.8c-1.7,0.4-2.3,1.2-2.3,2.6
	c0,1.2,0.4,2.2,1.5,2.2s2.5-0.7,2.5-2.5V174.5z"/>
<path style="fill:#010101;" d="M169.5,166.6h3.9v1.9h0.1c0.9-1.6,2.3-2.3,4.1-2.3c2.5,0,4.1,1.4,4.1,4.5v11.8h-4.1v-11
	c0-1.6-0.5-2.2-1.7-2.2c-1.4,0-2.2,0.9-2.2,2.6v10.6h-4.1V166.6z"/>
<path style="fill:#010101;" d="M192.7,180.8L192.7,180.8c-0.9,1.5-2.1,2.1-3.7,2.1c-3.3,0-4.9-2.5-4.9-8.4s1.5-8.4,4.9-8.4
	c1.5,0,2.6,0.6,3.4,1.9h0.1v-6.7h4.1v21.1h-3.9V180.8z M190.3,179.8c1.8,0,2.2-1.8,2.2-5.2c0-3.5-0.4-5.2-2.2-5.2
	c-1.8,0-2.1,1.8-2.1,5.2C188.2,178,188.6,179.8,190.3,179.8"/>
<path style="fill:#010101;" d="M97.2,88.8c4.6-8.7,6.6-18.8,5.4-29.3C99.5,31.2,74.1,10.9,45.8,14C17.6,17.1-2.8,42.5,0.3,70.8
	c3.1,28.3,28.6,48.6,56.8,45.5c8.3-0.9,15.9-3.8,22.5-8.1c0.1,0,29.3,8.5,29.2,8.4C108.4,115.1,97.2,88.8,97.2,88.8 M53.5,75.1
	c-0.8,4.9-3.9,7.7-8.8,8.6c-1.6,0.3-3.5,0.4-5.4,0.3c-5.5-0.4-8.9-2.6-10.1-7.3c-0.4-1.5-0.4-3.3-0.4-5.4H38c0,1.5,0,2.9,0.4,3.9
	c0.4,1,1.3,1.5,2.7,1.5c1.4,0,2.3-0.5,2.8-1.4c0.5-0.9,0.4-2.6-0.1-3.5c-0.5-0.8-1.5-1.3-2.5-1.8c-1-0.4-2.1-0.8-3.1-1.2
	c-2.1-0.8-4-1.7-5.5-2.9c-1.6-1.3-2.7-3-3.2-5.3c-0.3-1.2-0.3-2.6-0.2-3.9c0.1-1.3,0.4-2.5,0.7-3.5c1.4-3.8,4.6-6.1,9.4-6.5
	c2.2-0.2,4.6,0.1,6.4,0.6c3,0.9,5.2,2.8,6.2,5.8c0.5,1.5,0.6,3.4,0.6,5.4h-8.9c0,0,0,0,0,0c0-2,0.1-3.9-1.4-4.4
	c-0.8-0.3-1.9-0.2-2.5,0.1c-0.7,0.3-1.1,0.9-1.2,1.7c-0.2,0.9-0.1,1.9,0.2,2.5c0.3,0.6,0.9,1,1.5,1.4c0.6,0.3,1.3,0.6,2,0.9
	c0.7,0.3,1.4,0.6,2,0.9c1.4,0.6,2.7,1.1,4,1.8c2.5,1.4,4.5,3.2,5.2,6.4C53.8,71.3,53.8,73.5,53.5,75.1 M75.2,83.4H56.8V47.2H66v28.2
	h9.1V83.4z"/>
<path style="fill:#010101;" d="M471.3,163c0,0-0.5,0.3-1.4,0.3c-1.2,0-2.3-0.7-2.9-1.1c-0.8-0.5-2-1.2-3.2-1.6
	c-2.4,0-3.9-0.7-5.1-2.2c-1.2-1.5-1.8-3.5-1.8-5.9c0-3.4,1.3-6.2,3.6-7.4c0.9-0.5,2.1-0.8,3.3-0.8c4.2,0,6.8,3.1,6.8,8
	c0,3.4-1.2,6-3.1,7.2c0.4,0.2,1,0.6,1.4,0.8c0.6,0.3,1.3,0.7,2,0.7c0.7,0,1.4-0.1,1.4-0.1L471.3,163z M466.4,148.8
	c-0.2-0.8-1.1-2-2.8-2c-1.1,0-2,0.5-2.5,1.4c-0.5,1-0.8,2.4-0.8,4.3c0,2.7,0.4,4.4,1.4,5.1c0.5,0.4,1.1,0.5,1.9,0.5
	c2.2,0,3.1-1.7,3.1-5.7C466.8,150.8,466.7,149.7,466.4,148.8"/>
<path style="fill:#010101;" d="M480.5,160.6c-0.4-0.3-0.7-0.7-0.9-1.1c-0.8,0.7-1.8,1.1-3.1,1.1c-1.6,0-3.1-0.8-3.4-1.9
	c-0.2-0.5-0.3-1.1-0.3-2.3V149l3-0.6v7.5c0,1,0.1,1.6,0.3,1.9c0.2,0.3,0.6,0.5,1.1,0.5c0.7,0,1.7-0.5,1.9-1.1V149l2.9-0.6v8.9
	c0,0.8,0.2,1.6,0.7,2.1L480.5,160.6z"/>
<path style="fill:#010101;" d="M487.7,155.5L487.7,155.5c0,1.9,0.9,2.9,2.5,2.9c1,0,2-0.4,2.9-1.2l1.2,1.8c-1.3,1.1-2.8,1.6-4.4,1.6
	c-3.3,0-5.5-2.4-5.5-6c0-2.1,0.4-3.5,1.5-4.6c0.9-1.1,2.1-1.6,3.7-1.6c1.3,0,2.6,0.5,3.4,1.2c1.1,1.1,1.5,2.7,1.5,5.1v0.7H487.7z
	 M491.3,153.1c0-0.9-0.1-1.3-0.4-1.7c-0.3-0.4-0.7-0.7-1.4-0.7c-1.2,0-1.8,0.9-1.8,2.5v0h3.5V153.1z"/>
<path style="fill:#010101;" d="M499.2,155.5L499.2,155.5c0,1.9,0.9,2.9,2.5,2.9c1,0,2-0.4,2.9-1.2l1.2,1.8c-1.3,1.1-2.7,1.6-4.4,1.6
	c-3.3,0-5.5-2.4-5.5-6c0-2.1,0.4-3.5,1.5-4.6c1-1.1,2.1-1.6,3.7-1.6c1.4,0,2.6,0.5,3.4,1.2c1.1,1.1,1.5,2.7,1.5,5.1v0.7H499.2z
	 M502.7,153.1c0-0.9-0.1-1.3-0.4-1.7c-0.3-0.4-0.7-0.7-1.3-0.7c-1.2,0-1.8,0.9-1.8,2.5v0h3.5V153.1z"/>
<path style="fill:#010101;" d="M514.2,160.3v-7.6c0-1.3-0.2-1.7-1-1.7c-0.6,0-1.4,0.4-2.1,1v8.2h-3v-8.4c0-1-0.1-1.9-0.4-2.7
	l2.7-0.8c0.3,0.5,0.4,1,0.4,1.5c0.5-0.3,0.8-0.6,1.3-0.9c0.6-0.3,1.4-0.5,2.1-0.5c1.3,0,2.4,0.7,2.8,1.7c0.2,0.4,0.2,0.9,0.2,1.7
	v8.5H514.2z"/>
<path style="fill:#010101;" d="M523.9,160.7c-1.4,0-3-0.5-4.7-1.3l1.1-2.2c0.9,0.6,2.5,1.3,3.9,1.3c0.9,0,1.5-0.6,1.5-1.3
	c0-0.8-0.6-1.2-1.8-1.4l-1.4-0.3c-0.8-0.1-1.7-0.7-2.1-1.2c-0.4-0.5-0.7-1.3-0.7-2.1c0-2.3,1.8-3.8,4.5-3.8c1.9,0,3.1,0.6,4.2,1.1
	l-1,2c-1.2-0.6-2-0.8-2.9-0.8s-1.5,0.4-1.5,1.1c0,0.6,0.4,0.9,1.5,1.2l1.4,0.4c1.4,0.4,1.9,0.8,2.3,1.3c0.4,0.5,0.6,1.2,0.6,2
	C528.8,159,526.8,160.7,523.9,160.7"/>
<path style="fill:#010101;" d="M533.9,160.6c-1.3,0-2.3-0.6-2.7-1.6c-0.2-0.6-0.3-1-0.3-2.6v-8.7c0-1.5,0-2.5-0.2-3.5l3.1-0.7
	c0.1,0.6,0.2,1.4,0.2,3v9.1c0,2,0,2.3,0.2,2.6c0.1,0.2,0.4,0.3,0.6,0.3c0.1,0,0.2,0,0.3,0l0.5,1.8
	C535.2,160.5,534.6,160.6,533.9,160.6"/>
<path style="fill:#010101;" d="M545.1,160.9c-0.7-0.3-1.3-0.8-1.6-1.4c-0.2,0.2-0.5,0.5-0.7,0.6c-0.6,0.4-1.4,0.6-2.3,0.6
	c-2.6,0-4-1.3-4-3.6c0-2.7,1.9-4,5.6-4c0.2,0,0.4,0,0.7,0v-0.5c0-1.3-0.2-1.7-1.4-1.7c-1,0-2.1,0.5-3.4,1.3l-1.3-2.2
	c0.6-0.4,1.1-0.6,1.9-1c1.1-0.5,2.1-0.7,3.2-0.7c2,0,3.3,0.7,3.7,2c0.2,0.5,0.2,0.8,0.2,2.1l-0.1,3.9c0,1.3,0.1,1.8,1.1,2.6
	L545.1,160.9z M542.5,155.2c-2.1,0-2.8,0.4-2.8,1.8c0,0.9,0.6,1.5,1.3,1.5c0.6,0,1.1-0.3,1.6-0.8l0-2.5H542.5z"/>
<path style="fill:#010101;" d="M555,160.3v-7.6c0-1.3-0.2-1.7-1-1.7c-0.6,0-1.4,0.4-2.1,1v8.2h-3v-8.4c0-1-0.1-1.9-0.4-2.7l2.7-0.8
	c0.3,0.5,0.4,1,0.4,1.5c0.4-0.3,0.8-0.6,1.3-0.9c0.6-0.3,1.4-0.5,2.1-0.5c1.3,0,2.4,0.7,2.8,1.7c0.2,0.4,0.2,0.9,0.2,1.7v8.5H555z"
	/>
<path style="fill:#010101;" d="M568.2,160.3c-0.1-0.2-0.1-0.4-0.2-0.7c-0.8,0.7-1.6,1-2.7,1c-3,0-4.8-2.3-4.8-5.9c0-3.6,2-6.1,5-6.1
	c0.8,0,1.5,0.2,2.1,0.7c-0.1-0.3-0.1-1-0.1-1.7v-4l3,0.5v12.1c0,2.9,0.2,3.8,0.4,4.3H568.2z M567.5,151.8c-0.6-0.5-1.1-0.7-1.6-0.7
	c-1.4,0-2,1.1-2,3.7c0,2.5,0.5,3.3,2.1,3.3c0.6,0,1.2-0.4,1.5-0.7V151.8z"/>
<path style="fill:#010101;" d="M463.7,183.3c-2,0-3.6-0.7-4.8-2c-1.3-1.4-1.9-3.4-1.9-6c0-3,0.8-5.1,2.4-6.5c1.1-1,2.5-1.5,4.1-1.5
	c1.7,0,3.1,0.5,4.3,1.5l-0.8,1.2c-1.3-0.9-2.2-1.2-3.4-1.2c-1.8,0-3.2,0.8-3.9,2.6c-0.4,1.2-0.6,2.5-0.6,4c0,2,0.4,3.7,1.1,4.7
	c0.7,1,2.3,1.7,3.8,1.7c1,0,1.8-0.2,2.5-0.6v-4.7h-3.1l-0.4-1.5h5.2v7.3C466.9,182.8,465.3,183.3,463.7,183.3"/>
<path style="fill:#010101;" d="M476,183.3c-3.1,0-4.9-2.3-4.9-6c0-3.7,1.8-5.9,4.8-5.9c1.9,0,3.1,0.9,3.9,2c0.7,1,1,2.4,1,4.2
	C480.9,181.3,478.8,183.3,476,183.3 M478.3,174.3c-0.5-1-1.5-1.4-2.4-1.4c-1,0-1.9,0.5-2.3,1.2c-0.4,0.7-0.5,1.6-0.5,3
	c0,1.6,0.3,3,0.7,3.7c0.4,0.7,1.3,1.1,2.3,1.1c1.2,0,2.1-0.6,2.5-1.7c0.2-0.7,0.3-1.3,0.3-2.5C478.8,176.1,478.7,175,478.3,174.3"/>
<path style="fill:#010101;" d="M487.9,183.1h-1.7l-4.1-11.3l1.8-0.4l2.6,7.8c0.3,0.9,0.6,1.9,0.6,1.9h0c0,0,0.2-0.9,0.5-1.9l2.6-7.5
	h1.9L487.9,183.1z"/>
<path style="fill:#010101;" d="M495.7,177.7v0.3c0,1.1,0.1,1.9,0.5,2.5c0.6,1,1.7,1.4,2.8,1.4c1.1,0,2-0.3,2.8-1.1l0.7,1.1
	c-1,0.9-2.4,1.4-3.8,1.4c-3.1,0-5-2.3-5-6c0-1.9,0.4-3.1,1.4-4.3c0.9-1.1,2-1.6,3.4-1.6c1.2,0,2.3,0.4,3.1,1.2c1,1,1.3,2.1,1.3,4.8
	v0.2H495.7z M500.3,173.8c-0.4-0.6-1.2-1-2-1c-1.6,0-2.5,1.2-2.6,3.5h5.2C500.8,175.1,500.7,174.3,500.3,173.8"/>
<path style="fill:#010101;" d="M510.7,173.4c-0.1,0-0.3-0.1-0.5-0.1c-0.7,0-1.4,0.3-1.9,0.8c-0.5,0.5-0.7,0.9-0.7,1.8v7.1h-1.8v-8.7
	c0-1.7-0.4-2.4-0.4-2.4l1.8-0.5c0,0,0.4,0.9,0.4,1.8c0.8-1.2,2-1.9,3.2-1.9c0.3,0,0.6,0.1,0.6,0.1L510.7,173.4z"/>
<path style="fill:#010101;" d="M519.5,183v-7.7c0-1.2-0.1-1.5-0.4-1.9c-0.2-0.3-0.7-0.5-1.2-0.5c-0.9,0-2.3,0.7-3.1,1.6v8.4H513
	v-8.7c0-1.6-0.4-2.4-0.4-2.4l1.7-0.5c0,0,0.4,0.8,0.4,1.8c1.2-1.2,2.4-1.8,3.6-1.8c1.2,0,2.3,0.7,2.8,1.6c0.2,0.4,0.3,0.9,0.3,1.3
	v8.6H519.5z"/>
<path style="fill:#010101;" d="M537.7,183v-8.4c0-1.1-0.5-1.7-1.5-1.7c-1,0-1.8,0.7-3,1.7v8.3h-1.8v-8c0-0.7-0.1-1.1-0.3-1.5
	c-0.3-0.3-0.6-0.5-1.2-0.5c-0.9,0-1.7,0.4-2.9,1.5v8.4h-1.7v-8.8c0-1.6-0.4-2.4-0.4-2.4l1.7-0.4c0,0,0.4,0.9,0.4,1.7
	c0.7-0.8,2.1-1.7,3.3-1.7c1.1,0,2.2,0.7,2.6,1.9c1.1-1.2,2.5-1.9,3.6-1.9c1.7,0,2.8,1.3,2.8,3.1v8.5H537.7z"/>
<path style="fill:#010101;" d="M545,177.7v0.3c0,1.1,0.1,1.9,0.5,2.5c0.6,1,1.7,1.4,2.8,1.4c1.1,0,2-0.3,2.8-1.1l0.7,1.1
	c-1,0.9-2.4,1.4-3.8,1.4c-3.1,0-5-2.3-5-6c0-1.9,0.4-3.1,1.4-4.3c0.9-1.1,2-1.6,3.4-1.6c1.2,0,2.3,0.4,3.1,1.2c1,1,1.3,2.1,1.3,4.8
	v0.2H545z M549.6,173.8c-0.4-0.6-1.2-1-2-1c-1.6,0-2.5,1.2-2.6,3.5h5.2C550.1,175.1,550,174.3,549.6,173.8"/>
<path style="fill:#010101;" d="M561.7,183v-7.7c0-1.2-0.1-1.5-0.4-1.9c-0.2-0.3-0.7-0.5-1.2-0.5c-0.9,0-2.3,0.7-3.1,1.6v8.4h-1.7
	v-8.7c0-1.6-0.4-2.4-0.4-2.4l1.7-0.5c0,0,0.4,0.8,0.4,1.8c1.2-1.2,2.4-1.8,3.6-1.8c1.2,0,2.3,0.7,2.8,1.6c0.2,0.4,0.3,0.9,0.3,1.3
	v8.6H561.7z"/>
<path style="fill:#010101;" d="M571.7,173h-2.4v7.3c0,1.3,0.3,1.7,1.4,1.7c0.5,0,0.8-0.1,1.1-0.2l0.3,1.1c-0.6,0.3-1.2,0.5-2,0.5
	c-0.6,0-1-0.1-1.5-0.3c-0.8-0.4-1.1-1.1-1.1-2.2V173h-1.5v-1.3h1.5c0-1.1,0.2-2.9,0.2-2.9l1.9-0.4c0,0-0.2,1.8-0.2,3.3h2.9
	L571.7,173z"/>
<path style="fill:#010101;" d="M506.4,44.8c-3.3,0.2-6.5,4.5-5.2,9.4c-0.5,0.2-1.9,0.2-2.4-0.8c-0.3,1.6-3.6,3.4-5.9,3.2
	c1.3-1.4,2.2-4.6,4.7-6.2c2.5-1.7,3.7-2.8,4.6-5.7c-1.2,0.6-7.3,2.1-9.1,0.2c4-0.6,8.8-2.9,11.2-4.4l-0.9-1
	c-2.5,1.4-5.9,2.6-7.6,3.2c-0.6-5.1,4.2-4.9,4.6-3.5c2-2.4,0.6-5.7-0.9-6.1c1.5-4,0-6.5-1.3-8c-0.3,4.3-5.1,5-5.7,8.3
	c-0.2-2.6-0.4-9.7-0.6-13.1c-0.4-6.4-8.5-8.6-9.7-8.6c-5.3,0.2-5.8-0.4-5.7-2.9c-2.7,3-1.8,5.7,0.5,7.1c-0.3,1.8-3.2,3.3-5,3.7
	c4.3,4,9.3,1.6,11.7-0.7c0.2-0.2,0.3-0.3,0.5-0.5c0.9,1.5,1.5,4.3,1.5,5.9c-4-0.2-4.7,2.9-4.7,4c5.1-2.1,5.7,7.6,7,9.2
	c-1.3-0.1-3.6-3.1-7-3.3c-4.1-0.3-5.5,1.9-7.2,1.8c0.3,2.9,3.8,4.5,6.1,4.8c-1.2,3-0.1,5,2.3,5.7c0-2.7,3.4-3.5,7.1-1.4
	c4.4,2.6,6.6,2.8,10.2,1.7c-0.6,1.3-2.2,1.4-4.1,3.3c-2.8,2.7-2.8,6.2-5.9,7.5c3.6,1.7,9-0.7,9.8-2.1c1.5,0.9,3.4,0.4,3.9-0.6
	c-2.4-5.4,1.7-8.6,3.3-8.5C506.4,46.4,507.1,44.8,506.4,44.8 M487.7,42.6c-1.8-0.7-4.6-1.2-6.1,1c-0.8-1.5,0.4-3.7,1.2-4.3
	c-4,0.1-6.2-1.1-6.8-2.3c1.5-0.8,5.2-2.1,8.2,0.1c2.1,1.5,3.1,2.3,5.6,3.1c0.9-0.9,0.6-0.5,0.8-0.7c-2-1.4-2.9-12.2-6.9-12.6
	c0.6-1.4,2.6-1.2,4.3-0.8c0.1-2.4-0.9-6.4-2.4-8.7c2.3-1.2,3.9,0.1,4.7,3c0.8,3-0.2,10.6,1.8,17.5l1.2-1.1c-0.6-4,3.8-5.4,4.7-7.4
	c0.4,2.7-0.2,3.9-0.9,4.8c1.6,0.2,2.3,1.7,2.1,2.8c-3.8-0.6-6,3.3-5.2,6.3C491.2,43.7,489.2,43.3,487.7,42.6 M476.9,12.7
	c3,1.5,4-1.2,9.6,2.4c-3.7,1.2-6.6,5.8-10.8,4.6c3-1.5,2.7-3.7,4.4-4.8C479,14.7,476.9,14.2,476.9,12.7"/>
<path style="fill:#010101;" d="M545.5,30.1c0-6-0.2-10.9-0.3-12.5c0.2,0.1,0.5,0.1,0.7,0.2c4.3,1.5,5.3,6.7,14.2,0.8
	c-4.7,0.6-5-3.5-7.2-3.6c3.3-1.9,3.5-6.1,3.5-6.1c-2.8,2.2-9.2,2.4-10.4,3.1c-1.7,1-3.8,2.2-5.2,3c-3.7,2-1.1,13-1.5,17
	c-2-6-6-5.1-8.1-8.5c-1.6,2.9,0.1,7.6,0.8,9c-2.3,1.9-1.7,5.3-1.1,6.2c2-1.4,5-1.1,5.9,1.3c-2.6,1.6-6.9,1.9-9.8-1l-1.1,1.2
	c2.1,2.8,7.3,3.8,11.2,1.6c0,0.6-0.2,1.3-0.4,2.1c-2,1-4.6,1.6-7.6,0.6c0.4,3,3.9,5.3,7.2,6.2c-1.1,0.9-2.5,1.2-3.5,1.1
	c0.6,1.7,1,4.1-0.3,5.9c-1.7-1.1-2.5-2.2-3.1-6.4c-0.6-4.2-3.7-8.5-6-9.4c-0.1,1.5-0.1,0.8,0.1,1.8c6.3,4.6,2.7,12.9,9.3,15.9
	c2.4-2.7,2.4-3.7,2.1-6.3c2.4-0.6,4.1-2.6,4.8-4.1c-2.2,1.1-5.8-0.8-6.8-2.3c3.9-0.1,7.5-3.1,11.2-6.9c3.3-3.4,7.7-2.9,7.3-0.2
	c2.3-0.3,3.2-3.5,2.4-5.4c3.3-1.1,5.9-3.5,6.3-7.4C555.4,29.2,549.7,25.5,545.5,30.1 M550.9,33.3c1.8,1.5,1.2,3.5,0.8,4
	c-1.6-2.7-6.5-1.7-11.4,3.8c-0.3,0.4-0.8,0.9-1.3,1.4c0.4-6.6-5-6.7-6.6-6c0.2-1.9,1.4-3.2,2-3.4c-1.6-1.8-1.9-4.2-2.1-5.8
	c2.6,1.2,6.6,4.2,7.2,9.5l1.7-1.2c-0.5-9.3-0.4-9.3-0.5-15.6c0-0.9,0-2.9,2.8-2.7c0.1,2.4,0.5,8.6,0.4,17.2h1c0.9-2.4,4.1-5.3,7.8-5
	c2.5,0.2,3.4,0.1,4.9-0.5C556.4,31.8,552,33.1,550.9,33.3 M543.6,15.6c1.8-1.3,3-1.9,3.9-2.4c1.6,0.1,4.2-0.1,5.9-0.9
	c-1.7,2-1.9,2.8-4.6,3.1c3.5,0.3,5,3.5,6.8,4C549.6,21.1,549,15.3,543.6,15.6"/>
<path style="fill:#010101;" d="M521.3,50.5c-0.3,0-0.6,0.1-0.8,0.4c-0.3-0.1-0.7-0.1-1.1-0.2l0-1.9c0.3-0.1,0.6-0.5,0.6-0.9
	c0-0.5-0.4-1-1-1c-0.5,0-1,0.4-1,1c0,0.4,0.2,0.7,0.5,0.8l0,1.8c-0.3,0-0.7-0.1-1-0.1c-0.2-0.3-0.5-0.6-0.9-0.6c-0.5,0-1,0.4-1,1
	c0,0.5,0.4,1,1,1c0.3,0,0.6-0.2,0.8-0.4c0.4,0,0.7,0.1,1.1,0.1l0,2.8c-0.3,0.2-0.5,0.5-0.5,0.9c0,0.5,0.4,1,1,1c0.5,0,1-0.4,1-1
	c0-0.4-0.2-0.7-0.6-0.9l0-2.7c0.3,0,0.6,0.1,0.9,0.1c0.1,0.4,0.5,0.6,0.9,0.6c0.5,0,1-0.4,1-1C522.3,50.9,521.9,50.5,521.3,50.5"/>
<path style="fill:#010101;" d="M513,49.9c-0.4,0-0.7,0.2-0.9,0.6c-0.4,0-0.7,0.1-1,0.1l0-1.9c0.3-0.2,0.5-0.5,0.5-0.8
	c0-0.5-0.4-1-1-1c-0.5,0-1,0.4-1,1c0,0.4,0.2,0.7,0.6,0.9l0,1.9c-0.4,0-0.7,0.1-1,0.2c-0.2-0.2-0.4-0.4-0.8-0.4c-0.5,0-1,0.4-1,1
	c0,0.5,0.4,1,1,1c0.4,0,0.8-0.3,0.9-0.6c0.3-0.1,0.6-0.1,0.9-0.1l0,2.7c-0.3,0.2-0.6,0.5-0.6,0.9c0,0.5,0.4,1,1,1c0.5,0,1-0.4,1-1
	c0-0.4-0.2-0.7-0.5-0.9l0-2.8c0.3,0,0.7-0.1,1.1-0.1c0.2,0.3,0.5,0.4,0.8,0.4c0.5,0,1-0.4,1-1C514,50.4,513.5,49.9,513,49.9"/>
<path style="fill:#010101;" d="M525.7,58.2c-0.6-3.9-2-14.7-2.1-18.3l-1.7,0.1c0,0.6,0.1,1.4,0.2,2.4c-2-0.6-4.6-1-7.2-1
	c-2.7,0-5.3,0.4-7.2,1c0.1-1,0.1-1.8,0.2-2.4l-1.7-0.1c-0.2,3.6-1.6,14.5-2.1,18.3c-1,0.4-1.6,1.4-1.6,3.1c0,0,9,0.1,12.5,0.1
	c3.5,0,12.5-0.1,12.5-0.1C527.4,59.5,526.7,58.5,525.7,58.2 M514.9,58.1c-1.4,2.7-4.1,2.7-6.4,1.1c-0.9-0.6-1.9-1-2.8-1.2
	c0.4-2.7,1.1-7.8,1.6-12.1c3-1.4,6.7-1.7,7.6,1.8c0.9-3.5,4.6-3.1,7.6-1.8c0.5,4.3,1.1,9.4,1.5,12.1c-0.9,0.1-1.8,0.5-2.8,1.2
	C519,60.7,516.3,60.8,514.9,58.1"/>
<path style="fill:#010101;" d="M495.8,62.5c5.2,1.9,11,3,17.3-0.1c-0.8,2.8-2,4.4-3.5,5.6c0.9,2.2,2.2,4.9,2.8,7.1
	c1.6,1.1,1.3,3,1.1,4.2c-0.3,1.2-4,2.5-5.3,2.1c-1.2-0.4-1.2-0.9-1.8-0.8c-1.6,0.2-6.8,5.2-11.7,0.4V70.6c1.9-1.1,3.5-2,4.5-3.4
	C498,66.5,496.4,64.5,495.8,62.5 M501.3,67.1c-1.3,2.1-2.6,3.1-5,4.5v8.4c3.2,2.9,7.5,0.4,9.1-0.6c-0.5-0.8-0.7-1.4-0.9-2.3
	c-4.1,0.4-5.7-1.6-6.5-4.7c0,0,0.7-0.5,1.5-0.9c1.4,4.7,4,4,6.1,3.9c1.3-1.2,3.2-1.6,4.9-1.5c-0.4-1.9-1.7-4.2-2.9-6.3
	c1.1-0.7,2.5-1.6,3.4-3c-5.5,2-7.9,1.3-12.5,0C499.2,65.7,500.3,66.6,501.3,67.1 M510.7,75.4c-0.9-0.3-3.9,0.5-4.2,1.3
	c-0.3,0.6,0.3,2.1,1.4,2.7c0.7,0.4,3.3-0.4,3.7-1C512.1,77.9,511.7,75.7,510.7,75.4"/>
<path style="fill:#010101;" d="M535.5,69.4c0-3.2-2.3-6.1-5.8-6.1c-3.3,0-7.3,1.6-7.6,4.4c-4.8,2.8-7.1,5.3-6.3,7.7
	c-1.6,1.7-0.4,5,4.4,2.9c-1.3,1.2-1.7,2.8-1.7,4.1h16.1C532.8,73.7,535.5,75.2,535.5,69.4 M530.7,68.4c-0.8-0.2-4.4-0.4-5.5,2.3
	c-0.7,0-1.4-0.3-1.8-0.7c-0.5,0.6-1.2,1-2.2,1.3c0.9,1.8,2.6,1.5,3.7,0.6c0,0.2,0,0.5,0,0.7c0,4.3,4.6,5.4,7.4,3.8
	c-0.5,1.4-0.2,3.2-0.1,4.4H521c0.2-1.2,1.7-2.5,2.9-3.4l-1-1.6c-1.2,0.5-2.3,1-3.7,1.4c-3.1,0.8-2.9-1.4,0.3-2.3V74l-2.1,0
	c0.5-2.2,4.7-4.9,6.6-5.6c-0.1-2.3,3-3.1,5.5-3.2c3.1-0.1,3.8,3.2,3.8,4.3c0,1.4-0.4,4.4-2.1,5.3c-2.5,1.4-4.6-0.5-4.6-2.2
	c0-1.9,1.3-3,3.5-2.7C532.5,70.1,532.4,68.9,530.7,68.4"/>
<path style="fill:#010101;" d="M530.4,99.9v-3.1V96h-0.8h-1c-0.1-4-1.1-7-2.9-8.9l-0.5-0.6l-0.5,0.6c-1.9,1.9-2.8,4.9-2.9,8.9h-0.9
	H520v0.8v2.9c-2.2,0.7-3.7,1.8-5.5,3.2l-0.1,0.1l0.9,1.2l0.1-0.1c2.8-2.2,4.7-3.6,9.7-3.6c5.2,0,7.3,2.2,8.8,4.5l1.3-0.8
	C534.2,102.6,532.8,100.9,530.4,99.9 M525.1,88.8c1.2,1.6,1.9,4,2,7.2h-3.9C523.3,92.8,523.9,90.4,525.1,88.8 M521.5,99.3v-1.8h7.4
	v1.9c-1.1-0.3-2.3-0.4-3.7-0.4C523.7,99,522.5,99.1,521.5,99.3"/>
<path style="fill:#010101;" d="M529.2,106.9c0.4-1.3,0-2.5-0.6-3.3c-0.6-0.8-1.8-1.2-3.1-1.1l1.5,1.7l-2.6,2.2l-1.1-1.3
	c0,0,0.4-0.4,1-0.9c-0.9-1-2.2-1.9-3.9-1.5c-0.7,1.7,0.1,3.1,0.9,4.1c0.6-0.5,1-0.9,1-0.9l1.1,1.3l-3.1,2.6l1,1.1l3.1-2.7l1,1.2
	c0,0-0.6,1,0.3,2.1c0.7-0.6,1.9-1.7,2.6-2.3c-0.9-1.1-2-0.6-2-0.6l-1-1.2l2.5-2.2L529.2,106.9z"/>
<path style="fill:#010101;" d="M509.1,88.7c-0.4-2.3-3-2.5-4.1-1.5c-1.1-1-3.7-0.8-4.1,1.5c-4.1-0.6-3.6,3.2-3.1,4.3
	c0.5,1,1.6,3.5,2.3,5.1c-0.1,0-0.2,0.1-0.4,0.1c-0.2,0.9-0.2,2.1-0.1,3c0.2,0.1,0.4,0.1,0.6,0.2c-0.4,1.2-1.2,3.2-1.6,4.1
	c0.6,0.3,1.2,0.6,2,0.8c0,0-0.2,0.7-0.4,1.4c1.1,0.4,3.3,0.6,4.7,0.6c1.4,0,3.6-0.2,4.7-0.6c-0.2-0.7-0.4-1.4-0.4-1.4
	c0.8-0.2,1.4-0.5,2-0.8c-0.4-0.9-1.2-2.9-1.6-4.1c0.2,0,0.4-0.1,0.6-0.2c0.2-0.9,0.1-2.1,0-3c-0.1,0-0.2-0.1-0.4-0.1
	c0.8-1.6,1.9-4.2,2.3-5.1C512.7,91.9,513.2,88.1,509.1,88.7 M505,89c0.2-1.1,3.2-1.3,2.6,1.1c-0.6,2.4-1.3,5.2-1.9,7.6
	c-0.3,0-0.5,0-0.8,0c-0.3,0-0.5,0-0.8,0c-0.6-2.4-1.3-5.2-1.9-7.6C501.8,87.7,504.9,87.9,505,89 M509,99.2c0.1,0.4,0.1,0.8,0,1.2
	c-1,0.3-2.7,0.4-4,0.4c-1.3,0-3-0.2-4-0.4c-0.1-0.4,0-0.8,0-1.2c0.7-0.2,3.2-0.4,4-0.4C505.8,98.8,508.4,99,509,99.2 M499.2,92.4
	c-0.9-2.2,1.3-2.7,1.7-1.5c0.7,1.8,1.5,4.8,2.1,6.8c-0.6,0-1.1,0.1-1.6,0.2C501.2,97.1,500.2,94.7,499.2,92.4 M509.7,104.9
	c-0.5,0.2-1.2,0.4-1.9,0.5c0.1,0.5,0.3,1.1,0.3,1.4c-0.9,0.2-2.3,0.3-3.2,0.3c-0.9,0-2.3-0.1-3.2-0.3c0.1-0.4,0.2-0.9,0.3-1.4
	c-0.6-0.1-1.3-0.3-1.9-0.5c0.3-0.9,0.7-1.9,1.1-3.2c1.2,0.3,2.3,0.4,3.7,0.4c1.3,0,2.5-0.1,3.7-0.4C509,103,509.5,103.9,509.7,104.9
	 M510.8,92.4c-1,2.3-1.9,4.8-2.2,5.5c-0.5-0.1-1.1-0.1-1.7-0.2c0.7-2,1.5-5,2.2-6.8C509.5,89.6,511.7,90.2,510.8,92.4"/>
<path style="fill:#010101;" d="M501.6,69.6c1.2,0.3,1.8,0.1,2.9,0c0.5,0,1.4,0.3,1.2,1.5c-0.1,0.6,0.1,0.9,0.3,1.4
	c-1-0.1-2,0.3-2.7-0.1C502.2,71.9,502.4,70.4,501.6,69.6"/>
<path style="fill:#010101;" d="M591.4,52c-0.5,0.1-1.6,0.5-2.4,0.6c1.4-1.4,2.3-3.1,2.3-4.5c-0.7,0.2-1.9,0.7-3.1,0.9
	c2.2-1.9,3.5-4.1,2.9-7c-0.7,0.3-1.7,0.9-2.6,1.3c1.9-3,1.9-5.7,1.1-7.2c-0.9,0.8-1.9,1.8-3.1,2.5c0.7-3.5,0.7-5.7-0.8-7.3
	c-1.5,2.8-2.8,4.9-4.9,7.4c0.2-2.3-0.1-5.2-1.6-6.7c0,0-0.4,3.2-1.6,4.2c-0.3-3.1-1.2-4.9-2.7-6.5c0,0-0.1,3.3-1,5.3
	c-0.8-2.7-2.2-4.8-4-6.9c0.1,6-1.5,17.4-6.4,25.1c-0.6,4.5-1.1,11.3-8.5,15.4c-1.1-0.7-2.9-1.7-5.6-1.6c-0.7-3.4,3.8-6.5,7.6-9
	c3.9-2.5,5.6-4.7,5.5-8c-0.1-3.7-2.6-5.2-5.2-5.3c-3.6-0.2-6.6,3.1-7.3,4.5c-1.1,0.5-4.2,1.5-5.4,1.8c-1.4,0.4-3,1-4,1.8
	c0.6,0.4,2.3,0.5,3,0.4c1.2-0.2,5.2-0.9,8.9-1.4c1.4,0.8,3.6,2,1.2,3.6c-3.2,2-4.6,2.6-9.1,4.9c-7.1,3.7-4.8,13.1-3.1,13.8
	c0,3.2,2.8,8.9,4.7,10.9c0.9,4-0.3,9.9-1.5,12.4c-1-2.4-2.7-8-3.8-11.3c1.1-6.2-0.7-8.9-2-9.9c-1.3-1.1-3.4-0.8-4.7,1.4
	c2.1-0.2,2.7,2.4,2.7,5.1c-0.1,3.3-0.9,5.9-3.2,5.9c0.2,2.8,3.2,3.6,4.7,2.2c0.2,0.6,1.4,4.3,2.6,7.6c0.7,1.9,1.3,3.7,1.8,4.7
	c0.5,1,3.9,1.2,4.3,0c0.5-1.6,1-2.8,1.8-4.7c0.6-1.4,1.6-3.2,3-5.9c0.9,1.6,2.2,4.1,2.9,5.9c0.3,0.8,0.6,1.4,0.6,1.7
	c0.3,2.7,0.1,12.1-0.6,17.8c-7.8-2.1-10,1.7-9.3,4.5c1.1-1.2,2.6-1.1,3.5-0.4c-0.2,2.1,0.3,3.6,2.5,4.2c2.2-5.9,10.3-4.6,11-4.1
	c0-1.2,1.1-4-3-4.6c0.1-5.1,0.7-11.3,0.9-12.7c0.2-1.3,0.3-2.1-0.3-4.2c-0.2-0.6-0.4-1.4-0.6-2.3c-0.5-2.1-1.1-4.8-1.1-7.7
	c0.7,0.7,2.4,1.3,3.6,1c0.9,3.9,2.2,2.7,2.9,4.3c0.3,0.8,0.4,1.6,0.5,2.3c0.1,0.7,0.2,1.3,0.6,1.8c2.8,0.1,5.1-0.6,6.8-1.8
	c0.5-0.4,1-0.8,1.3-1.2c-0.7-4.1-1.8-6.1-4-8.6c-0.6-3.4-2.1-6.4-4.3-9.2c2.7-0.9,5.5-3.1,6.9-4.6c1.3-0.1,2.8-1.2,2.9-3.3
	c0.7-0.1,1.4-0.1,2-0.2c-0.1-0.6-0.2-1.5-0.3-2c1,0,2,0,2.9-0.1c-0.3-0.8-0.6-1.6-0.9-2.2c1,0,2.2-0.1,3.2-0.1
	c-0.5-1-0.9-1.9-1.3-2.7c1.2-0.1,2.9-0.4,4.4-0.7c-0.5-0.5-1-1-1.8-1.8c3.8-1.1,5.4-3.8,5.6-4.9c-0.6,0-1.7,0.2-2.4,0.2
	C589.7,55.5,591.2,53.8,591.4,52 M571.7,34.7c0.9,1.5,1.6,4.3,1.6,6.7c1.2-1.2,2-3.1,2.4-4.5c0.5,1.1,0.5,3.9,0.3,5.1
	c1.3-1.1,2.2-2.7,3-4.3c0.2,1.2,0.2,2.1,0,3.3c-2.8,3-7.5,7.1-12.5,11.2C569.2,46.7,570.9,42.1,571.7,34.7 M547.8,98.3L547.8,98.3
	c-0.4,1-0.7,2-0.9,3.2c-0.2,1-2.5,0.8-2.8,0c-0.3-0.6-0.7-1.8-1.2-3.2c-1.3-3.4-3.1-8.2-3.5-10.3c-0.9,1.5-1.9,2.2-2.9,1.3
	c3.7-1.6,2.4-11.6,1-12.1c1.8-1.6,3.8,4.4,2.6,9c1.1,3.1,3.3,9.5,4.1,12.1c0.2,0.6,0.3,0.9,0.4,1.1c0.2,0.8,1.3,0.7,1.5,0
	c0.1-0.3,0.2-0.6,0.3-1.1c0.9-2.8,2.6-8.7,2.3-12.4c1.7,0.3,2.2,1.9,2.9,4C550.1,93.3,548.8,95.7,547.8,98.3 M586.7,58.3
	c-0.9,1-3.8,2.2-7.2,2.3c0.7,0.7,1.8,1.2,2.5,1.6c-1,0.2-2.3,0.2-3.5,0.3c0.6,1,1.4,2.2,1.7,2.7c-1,0-1.9-0.1-3-0.1
	c0.5,1.1,0.7,1.5,1.2,2.4c-0.7,0-2.2,0-2.9-0.1c0.2,0.7,0.7,1.7,0.9,2.2c-0.4,0-1.2,0-1.6,0c-3.3,4.6-7.9,9.4-16.6,8.9
	c0.2,0.7,0.4,1.5,0.5,1.5c1.3,0.1,3.9-0.2,5.8-0.5c1.3,1.5,3.7,5,5,10.4c1,0.6,2.5,3.2,3.2,6.6c-1.5,0.9-2.9,1.3-5,1.6
	c-0.8-4.3-3-4.4-4-8c-1.5,0.2-3.6-1-4.2-3h-2c-0.4,4.1,0.5,7.9,1.3,11.1c0.3,1.5,0.7,2.9,0.8,4.2c0.2,2.5-0.8,12.2-0.8,16.1
	c1.8-0.1,3.2,0.4,3.2,1.9c-2.9-0.9-7.9-0.3-10.2,3.6c-0.6-0.3-0.9-1.9,0-2.4c-1.1-1.2-2.1-2.1-4.1-1.5c0.9-1.5,2.9-2.4,9.1-0.8
	c0.6-2.1,1.2-15.6,1.1-18.5c0-0.5-0.3-1.4-0.7-2.6c-1.5-3.7-4.7-10.2-5.5-14.5c-1.1,0-2.6,0.2-3.1-0.3c-1.3-1.3-4.2-5.6-4.8-9.8
	c-1-1.7-2.7-8.1,2.3-11.7c3.4-2.5,11.4-5.5,11.3-8.4c0-1.7-3-3-4-3.8c-1-0.6-0.6-1.1,0.2-1.9c4.7-4.6,10.2-0.1,7,5.4
	c-2.4,4.1-14.4,7.6-11.7,15.3c2.6,0.2,3.9,1.2,4.9,2.5c2.4-0.8,11.7-4.9,12.6-16.7c2.3-1.5,4.7-3,7-4.9c0.4,3-0.1,22.1-17.3,26.5
	c0.5,1.6,4.2,2.1,6.3-0.8c2.1,0.5,4.7-1.2,4.7-2.9c1.9,0,3.9-2.1,3.6-4c2.3-0.8,3.4-3.8,2.4-6.2c2-0.9,2.7-3.3,1.8-5.6
	c1.6-1.1,2.1-3.9,0.8-5.7c0.8-1.5,0.6-2.7,0-3.7c3.1-2.9,7.1-6.6,9.6-11c0.2,3.1-1.4,5.6-3.3,8.4c3.3-2.1,4.1-2.6,6.1-4.2
	c-0.6,3.5-4.6,6.7-6,8.3c1.9-0.8,4.9-2.2,7.1-3.4c-1.9,3.9-5.2,6.1-7.1,7.3c2.7-0.5,4.6-0.9,6.4-1.5c-1.6,1.8-4.5,3.8-7.9,4.7
	c2.7-0.1,4.8-0.4,7.2-1.1c-1.7,1.8-4.3,3.5-7.3,3.9C583.2,58.4,583.8,58.6,586.7,58.3"/>
<path style="fill:#010101;" d="M567.6,56.9c-0.3,3.7-3.2,9.4-6.5,12.2l2.2,0c2.3-2.2,6.2-6.2,6.7-13.6
	C569.9,55.5,568.4,56.4,567.6,56.9"/>
<path style="fill:#010101;" d="M555.1,48.9c0.3-0.4,0.2-1.2,1.3-1.5c1-0.2,1,0.5,1.4,0.6c0.6,0.1,0.4,0.1,0.1,0.5
	c-0.3,0.5-0.2,1.2-1.2,1.3c-1.1,0.1-0.9-0.5-1.5-0.5C554.6,49.4,554.6,49.2,555.1,48.9"/>
<path style="fill:#010101;" d="M566.4,91.9c1,0.1,1.8,0,2.6-0.2c0.7,1.1,1.2,1.6,1.4,2c-1.2,0.3-2.4,0.4-3.3,0.3
	C567,94.1,567,93.3,566.4,91.9"/>
<path style="fill:#010101;" d="M565.4,126.7c-1,0.3-2.3,0.5-4.2,0.5h-2.4c-8.1-0.2-16.4-2.6-21.5-7.8c7-7.1-1.2-13-5.7-6.9
	c-1.4,1.9-2.5,3.2-3.5,5c-0.8,1.5-0.2,3,1.5,5.2c1,1.2,3.4,3.2,5.3,4.4h-40.4c1.9-1.3,4.3-3.2,5.3-4.4c1.8-2.3,2.3-3.7,1.6-5.2
	c-1-1.8-2.1-3.1-3.5-5c-4.5-6-12.7-0.2-5.7,6.9c-5.1,5.2-13.4,7.6-21.5,7.8h-2.2c-1.9,0-3.2-0.2-4.2-0.5c-1.7-0.4-2.1,0.3-1.2,3.2
	c0.6,1.9,1.1,5.1,1.3,7.2h100.7c0.2-2.2,0.7-5.3,1.3-7.2C567.5,127,567.1,126.3,565.4,126.7 M533.9,112.7c1.3-1.8,3.2-1.3,4,0.2
	c0.9,1.6-0.4,3.5-2,5C533.6,115.4,533.4,113.5,533.9,112.7 M530.6,121c-0.8-1.1-1.1-1.8-0.7-2.9c0.4-1.1,1.3-2,2.2-3.4
	c1.4,5.5,9.7,10.7,15.8,12.5h-9.7C535.6,125.8,532.4,123.6,530.6,121 M491.7,112.9c0.8-1.5,2.7-1.9,4-0.2c0.6,0.7,0.3,2.7-2,5.2
	C492.1,116.4,490.9,114.5,491.7,112.9 M497.6,114.7c0.9,1.3,1.7,2.3,2.2,3.4c0.4,1.1,0.1,1.8-0.7,2.9c-1.9,2.6-5.1,4.8-7.6,6.2h-9.8
	C487.9,125.4,496.2,120.2,497.6,114.7 M563.5,135.5h-97.2c-0.4-3.1-1-5.1-1.6-6.8h100.3C564.5,130.4,563.9,132.4,563.5,135.5"/>
<path style="fill:#010101;" d="M479.4,133.3C479.5,133.3,479.5,133.3,479.4,133.3l0.3,0.8c0,0.1,0,0.1,0,0.1c-0.1,0-0.1,0-0.1,0.1
	c0,0,0.1,0,0.2,0c0.5,0,0.9,0,1.1,0c0.2,0,0.3,0,0.3-0.1c0,0,0-0.1-0.1-0.1c-0.1,0-0.1,0-0.2,0c-0.1,0-0.3-0.1-0.5-0.6
	c-0.4-0.9-1.3-3.2-1.4-3.5c0-0.1-0.1-0.2-0.1-0.2c-0.1,0-0.1,0.1-0.2,0.2l-1.4,3.6c-0.1,0.3-0.2,0.5-0.5,0.5c0,0-0.1,0-0.2,0
	c-0.1,0-0.1,0-0.1,0.1c0,0,0,0.1,0.1,0.1c0.3,0,0.6,0,0.7,0c0.2,0,0.4,0,0.6,0c0.1,0,0.1,0,0.1-0.1c0,0,0-0.1-0.1-0.1h-0.1
	c-0.2,0-0.2-0.1-0.2-0.2c0-0.1,0-0.2,0.1-0.3l0.1-0.3c0,0,0,0,0,0H479.4z M477.9,133C477.9,133,477.9,133,477.9,133l0.7-1.9
	c0,0,0-0.1,0-0.1c0,0,0,0,0,0.1l0.7,1.9c0,0,0,0,0,0H477.9z"/>
<path style="fill:#010101;" d="M482.3,132.5c0,0.8,0.2,1.3,0.5,1.5c0.4,0.4,1,0.4,1.3,0.4c0.4,0,0.8-0.1,1.2-0.4
	c0.5-0.4,0.5-1.1,0.5-1.7v-0.6c0-0.9,0-1,0-1.2c0-0.2,0.1-0.3,0.2-0.3c0.1,0,0.1,0,0.2,0c0.1,0,0.1,0,0.1,0c0,0,0-0.1-0.1-0.1
	c-0.2,0-0.6,0-0.7,0c0,0-0.4,0-0.7,0c-0.1,0-0.1,0-0.1,0.1c0,0,0,0,0.1,0c0.1,0,0.2,0,0.2,0c0.2,0.1,0.2,0.1,0.2,0.3
	c0,0.2,0,0.3,0,1.2v0.7c0,0.6,0,1.1-0.3,1.4c-0.2,0.2-0.6,0.3-0.8,0.3c-0.2,0-0.5,0-0.7-0.2c-0.3-0.2-0.5-0.6-0.5-1.4v-0.8
	c0-0.9,0-1,0-1.2c0-0.2,0.1-0.3,0.2-0.3c0.1,0,0.1,0,0.2,0c0.1,0,0.1,0,0.1,0c0,0,0-0.1-0.1-0.1c-0.2,0-0.6,0-0.7,0
	c-0.2,0-0.5,0-0.8,0c-0.1,0-0.1,0-0.1,0.1c0,0,0,0,0.1,0c0.1,0,0.2,0,0.2,0c0.2,0.1,0.2,0.1,0.2,0.3v1.2V132.5z"/>
<path style="fill:#010101;" d="M488.3,132.6c0,0.5,0,1,0,1.2c0,0.2-0.1,0.3-0.2,0.3c0,0-0.1,0-0.2,0c-0.1,0-0.1,0-0.1,0.1
	c0,0,0,0.1,0.1,0.1c0.2,0,0.6,0,0.7,0c0.3,0,0.8,0.1,1.2,0.1c1.1,0,1.7-0.4,1.9-0.7c0.3-0.3,0.6-0.9,0.6-1.6c0-0.7-0.3-1.2-0.6-1.4
	c-0.6-0.7-1.6-0.7-2.3-0.7c-0.3,0-0.7,0-0.9,0c-0.2,0-0.5,0-0.8,0c-0.1,0-0.1,0-0.1,0.1c0,0,0,0,0.1,0c0.1,0,0.2,0,0.2,0
	c0.2,0.1,0.2,0.1,0.2,0.3c0,0.2,0,0.3,0,1.2V132.6z M489,131.5v-1.1c0-0.1,0-0.1,0.1-0.1c0,0,0.3,0,0.4,0c0.5,0,1.1,0.1,1.6,0.6
	c0.2,0.2,0.6,0.7,0.6,1.4c0,0.6-0.1,1.1-0.5,1.4c-0.4,0.3-0.7,0.4-1.3,0.4c-0.4,0-0.7-0.1-0.7-0.2c-0.1-0.1-0.1-0.3-0.1-0.4
	c0-0.1,0-0.6,0-1.2V131.5z"/>
<path style="fill:#010101;" d="M496.2,133.3C496.3,133.3,496.3,133.3,496.2,133.3l0.3,0.8c0,0.1,0,0.1,0,0.1c-0.1,0-0.1,0-0.1,0.1
	c0,0,0.1,0,0.2,0c0.5,0,0.9,0,1.1,0s0.3,0,0.3-0.1c0,0,0-0.1-0.1-0.1c-0.1,0-0.2,0-0.2,0c-0.1,0-0.3-0.1-0.5-0.6
	c-0.4-0.9-1.3-3.2-1.4-3.5c-0.1-0.1-0.1-0.2-0.1-0.2c-0.1,0-0.1,0.1-0.2,0.2l-1.5,3.6c-0.1,0.3-0.2,0.5-0.5,0.5c0,0-0.1,0-0.2,0
	c-0.1,0-0.1,0-0.1,0.1c0,0,0,0.1,0.1,0.1c0.3,0,0.6,0,0.7,0c0.2,0,0.4,0,0.6,0c0.1,0,0.1,0,0.1-0.1c0,0,0-0.1-0.1-0.1h-0.1
	c-0.2,0-0.2-0.1-0.2-0.2c0-0.1,0-0.2,0.1-0.3l0.1-0.3c0,0,0,0,0,0H496.2z M494.7,133C494.6,133,494.6,133,494.7,133l0.7-1.9
	c0,0,0-0.1,0-0.1c0,0,0,0,0,0.1l0.7,1.9c0,0,0,0,0,0H494.7z"/>
<path style="fill:#010101;" d="M501.8,130.5c0.2-0.3,0.3-0.4,0.4-0.4c0.1,0,0.1,0,0.2,0c0.1,0,0.1,0,0.1,0c0,0,0-0.1-0.1-0.1
	c-0.2,0-0.4,0-0.6,0c-0.1,0-0.4,0-0.6,0c-0.1,0-0.1,0-0.1,0.1c0,0,0,0,0.1,0c0.1,0,0.1,0,0.2,0c0,0,0.1,0.1,0.1,0.1
	c0,0,0,0.1-0.1,0.2c-0.1,0.2-0.6,1-0.8,1.2c-0.2-0.4-0.5-0.8-0.7-1.3c0-0.1-0.1-0.1-0.1-0.2c0,0,0-0.1,0.1-0.1c0,0,0.1,0,0.1,0
	c0.1,0,0.1,0,0.1,0c0,0,0-0.1-0.1-0.1c-0.2,0-0.5,0-0.6,0c-0.3,0-0.7,0-0.9,0c-0.1,0-0.1,0-0.1,0c0,0,0,0.1,0.1,0.1
	c0.1,0,0.1,0,0.2,0c0.2,0.1,0.3,0.2,0.5,0.4l1,1.6l-1.1,1.6c-0.2,0.3-0.3,0.4-0.5,0.4c-0.1,0-0.2,0-0.2,0c-0.1,0-0.1,0-0.1,0.1
	c0,0,0,0,0.1,0h0.1c0.1,0,0.4,0,0.5,0c0.1,0,0.5,0,0.5,0h0.1c0.1,0,0.1,0,0.1,0c0,0,0-0.1-0.1-0.1c0,0-0.1,0-0.1,0
	c-0.1,0-0.1,0-0.1-0.1c0-0.1,0-0.1,0.1-0.2l0.8-1.4c0.3,0.4,0.6,1,0.9,1.6c0,0.1,0,0.1,0,0.1c-0.1,0-0.1,0-0.1,0.1
	c0,0,0.1,0,0.2,0.1c0.4,0,0.9,0,1,0h0.2c0,0,0.1,0,0.1-0.1c0,0,0,0-0.1,0c-0.1,0-0.1,0-0.2,0c-0.1,0-0.2-0.1-0.3-0.2
	c-0.1-0.2-1.1-1.7-1.3-2L501.8,130.5z"/>
<path style="fill:#010101;" d="M511.3,133.3C511.3,133.3,511.3,133.3,511.3,133.3l0.3,0.8c0,0.1,0,0.1-0.1,0.1c-0.1,0-0.1,0-0.1,0.1
	c0,0,0.1,0,0.2,0c0.5,0,0.9,0,1.1,0c0.2,0,0.3,0,0.3-0.1c0,0,0-0.1-0.1-0.1c-0.1,0-0.2,0-0.2,0c-0.1,0-0.3-0.1-0.5-0.6
	c-0.4-0.9-1.3-3.2-1.4-3.5c-0.1-0.1-0.1-0.2-0.1-0.2c-0.1,0-0.1,0.1-0.2,0.2l-1.4,3.6c-0.1,0.3-0.2,0.5-0.5,0.5c0,0-0.1,0-0.2,0
	c0,0-0.1,0-0.1,0.1c0,0,0,0.1,0.1,0.1c0.3,0,0.6,0,0.7,0c0.2,0,0.4,0,0.6,0c0.1,0,0.1,0,0.1-0.1c0,0,0-0.1-0.1-0.1h-0.1
	c-0.2,0-0.2-0.1-0.2-0.2c0-0.1,0-0.2,0.1-0.3l0.1-0.3c0,0,0,0,0.1,0H511.3z M509.7,133C509.7,133,509.7,133,509.7,133l0.7-1.9
	c0,0,0-0.1,0-0.1c0,0,0,0,0.1,0.1l0.7,1.9c0,0,0,0,0,0L509.7,133z"/>
<path style="fill:#010101;" d="M514.8,132.6c0,0.5,0,1,0,1.2c0,0.2-0.1,0.3-0.2,0.3c-0.1,0-0.1,0-0.2,0c-0.1,0-0.1,0-0.1,0.1
	c0,0,0,0.1,0.1,0.1c0.2,0,0.6,0,0.7,0c0.2,0,0.5,0,0.9,0c0.1,0,0.1,0,0.1-0.1c0,0,0-0.1-0.1-0.1c-0.1,0-0.2,0-0.3,0
	c-0.2,0-0.2-0.2-0.2-0.3c0-0.3,0-0.7,0-1.2v-2.4l0.7,0c0.5,0,0.7,0.2,0.7,0.3l0,0.1c0,0.1,0,0.1,0.1,0.1c0,0,0.1,0,0.1-0.1
	c0-0.2,0-0.6,0-0.7c0-0.1,0-0.1,0-0.1s-0.2,0.1-0.5,0.1h-2.3c-0.2,0-0.4,0-0.6,0c-0.1,0-0.2-0.1-0.3-0.1c0,0-0.1,0-0.1,0.1
	c0,0-0.1,0.6-0.1,0.7c0,0.1,0,0.1,0,0.1c0,0,0,0,0.1-0.1c0,0,0-0.1,0.1-0.2c0.1-0.1,0.2-0.2,0.6-0.2l0.9,0V132.6z"/>
<path style="fill:#010101;" d="M524.8,132.2C524.8,132.1,524.8,132.1,524.8,132.2c0.1,0,0.7,0,0.9,0c0.2,0,0.3,0.1,0.3,0.2
	c0,0.1,0,0.1,0,0.2c0,0,0,0.1,0,0.1c0.1,0,0.1-0.1,0.1-0.1c0,0,0-0.3,0-0.4c0-0.2,0.1-0.3,0.1-0.3c0,0,0-0.1,0-0.1
	c0,0-0.1,0-0.1,0.1c-0.1,0.1-0.1,0.1-0.3,0.1c-0.1,0-0.2,0-0.3,0l-0.7,0c0,0,0,0,0,0v-1.4c0-0.1,0-0.1,0.1-0.1l0.9,0
	c0.2,0,0.3,0.1,0.4,0.2c0,0.1,0,0.2,0,0.2c0,0.1,0,0.1,0.1,0.1c0,0,0.1,0,0.1-0.1c0-0.1,0-0.4,0-0.5c0-0.1,0-0.2,0-0.3c0,0,0,0,0,0
	c0,0-0.1,0-0.1,0c-0.1,0-0.1,0-0.2,0c-0.1,0-1.3,0-1.5,0c-0.2,0-0.5,0-0.8,0c-0.1,0-0.1,0-0.1,0.1c0,0,0,0,0.1,0c0.1,0,0.2,0,0.2,0
	c0.2,0.1,0.2,0.1,0.2,0.3c0,0.2,0,0.3,0,1.2v1c0,0.6,0,1,0,1.2c0,0.2,0,0.3-0.2,0.3c-0.1,0-0.1,0-0.2,0c-0.1,0-0.1,0-0.1,0.1
	c0,0,0,0.1,0.1,0.1c0.2,0,0.6,0,0.7,0c0.1,0,0.5,0,0.9,0c0.1,0,0.1,0,0.1-0.1c0,0,0-0.1-0.1-0.1c-0.1,0-0.2,0-0.3,0
	c-0.2,0-0.2-0.2-0.2-0.3c0-0.2,0-0.7,0-1.2V132.2z"/>
<path style="fill:#010101;" d="M528.5,132.6c0,0.6,0,1,0,1.3c0,0.2,0,0.3-0.2,0.3c-0.1,0-0.1,0-0.2,0c-0.1,0-0.1,0-0.1,0.1
	c0,0,0,0.1,0.1,0.1c0.2,0,0.6,0,0.7,0c0.2,0,0.5,0,0.9,0c0.1,0,0.1,0,0.1-0.1c0,0,0-0.1-0.1-0.1c-0.1,0-0.2,0-0.3,0
	c-0.2,0-0.2-0.1-0.2-0.3c0-0.2,0-0.7,0-1.3v-1c0-0.9,0-1,0-1.2c0-0.2,0.1-0.3,0.2-0.3c0.1,0,0.1,0,0.2,0c0.1,0,0.1,0,0.1-0.1
	c0,0,0,0-0.1,0c-0.2,0-0.6,0-0.7,0c-0.2,0-0.5,0-0.8,0c-0.1,0-0.1,0-0.1,0c0,0,0,0.1,0.1,0.1c0.1,0,0.1,0,0.2,0
	c0.1,0,0.2,0.1,0.2,0.3c0,0.2,0,0.3,0,1.2V132.6z"/>
<path style="fill:#010101;" d="M532,132.6c0,0.5,0,1,0,1.2c0,0.2-0.1,0.3-0.2,0.3c0,0-0.1,0-0.2,0c-0.1,0-0.1,0-0.1,0.1
	c0,0,0,0.1,0.1,0.1c0.2,0,0.6,0,0.7,0c0.3,0,0.8,0.1,1.2,0.1c1.1,0,1.7-0.4,1.9-0.7c0.3-0.3,0.6-0.9,0.6-1.6c0-0.7-0.3-1.2-0.6-1.4
	c-0.6-0.7-1.6-0.7-2.3-0.7c-0.3,0-0.7,0-0.9,0c-0.2,0-0.5,0-0.8,0c-0.1,0-0.1,0-0.1,0.1c0,0,0,0,0.1,0c0.1,0,0.2,0,0.2,0
	c0.2,0.1,0.2,0.1,0.2,0.3c0,0.2,0,0.3,0,1.2V132.6z M532.7,131.5v-1.1c0-0.1,0-0.1,0.1-0.1c0.1,0,0.3,0,0.4,0c0.4,0,1.1,0.1,1.6,0.6
	c0.2,0.2,0.5,0.7,0.5,1.4c0,0.6-0.1,1.1-0.5,1.4c-0.3,0.3-0.7,0.4-1.3,0.4c-0.5,0-0.7-0.1-0.8-0.2c0-0.1-0.1-0.3-0.1-0.4
	c0-0.1,0-0.6,0-1.2V131.5z"/>
<path style="fill:#010101;" d="M538.1,132.6c0,0.5,0,1,0,1.2c0,0.2,0,0.3-0.2,0.3c-0.1,0-0.1,0-0.2,0c-0.1,0-0.1,0-0.1,0.1
	c0,0,0,0.1,0.1,0.1c0.2,0,0.6,0,0.7,0c0.3,0,0.7,0,1.6,0c0.2,0,0.3,0,0.3-0.2c0-0.1,0.1-0.5,0.1-0.6c0-0.1,0-0.1,0-0.1
	c0,0-0.1,0-0.1,0.1c0,0.2-0.1,0.4-0.3,0.4c-0.2,0.1-0.4,0.1-0.5,0.1c-0.6,0-0.7-0.1-0.7-0.5c0-0.2,0-0.7,0-0.9v-0.4c0,0,0-0.1,0-0.1
	c0.1,0,0.7,0,0.8,0c0.2,0,0.3,0.1,0.3,0.2c0,0.1,0,0.2,0,0.2c0,0,0,0.1,0.1,0.1c0,0,0-0.1,0-0.1c0,0,0-0.3,0-0.4
	c0-0.3,0.1-0.4,0.1-0.4c0,0,0,0-0.1,0c0,0,0,0-0.1,0.1c-0.1,0.1-0.1,0.1-0.3,0.1c-0.1,0-0.8,0-0.9,0c0,0,0,0,0-0.1v-1.5
	c0,0,0-0.1,0-0.1c0.1,0,0.7,0,0.8,0c0.3,0,0.3,0.1,0.4,0.2c0,0.1,0,0.2,0,0.2s0,0.1,0,0.1c0.1,0,0.1,0,0.1-0.1c0-0.1,0-0.3,0-0.4
	c0-0.3,0.1-0.3,0.1-0.4c0,0,0,0,0,0c0,0-0.1,0-0.1,0c0,0-0.1,0-0.2,0c-0.1,0-1.3,0-1.4,0c-0.2,0-0.5,0-0.8,0c-0.1,0-0.1,0-0.1,0.1
	c0,0,0,0,0.1,0c0.1,0,0.2,0,0.2,0c0.2,0,0.2,0.1,0.2,0.3c0,0.2,0,0.3,0,1.2V132.6z"/>
<path style="fill:#010101;" d="M543.3,131.6v-1.2c0-0.2,0.1-0.3,0.2-0.3c0.1,0,0.2,0,0.2,0c0.1,0,0.1,0,0.1,0c0,0,0-0.1-0.1-0.1
	c-0.2,0-0.6,0-0.8,0c-0.2,0-0.5,0-0.8,0c-0.1,0-0.1,0-0.1,0.1c0,0,0,0,0.1,0c0.1,0,0.2,0,0.2,0c0.2,0.1,0.2,0.1,0.2,0.3
	c0,0.2,0,0.3,0,1.2v1c0,0.5,0,1,0,1.2c0,0.2,0,0.3-0.2,0.3c0,0-0.1,0-0.2,0c-0.1,0-0.1,0-0.1,0.1c0,0,0,0.1,0.1,0.1
	c0.2,0,0.6,0,0.7,0c0.5,0,0.8,0,1.7,0c0.3,0,0.3,0,0.4-0.2c0-0.2,0.1-0.6,0.1-0.7c0-0.1,0-0.1,0-0.1c0,0-0.1,0-0.1,0.1
	c0,0.1-0.1,0.3-0.2,0.3c-0.1,0.2-0.4,0.2-0.7,0.2c-0.4,0-0.6,0-0.7-0.1c-0.1-0.1-0.1-0.5-0.1-1.2V131.6z"/>
<path style="fill:#010101;" d="M546.9,132.6c0,0.6,0,1,0,1.3c0,0.2-0.1,0.3-0.2,0.3c-0.1,0-0.1,0-0.2,0c-0.1,0-0.1,0-0.1,0.1
	c0,0,0,0.1,0.1,0.1c0.2,0,0.6,0,0.7,0c0.2,0,0.5,0,0.9,0c0.1,0,0.1,0,0.1-0.1c0,0,0-0.1-0.1-0.1c-0.1,0-0.2,0-0.3,0
	c-0.2,0-0.2-0.1-0.2-0.3c0-0.2,0-0.7,0-1.3v-1c0-0.9,0-1,0-1.2c0-0.2,0.1-0.3,0.2-0.3c0.1,0,0.1,0,0.2,0c0.1,0,0.1,0,0.1-0.1
	c0,0,0,0-0.1,0c-0.2,0-0.5,0-0.7,0c-0.2,0-0.5,0-0.7,0c-0.1,0-0.1,0-0.1,0c0,0,0,0.1,0.1,0.1c0.1,0,0.2,0,0.2,0
	c0.1,0,0.2,0.1,0.2,0.3c0,0.2,0,0.3,0,1.2V132.6z"/>
<path style="fill:#010101;" d="M550.9,134.4c0.3,0,0.6,0,0.9-0.2c0.4-0.3,0.5-0.7,0.5-1c0-0.5-0.3-0.9-1-1.5l-0.1-0.1
	c-0.5-0.4-0.6-0.6-0.6-0.8c0-0.3,0.2-0.6,0.7-0.6c0.4,0,0.5,0.2,0.6,0.3c0.1,0.1,0.1,0.3,0.1,0.4c0,0.1,0,0.1,0.1,0.1
	c0,0,0.1,0,0.1-0.2c0-0.5,0-0.6,0-0.7c0,0,0-0.1-0.1-0.1c-0.1,0-0.4-0.1-0.8-0.1c-0.8,0-1.3,0.5-1.3,1.1c0,0.5,0.2,0.9,0.9,1.4
	l0.3,0.2c0.5,0.4,0.6,0.6,0.6,0.9c0,0.3-0.3,0.7-0.8,0.7c-0.3,0-0.7-0.2-0.8-0.6c0-0.1-0.1-0.2-0.1-0.3c0-0.1,0-0.1-0.1-0.1
	c0,0-0.1,0.1-0.1,0.2c0,0.1,0,0.4,0,0.8c0,0.1,0,0.2,0.1,0.2C550.3,134.3,550.5,134.4,550.9,134.4"/>
<path style="fill:#010101;" d="M533.6,15.9c0.1-0.9-1.6-1.5-2-1.6c-0.7-0.1-1.5,1.4-2.4,2.2c-0.8-4.1-0.4-5.9,0.1-7.7
	c1.7,3.2,4.1,3.8,5.3,3.7c-4.2-3.4-3.5-6.4-4.7-6.6c-0.7-0.1-1.3,0-1.6,0c-1.5,0-1.7,2.9-1.9,4.2c-1-1.8-1.9-3.3-3.5-5.3
	c-1.5-4-3.4-3-5.4-4.8c1.5,2.3,0.3,3.7,3.8,5.3c0.9,0.9,2,2.2,2.7,3.3c-0.6,0.8-1,1.2-1.5,1.7c-0.4,0.7-0.7,3.1-2,5
	c2-0.9,2.8-2.1,3.5-3.3c6.3,4.7,1.2,16.8-0.3,19.5c-1.4-0.9-3.2-1.5-4.8-1.7l-0.2-0.5l-1.5-4.8h0.7c0.8,0,1-0.5,0.9-0.9l4.3,1.3
	l1.9,0.6l-1.2-1.6l-2-2.8l2-2.8l1.2-1.6l-1.9,0.6l-3.9,1.2c-0.3-0.9-1-1.3-1.8-1.4l1.3-4.4l0.6-1.9l-1.6,1.2l-2.8,2l-2.8-2l-1.6-1.2
	l0.6,1.9l1.3,4.4c-0.8,0.1-1.5,0.5-1.8,1.4l-3.9-1.2l-1.9-0.6l1.2,1.6l2,2.8l-2,2.8l-1.2,1.6l1.9-0.6l4.3-1.3c-0.1,0.4,0,1,0.8,1
	h0.7l-1.5,4.8l-0.2,0.5c-1.7,0.3-3.5,0.8-4.9,1.8c-4.2-8.2-3-16.5,0.5-19.3c-0.1,1.7,1.5,4.1,2.2,4.6c-0.5-1.8,0.3-5-0.6-5.8
	c-0.7-0.6-1.6-0.8-2.7-0.8c0.7-1.2,1.7-2.7,3.4-4.9c2.5-1.2,3.2-4.1,3.8-5.5c-2.7,1-4.7,2.4-5.1,4.7c-1,1.3-2,2.8-3.2,4.5
	c0.1-2.1-1.1-2.9-2.7-3c-4.6,1-4.2,4.3-8.1,6.5c2.7,0.9,6.9-4.9,8.3-4.3c0.2,3.6-0.6,6.4-0.6,8.4c-0.7-0.8-1-1.3-1.6-1.4
	c-0.6-0.1-2.1,0-3.1,1.2c-0.3,1.8-0.2,5.2-1.9,9.4c2.5-2.3,3.8-6.9,4.2-8.2c0.7,0.9,1.4,2.9,1.5,4.6c0.3,3.3,2.3,8.7,4,11.4
	c-0.5,0.9-0.6,1.9-0.4,3.1c-1.3,1-1.5,2.4-1,3.3c0.5,1,1.8,1.7,3.3,1.1l0.5-0.2c1.6-0.7,4.6-1.9,8.3-1.9c3.6,0,6.7,1.2,8.3,1.9
	l0.5,0.2c1.5,0.6,2.8-0.1,3.3-1.1c0.5-0.9,0.3-2.3-1-3.3c0.2-1.2,0-2.3-0.6-3.3l0.1,0c3.1-4.4,3.3-12.9,5.9-15.4
	c0.2,3,1.8,5.4,3.4,5.8C533.5,21.9,533.5,17.8,533.6,15.9 M519.3,19.9l2.3-0.7l-1.1,1.5l-0.3,0.4l0.3,0.4l1.1,1.5l-2.9-0.9
	C518.9,21.6,519.1,20.9,519.3,19.9 M508.2,23.1l1.1-1.5l0.3-0.4l-0.3-0.4l-1.1-1.5l2.3,0.7c0.1,1,0.4,1.7,0.6,2.3L508.2,23.1z
	 M517.4,22.3h-1.8l0.2-3.2C518.5,17.9,518.2,20.4,517.4,22.3 M516.8,27.8l-1.6-1.1l-0.4-0.3l-0.4,0.3l-1.6,1.1l1-3.2h1.9L516.8,27.8
	z M514.5,15.3l0.4,0.3l0.4-0.3l1.6-1.1l-0.9,3c0,0-0.1,0-0.1,0c-0.2-0.4-0.5-0.6-1-0.6c-0.4,0-0.8,0.3-1,0.6c0,0-0.1,0-0.1,0l-0.9-3
	L514.5,15.3z M512.4,22.3c-0.9-1.9-1.1-4.4,1.6-3.2l0.2,3.2H512.4z M514.9,28.1l2.2,1.6c-0.9-0.1-1.7-0.1-2.2-0.1
	c-0.5,0-1.2,0-2.2,0.1L514.9,28.1z M506,39.4l-0.5,0.2c-0.6,0.3-1.1,0-1.2-0.3c-0.2-0.3-0.1-0.9,0.7-1.4c0.1-0.1,0.2-0.1,0.3-0.2
	l1.5,1.3C506.5,39.2,506.2,39.3,506,39.4 M511.2,37.7l-1.6-1.6c1.3-0.3,2.7-0.6,4.1-0.6l1,1.9C513.4,37.4,512.2,37.5,511.2,37.7
	 M520,38l-0.9-2.2c1.4,0.3,2.8,0.7,4,1.2l0.5,2.2C522.7,38.9,521.5,38.4,520,38 M514.9,33.8c-3,0-6.4,0.7-9,1.9
	c0-0.6,0.2-1.1,0.6-1.5c1.5-1.8,5.5-2.5,8.4-2.5c2.9,0,6.9,0.7,8.4,2.5c0.4,0.4,0.6,0.9,0.6,1.5C521.3,34.5,517.9,33.8,514.9,33.8"
	/>
<path style="fill:#010101;" d="M493.4,81.7c0.4-3.5-0.2-3.7-1.2-4.6c-0.9-0.7-2.3-0.9-3.7-1.9c-1-0.7-1.3-1.7-2.6-3.1
	c0.3-3.6,4.2-8,5.5-7.3l0-1.8c-1.7-0.6-4.7,1.1-7.2,7.1c-0.3-0.3-0.5-0.4-0.8-0.6c0.2-1.4-0.3-2.6-1.1-3.6c0.9-0.6,3.5-1.8,5-2.9
	c1.7-1.2,2-1.7,4-1.2c0,0,0.4-0.4,0.5-0.9c-1.5-1.9-3.7-1.4-5.2,0.4c-1.2,0.9-3.9,2.7-5.7,3.4c-2.5-2.1-6.4-4-9.2-6.8
	c0,0,3.8,0,5.5-0.7c0.5-0.3,1.7-2.2,1.2-4c-0.6-0.2-1.4-0.6-2.3-1.1c-1-0.6-2-1.2-2.5-1.6c-1.6-1.2-2.3-2.3-5.1-3
	c0.2-1.3,0.5-1,1.7-1.8c1.6-1.1,2.5-2.4,3.1-3.6c0.5-1-0.1-3-1.3-0.4c-0.4,0.9-1.7,2.1-3.1,2.5c0.1-0.8,0.2-1.3,0.2-1.7
	c4.1-2.9,3.7-5.5,3.4-7.9c-0.2-1.4-1.6-2-1.5-0.5c0,1,0.9,3.7-1.9,5.3c-0.1-1.2-0.4-1.8-0.7-2.4c2.5-3.3,1.5-6.5,0.4-8
	c-0.7-0.9-2.3-1.3-1.6,0.2c0.6,1.2,1.6,4.5-0.3,5.8c-0.6-0.8-1.4-1.1-1.6-2.2c0.2-3.6,0-5.8-0.5-7.1c-0.4-1.2-1.6-2-1.5-0.2
	c0.1,2,0.3,4.5,0.1,4.7c-0.2,0.1-2.9-2.3-3.9-3.1c-1.1-0.8-2.4-0.5-1.1,1c1.1,1.3,4.5,3.8,4.1,4.6c-0.3,0.5-2.7-1.5-4-1.9
	c-1.3-0.4-1.7,0.2-0.6,1.1c1.7,1.4,2.9,2.4,5.8,3.3c2.9,1,4.3,4.9,3.4,10.6c0,0.2-0.5,0.2-0.8,0.1c-0.1-2.2-0.5-4.7-1-5.9
	c-0.7-1.5-2-1.5-1.5,0.5c0.4,1.6,0.6,3.3,0.4,5.5c-2.4-0.4-3.3-1-4.3-1.6c-0.1-1.1,0.5-2.9,0.6-4.5c0.1-1.6-0.8-2.6-1.4-0.6
	c-0.5,1.9-0.8,2.8-1.2,4.2c-0.7-0.2-1.4-0.5-1.7-0.9c-0.2-0.2,0-2.3-0.2-3.9c-0.2-1.8-0.8-1.7-1.4-0.2c-0.2,0.7-0.4,1.6-0.5,2.8
	c-0.8-0.5-1.4-1.5-1.5-2.2c0.1-1.8,0.4-3.8,0.7-5c0.2-0.9-0.4-2.6-1.1-0.5c-0.5,1.5-0.6,2.8-0.9,3.9c-0.6,0-1.4-3.5-1.8-5.8
	c-0.2-1-1-2.2-1.2,0.1c-0.2,2.5,0.3,5,1,6.1c-1.2-0.1-2.4-2.3-3.2-3.6c-0.7-1.1-1.1,0-1,0.5c0.7,4.4,4.2,6,5.9,6.3
	c2.5,3.6,7.2,5.1,11.3,6.8c-5.2-0.1-6.6,2.1-9,0.7c0.1,2,1.1,2.9,2,3.3c0.7,0.3,1.3,0.4,1.6,0.5c0.4,2.4,2.7,2.3,4.6,2.4
	c-0.5,4.7,0.1,10.8,4.2,15.4c-0.1,2.4-0.3,5.5-0.2,7.5c-3.4,3.1-6.3,9.6-7.5,13.2c-0.9,2.7-2.2,4.8-4.3,5.8c1.7,1.8,4.2,0.9,5.6-0.1
	c0.1,1.6,0.5,2.7,0.7,3.6c-1,1.4-1.6,2.4-1.5,4.2c-1.1,0.3-1.8,1-2.4,1.7c-0.4,0.5,0.1,2.6,0.5,3.5c1.3,3,0.3,9.8,0.1,11.7
	c0.6,0,1.6,0.1,1.8-0.8c0.3,0.3,1.1,0.9,1.5,2.2c-0.1,0.6-0.4,2.6,0.7,2.9c0.9,0.2,4.6,0.1,5.1-0.6c-0.4-0.4-1-1.4-1.4-2.4
	c0-1-0.1-2.3-0.4-2.8c-0.4-0.8-1.5-2.5-2.2-3.2c-0.2-1.2-0.3-6.7,0.3-8.9c1-0.7,7.6-5.6,9-10.3c1.2,0.4,0.8,3.7,0.8,7.9
	c0,1.1,1.4,1.7,2.2,1.8c1.8,0.2,4.3,1.9,7.2,6.2c0.6-0.6,1.3-1.1,1.3-1.1c0.4,0.5,0.8,1.7,1.1,2.5c0.3,0.6,2.6,0.9,4.4,0.4
	c0.6-0.2,0.9-0.3,1.3-0.9c-2.2-3.9-3.6-6.5-6.5-8.7c-1.3-1-3.1-1.5-4.6-2.5c1-1.9,3.7-10.6,2.1-13.8c-0.6-1.1-2.6-2.1-5.2-1.6
	c2.1-2.6,6.4-7.6,7-9.1c0.5,0.6,3,0.2,4.9,0.9c0.7,0.3,2.6,2.8,2.7,3.6c0.2,1.5,0.2,3.4-0.8,7.6c0.8-0.1,0.6-0.2,1.4-0.5
	c0.1,1.2-0.2,2-1.2,3.7c0.2,1.5,0.9,3.9,1.6,4.3c1-2.9,4.5-6.9,4.4-9.3C494.7,85.8,493.2,83.1,493.4,81.7 M458.9,51.8
	c-0.5-0.6-0.7-1.3-1-1.5c2-1.2,4.4-0.2,5.9-1.6c1,0.5,2.4,0,3-0.1c2.1-0.3,4.6,1.8,6.5,3.2c0.8,0.6,1.5,1,2,1.1
	c-0.5,1.6-0.4,1.9,1,2.2c-0.1,0.5-0.5,0.8-2,0.6c-1.6-0.2-3.5-0.1-4.3,0c-4.7,2.4-6.2-1.5-6.2-3.9v0c0,0,0,0,0,0
	C461,53.3,459.7,52.7,458.9,51.8 M477.9,90.4c1.7,2.1-0.7,10.7-1.6,12.3c-0.8,1.4,0.7,2.3,1.4,2.5c3.4,0.9,6.9,4.2,8,6.7l-1.2,0.5
	c-2.6-3.5-3.3-2.4-3.9-1.7c-0.7-1.1-3.8-4.6-5.8-4.8c-1.8-0.2-1.8-1.3-1.7-2.2c0.2-1.9,0.1-4.6-0.1-6.1c-0.3-1.2-1.3-2.7-2.1-2.7
	c0.4-0.9-0.1-3.9,2.4-5.1C475.3,88.7,477.5,89.9,477.9,90.4 M492,92.2c-0.3,0-0.5-0.1-0.7-0.4c0.6-2,0.7-3,0.6-3.5
	c-0.5,0.2-0.8,0.1-1,0c0.6-3.2,0.2-5.2-0.2-6.5c-0.4-1.3-2.1-3.2-2.7-3.5c-1-0.5-1.8-1.1-3.7-1.3c-3.9-3.3-5-1.3-7.8-1.6
	c-0.4-0.5-1.1-1.2-1.1-1.2l-1.2,0.9c0,0,1.2,1.5,1.4,2.5c0,0,2.5-0.5,4.5,0c-0.7,2.5-4.2,5.8-7.5,9.5c-3.5,3.9-3.6,4.8-3.5,7.9
	c0.1,3.7-5,9.2-8.9,11.8c-0.3,0.9-0.8,9.1-0.3,10.3c0.3,0.5,1.4,1.7,2.1,2.8c0.3,0.5,0.2,1.6,0.4,2.6c-0.5,0.1-0.9,0-1.3-0.2
	c-0.2-1.1-1.2-2.7-2.9-3.8c0.4-4.5,0.9-7-0.7-11.5c-0.1-0.4,2-1.6,2-1.6s0.7-3.3,2.6-4.9c-1.4-3.5-1.6-8.3-1.6-8.3s-0.8,1.1-2.2,2
	c3.6-11.4,4.3-8.2,8.6-16.5c2.9-13.3-4.8-16-3.6-20.7c2.7,2.6,4.1,1.7,6.3,1.1c2,1.7,4.9,5.4,7.6,6.4c4.4,1.5,4.3,5.6,3.6,7.5
	c1.8,0,3.3,0.6,3.9,1.7c3.1,4.7,5,3.3,6.7,5.3c0.8,1,0,3.6,0.9,6c0.6,1.6,0.9,3.4,0.9,3.9C493.2,89.6,492.1,91.1,492,92.2"/>
<path style="fill:#010101;" d="M468.9,52.8c0.9-0.1,1.3-0.6,2.1-0.2c-0.1-0.3-0.6-0.3-0.7-0.5c0-0.1,0-0.2,0-0.2
	c-0.1-0.8-0.4-1.5-1.7-1.7c-0.3,0.7-1.6,1.2-2.2,1.6c0.2,0,0.4,0,0.5,0.1C467.7,52.1,467.6,52.9,468.9,52.8"/>
<path style="fill:#010101;" d="M538.4,60.5h-23.5h-23.5h-0.9v0.9v16.8c0.3,0.2,0.6,0.4,1,0.8c0.8,1,0,3.6,0.9,6
	c0,0.1,0.1,0.2,0.1,0.3h21.7v34.6c-2.5-1-7.8-3.5-12.5-8.1c-5.9-5.7-9-12.6-9.3-20.6c-0.2,0.4-0.3,0.8-0.4,1.1
	c-0.3,0-0.5-0.1-0.7-0.4c0.6-2,0.7-3,0.6-3.5c-0.5,0.2-0.8,0.1-1,0c0.6-3.2,0.2-5.2-0.2-6.5c0-0.1-0.1-0.3-0.2-0.4v8.2
	c0,9.1,3.4,17,9.9,23.4c5.8,5.6,12.3,8.2,14.1,8.9l0.3,0.1l0.3-0.1c1.8-0.7,8.3-3.3,14.1-8.9c6.6-6.4,9.9-14.3,9.9-23.4v-1.5
	c-0.6,0.9-1.2,1.5-1.8,1.6c0,8.6-3.2,16-9.4,22c-4.8,4.6-10,7.1-12.5,8.1V85.2h21.9v3.2c2.2-2.9,1.2-10.3,0-11.1v6.5h-45.2V62.2
	h22.6h22.6v14.9c0.6-0.4,1.3,0,1.8,0.9V61.4v-0.9H538.4z"/>
<line style="fill:#010101;" x1="420.2" y1="0.7" x2="420.2" y2="183"/>
<rect x="419.4" y="0.7" style="fill:#010101;" width="1.6" height="182.3"/>
<path style="fill:#010101;" d="M308.9,120.7c-2.2,0-3.5,1.6-3.6,4.9h7.1c0-1.7-0.2-2.7-0.7-3.5C311.2,121.2,310.1,120.7,308.9,120.7
	"/>
<polygon style="fill:#010101;" points="254.7,76.5 249.6,92.5 259.8,92.5 "/>
<path style="fill:#010101;" d="M265.1,120.7c-2.2,0-3.5,1.6-3.6,4.9h7.2c0-1.7-0.2-2.7-0.7-3.5C267.4,121.2,266.3,120.7,265.1,120.7
	"/>
<path style="fill:#010101;" d="M384.1,62.6c-0.8,0.1-1.3,0.9-2.4,1c-0.9,0.1-0.6-0.1-1.7-0.6c-1.9-0.8-1.1-0.7-2.1-1.4
	c-0.4-0.3-1.7-0.4-1.2-1.2c0.9-1.4,2.9-2.7,1.1-3.8c-2.4-1.4-4.1-4-5.5-6.1c-0.9-1.5-2.1-2.8-3.3-4.1c-0.3-0.3-1-0.6-1-0.9
	c0-0.2,0.5-0.7,0.9-0.9c1.1-0.6,1.6-1.6,1.2-3.5c-0.2-1.1,0.6-2.5,0.9-3.7c0.1-0.3,0.4-1.2,0.4-1.5c0-0.7,0-1.1,0-1.7
	c0.4-0.1,1.7,0.1,2.6-0.2c1.2-0.4,1.4-0.4,0.8-1.7c-0.6-1.4-0.8-3.2-1.4-4.5c-0.4-0.9,0.4-1.4,1-1.9c1.5-1.2,1.7-1.2,0.6-2.8
	c-1.2-1.6-2.1-3-3.2-4.7c-1.1-1.7-2.1-5.3-0.8-6.8c0.1-0.1,0.3-0.5-0.2-0.6c-0.1,0-0.2-0.2-0.2-0.3c0-0.2,0.1-1.9,0.2-3.6
	c0.1-0.7,0.1-1.2,0.1-1.7c0-0.7,0.1-1.2,0.1-1.9c0-0.2,0.5-0.3,0.5-0.6c0-0.1-0.1-0.3-0.2-0.4c-0.2-0.1-0.5-0.2-0.7-0.3
	c-0.3-0.1-0.6-0.1-0.7,0c-0.2,0.1-0.3,0.5-0.3,0.9c0,0.3-0.1,0.5-0.1,0.6c0,0.6-0.1,1-0.1,1.5c-0.1,1.1-0.1,1.9-0.2,3.4
	c-0.1,1.8,0,1.8-1.8,1.3c-0.9-0.3-1.8-0.5-2.8-0.7c-0.6-0.1-1.2-0.3-1.6-0.6c-0.5-0.6-0.9-1.6-0.7-2.4c0.8-0.2,1.3-0.4,1.6-0.8
	c0.4-0.4-1-1-1.2-1.5c-1.1-3.7-7.5-3.3-8.1,0.6c0,0-0.1,0.2-0.2,0.3c-0.2,0.1-0.5,0.4-0.8,0.7c-0.2,0.2-0.1,0.4-0.1,0.6
	c0.1,0.2,0.3,0.4,0.5,0.4l1.3,0.3c0,0,0,0,0,0c0.1,0,0.1,0,0.2,0c0,0,0,0,0,0c0,0.1,0,0.1,0,0.2c0,0.1-0.1,0.2-0.1,0.3
	c0,0.1-0.1,0.3-0.1,0.4c0,0.1,0,0.2,0,0.3c0,0,0,0,0,0.1c0,0,0,0.1,0.1,0.1c0,0,0,0,0.1,0.1c0,0,0,0,0,0c0,0,0.1,0,0.1,0.1
	c0,0,0.1,0,0.1,0c0.1,0,0.3,0,0.4,0.1c0,0,0,0.1,0.1,0.1c0,0.1,0.1,0.3,0.1,0.4c0,0.1,0,0.2,0.1,0.2c0.1,0.1,0.3,0,0.3,0.1
	c0.1,0.1,0,0.2,0,0.3c0,0,0,0,0.1,0.1c0,0,0.1,0.1,0.1,0.1c0,0,0.1,0,0.2,0c0.1,0,0.1,0.1,0.1,0.2c0,0.2,0,0.3,0.1,0.4
	c0.3,0.4,0.8,0.2,1.2,0c0,0,0,0,0,0c0.1,0,0.1,0,0.2,0c0,0,0,0,0,0c0.2,0,0.4,0.1,0.5,0.2c0.1,0.1,0.3,0.3,0.4,0.4
	c0,0-0.1,0.1-0.1,0.1c-0.4,0.5-1.4,1-1.6,2.6c-0.1,1.3,0,2.2-0.1,3.5c-0.1,1.4-0.8,3-0.9,4.4c-0.1,1.1-0.8,1.2-1.6,1
	c-1.4-0.2-2.4-0.1-1.8,1.7c0.1,0.4-0.2,0.8-0.4,1.1c-2.4,3.4-3.1,7.1-2.1,11.1c0.5,1.8,0.5,3.5-0.5,5c-0.5,0.8-0.2,1.2,0.4,1.6
	c1.4,1.1,4.3,1.3,5.7,0.4c0.7-0.4,0.9-0.8,0.7-1.6c-0.1-0.3-0.4-1-0.4-1.4c-0.1-0.4,0.3-0.9,0.3-1.3c0-0.4-0.2-1.1-0.2-1.5
	c0-0.7,0.3-1,0.6-1c0.7-0.2,0.3-0.1,0.5,0.3c0.6,1.3,0.2,1.6,0.2,2.4c0,0.9-0.1,3.1-0.2,4c-0.3,2.5,0.2,5,2.3,6.5
	c0.1,0.1,0.2,0.2,0.3,0.2c0.2,0,0.3,0.1,0.4,0.3c0.1,0.4,0.2,0.7,0.2,1.1c0,0.2,0.1,0.5,0.1,0.7c0.1,0.6,0.2,1.1,0.3,1.7
	c0.1,0.6,0.2,1.2,0.3,1.9c0,0,0,0,0,0c0.2,0.8,0.4,1.5,0.4,2.3v0c0,0.4,0,0.8-0.1,1.1c-0.2,0.5-0.5,0.3-1.3,0
	c-0.6-0.2-1.1-0.3-1.5-0.3c-0.3,0-3.5,0.6-4.5,0.3c-0.9-0.3-4.3-0.1-5.1-0.3c-0.4-0.1-4.4-0.2-5.7,0.2c-1.3,0.4-1.6,0.4-2.4,0.2
	c-0.2-0.1-2.5,0.7-3.2,0.7c-0.5,0-1.4-0.2-1.6-0.3c-0.3-0.2-0.2-1-0.3-1.3c-0.2-0.4-0.3-0.3-0.3-0.9c0-1.7,0-2.8,0-4.9
	c0-2-0.6-3.6-1-5.4c-0.1-0.5,0.2-1,0.1-1.3c0-0.2-0.1-0.3-0.1-0.5c-0.6-2.4-0.4-4-0.2-4.4c0.2,0,0.8,0,1.5,0c1.5-0.1,1-0.8,1.1-1.9
	c0.1-2.1,0.2-3.2,0.2-5.3c0-1.7,0.4-2.7,1.4-4c0.9-1.2,1.1-1.9,2.1-2.7c0,0,0,0,0.1-0.1c0.1-0.1,0.2-0.4,0.1-0.6
	c-0.4-0.2-0.9-0.4-1.3-0.7c-0.1-0.1-0.2-0.2-0.1-0.4c0-0.1,0-0.2,0-0.2c0-0.3,0.1-0.5,0.1-0.8c0-0.8,0-0.4-0.5-1.1
	c-0.7-1-1.8-2.7-2.2-4c-0.3-1-0.8-2.3-1.2-3.3c-0.7-1.4-1.5-2.5-2.8-3.6c-0.3-0.2-0.7-0.5-1.1-1c-0.2-0.2,0-1-0.1-1.2
	c-0.1-0.2-0.7,0.2-0.8,0c-0.4-0.7-0.3-1.5-0.3-2c0,0,0.8,0,1.1-0.2c0.7-0.3,0.9-0.6,0.2-1.1c-0.6-0.5-1.1-0.8-1.2-1.1
	c-0.1-1.2-1.1-2-2.6-2.1c-1.7-0.1-3.2-0.3-4,1.9c-0.3,0.8-0.8,1-1.3,1.3c-0.5,0.3-0.9,1,0.1,1.3c0.5,0.1,1,0.2,1.7,0.2
	c0.1,0.2,0.1,0.4,0.1,0.6c0,0.3-0.1,0.6-0.1,0.9c0,0.1,0,0.1,0,0.2c0,0.1,0.1,0.2,0.2,0.2c0,0,0.1,0,0.1,0c0.1,0,0.1,0,0.2,0
	c0,0.1,0.1,0.2,0.1,0.3c0,0,0,0,0,0c0,0,0,0,0,0.1v0c0,0,0,0.1,0,0.1c0,0,0,0.1,0.1,0.1c0,0,0,0,0,0c0,0,0,0,0,0
	c0.1,0.1,0.1,0.2,0.2,0.3c0,0,0,0,0,0v0c0,0.1,0.1,0.2,0.1,0.3v0c0,0,0,0,0,0.1c0,0.1,0.1,0.1,0.1,0.2l0,0c0,0,0.1,0.1,0.2,0.2
	c0.1,0,0.2,0.1,0.2,0.1c0,0,0.2-0.1,0.5-0.1c0.2,0,0.5,0,0.5,0c0.1,0.2,0.2,0.3,0.3,0.5c0,0,0,0.1,0,0.1c0,0.1,0.1,0.3,0.1,0.4
	c-0.3,0.2-0.6,0.5-0.7,0.6c-0.5,0.9-0.8,1.8-0.8,2.8c0,0.3,0,0.7,0,0.8c0,0-0.2,0.2-0.3,0.2c-0.2,0-0.5,0-0.6,0
	c-0.3,0.1-0.7,0.1-1,0.2c-0.3,0.2-0.4,0.3-0.6,0.7c-0.1,0.4-0.4,0.8-0.3,1.4c0,0.4,0.1,1.4,0.1,1.8c0.1,0.9,0,1.3,0.1,2.2
	c0.2,0.9,0.5,1.8,0,3.4c-0.4,1.1-0.7,2.3-1.3,3.4c-0.4,0.3-0.7,0.5-1.1,0.8c-0.1,0.1-0.3,0.2-0.3,0.4c0,0,0,0,0,0.1
	c-0.1,0.1-0.1,0.1-0.2,0.2c-0.1,0.1-0.4,0.2-0.4,0.2c-0.1,0.1-0.3,0.2-0.4,0.3c-0.2,0.1-0.6,0.5-0.6,0.5c-0.1,0.1-0.2,0.2-0.2,0.3
	c0,0.1,0,0.1-0.1,0.2c0,0.1-0.2,0.3-0.2,0.4c0,0,0,0.2,0.1,0.3c0.1,0.1,0.1,0.2,0.2,0.2c0.1,0.1,0.2,0.3,0.6,0.3c0,0,0.2,0,0.3,0
	c0.1,0.1,0.2,0,0.3,0c0.1,0,0.3,0,0.3,0c0,0,0.2,0,0.3,0c0.2-0.1,0.2-0.1,0.3-0.2c0,0,0.2-0.3,0.2-0.3c0.2-0.3,0.5-0.8,0.7-1.2
	c0,0,0,0,0,0c0.1,0.2,0.5,0.7,0.8,0.7c0,0,0,0,0,0c0,0,0,0,0,0c0.1,0,0.2,0,0.3-0.2c0.1-0.1,0.1-0.2,0.2-0.3
	c0.2-0.1,0.4-0.3,0.5-0.5c0.1-0.1,0.3-0.2,0.4-0.4v0c0.1,0,0.1-0.1,0.1-0.1c0.1,0,0.2,0,0.4,0c0.2,0,0.3-0.1,0.5-0.1
	c-0.2,0.4-0.6,1.1-0.6,1.2c0,0.7,0.4,1.7,0.8,2.4c0.9,1.3,1.3,2.6,0.6,4.2c-0.5,1-1,3.9-1,4.1c0,0.2,0.6,0.9,1.6,1.3
	c-0.1,0.5-0.1,1.1,0,1.6c0.1,0.4,0.6,0.7,0.8,1v0.2c-0.3,1.6,0,3.3,0.2,4.9c0,0.2,0.1,0.3,0.1,0.5c0,0.5,0,1,0.1,1.4
	c0,0,0,0.1,0,0.1c0,0.2,0,0.4,0,0.7c-0.1,0.4-0.3,0.7-0.5,1.1c-0.4,0.1-0.9,0.1-1.1,0.2c-0.3,0.1-1,0.1-1.8,0.4c0,0-0.1,0-0.1,0
	c-0.3,0-0.5,0.1-0.8,0.3c0,0-0.1-0.1-0.2-0.1c-0.8,0.1-1.6,0.4-2.4,0.6c-0.4-0.2-1.5-0.1-1.7-0.2c-0.9-0.3-1.4,0.2-2.4-0.1
	c-0.6-0.2-4.3-0.6-4.8-0.5c-0.2,0-0.9-0.4-1.1-0.7c-0.2-0.2-0.3-0.8-0.4-1.3c-0.2-0.9-0.4-2.2-0.6-2.7c-0.1-0.3,0-1.5,0.1-1.6
	c0.1-0.2,0.5,0,0.8,0c0.4,0,0.8,0.1,1.1,0.1c2.4-0.1,1.7,0.4,1.4-2c-0.3-2.3-0.3-4.3-0.5-6.6c-0.1-1.4-0.8-2.8-1-4.2
	c-0.1-0.3-0.8-2.1-0.7-2.2c0.2-0.1,1,0.5,1.5,0.6c0.3,0,0.5,0,0.7-0.2c0,0,0,0,0.1,0c0.7-0.5,1.2-1.4,1.7-2.1
	c0.2,0.2,0.5,0.5,0.6,0.5c0.1,0,0.1-0.1,0.2-0.1c0.5-0.3-0.2-0.9-0.4-1.1c-1.2-1.2-2.4-2-3.9-3.2c-0.1-0.1-0.7,0-0.9,0
	c-0.4-0.2-0.3-0.6-0.3-0.8c-0.1-0.2,0.3-0.5,0.3-0.7c0-0.8-0.2-1.8-0.3-2.8c-0.1-0.7,0.2-0.9,0-1.6c-0.2-0.7-0.6-1.4-0.6-2.1
	c0-0.2,0-0.4,0-0.6c-0.1-1-0.1-1.1-0.3-1.6c-0.2-0.4-0.8,0-0.7-0.8c0-4.7-0.8-6.5-1.7-8.6c-1.5-3.4-1.7-2.5-3.9-3.5
	c-0.6-0.3-0.5-0.8-0.9-1.4c-0.2-0.3-0.2-0.1-0.3-0.1C302,6.2,301.9,5,301.9,5c1.1-0.3,1-0.2,1.6-0.5c0.5-0.2,0.6-0.6,0.3-0.8
	c-0.2-0.3-0.9-0.5-1.5-0.7c-1.9-3.9-6.2-3-6.9,0.8c-0.9,0.5-1.5,0.9-1.6,1.1c-0.1,0.2,0,0.5,0.3,0.7c0.4,0.3,0.7,0.3,1.9,0.3
	c0,0,0,0.1,0.1,0.1c0.1,0.2,0.1,0.3,0.2,0.5v0v0.2v0c0,0,0,0.1,0,0.1c0,0.2,0,0.4,0,0.6c0,0,0,0,0,0c0,0,0,0.1,0,0.1
	c0,0,0,0.1,0,0.1c0.1,0.2,0.2,0.3,0.4,0.3c0.2,0,0.2,0,0.3,0.1v0.1c0,0,0,0.1,0,0.1v0c0,0.1,0.1,0.2,0.2,0.2c0,0,0,0,0,0
	c0,0.1,0,0.2,0,0.3c0,0,0,0,0,0c0,0,0,0,0,0c0,0,0.1,0.1,0.2,0.1c0.1,0.1,0.1,0.1,0.2,0.2c0,0,0,0,0,0c0,0.2,0.1,0.3,0.3,0.4
	c0.1,0.1,0.3,0.2,0.4,0.1c0.1,0,0.2-0.1,0.3-0.1c0,0,0,0,0,0c0,0,0,0,0,0c0,0,0.1-0.1,0.2-0.1c0,0,0,0,0,0c0,0,0,0,0.1,0l0,0
	c0,0,0.1,0,0.1,0c0.3,0.2,0.5,0.7,0.4,0.9c-0.2,0.7-0.3,1.7-0.6,2.6c-0.3,0.9-0.7,1.8-0.8,2.4c0,0.1-0.2,0.2-0.3,0.1
	c-0.1-0.1-0.2-0.1-0.3-0.2c-0.2-0.1-0.3,0.1-0.5,0.1c-0.3,0-0.4,0.3-0.8,0.4c-0.2,0-0.2,0.1-0.3,0.3c-0.1,0.2-0.1,0.5,0,0.9
	c0.5,1.9,0.7,2.2,1,4.4c0,0.4,0.1,0.8,0.2,1.2c0,0.3,0.1,0.5,0,0.7c0,0.2-0.4,2.4-0.9,2.8c-0.4,0.4-0.8,0.8-1.1,1.2
	c0,0.1-0.1,0.1-0.1,0.2c-0.3,0.4-0.5,0.9-0.8,1.3c-0.1,0.1-0.1,0.3-0.2,0.4c0,0,0,0.1,0,0.1c0,0,0,0,0,0c0.1,0,0.1,0,0.1,0.1h0
	c0,0,0.1,0,0.1,0.1c-0.1,0.1-0.2,0.3-0.3,0.3c0,0,0,0,0,0c-0.3,0.4-0.6,1-0.5,1.3c0,0.1,0.1,0.3,0.1,0.4c0,0.3,0.2,1.6,0.5,1.6
	c0.2,0,0.1-0.5,0.1-1c0.3,0.2,0.8,0.5,0.8,0.3c0-0.1,0-0.2-0.1-0.3c0.2-0.1,0.5-0.5,0.7-1.3c0-0.1,0.2-0.3,0.3-0.4l1.2,0.6
	c0,0,0.1,0,0.1-0.1c0.1-0.1,0.2-0.3,0.3-0.4c0.4-0.7,1.1-2,1.1-1.8c0,0.9,0.2,3,0.1,3.4c0,0.6,0,1.5,0.3,1.7
	c0.5,0.3,1.5-0.3,1.9-0.4c0.6-0.2,1.2,1.4,0.9,2.4c-0.2,0.6-0.3,1.3-0.6,1.8c-1.1,1.6-0.5,3.3-0.5,5c0,0.2,0.1,1.2,0.3,1.3
	c0.2,0.1,1.2-0.3,1.2-0.1c0.3,0.8,0.4,1.3,0.5,2.4c0.1,2.2,0.8,4.4,1,6.6c0.2,1.9-0.6,3.1-2,3.1c-1.3-0.1-3-0.2-4.6-0.3
	c-0.6,0-0.4-0.4-1.7-0.4c-0.5,0-2,0.1-2.6-0.1c-0.9-0.4-1.8-0.8-2.7-0.9c-1-0.1-1.9,0.3-2.8,0.4c-1,0.1-1.9-0.1-3,0.1
	c-1.8,0.3-2.2,0.1-2.4-1.7c-0.3-2.1-0.7-3.6-1-5.5c-0.3-1.4-1-3.2-1.5-3.9c-0.6-0.8-0.5-1.3-0.2-2.6c0.3-1.7,1-3.9,0.6-5.3
	c-0.1-0.4-0.2-0.7-0.6-1.2c0.1-0.2,0.6-0.1,0.8-0.2c0.2-0.1-0.1-0.8,0-1.1c0.1-0.4,0.3-1.2,0.5-1.6c0.2-0.3,1.1-0.2,1.5-0.5
	c-0.4-0.5-0.6-1.8-0.9-2.3c-1.3-2.4-1.2-3.4-2.5-5.7c-0.4-0.8-0.9-2.7-0.9-3.6c0-1.4-0.1-3.7-0.1-5.1c0-2.8-1-4.4-3.2-6.2
	c0-0.1-0.1-0.1-0.1-0.2v0c-0.1-0.2-0.3-0.5-0.4-0.7c-0.1-0.1-0.1-0.2-0.2-0.4c-0.1-0.2-0.3-0.2-0.4-0.1c-0.3-0.4-0.5-0.9-0.5-1.1
	c0.5,0,0.7,0.1,1,0c0.4,0,0.4-0.6,0.2-0.8c-0.2-0.2-0.5-0.4-0.9-0.6c-0.3-0.2-0.5-0.2-0.7-0.6c-0.2-1-1.1-2.6-3.3-2.5
	c-2.6,0.1-3,2.5-3.1,2.6c-0.1,0.2-0.1,0.3-0.4,0.4c-0.2,0.1-0.4,0.2-0.9,0.4c-0.5,0.2-0.4,0.9,0.2,1c0.4,0.1,0.9,0.1,1.8,0.1
	c0,0.1,0,0.3,0,0.3c0,0.1,0,0.1,0.1,0.1c0,0.1,0.1,0.2,0.1,0.3c0.2,0.5,0.3,1.3,0.4,1.4c0.1,0.1,0.4-0.1,0.5,0c0,0,0,0,0,0
	c0,0.1,0.1,0.1,0.1,0.2c0,0.1,0,0.1,0.1,0.1c0,0,0,0,0,0s0,0,0,0v0c0,0,0,0,0,0c0,0,0,0,0.1,0l0,0l0,0c0,0,0.1,0,0.1,0h0l0,0
	c0,0.1,0.1,0.1,0.1,0.2c0,0,0.1,0,0.1,0c0,0,0.1,0,0.1,0c0,0,0,0,0.1,0c0,0,0,0,0,0c0,0,0,0,0,0.1c0,0,0,0,0,0c0,0,0,0,0,0.1
	c0,0,0,0,0,0.1c0,0,0.1,0.1,0.1,0.1c0.3,0.3,0.8,0.2,1.1-0.1c0.1,0,0.1-0.1,0.2-0.1c0.1,0.1,0.1,0.2,0.1,0.2
	c-0.2,0.6-0.5,1.2-0.7,2.1c0,0.2-0.5,0.6-0.6,0.6c-1.8,0.9-1.5,4.2-1.8,5.9c-0.3,2.2-0.1,2.8-0.3,3.9c0,0.2-0.3,0.5-0.1,0.7
	c0.3,0.3,1.1,0.3,1.5,0.4c0.5,0,0.3,0.4,0.3,0.4s-0.9,1.9-1.7,2.4c-0.7,0.4-0.3,1.9-0.5,2.1c-0.1,0.3-1.7,1.3-1.8,1.5
	c-0.1,0.1,0,0.7,0.1,1.5c0.1,0.7-0.1,1.4,0.2,1.4c0.3,0.1,0.6,0.1,1.9,0c0.2,0.6,1,0.8,1.1,1c0.2,0.3,0.4,0.9,0.3,1.4
	c-0.3,1.5,1,3-0.3,4.7c-0.3,0.4-0.1,3.3,0.1,3.5c0.2,0.3,0.5,0.3,0.5,0.5c0.1,2.1,0.1,3.8,0.4,5.1c0.2,0.7,0.4,1,0.6,1.9
	c0.2,0.8,0.6,3.1,0.6,4.1c0,0.5-1.5,0-1.9-0.2c-0.6-0.2-1.4,0.1-2-0.1c-1-0.2-1.1-0.2-2.1-0.2c-0.7,0-1.8-0.2-2.6,0
	c-0.8,0.2-1.3,0.2-2.1,0.5c-0.6,0.3-1.9,0.3-2.8,0.3c-1.1,0-2.3-0.2-2.8-0.9c-0.5-0.6-0.9-1.2-1.3-1.8c-0.3-0.8-0.5-1.7-0.8-2.6
	c-0.5-1.3-1.1-2.5-1.8-3.7c-0.1-0.3-0.1-0.5-0.2-0.7c0.7-0.5,0.5-1.8,0.4-2.5c-0.1-0.6-0.2-1.3-0.2-1.9c0-0.4-0.1-0.8-0.1-1.3
	c0.4-0.5,1-0.9,1.4-1.4c0.4-0.5,0.6-1.1,1-1.5c0.3-0.3-0.3-2.9,0.1-2.7c0.2,0.1,0.4,0.6,0.6,0.6c0.1,0.5,0,1,0.5,1.7
	c0.2,0.2,0.4,0.3,1.6,0.2c0.6-0.1-0.3,1.4,1.4,1.1c0.4-0.1,0.6-0.1,0.8-0.2c0.4-0.2,0-0.8,0.7-1.4c2.4-2.1,1.5-2,1.4-3.9
	c-0.1-1.3,1.7-1.3,0.7-3.1c-0.1-0.2,0.3,0,0.7-0.3c0.3-0.1,0.3-0.5,0.5-0.5c0.2,0,0.2,0,0.3,0c-0.2,0.3-0.1,1.6-0.1,2.4
	c0,0.8,0.1,1.5,0.9,1.6c0.9,0.1,0.8-0.6,0.9-1.4c0.1-0.5,0.1-1.3,0-1.5c0-0.2,0-0.2,0-0.3c0.1-0.1,0.6-0.4,0.7-0.6
	c0.5-0.6,1.1-1.3,1.2-1.5c0.2-0.3,1.1-1.3,0.5-2.3c-0.5-0.8-1-1.5-1.6-2.2c-0.2-0.3-0.4-0.7-0.6-1c-0.2-0.2-0.4-0.2-0.5-0.3
	c-0.3-0.3-0.5-0.6-0.8-1c-1-1.2-2-2.3-2.8-3.6c-0.4-0.7-1.2-0.5-1.9-0.5c-1.7,0-4,0.4-5.8,0.1c-1.9-0.4-3.3-2.3-5.3-3.1
	c-0.1,0-0.4-0.1-0.5-0.3c-0.1-0.2,0-0.6-0.1-0.8c-0.1-0.2-0.1-0.4,0.1-0.5c0.6,0.2,1.2,0.3,1.3,0.2c0.1-0.2,0-0.3-0.1-0.5
	c-0.2-0.5-0.7-0.7-0.7-0.8c0.4-1.2,0.2-2.6-1.4-3.5c-2.1-1.2-4-1-5.1,1c-0.6,0.1-1-0.1-1.2,0.3c-0.1,0.3,0,0.3,0.8,0.8
	c0,0.2,0,0.2,0,0.5c0,0.1,0,0.1,0,0.2l0,0c0,0.1-0.1,0.3,0,0.5c0,0.2,0.1,0.4,0.2,0.5c0.1,0.1,0.2,0.3,0.2,0.4c0,0.1,0,0.3-0.1,0.4
	c0,0.2-0.1,0.4-0.2,0.6c0,0.1,0,0.2,0,0.2c0,0,0,0,0,0.1c0,0.1,0.1,0.1,0.1,0.1c0.1,0.1,0.3,0.1,0.5,0.1c0.1,0.3,0.2,0.5,0.3,0.7
	c0,0.5,0,1,0.3,1.2c0,0,0.1,0,0.1,0c0,0,0.1,0,0.1,0c0,0,0.1,0,0.1,0c0.2,0,0.4,0,0.6,0c0.1,0,0.2,0,0.3,0c0.2,0.2,0.2,0.6,0.1,0.7
	c-1,0.6-1.7,1.6-1.9,1.9c-0.5,0.8-0.2,1.8-0.1,2.7c0,0.5-0.1,0.9-0.2,1c0,0.1-0.1,0.1-0.2,0.1c-0.5,0.1-0.7,1.4-0.6,1.7
	c0,0,0.1,0.2,0.1,0.2c0.2,0.5,0.3,1.6,0,2.8c-0.3,1.1-0.4,2.5-0.7,3.4c-0.6,1.9-0.9,2.7-1.2,4.9c0,0.2,0.3,0.2,0.3,0.3
	c0.6,0.1,1.2,0.3,1.8,0.5c0.2,0.1,0.3,0.1,0.5,0.2c0.4,0,1,0.1,1.3,0.2c0.1,0,0.2,0.1,0.3,0.2c0.1,0.1,0.2,0.2,0.2,0.3
	c0.1,0.2,0.2,0.4,0.2,0.6c0,0,0,0.1,0,0.1c0.1,0,0.1,0.1,0.1,0.2c0.2,0.9,0,2.1,0.2,3c0.2,1.3,0.1,2.7,0.3,4c0.2,1,0.4,1.5,1.1,2
	c0.1,0.2,0.3,0.3,0.4,0.5c0.4,0.3,0.8,0.5,1.2,0.8c0,0.1,0.1,0.1,0.1,0.2c0,0,0,0.1,0,0.1c0,0.1,0.1,0.2,0.1,0.3v0
	c0.4,2.6,2.5,5.8,0.8,8.3c-0.6,0.2-1.1,0.3-1.6,0.1c-0.5-0.1-0.9-0.1-1.7-0.5c-0.8-0.4-0.8,0-2-0.1c-0.7-0.1-0.9-0.3-1.6-0.1
	c-0.6,0.2-1.6,0.3-2.1,0.4c-0.7,0.2-1.4,0.1-2,0.4c-0.4,0.2-0.9,0.3-1.4,0.3l-1.1,0.3v92.7c50.8,0,101.5,0,152.3,0v-86
	C385.1,63,384.7,62.6,384.1,62.6 M294.4,31.4c0,0.2,0,0.3,0,0.4c-0.1-0.1-0.2-0.1-0.3-0.2c-0.2-0.4,0.3-0.8,0.5-1.1
	C294.7,30.7,294.5,31.2,294.4,31.4 M249.8,21.1c1.2,0.4,2.3,0.1,2.3,0.1s-0.8,0.4-1.3,1c-0.4,0.5-0.6,1.1-1,1.1
	C249.6,22.5,249.8,21.1,249.8,21.1 M247.7,53.7C247.7,53.7,247.7,53.7,247.7,53.7L247.7,53.7L247.7,53.7z M252.4,73.1h5.1l10.8,32.6
	h-4.4l-3.1-10h-12.2l-3.1,10h-4L252.4,73.1z M250.4,135.1c-2.3,0-4.6-1-6.3-2.9c-1.8-2.1-2.6-5-2.6-8.2c0-6.4,3.8-11.1,9-11.1
	c2.1,0,4,0.6,5.4,1.8l-1.4,1.7c-1.3-0.9-2.5-1.4-4.1-1.4c-2.5,0-4.3,1.3-5.3,3.7c-0.6,1.4-0.9,3.2-0.9,5.7c0,2.1,0.2,3.3,0.7,4.6
	c1.1,2.7,3.3,4,5.8,4c1.6,0,2.8-0.4,4.2-1.4l1.4,1.7C254.7,134.5,252.5,135.1,250.4,135.1 M271.3,127.4h-9.8v0.4
	c0,1.5,0.2,2.6,0.7,3.4c0.9,1.4,2.3,1.9,3.9,1.9c1.5,0,2.7-0.5,3.8-1.5l0.9,1.6c-1.4,1.3-3.3,1.9-5.3,1.9c-4.3,0-7-3.1-7-8.3
	c0-2.6,0.6-4.3,1.9-5.9c1.3-1.5,2.8-2.2,4.7-2.2c1.7,0,3.2,0.6,4.2,1.7c1.4,1.4,1.8,2.9,1.8,6.6V127.4z M365.1,49.7
	c0.3,0,0.6,0.1,0.8,0.3c0.1,0,0.1,0.1,0.2,0.1c0.1,0,0.1,0.1,0.2,0.1c0.4,0.3,1,0.7,1.1,0.8c2.2,2.2,4.7,3.7,6,6.8
	c0.2,0.5-0.1,0.6-0.3,0.9c-0.5,1-0.4,1-0.8,1.7c-0.4,0.8-0.4,1-2.2,0.8c-0.1,0-1-0.1-1.5-0.1c0,0-0.1,0-0.1,0c-0.1,0-0.1,0-0.2,0
	c-0.1,0-0.3-0.1-0.4-0.1c-0.5,0-1,0.1-1.5-0.1c-0.1-0.1-0.2-0.1-0.3-0.2c0,0-0.1,0-0.1-0.1c-0.1,0-0.1,0-0.1,0c0,0,0-0.1,0-0.3
	c-0.3-0.4-0.4-0.9-0.4-1.4c-0.1-0.6,0.1-1.3,0.3-1.9c0-0.2,0.1-0.4,0.1-0.6c0-0.2,0.1-0.4,0.1-0.5v-0.1c0-0.7,0.1-1.3,0-2
	c0-0.3-0.1-0.6-0.1-0.8v-0.1c0,0,0-0.1,0-0.1c-0.1-0.4-0.2-0.9-0.3-1.3c-0.1-0.3-0.4-0.6-0.5-1c-0.1-0.1-0.2-0.2-0.2-0.3
	c0,0,0,0,0,0c-0.1-0.1-0.1-0.1-0.1-0.2C364.8,49.8,365,49.7,365.1,49.7 M331.6,51.7c0-0.1,0-0.2,0.1-0.2c0-0.1,0-0.2,0-0.4
	c0,0,0,0,0,0c0-0.2,0-0.4,0-0.6c0,0,0-0.1,0-0.1c0-0.3-0.1-0.5-0.1-0.7c0.1,0.3,0.2,0.7,0.3,0.9c0,0,0.1,0.4,0.3,1
	c0,0,0.1,0.1,0.1,0.2v0c0.5,1.4,1.1,3.5,1.4,4.5c0.1,0.2,0.4,2.1-0.9,2.3c-0.1,0-0.2,0-0.3,0c0,0-0.1,0-0.1-0.1
	c-0.2-0.1-0.4-0.2-0.5-0.2c0,0,0-0.1,0-0.1c-0.3-0.2-0.4-0.6-0.5-1c-0.1-0.3-0.2-0.6-0.2-0.8C331,54.9,331.5,53.3,331.6,51.7
	 M272.2,43.3c-0.3-0.9,0.9-2.8,0.9-2.8s0.4,0.8,0.4,1.7c0,0.8,0.2,1.7,0.3,1.7c0.4,0.4,0.3,0.2,0.8,0.3c0.3,0,0.8-0.1,0.9,0.3
	c0.6,2.2,1.1,3.1,1.9,5.3c0.3,0.8,1.1,4,1.2,4.9c0.1,0.1-0.1,0.1-1,0c-0.1,0-1,0-1.1,0c-0.4,0-0.7,0.1-1,0.1c-0.2,0-0.3,0.5-0.5,0.5
	c-0.5,0-0.6,0.1-0.8-0.1c-0.2-0.1-0.6-0.6-0.7-1.1c-0.1-0.5-0.3-1.5-0.5-2.8C272.6,48,273.2,45.9,272.2,43.3 M287.4,134.8h-2.5
	v-10.6c0-1.7-0.1-2.1-0.6-2.6c-0.3-0.4-1-0.7-1.7-0.7c-1.3,0-3.2,1-4.3,2.2v11.7h-2.4v-12.1c0-2.2-0.6-3.3-0.6-3.3l2.4-0.7
	c0,0,0.6,1.2,0.6,2.5c1.6-1.6,3.3-2.4,4.9-2.4c1.7,0,3.2,0.9,3.8,2.3c0.2,0.6,0.4,1.2,0.4,1.8V134.8z M280.4,85.7
	c-2.1-3.9-3.7-7.9-3.7-7.9s0.4,4.7,0.4,8.9l0.2,18.9h-4V73.1h4.5l10.9,20.8c1.6,3.1,2.9,6.5,3,6.9c0-0.1-0.4-5.3-0.4-9.9l-0.2-17.8
	h3.8v32.6h-4.1L280.4,85.7z M297.8,133.4c0.7,0,1.1-0.1,1.5-0.3l0.4,1.6c-0.8,0.4-1.7,0.6-2.8,0.6c-0.8,0-1.5-0.2-2-0.4
	c-1.1-0.5-1.5-1.5-1.5-3.1V121h-2v-1.9h2c0-1.5,0.2-4,0.2-4l2.6-0.6c0,0-0.3,2.5-0.3,4.5h3.9l-0.8,1.9h-3.3v10.1
	C295.8,132.8,296.3,133.4,297.8,133.4 M301.4,102.7l13.9-23.3c1.2-2,2.1-3.1,2.1-3.1s-1.4,0-3.4,0h-12.2l1.1-3.3h18.6v3.3L308,99.3
	c-1.1,1.9-2,3.1-2,3.1s1.3,0,2.8,0h12.9l-1,3.3h-19.4V102.7z M315.1,127.4h-9.8v0.4c0,1.5,0.2,2.6,0.7,3.4c0.9,1.4,2.3,1.9,3.9,1.9
	c1.5,0,2.7-0.5,3.8-1.5l0.9,1.6c-1.4,1.3-3.3,1.9-5.3,1.9c-4.3,0-7-3.1-7-8.3c0-2.6,0.6-4.3,1.9-5.9c1.3-1.5,2.8-2.2,4.7-2.2
	c1.7,0,3.2,0.6,4.2,1.7c1.3,1.4,1.8,2.9,1.8,6.6V127.4z M331.3,134.8h-2.5v-10.6c0-1.7-0.1-2.1-0.6-2.6c-0.3-0.4-1-0.7-1.7-0.7
	c-1.3,0-3.2,1-4.3,2.2v11.7h-2.4v-12.1c0-2.2-0.6-3.3-0.6-3.3l2.4-0.7c0,0,0.6,1.2,0.6,2.5c1.6-1.6,3.3-2.4,4.9-2.4
	c1.7,0,3.2,0.9,3.8,2.3c0.3,0.6,0.4,1.2,0.4,1.8V134.8z M329.6,105.7h-4l10.9-32.6h5.1l10.8,32.6h-4.4l-3.1-10h-12.2L329.6,105.7z
	 M347.2,135.4c-1.1-0.4-1.9-1.2-2.2-2.3c-1.5,1.5-2.7,2.1-4.5,2.1c-3.9,0-5-2.4-5-4.5c0-3.5,3.1-5.6,8.3-5.6c0.7,0,1.1,0,1.1,0V124
	c0-1.4-0.1-1.9-0.5-2.4c-0.5-0.6-1.1-0.9-2.1-0.9c-1.8,0-4,0.9-5,1.9l-1.2-1.8c2.1-1.4,4.3-2.1,6.6-2.1c2.2,0,3.7,0.8,4.3,2.5
	c0.3,0.8,0.4,2,0.3,3.4l-0.1,5.2c-0.1,2.5,0.1,3.2,1.2,3.8L347.2,135.4z M359.6,121.5c-0.1-0.1-0.4-0.1-0.7-0.1
	c-0.9,0-1.9,0.4-2.6,1.1c-0.7,0.7-0.9,1.2-0.9,2.5v9.8H353v-12.1c0-2.3-0.5-3.3-0.5-3.3l2.4-0.7c0,0,0.6,1.2,0.5,2.5
	c1.1-1.6,2.8-2.6,4.4-2.6c0.4,0,0.8,0.2,0.8,0.2L359.6,121.5z M371.5,135.4c-1,3.1-2.3,5.2-5.1,5.9l-0.7-1.7c2-0.6,2.8-1.6,3.6-4.8
	l-1,0.2c-0.2-1-1-4-1.6-5.6l-3.4-9.8l2.4-0.8l3.2,10.1c0.5,1.5,0.9,3.9,0.9,3.9h0.1c0,0,0.6-2,1-3.3l3.1-10.3h2.8L371.5,135.4z
	 M367.9,106.3c-3.5,0-7-1.5-9.5-4.3c-2.8-3.1-3.9-7.6-3.9-12.4c0-9.7,5.8-16.8,13.7-16.8c3.1,0,6,0.9,8.2,2.7l-2.1,2.5
	c-2-1.4-3.8-2-6.2-2c-3.8,0-6.5,2-8,5.6c-1,2.2-1.4,4.8-1.4,8.7c0,3.1,0.3,5,1,6.9c1.7,4.1,5,6.1,8.8,6.1c2.4,0,4.3-0.6,6.4-2.1
	l2.1,2.6C374.4,105.3,371.2,106.3,367.9,106.3"/>
<path style="fill:#010101;" d="M338.2,130.5c0,1.9,0.9,2.9,2.7,2.9c1.6,0,3.1-1,3.8-2.4l0.1-4.1c-0.4,0-0.8-0.1-1.2-0.1
	C339.7,126.8,338.2,128.1,338.2,130.5"/>
<polygon style="fill:#010101;" points="333.8,92.5 344,92.5 339,76.5 "/>
<rect x="233.1" y="179.9" style="fill:#010101;" width="152.3" height="3.1"/>
<path style="fill:#010101;" d="M256.7,175.2c-0.1,0.1-0.6,0.2-1.1,0.2c-0.7,0-1.5-0.3-2.4-0.8c-0.1-0.1-0.3-0.2-0.4-0.2
	c-0.5-0.3-1.1-0.6-1.7-0.9c0.8-0.3,1.4-0.9,1.8-1.5c1.4-1.6,2.1-3.7,2.1-6.6c0-2.5-0.5-4.6-1.5-6.2c-0.7-1.1-2.2-3-5.3-3
	c-2.7,0-4.3,1.5-5.1,2.8c-1,1.5-1.6,3.7-1.6,6.2c0,2.7,0.6,4.9,1.8,6.5c0.8,1.2,2.4,2.5,4.8,2.5h0c1.6,0.3,2.2,0.7,3.4,1.4
	c0.9,0.6,2.3,1.3,3.3,1.3c0.7,0,1.2-0.1,1.5-0.2l0.1,0l0.6-1.6L256.7,175.2z M251.9,170.8c-0.9,1.3-2,1.9-3.6,1.9
	c-2,0-3.3-1.2-3.8-2.1c-0.7-1.3-1.1-3.4-1.1-5.7c0-2.1,0.3-3.7,1-5c0.8-1.4,2.2-2.2,3.8-2.2c2.3,0,3.4,1.3,4,2.5
	c0.6,1.3,1,3.1,1,5.4C253.1,167.9,252.7,169.5,251.9,170.8"/>
<path style="fill:#010101;" d="M267.1,156.5v12.1c0,1.3-0.2,2.2-0.7,2.8c-0.6,0.8-1.6,1.2-3.1,1.2c-2,0-2.9-0.8-3.3-1.5
	c-0.3-0.5-0.5-1.5-0.5-2.7v-11.8h-1.7v12.3c0,1.3,0.2,2.3,0.7,3.1c0.9,1.5,2.4,2.2,4.7,2.2c2,0,3.4-0.5,4.4-1.5c1-1,1.2-2.2,1.2-3.9
	v-12.2H267.1z"/>
<polygon style="fill:#010101;" points="273.8,172.3 273.8,165.5 279.8,165.5 279.8,164 273.8,164 273.8,158 281.1,158 281.3,156.5 
	272.1,156.5 272.1,173.8 281.5,173.8 281.5,172.3 "/>
<polygon style="fill:#010101;" points="286,172.3 286,165.5 292,165.5 292,164 286,164 286,158 293.3,158 293.5,156.5 284.3,156.5 
	284.3,173.8 293.8,173.8 293.8,172.3 "/>
<path style="fill:#010101;" d="M306.1,156.5l0,11.2c0,0.7,0,1.7,0.1,3.3c-0.3-0.6-0.7-1.5-1.1-2.3l-6.5-12.2l0-0.1h-1.9v17.3h1.8
	l0-11.8c0-1-0.1-2.1-0.1-2.8c0.3,0.6,0.7,1.5,1.2,2.5l6.4,12.1l0,0.1h1.7v-17.3H306.1z"/>
<path style="fill:#010101;" d="M320.7,165.9c-0.7-0.7-1.5-1.2-2.9-1.7l-1.9-0.6c-1-0.3-1.7-0.7-2.2-1.1c-0.4-0.4-0.7-1.1-0.7-1.9
	c0-1.8,1.4-2.9,3.6-2.9c1.4,0,2.5,0.3,3.9,1.3l0.1,0.1l0.8-1.3l-0.1-0.1c-1.5-1-3-1.5-4.8-1.5c-3.1,0-5.3,1.9-5.3,4.7
	c0,1.2,0.4,2.2,1.1,2.9c0.7,0.7,1.6,1.1,2.9,1.5l1.7,0.5c1,0.3,1.7,0.7,2.3,1.2c0.5,0.5,0.8,1.2,0.8,2.1c0,1.1-0.4,2-1.2,2.6
	c-0.6,0.5-1.5,0.8-2.8,0.8c-1.7,0-3.1-0.4-4.4-1.4l-0.2-0.1l-0.8,1.4l0.1,0.1c1.6,1,3.2,1.5,5.2,1.5c1.5,0,2.7-0.3,3.8-1
	c1.4-0.9,2.1-2.4,2.1-4.1C321.9,167.9,321.5,166.7,320.7,165.9"/>
<polygon style="fill:#010101;" points="326.6,172.3 326.6,156.5 324.9,156.5 324.9,173.8 333.3,173.8 333.6,172.3 "/>
<path style="fill:#010101;" d="M342.9,156.6l0-0.1h-2.1l-5.7,17.1l-0.1,0.2h1.7l1.8-5.5h6.4l1.7,5.4l0,0.1h1.9L342.9,156.6z
	 M344.4,166.8H339l2.7-8.4L344.4,166.8z"/>
<path style="fill:#010101;" d="M360.4,156.5l0.1,11.2c0,0.7,0,1.7,0.1,3.3c-0.3-0.6-0.7-1.5-1.1-2.3l-6.5-12.2l0-0.1H351v17.3h1.8
	l-0.1-11.8c0-1-0.1-2.1-0.1-2.8c0.3,0.6,0.7,1.5,1.2,2.5l6.4,12.1l0,0.1h1.8v-17.3H360.4z"/>
<path style="fill:#010101;" d="M374.2,157.8c-1.6-1.2-2.9-1.3-5.6-1.3h-3v17.3h3.7c2.3,0,4-0.3,5.5-1.9c1.5-1.4,2.3-3.8,2.3-6.8
	C377.1,161.7,376.1,159.2,374.2,157.8 M375.2,165.3c0,2.2-0.6,4.1-1.7,5.5c-1,1.3-2.5,1.5-4.5,1.5h-1.8V158h1.8
	c1.9,0,3.2,0.2,4.3,1.4C374.7,160.7,375.2,162.5,375.2,165.3"/>
<path style="fill:#010101;" d="M358.9,10C358.9,10,358.9,10,358.9,10L358.9,10L358.9,10z"/>
</svg>
