<?xml version="1.0" encoding="utf-8"?>
<!-- Generator: Adobe Illustrator 18.1.1, SVG Export Plug-In . SVG Version: 6.00 Build 0)  -->
<!DOCTYPE svg PUBLIC "-//W3C//DTD SVG 1.1//EN" "http://www.w3.org/Graphics/SVG/1.1/DTD/svg11.dtd">
<svg version="1.1" id="Layer_1" xmlns="http://www.w3.org/2000/svg" xmlns:xlink="http://www.w3.org/1999/xlink" x="0px" y="0px"
	 viewBox="48.7 15.5 154.3 330.2" enable-background="new 48.7 15.5 154.3 330.2" xml:space="preserve">
<path fill="#231F20" d="M74.5,84.4L74.5,84.4L74.5,84.4L74.5,84.4z M96.1,82.3c0.2,1,0.4,1.9,0.4,2.3c0.1,0.4,0.4,0.8,0.5,0.9
	c0.2,0.1,0.2,0.1,0.7,0.1c0.1,0,0.2-0.4,0.4-0.4c0.2,0,0.5-0.1,0.9-0.1c0.1,0,0.8,0,1,0c0.8,0,1,0.1,0.8-0.1
	c-0.2-0.7-0.8-3.5-1.1-4.1c-0.7-1.9-1.1-2.6-1.6-4.5c-0.1-0.4-0.5-0.2-0.7-0.2c-0.4-0.1-0.4,0.1-0.7-0.2c-0.1-0.1-0.2-0.8-0.2-1.5
	c0-0.7-0.3-1.4-0.3-1.4s-1.1,1.6-0.8,2.3C96.2,77.8,95.6,79.6,96.1,82.3 M162,235.6c1.1,0.9,2.4,1.3,4,1.3c1.6,0,2.6-0.1,3.3-0.2
	c0.7-0.1,1.4-0.4,2.2-1.1c2.3-1.8,3.5-7,3.5-15.5v-47c0-9.3-2-14.3-5.9-15c-0.6-0.1-1.5-0.2-2.6-0.2c-1.1,0-2.3,0.2-3.4,0.7
	c-1.1,0.4-2,1.7-2.9,3.8c-0.9,2.2-1.3,5.6-1.3,10.6v47.3C158.8,228.8,159.8,234,162,235.6 M77.1,57.5c0.4-0.5,1.1-0.8,1.1-0.8
	s-1,0.3-1.9-0.1c0,0-0.2,1.2,0,1.8C76.6,58.4,76.7,57.9,77.1,57.5 M169.1,47.2C169.1,47.2,169.1,47.2,169.1,47.2L169.1,47.2
	C169.1,47.2,169.1,47.2,169.1,47.2 M174.2,81.4c0.1,0.1,0.1,0.2,0.2,0.2c0.1,0.3,0.3,0.5,0.4,0.8c0.1,0.4,0.2,0.7,0.3,1.1
	c0,0.1,0,0.1,0.1,0.1v0.1c0.1,0.2,0.1,0.5,0.1,0.7c0.1,0.5,0,1.1,0,1.7v0.1c-0.1,0.2-0.1,0.3-0.1,0.5c-0.1,0.2-0.1,0.4-0.1,0.5
	c-0.2,0.5-0.4,1.1-0.2,1.6c0,0.4,0.1,0.8,0.3,1.2c0,0.1,0,0.2,0,0.2c0,0,0.1,0,0.1,0c0,0.1,0.1,0.1,0.1,0.1c0.1,0.1,0.1,0.1,0.2,0.2
	c0.4,0.2,0.8,0.1,1.3,0.1c0.1,0,0.2,0.1,0.3,0.1c0,0,0.1,0,0.1,0h0.1c0.4,0.1,1.1,0.1,1.3,0.1c1.5,0.2,1.4,0,1.9-0.7
	c0.3-0.5,0.2-0.6,0.7-1.4c0.1-0.2,0.4-0.4,0.2-0.7c-1-2.6-3.2-4-5.1-5.8c-0.1-0.1-0.6-0.4-1-0.7c-0.1-0.1-0.1-0.1-0.2-0.1
	c-0.1-0.1-0.1-0.1-0.1-0.1c-0.2-0.2-0.4-0.3-0.7-0.3c-0.1,0-0.2,0.1-0.2,0.2C174.2,81.3,174.2,81.4,174.2,81.4L174.2,81.4
	 M52.7,345.7l73.1-21.1l73,21.1V31.1H52.7V345.7z M151.6,154.7c2.6-4.2,7.7-6.3,15.2-6.3s12.6,2.1,15.3,6.2
	c2.7,4.2,4.1,10.5,4.1,19.1v45.8c0,8.8-1.3,15.5-4,20.1c-2.6,4.6-7.7,6.9-15.4,6.9c-7.6,0-12.8-2.3-15.4-6.8
	c-2.6-4.6-3.9-11.3-3.9-20.2v-45.8C147.5,165.2,148.9,158.9,151.6,154.7 M147.7,140.7l5.5-38.6h7.7l5.9,38.6h-5.5l-0.9-6.9h-6.2
	l-0.8,6.9H147.7z M184.3,138.5c-1.3,1.8-3.4,2.7-6.3,2.7c-2.9,0-5-1-6.4-2.9c-1.4-1.9-2.1-4.7-2.1-8.2v-16.8c0-5.8,1.5-9.4,4.5-10.7
	c1.1-0.5,2.5-0.8,4-0.8c5.4,0,8.2,3.4,8.2,10.3v5.3h-5.7v-4.9c0-2-0.2-3.4-0.5-4.3c-0.4-0.8-1-1.3-2-1.3c-1,0-1.7,0.5-2,1.4
	c-0.4,0.9-0.6,2.3-0.6,4.1v18c0,2.1,0.2,3.5,0.5,4.4c0.4,0.9,1,1.3,2,1.3c1,0,1.6-0.5,2-1.4c0.4-0.9,0.5-2.4,0.5-4.5v-5.5h5.8v5.5
	C186.3,133.9,185.6,136.7,184.3,138.5 M65.2,85.5c2.3-0.4,4.8-0.4,5.6-0.1c0.7,0.2,1,0.3,1.4,0.4c0.4,0.1,0.9,0.1,1.4-0.1
	c1.4-2.1-0.4-4.9-0.7-7l0,0c-0.1-0.1-0.1-0.2-0.1-0.2v-0.1c0-0.1-0.1-0.1-0.1-0.2c-0.4-0.2-0.7-0.4-1.1-0.7
	c-0.1-0.1-0.2-0.2-0.4-0.4c-0.6-0.4-0.8-0.8-1-1.7c-0.2-1.1-0.1-2.3-0.3-3.4c-0.1-0.7,0-1.8-0.1-2.5c0-0.1-0.1-0.1-0.1-0.2v-0.1
	c-0.1-0.2-0.1-0.4-0.2-0.5c-0.1-0.1-0.1-0.2-0.2-0.2c-0.1-0.1-0.2-0.1-0.3-0.2c-0.3-0.1-0.8-0.1-1.1-0.2c-0.1-0.1-0.2-0.1-0.4-0.2
	c-0.5-0.2-1-0.4-1.5-0.5c0-0.1-0.3-0.1-0.2-0.3c0.2-1.9,0.5-2.5,1-4.1c0.2-0.8,0.3-2,0.6-2.9c0.3-1,0.2-2,0-2.4
	c0-0.1-0.1-0.2-0.1-0.2c-0.1-0.3,0.1-1.4,0.5-1.5c0.1,0,0.1-0.1,0.2-0.1c0.1-0.1,0.2-0.4,0.2-0.9c0-0.8-0.3-1.6,0.1-2.3
	c0.2-0.2,0.8-1.1,1.6-1.6c0.1-0.1,0.1-0.4-0.1-0.6c-0.1,0-0.2,0.1-0.3,0.1c-0.2,0-0.4,0-0.5,0c-0.1,0-0.1,0-0.1,0
	c-0.1,0-0.1,0-0.1,0c-0.1,0-0.1,0-0.1-0.1c-0.3-0.1-0.3-0.5-0.3-1c-0.1-0.2-0.2-0.4-0.2-0.6C68.2,49,68,49,68,49
	c-0.1,0-0.1-0.1-0.1-0.1v-0.1c0-0.1,0-0.1,0-0.2c0.1-0.2,0.1-0.4,0.1-0.5c0-0.1,0.1-0.2,0.1-0.4s-0.1-0.2-0.1-0.4
	c-0.1-0.1-0.1-0.2-0.1-0.4c0-0.1,0.1-0.3,0.1-0.4l0,0c0-0.1,0-0.1,0-0.2c-0.1-0.2,0-0.2,0-0.4c-0.7-0.4-0.8-0.4-0.7-0.7
	c0.2-0.4,0.5-0.2,1-0.3c1-1.7,2.6-1.8,4.4-0.8c1.4,0.8,1.5,2,1.2,3c0,0.1,0.4,0.3,0.5,0.7c0.1,0.1,0.1,0.2,0.1,0.4
	c-0.1,0.1-0.5,0-1.1-0.1c-0.1,0.1-0.1,0.2-0.1,0.4c0.1,0.1-0.1,0.5,0.1,0.7c0.1,0.2,0.3,0.2,0.4,0.2c1.7,0.7,2.9,2.3,4.5,2.6
	c1.5,0.3,3.4-0.1,4.9-0.1c0.6,0,1.3-0.2,1.6,0.5c0.7,1.1,1.5,2.1,2.3,3.1c0.2,0.2,0.5,0.5,0.7,0.8c0.1,0.2,0.3,0.1,0.4,0.3
	c0.2,0.2,0.3,0.6,0.5,0.8c0.5,0.6,1,1.2,1.4,1.9c0.5,0.8-0.3,1.7-0.4,2c-0.1,0.2-0.6,0.8-1,1.3c-0.1,0.1-0.5,0.4-0.7,0.5
	c-0.1,0.1,0,0.1,0,0.2c0,0.2,0,0.8-0.1,1.3c-0.1,0.6,0,1.2-0.8,1.1c-0.7-0.1-0.7-0.7-0.7-1.3c-0.1-0.7-0.1-1.9,0.1-2.1
	c-0.1,0-0.1,0-0.2,0c-0.2,0-0.2,0.3-0.5,0.4c-0.4,0.2-0.7,0.1-0.7,0.2c0.9,1.5-0.7,1.6-0.6,2.6c0.1,1.6,0.8,1.5-1.2,3.4
	c-0.6,0.5-0.2,1-0.6,1.2c-0.2,0.1-0.4,0.1-0.7,0.2c-1.4,0.2-0.7-1-1.2-1c-1.1,0.1-1.2,0-1.4-0.2c-0.4-0.6-0.4-1-0.4-1.4
	c-0.2,0-0.4-0.4-0.5-0.5c-0.4-0.2,0.2,2.1-0.1,2.3c-0.3,0.3-0.5,0.8-0.8,1.3c-0.4,0.4-0.8,0.8-1.2,1.2c-0.1,0.4,0,0.7,0.1,1.1
	c0.1,0.5,0.1,1.1,0.2,1.6c0.1,0.6,0.2,1.7-0.3,2.2c0.1,0.2,0.1,0.4,0.1,0.6c0.6,1,1.1,2,1.6,3.1c0.3,0.7,0.5,1.4,0.7,2.2
	c0.4,0.5,0.7,1.1,1.1,1.6c0.5,0.5,1.4,0.8,2.4,0.8c0.7,0,1.9,0,2.3-0.2c0.7-0.3,1.1-0.3,1.8-0.5c0.7-0.2,1.6,0,2.2,0
	c0.8,0,1-0.1,1.8,0.1c0.5,0.1,1.2-0.1,1.7,0.1c0.3,0.1,1.6,0.6,1.6,0.1c0-0.8-0.4-2.8-0.5-3.5c-0.2-0.8-0.4-1.1-0.5-1.6
	c-0.3-1.1-0.3-2.5-0.4-4.3c0-0.2-0.2-0.2-0.4-0.5c-0.1-0.2-0.4-2.6-0.1-2.9c1.1-1.4,0-2.8,0.3-4c0.1-0.4-0.1-1-0.2-1.2
	c-0.1-0.2-0.7-0.4-1-0.9c-1.1,0.1-1.3,0.1-1.6,0c-0.2-0.1-0.1-0.7-0.1-1.2c-0.1-0.6-0.2-1.1-0.1-1.3c0.1-0.2,1.5-1.1,1.6-1.3
	c0.1-0.2-0.2-1.4,0.4-1.8c0.7-0.4,1.4-2,1.4-2s0.2-0.3-0.3-0.3c-0.3,0-1-0.1-1.3-0.3c-0.2-0.2,0.1-0.4,0.1-0.6
	c0.1-0.9-0.1-1.4,0.2-3.3c0.2-1.4-0.1-4.2,1.5-5c0.1-0.1,0.5-0.4,0.5-0.5c0.1-0.8,0.4-1.2,0.6-1.7c0-0.1-0.1-0.1-0.1-0.2
	c-0.1,0.1-0.1,0.1-0.2,0.1c-0.2,0.2-0.6,0.3-0.9,0.1l-0.1-0.1c0,0,0-0.1-0.1-0.1v-0.1c0,0,0,0,0-0.1c0,0,0-0.1-0.1-0.1l0,0
	c0,0-0.1,0-0.1-0.1c-0.1,0-0.1-0.1-0.1-0.1c-0.1,0-0.1,0-0.1,0c-0.1,0-0.1-0.1-0.1-0.1l0,0l0,0h-0.1l0,0l0,0h-0.1l0,0l0,0l0,0l0,0
	c0,0-0.1-0.1-0.1-0.1C92,45.7,92,45.7,92,45.6l0,0c-0.1-0.1-0.3,0.1-0.4,0c-0.1-0.1-0.2-0.7-0.4-1.2c-0.1-0.1-0.1-0.2-0.1-0.3
	c-0.1,0-0.1,0-0.1-0.1c0-0.1,0-0.2,0-0.2c-0.8,0-1.2-0.1-1.6-0.1c-0.5-0.1-0.5-0.7-0.1-0.8c0.4-0.2,0.5-0.2,0.7-0.4
	c0.2-0.1,0.2-0.2,0.3-0.4c0.1-0.1,0.5-2.2,2.6-2.2c1.8-0.1,2.6,1.3,2.8,2.1c0.2,0.3,0.3,0.4,0.5,0.5c0.4,0.2,0.6,0.4,0.8,0.5
	s0.2,0.6-0.2,0.7c-0.2,0-0.5,0-0.8,0c0,0.2,0.2,0.5,0.4,0.9c0.1-0.1,0.3-0.1,0.3,0.1c0.1,0.1,0.1,0.2,0.1,0.3
	c0.1,0.2,0.2,0.4,0.4,0.6l0,0c0.1,0.1,0.1,0.1,0.1,0.1c1.9,1.6,2.7,2.9,2.7,5.3c0,1.1,0.1,3.2,0.1,4.3c0,0.7,0.4,2.4,0.7,3.1
	c1.1,2,1,2.9,2.2,4.9c0.2,0.4,0.5,1.6,0.8,2c-0.3,0.2-1.1,0.2-1.3,0.4c-0.2,0.3-0.3,1-0.4,1.3c-0.1,0.3,0.2,0.8,0,1
	c-0.1,0.1-0.6-0.1-0.7,0.2c0.4,0.5,0.4,0.7,0.5,1.1c0.3,1.1-0.2,3.1-0.5,4.5c-0.2,1.1-0.3,1.6,0.2,2.3c0.4,0.6,1,2.2,1.3,3.3
	c0.3,1.6,0.6,2.8,0.8,4.6c0.2,1.6,0.5,1.7,2,1.5c1-0.1,1.7,0,2.6-0.1c0.7-0.1,1.5-0.4,2.3-0.4c0.7,0.1,1.5,0.4,2.3,0.7
	c0.5,0.2,1.7,0.1,2.2,0.1c1.1,0,0.9,0.4,1.4,0.4c1.3,0.1,2.8,0.2,3.9,0.2c1.2,0.1,1.9-1,1.7-2.6c-0.2-1.9-0.8-3.7-0.9-5.6
	c-0.1-0.9-0.2-1.4-0.4-2.1c-0.1-0.1-0.9,0.2-1.1,0.1c-0.1-0.1-0.2-1-0.2-1.1c0.1-1.4-0.5-2.9,0.4-4.2c0.3-0.4,0.4-1,0.5-1.6
	c0.2-0.9-0.3-2.2-0.8-2.1c-0.4,0.1-1.2,0.6-1.6,0.4c-0.2-0.2-0.3-1-0.2-1.4c0-0.4-0.1-2.1-0.1-2.9c0-0.2-0.5,0.9-1,1.5
	c-0.1,0.1-0.2,0.2-0.2,0.3c-0.1,0.1-0.1,0.1-0.1,0.1l-1-0.5c-0.1,0.1-0.2,0.3-0.3,0.4c-0.2,0.7-0.4,1.1-0.6,1.1
	c0.1,0.1,0.1,0.2,0.1,0.2c0,0.1-0.4-0.1-0.7-0.2c0,0.4,0.1,0.8-0.1,0.8c-0.3,0-0.4-1.1-0.4-1.4c-0.1-0.1-0.1-0.2-0.1-0.3
	c-0.1-0.2,0.2-0.7,0.4-1.1c0,0,0,0,0-0.1c0.1-0.1,0.1-0.2,0.2-0.3l-0.1-0.1l0,0c0,0,0-0.1-0.1-0.1l0,0c0-0.1,0-0.1,0-0.1
	c0.1-0.1,0.1-0.2,0.2-0.3c0.3-0.4,0.5-0.8,0.7-1.1c0.1-0.1,0.1-0.1,0.1-0.2c0.2-0.3,0.5-0.7,1-1c0.4-0.3,0.7-2.2,0.7-2.3
	c0.1-0.2,0-0.4-0.1-0.6c-0.1-0.4-0.1-0.7-0.1-1c-0.2-1.8-0.4-2-0.8-3.7c-0.1-0.3-0.1-0.5,0.1-0.8c0.1-0.2,0.1-0.2,0.3-0.2
	c0.3,0,0.4-0.3,0.7-0.3c0.2,0,0.3-0.1,0.5-0.1c0.1,0.1,0.2,0.1,0.3,0.1c0.1,0.1,0.2,0,0.2-0.1c0.1-0.6,0.4-1.3,0.7-2.1
	c0.2-0.7,0.3-1.6,0.5-2.2c0.1-0.2-0.1-0.7-0.3-0.8l-0.1-0.1l0,0h-0.1l0,0c-0.1,0-0.1,0-0.1,0.1c0,0,0,0-0.1,0l0,0
	c-0.1,0.1-0.2,0.1-0.3,0.1c-0.2,0.1-0.2,0-0.4-0.1c-0.1-0.1-0.2-0.2-0.2-0.4l0,0c-0.1-0.1-0.1-0.1-0.2-0.2c-0.1,0-0.1-0.1-0.1-0.1
	l0,0l0,0c0-0.1,0-0.2,0-0.2l0,0c-0.1,0-0.2-0.1-0.2-0.2l0,0v-0.1v-0.1c-0.1-0.1-0.1-0.1-0.2-0.1c-0.2,0-0.2-0.1-0.3-0.3v-0.1
	c0-0.1,0-0.1,0-0.1l0,0c0-0.2,0-0.4,0-0.5c0-0.1,0-0.1,0-0.1v-0.2c-0.1-0.1-0.1-0.3-0.1-0.4c0-0.1-0.1-0.1-0.1-0.1
	c-1,0.1-1.3-0.1-1.6-0.2c-0.2-0.2-0.4-0.4-0.2-0.6c0.1-0.2,0.5-0.5,1.3-1c0.5-3.2,4.2-4,5.9-0.7c0.5,0.2,1.1,0.4,1.3,0.6
	c0.2,0.2,0.1,0.5-0.3,0.7c-0.5,0.2-0.4,0.2-1.4,0.4c0,0,0.1,1,0.5,1.3c0.1,0.1,0.1-0.1,0.2,0.1c0.4,0.5,0.2,0.9,0.8,1.1
	c1.9,0.8,2,0.1,3.3,3c0.8,1.8,1.4,3.3,1.4,7.3c-0.1,0.6,0.4,0.4,0.5,0.7c0.2,0.4,0.2,0.5,0.3,1.4c0,0.2-0.1,0.4,0,0.5
	c0.1,0.6,0.4,1.1,0.5,1.7c0.1,0.6-0.1,0.7,0,1.3c0.1,0.8,0.3,1.7,0.3,2.4c0,0.2-0.4,0.4-0.3,0.7c0.1,0.2,0,0.5,0.3,0.7
	c0.1,0.1,0.7,0,0.7,0.1c1.3,1,2.3,1.7,3.4,2.8c0.2,0.2,0.8,0.6,0.4,0.9c-0.1,0.1-0.1,0.1-0.2,0.1c-0.1,0-0.3-0.2-0.5-0.4
	c-0.5,0.6-0.8,1.4-1.4,1.9h-0.1c-0.2,0.1-0.4,0.2-0.6,0.1c-0.4-0.1-1.1-0.6-1.3-0.5c-0.1,0.1,0.5,1.6,0.6,1.9
	c0.2,1.2,0.8,2.3,0.9,3.6c0.2,2,0.1,3.7,0.4,5.6c0.3,2,0.9,1.6-1.2,1.7c-0.2,0-0.6-0.1-0.9-0.1c-0.3,0-0.6-0.2-0.7-0.1
	c-0.1,0.1-0.1,1.1-0.1,1.4c0.2,0.5,0.4,1.6,0.5,2.3c0.1,0.4,0.1,1,0.3,1.1c0.2,0.2,0.8,0.5,1,0.5c0.4,0,3.6,0.3,4.1,0.5
	c0.8,0.2,1.3-0.2,2,0.1c0.2,0.1,1.1-0.1,1.5,0.1c0.7-0.2,1.3-0.5,2-0.5c0.1,0,0.1,0,0.1,0.1c0.2-0.1,0.4-0.2,0.7-0.2
	c0.1,0,0.1,0,0.1,0.1c0.7-0.3,1.3-0.3,1.5-0.4c0.2,0,0.6-0.1,0.9-0.2c0.2-0.3,0.4-0.6,0.4-0.9c0-0.2,0-0.4,0-0.5c0-0.1,0-0.1,0-0.1
	c-0.1-0.4-0.1-0.8-0.1-1.2c0-0.1,0-0.3-0.1-0.4c-0.1-1.4-0.4-2.8-0.2-4.2v-0.2c-0.2-0.3-0.6-0.5-0.7-0.8c-0.1-0.4-0.1-1,0-1.4
	c-0.8-0.3-1.4-1-1.4-1.1c0-0.2,0.5-2.6,0.8-3.5c0.6-1.4,0.3-2.5-0.5-3.6c-0.4-0.6-0.7-1.4-0.7-2c0-0.1,0.3-0.7,0.5-1
	c-0.1,0.1-0.2,0.1-0.4,0.1c-0.1,0-0.2,0-0.3,0c-0.1,0-0.1,0.1-0.1,0.1c-0.1,0.1-0.2,0.2-0.4,0.3c-0.2,0.1-0.3,0.3-0.5,0.4
	c-0.1,0.1-0.1,0.2-0.2,0.2c-0.1,0.1-0.2,0.2-0.2,0.1l0,0l0,0c-0.3-0.1-0.5-0.5-0.7-0.6c0,0,0,0,0-0.1c-0.2,0.4-0.5,0.8-0.6,1.1
	l-0.2,0.2c-0.1,0.1-0.1,0.1-0.2,0.2c-0.1,0-0.2,0-0.2,0c-0.1,0-0.2,0-0.2,0c-0.1,0-0.1,0-0.2-0.1c0,0-0.2,0-0.2,0
	c-0.3-0.1-0.5-0.2-0.5-0.3c-0.1,0-0.1-0.1-0.2-0.1c-0.1-0.1-0.1-0.2-0.1-0.3c0-0.1,0.1-0.3,0.1-0.4c0.1-0.1,0.1-0.1,0.1-0.2
	c0,0,0.1-0.2,0.2-0.2c0,0,0.4-0.3,0.5-0.4c0.1-0.1,0.2-0.2,0.4-0.2c0,0,0.2-0.1,0.3-0.2c0,0,0.1-0.1,0.1-0.1v-0.1
	c-0.1-0.2,0.1-0.3,0.2-0.4c0.4-0.2,0.7-0.4,1-0.7c0.5-0.9,0.8-1.9,1.1-2.9c0.5-1.3,0.1-2.1,0-2.9s0-1.1-0.1-1.9
	c-0.1-0.4-0.1-1.2-0.1-1.5c-0.1-0.5,0.1-0.8,0.2-1.2c0.2-0.4,0.2-0.5,0.5-0.6c0.2-0.1,0.6-0.1,0.8-0.2c0.1-0.1,0.4,0,0.5,0
	c0.1,0,0.2-0.2,0.2-0.2c0.1-0.1,0-0.4,0-0.7c0.1-0.9,0.3-1.7,0.7-2.4c0.1-0.2,0.4-0.4,0.6-0.5c-0.1-0.1-0.1-0.2-0.1-0.4
	c0-0.1,0-0.1-0.1-0.1c-0.1-0.1-0.1-0.3-0.2-0.4c-0.1,0-0.3,0-0.4,0.1c-0.2,0.1-0.4,0.1-0.4,0.1s-0.1,0-0.1-0.1
	c-0.1-0.1-0.1-0.1-0.1-0.1l0,0c0-0.1-0.1-0.1-0.1-0.1v-0.1l0,0c0-0.1-0.1-0.2-0.1-0.2l0,0c0,0,0,0,0-0.1c-0.1-0.1-0.1-0.1-0.2-0.2
	c0,0,0,0,0-0.1l0,0c-0.1-0.1-0.1-0.1-0.1-0.1c0,0,0-0.1,0-0.1l0,0v-0.1v-0.1c0-0.1-0.1-0.2-0.1-0.2c-0.1,0-0.1,0-0.1,0h-0.1
	c-0.1,0-0.2-0.1-0.2-0.2c0-0.1,0-0.1,0-0.2c0-0.2,0-0.5,0.1-0.7c0-0.2,0-0.4-0.1-0.5c-0.6-0.1-1-0.1-1.4-0.2
	c-0.8-0.2-0.5-0.8-0.1-1.1c0.4-0.2,0.9-0.4,1.1-1.1c0.7-1.9,2-1.7,3.4-1.6c1.3,0.1,2.1,0.8,2.2,1.8c0.1,0.3,0.5,0.5,1,1
	c0.6,0.5,0.4,0.7-0.2,1c-0.3,0.1-1,0.2-1,0.2c0,0.4-0.1,1.1,0.2,1.7c0.1,0.2,0.6-0.1,0.7,0c0.1,0.2,0,0.8,0.1,1
	c0.3,0.4,0.7,0.7,0.9,0.8c1.1,0.9,1.7,1.8,2.4,3c0.4,0.8,0.8,2,1.1,2.8c0.4,1.1,1.3,2.5,1.9,3.4c0.4,0.6,0.4,0.3,0.5,0.9
	c-0.1,0.2-0.1,0.4-0.1,0.7c0,0.1-0.1,0.1-0.1,0.2c0,0.1,0,0.2,0.1,0.3c0.4,0.2,0.7,0.4,1.1,0.6c0.1,0.2,0.1,0.4-0.1,0.5
	c-0.1,0.1-0.1,0.1-0.1,0.1c-0.8,0.7-1,1.3-1.7,2.3c-0.8,1.1-1.1,2-1.2,3.4c0,1.8-0.1,2.8-0.2,4.6c-0.1,1,0.4,1.6-1,1.6
	c-0.5,0.1-1.1,0-1.3,0.1c-0.2,0.4-0.4,1.7,0.1,3.8c0,0.1,0.1,0.2,0.1,0.4c0.1,0.2-0.2,0.6-0.1,1.1c0.3,1.6,0.8,2.9,0.9,4.6
	c0,1.7,0.1,2.8,0.1,4.2c0,0.5,0.1,0.4,0.2,0.8c0.1,0.3,0.1,1,0.3,1.1c0.2,0.1,1,0.3,1.4,0.3c0.6-0.1,2.5-0.7,2.7-0.6
	c0.7,0.2,1,0.2,2-0.2c1.1-0.4,4.6-0.2,4.9-0.2c0.7,0.1,3.6,0.1,4.4,0.2c0.8,0.2,3.5-0.2,3.8-0.2c0.3-0.1,0.7,0.1,1.3,0.2
	c0.7,0.3,1,0.4,1.1,0c0.1-0.2,0.1-0.5,0.1-0.9l0,0c0-0.7-0.1-1.3-0.3-2l0,0c-0.1-0.5-0.2-1.1-0.3-1.6c-0.1-0.5-0.2-1-0.2-1.4
	c0-0.2-0.1-0.4-0.1-0.6c0-0.3-0.1-0.6-0.2-0.9c-0.1-0.1-0.2-0.2-0.3-0.2c-0.1-0.1-0.1-0.1-0.2-0.2c-1.8-1.3-2.2-3.4-2-5.5
	c0.1-0.8,0.2-2.6,0.2-3.4c0.1-0.7,0.4-1-0.1-2.1c-0.2-0.3,0.1-0.4-0.5-0.2c-0.2,0.1-0.5,0.2-0.5,0.8c0,0.3,0.1,0.9,0.1,1.3
	c0,0.4-0.3,0.8-0.2,1.1c0.1,0.4,0.3,1,0.4,1.2c0.2,0.7,0.1,1-0.5,1.4c-1.3,0.8-3.7,0.7-4.9-0.3c-0.5-0.4-0.7-0.7-0.3-1.4
	c0.8-1.3,0.8-2.8,0.4-4.3c-1-3.4-0.2-6.6,1.7-9.5c0.2-0.3,0.4-0.6,0.3-1c-0.5-1.6,0.3-1.6,1.5-1.4c0.7,0.1,1.3,0.1,1.3-0.9
	c0.1-1.2,0.7-2.6,0.8-3.8c0.1-1.1,0-1.9,0.1-3c0.1-1.4,1-1.9,1.3-2.2c0,0,0.1-0.1,0.1-0.1c-0.1-0.1-0.2-0.3-0.3-0.4
	c-0.1-0.1-0.2-0.2-0.4-0.2h-0.1c-0.1,0-0.1,0-0.2,0h-0.1c-0.4,0.2-0.8,0.3-1,0c-0.1-0.1-0.1-0.2-0.1-0.4c0-0.1,0-0.2-0.1-0.2
	c-0.1,0-0.1,0-0.1,0c-0.1,0-0.1-0.1-0.1-0.1l-0.1-0.1c0-0.1,0.1-0.2,0-0.2c-0.1-0.1-0.2,0-0.3-0.1c-0.1,0-0.1-0.1-0.1-0.2
	c0-0.1-0.1-0.2-0.1-0.3c0-0.1,0-0.1-0.1-0.1c-0.1-0.1-0.2-0.1-0.3-0.1c-0.1,0-0.1,0-0.1,0s-0.1-0.1-0.1-0.1l0,0c0,0-0.1,0-0.1-0.1
	l-0.1-0.1c0,0-0.1-0.1,0-0.1c0-0.1,0-0.2,0.1-0.2c0.1-0.1,0.1-0.2,0.1-0.4c0-0.1,0.1-0.2,0.1-0.2c0-0.1,0.1-0.1,0-0.2l0,0
	c-0.1,0-0.1,0-0.1,0l0,0l-1.1-0.2c-0.2-0.1-0.4-0.2-0.4-0.4c-0.1-0.1-0.1-0.3,0.1-0.5c0.2-0.3,0.5-0.5,0.7-0.6
	c0.1-0.1,0.2-0.2,0.2-0.2c0.5-3.3,5.9-3.7,6.9-0.5c0.1,0.4,1.3,0.8,1,1.3c-0.2,0.3-0.7,0.5-1.4,0.7c-0.2,0.7,0.1,1.6,0.5,2
	c0.4,0.2,0.8,0.4,1.4,0.5c0.8,0.2,1.6,0.4,2.3,0.6c1.4,0.5,1.4,0.5,1.5-1.1c0.1-1.3,0.1-2,0.2-2.9c0-0.4,0.1-0.8,0.1-1.3
	c0-0.1,0-0.3,0.1-0.5c0.1-0.4,0.1-0.7,0.2-0.8c0.2-0.1,0.4-0.1,0.6,0c0.2,0.1,0.4,0.1,0.6,0.2c0.1,0.1,0.2,0.3,0.2,0.4
	c-0.1,0.2-0.4,0.3-0.4,0.5c-0.1,0.5-0.1,1-0.1,1.6c0,0.4,0,0.9-0.1,1.5c-0.1,1.4-0.1,2.9-0.2,3.1c0,0.1,0.1,0.2,0.2,0.2
	c0.4,0.1,0.2,0.4,0.2,0.5c-1.1,1.3-0.3,4.3,0.7,5.8c0.9,1.4,1.7,2.6,2.7,4c1,1.3,0.8,1.4-0.5,2.3c-0.5,0.4-1.3,0.8-0.8,1.6
	c0.5,1.1,0.7,2.6,1.2,3.8c0.5,1.1,0.3,1.1-0.7,1.4c-0.8,0.2-1.9,0.1-2.2,0.2c0,0.5,0,0.8,0,1.5c0,0.3-0.3,1-0.4,1.3
	c-0.3,1.1-1,2.2-0.8,3.2c0.4,1.6,0,2.5-1,2.9c-0.3,0.2-0.8,0.6-0.8,0.8c0,0.2,0.7,0.5,0.8,0.8c1,1.1,2,2.2,2.8,3.5
	c1.1,1.9,2.6,4,4.7,5.2c1.6,0.9-0.1,2-0.9,3.2c-0.4,0.7,0.7,0.8,1,1c0.9,0.5,1.1,1.1,1.1,1.6v2.6c0,0.1-121.1,0.1-121.1,0.1V85.5
	H65.2z M144.2,135.7v5h-14v-5.2l8-28.3h-7.3v-5h13.4v4.7l-8,28.8H144.2z M98.2,173.7c0-8.5,1.3-14.8,4-19c2.6-4.2,7.7-6.3,15.2-6.3
	s12.6,2.1,15.3,6.2c2.7,4.2,4.1,10.5,4.1,19.1v45.8c0,8.8-1.3,15.5-4,20.1c-2.6,4.6-7.7,6.9-15.4,6.9s-12.8-2.3-15.4-6.8
	c-2.6-4.6-3.9-11.3-3.9-20.2C98.2,219.5,98.2,173.7,98.2,173.7z M98.1,133.8h-6.2l-0.8,6.9h-5.6l5.5-38.6h7.7l5.9,38.6H99
	L98.1,133.8z M120.4,114.7v-12.7h5.3v38.6h-4.1l-8.4-24l0.3,10.1v13.9H108v-38.6h4.6l8.2,23.2L120.4,114.7z M65.2,112.3
	c0-7.1,2.9-10.6,8.6-10.6c3,0,5.1,0.9,6.4,2.7c1.3,1.8,2,4.4,2,7.9v17.6c0,5.6-1.5,9.1-4.5,10.4l3.6,4.2l-2.9,2.5l-5.5-6
	c-2.6-0.2-4.5-1.1-5.8-2.9c-1.3-1.8-2-4.6-2-8.3L65.2,112.3L65.2,112.3z M64.4,161.5c3.1-0.4,6-1.7,8.8-3.8c2.8-2,4.9-4.8,6.4-8.2
	h7.9v95.9H76.2v-80.8c-1.3,1.5-3,2.6-5.2,3.5c-2.3,0.8-4.4,1.2-6.7,1.2L64.4,161.5L64.4,161.5z M65.2,253.8h121.1
	c0.5,0,0.9,0.4,0.9,0.9c0,0.5-0.4,0.9-0.9,0.9H65.2c-0.5,0-0.9-0.4-0.9-0.9S64.7,253.8,65.2,253.8 M180.7,294.8v8h-2v-18.6h1.6
	l4.3,12.7l-0.2-5.4v-7.3h1.9v18.6h-1.6l-4.2-12.8L180.7,294.8z M184.3,279.8l-0.5-3.5h-3.4l-0.5,3.5h-2.1l2.8-18.6h2.6l3.1,18.6
	H184.3z M165.2,279.8v-18.6h3.9c1.1,0,1.9,0.2,2.4,0.7c0.5,0.5,0.8,1.3,0.9,2.3c0.1,0.5,0.1,1.1,0.1,2.1c0,1-0.1,1.7-0.4,2.4
	c-0.2,0.7-0.7,1.1-1.3,1.3c0.5,0.1,0.8,0.3,1.1,0.7c0.2,0.4,0.4,1.1,0.5,2c0.1,0.9,0.1,2.2,0.1,4c0,1.8,0.1,2.8,0.2,3.1h-2.2
	c-0.1-0.2-0.2-2.3-0.2-6.2c0-1.3-0.1-2.1-0.4-2.3c-0.2-0.2-0.7-0.3-1.2-0.3l-1.3-0.1v9L165.2,279.8L165.2,279.8z M165.8,302.9h-2.2
	v-18.6h2.2V302.9z M168.7,289.4c0-2.1,0.4-3.5,1.1-4.4c0.6-0.6,1.4-0.9,2.6-0.9c1.7,0,2.7,0.7,3.2,2c0.3,0.8,0.4,1.9,0.4,3.2v8.2
	c0,1.9-0.3,3.4-0.8,4.3c-0.5,0.9-1.5,1.3-2.8,1.3c-1.4,0-2.3-0.4-2.9-1.3c-0.5-0.9-0.8-2.3-0.8-4.2L168.7,289.4L168.7,289.4z
	 M155.5,286.1v-1.8h6.1v1.8h-1.9v16.8h-2.2v-16.8H155.5z M161.6,278.7c-0.5,0.9-1.5,1.3-2.8,1.3c-1.4,0-2.3-0.4-2.9-1.3
	c-0.5-0.9-0.8-2.3-0.8-4.2v-8.2c0-2.1,0.4-3.5,1.1-4.4c0.6-0.6,1.4-0.9,2.6-0.9c1.7,0,2.7,0.7,3.2,2c0.3,0.8,0.4,1.9,0.4,3.2v8.2
	C162.4,276.4,162.1,277.8,161.6,278.7 M152.8,268.9v1.9h-3.2v9.1h-2.2v-18.6h5.6v1.8h-3.4v5.9H152.8z M149.5,284.3h2.6l3.1,18.6h-2
	l-0.5-3.5h-3.4l-0.5,3.5h-2.1L149.5,284.3z M121.1,294.8v8h-2v-18.6h1.6l4.3,12.7l-0.2-5.4v-7.3h1.9v18.6h-1.6l-4.2-12.8
	L121.1,294.8z M120.5,261.2h2.2v18.6h-2.2V261.2z M125.8,279.8v-18.6h5.6v1.8H128v6.4h3.2v1.8H128v6.8h3.4v1.8L125.8,279.8
	L125.8,279.8z M129.5,284.3h5.6v1.8h-3.4v6.4h3.2v1.8h-3.2v6.8h3.4v1.8h-5.6L129.5,284.3L129.5,284.3z M134,277.8
	c-0.2-0.8-0.4-1.9-0.4-3.2v-1.9h2.1v1.9c0,1.4,0.1,2.3,0.3,2.8c0.2,0.5,0.5,0.8,1.1,0.8c0.5,0,0.9-0.1,1.1-0.4
	c0.2-0.2,0.3-0.7,0.4-1.1c0.1-0.5,0.1-1.1,0.1-1.7c0-1.3-0.5-2.5-1.7-3.7l-1.2-1.2c-1.1-1.1-1.7-2.2-2-3.1c-0.1-0.4-0.2-1-0.2-1.6
	c0-1.3,0.2-2.4,0.7-3.2c0.5-0.8,1.4-1.2,2.8-1.2c1.8,0,2.9,0.8,3.2,2.6c0.1,0.7,0.2,1.7,0.2,2.8v1.1h-2.1v-1.3c0-1.2-0.1-2-0.2-2.4
	c-0.1-0.4-0.2-0.7-0.4-0.8c-0.2-0.1-0.4-0.2-0.7-0.2c-0.5,0-0.9,0.2-1.1,0.6c-0.2,0.4-0.4,1-0.4,1.7s0.1,1.3,0.3,1.7
	c0.2,0.4,0.5,0.7,0.8,1c0.3,0.3,0.5,0.5,0.5,0.5l1.3,1.3c1.5,1.6,2.3,3.4,2.3,5.3c0,1.6-0.2,2.8-0.7,3.7c-0.5,0.8-1.4,1.3-2.8,1.3
	C135.5,280,134.5,279.3,134,277.8 M137.5,284.3h3.9c1.1,0,1.9,0.2,2.4,0.7c0.5,0.5,0.8,1.3,0.9,2.3c0.1,0.5,0.1,1.1,0.1,2.1
	c0,1-0.1,1.7-0.4,2.4s-0.7,1.1-1.3,1.3c0.5,0.1,0.8,0.3,1.1,0.7c0.2,0.4,0.4,1.1,0.5,2c0.1,0.9,0.1,2.2,0.1,4c0,1.8,0.1,2.8,0.2,3.1
	h-2.2c-0.1-0.2-0.2-2.3-0.2-6.2c0-1.3-0.1-2.1-0.4-2.3c-0.2-0.2-0.7-0.3-1.2-0.3l-1.3-0.1v9h-2.2V284.3z M116.5,292.5v1.8h-3.2v6.8
	h3.4v1.8h-5.6v-18.6h5.6v1.8h-3.4v6.4L116.5,292.5L116.5,292.5z M115.6,279.8c-0.1-0.2-0.2-2.3-0.2-6.2c0-1.3-0.1-2.1-0.4-2.3
	c-0.2-0.2-0.7-0.3-1.2-0.3l-1.3-0.1v9h-2.1v-18.6h3.9c1.1,0,1.9,0.2,2.4,0.7c0.5,0.5,0.8,1.3,0.9,2.3c0.1,0.5,0.1,1.1,0.1,2.1
	c0,1-0.1,1.7-0.4,2.4c-0.2,0.7-0.7,1.1-1.3,1.3c0.5,0.1,0.8,0.3,1.1,0.7s0.4,1.1,0.5,2c0.1,0.9,0.1,2.2,0.1,4c0,1.8,0.1,2.8,0.2,3.1
	L115.6,279.8L115.6,279.8z M106,286.6c-0.2-0.4-0.6-0.6-1.1-0.6s-1,0.2-1.2,0.8c-0.2,0.5-0.4,1.4-0.4,2.7v7.8c0,1.5,0.1,2.5,0.3,3.1
	s0.6,0.9,1.2,0.9s1-0.3,1.3-0.9c0.2-0.6,0.4-1.6,0.4-3.1v-2.4h-1.5v-1.7h3.5v9.8h-1.1l-0.3-1.4c-0.4,1.1-1.2,1.6-2.4,1.6
	c-1.2,0-2-0.5-2.6-1.4c-0.5-0.9-0.8-2.3-0.8-4.3v-7.8c0-2.8,0.7-4.4,1.9-5.1c0.5-0.2,1.1-0.4,1.7-0.4c1.1,0,2,0.2,2.5,0.7
	c0.5,0.5,0.8,1.1,1,1.9c0.1,0.8,0.2,1.7,0.2,2.9v1.4h-2.1v-2.4C106.3,287.7,106.2,287,106,286.6 M101.1,278.7
	c-0.5-0.9-0.8-2.3-0.8-4.2v-8.2c0-2.1,0.4-3.5,1.1-4.4c0.6-0.6,1.4-0.9,2.6-0.9c1.7,0,2.7,0.7,3.2,2c0.3,0.8,0.4,1.9,0.4,3.2v8.2
	c0,1.9-0.3,3.4-0.8,4.2c-0.5,0.9-1.5,1.3-2.8,1.3C102.6,280,101.6,279.6,101.1,278.7 M71.6,279.8h-2L67,265.4l0.2,7v7.4h-1.9v-18.6
	h2.7l2.6,15.3l2.5-15.3h2.8v18.6h-1.9v-7.4l0.2-7L71.6,279.8z M67.3,294.8v8h-2v-18.6h1.6l4.3,12.7l-0.2-5.4v-7.3h1.9v18.6h-1.6
	L67,290.1L67.3,294.8z M75.8,284.3h5.6v1.8H78v6.4h3.2v1.8H78v6.8h3.4v1.8h-5.6C75.8,302.9,75.8,284.3,75.8,284.3z M78.9,279.8
	v-18.6h5.6v1.8h-3.4v6.4h3.2v1.8h-3.2v6.8h3.4v1.8L78.9,279.8L78.9,279.8z M85.1,284.3l1.6,14.2l2.1-14.2h1.8l2.2,14.2l1.3-14.2h2
	l-2.2,18.6h-2l-2-13.7l-2.1,13.7h-2.1l-2.5-18.6H85.1z M95.7,279.8v-7.4l0.2-7l-2.5,14.4h-2l-2.6-14.4l0.2,7v7.4H87v-18.6h2.7
	l2.6,15.3l2.5-15.3h2.8v18.6H95.7z M65.2,308.5h121.1c0.5,0,0.9,0.4,0.9,0.9c0,0.5-0.4,0.9-0.9,0.9H65.2c-0.5,0-0.9-0.4-0.9-0.9
	C64.3,308.9,64.7,308.5,65.2,308.5 M157.1,109.7L157.1,109.7l-2.4,19.4h5L157.1,109.7z M145.7,87.4c0.1,0.4,0.2,0.7,0.4,0.8
	c0,0,0,0.1,0.1,0.1c0.2,0.1,0.3,0.1,0.5,0.2c0,0,0.1,0,0.1,0.1c0.1,0,0.1,0,0.2-0.1c1-0.2,0.8-1.8,0.7-2c-0.2-0.8-0.8-2.6-1.2-3.8
	l0,0c0-0.1,0-0.1-0.1-0.2c-0.2-0.5-0.3-0.8-0.3-0.8c-0.1-0.2-0.2-0.5-0.2-0.8c0.1,0.2,0.1,0.4,0.1,0.7c0,0.1,0,0.1,0,0.1
	c0,0.2,0.1,0.4,0,0.5c0,0,0,0,0,0.1c0,0.1,0,0.2,0,0.3c-0.1,0.1-0.1,0.1-0.1,0.2c0,1.4-0.5,2.6-0.4,4
	C145.5,86.9,145.6,87.1,145.7,87.4 M198.8,15.5H52.7c-2.3,0-4.1,1.9-4.1,4.1s1.9,4.1,4.1,4.1h146.1c2.3,0,4.1-1.9,4.1-4.1
	S201.1,15.5,198.8,15.5 M114,65.6c0.1,0.1,0.2,0.1,0.2,0.2c0-0.1,0-0.2,0-0.4c0.1-0.2,0.2-0.6,0.2-0.7
	C114.3,64.9,113.9,65.3,114,65.6 M158.8,262.9c-0.6,0-1,0.2-1.2,0.8c-0.2,0.5-0.4,1.3-0.4,2.5v8.3c0,1.4,0.1,2.4,0.3,2.9
	c0.2,0.5,0.6,0.8,1.2,0.8s1-0.2,1.2-0.8s0.3-1.5,0.3-2.9v-8.3c0-1.2-0.1-2-0.3-2.5C159.7,263.1,159.4,262.9,158.8,262.9 M169.7,269
	c0.2-0.2,0.4-0.5,0.4-0.9c0.1-0.5,0.1-1.2,0.1-2.2v-0.1c0-1.4-0.1-2.3-0.4-2.5c-0.2-0.2-0.6-0.4-1.1-0.4h-1.4v6.3h1.4
	C169.2,269.2,169.5,269.2,169.7,269 M113.9,263h-1.4v6.3h1.4c0.4,0,0.7-0.1,0.9-0.2c0.2-0.2,0.4-0.5,0.4-0.9
	c0.1-0.5,0.1-1.2,0.1-2.2v-0.2c0-1.4-0.1-2.3-0.4-2.5C114.8,263.1,114.4,263,113.9,263 M150.8,287.8L150.8,287.8l-1.4,9.8h2.9
	L150.8,287.8z M142,292.1c0.2-0.2,0.4-0.5,0.4-1c0.1-0.5,0.1-1.2,0.1-2.2v-0.1c0-1.4-0.1-2.3-0.4-2.5c-0.2-0.2-0.6-0.4-1.1-0.4h-1.4
	v6.3h1.4C141.5,292.3,141.8,292.3,142,292.1 M172.3,301.3c0.6,0,1-0.2,1.2-0.8c0.2-0.5,0.3-1.5,0.3-2.9v-8.3c0-1.2-0.1-2-0.3-2.5
	c-0.2-0.5-0.6-0.7-1.1-0.7c-0.6,0-1,0.2-1.2,0.8c-0.2,0.5-0.4,1.3-0.4,2.5v8.3c0,1.4,0.1,2.4,0.3,2.9S171.7,301.3,172.3,301.3
	 M73.7,136.1c1.1,0,1.7-0.5,2.1-1.4c0.4-0.9,0.5-2.5,0.5-4.7v-18c0-1.8-0.2-3.2-0.5-4c-0.4-0.8-1-1.3-2-1.3c-1,0-1.7,0.4-2.1,1.3
	c-0.4,0.8-0.6,2.2-0.6,4v18c0,2.3,0.2,3.8,0.5,4.7C71.9,135.6,72.7,136.1,73.7,136.1 M94.8,109.7l-2.3,19.4h5l-2.6-19.4H94.8z
	 M104,278.2c0.6,0,1-0.2,1.2-0.8c0.2-0.5,0.3-1.5,0.3-2.9v-8.3c0-1.2-0.1-2-0.3-2.5c-0.2-0.5-0.6-0.7-1.1-0.7c-0.6,0-1,0.2-1.2,0.8
	c-0.2,0.5-0.4,1.3-0.4,2.5v8.3c0,1.4,0.1,2.4,0.3,2.9C103,277.9,103.4,278.2,104,278.2 M112.6,235.6c1.1,0.9,2.4,1.3,4,1.3
	c1.6,0,2.6-0.1,3.3-0.2c0.7-0.1,1.4-0.4,2.2-1.1c2.3-1.8,3.5-7,3.5-15.5v-47c0-9.3-2-14.3-5.9-15c-0.6-0.1-1.5-0.2-2.6-0.2
	c-1.1,0-2.3,0.2-3.4,0.7s-2,1.7-2.9,3.8c-0.9,2.2-1.3,5.6-1.3,10.6v47.3C109.4,228.8,110.5,234,112.6,235.6 M182,264.7l-1.4,9.8h2.9
	L182,264.7L182,264.7z"/>
</svg>
