<?xml version="1.0" encoding="utf-8"?>
<!-- Generator: Adobe Illustrator 18.1.0, SVG Export Plug-In . SVG Version: 6.00 Build 0)  -->
<!DOCTYPE svg PUBLIC "-//W3C//DTD SVG 1.1//EN" "http://www.w3.org/Graphics/SVG/1.1/DTD/svg11.dtd">
<svg version="1.1" id="Layer_1" xmlns="http://www.w3.org/2000/svg" xmlns:xlink="http://www.w3.org/1999/xlink" x="0px" y="0px"
	 viewBox="0 0 400 600" enable-background="new 0 0 400 600" xml:space="preserve">
<path fill="#FFFFFF" d="M114.1,140.6L114.1,140.6L114.1,140.6L114.1,140.6z M150.2,137.2c0.3,1.7,0.6,3.2,0.7,3.9
	c0.1,0.7,0.6,1.4,0.9,1.5c0.3,0.2,0.4,0.1,1.1,0.1c0.2,0,0.4-0.7,0.7-0.7c0.4,0,0.9-0.1,1.5-0.1c0.1,0,1.4,0,1.6,0
	c1.3,0,1.6,0.1,1.4-0.1c-0.3-1.2-1.4-5.8-1.8-6.9c-1.1-3.2-1.9-4.4-2.7-7.5c-0.2-0.6-0.8-0.4-1.2-0.4c-0.7-0.1-0.6,0.1-1.1-0.4
	c-0.1-0.1-0.4-1.3-0.4-2.5c0-1.2-0.5-2.4-0.5-2.4s-1.8,2.7-1.3,3.9C150.3,129.6,149.4,132.6,150.2,137.2 M260,392.7
	c1.8,1.5,4,2.2,6.6,2.2c2.6,0,4.4-0.1,5.5-0.4c1.1-0.1,2.4-0.7,3.7-1.8c3.9-3,5.9-11.6,5.9-25.9v-78.4c0-15.5-3.3-23.8-9.9-25
	c-1-0.2-2.5-0.3-4.4-0.3c-1.9,0-3.8,0.4-5.6,1.1c-1.8,0.7-3.4,2.9-4.9,6.4c-1.5,3.6-2.2,9.4-2.2,17.6V367
	C254.6,381.4,256.4,390,260,392.7 M118.5,95.8c0.7-0.8,1.9-1.4,1.9-1.4s-1.6,0.5-3.2-0.1c0,0-0.3,2,0,3
	C117.7,97.4,117.9,96.5,118.5,95.8 M271.8,78.6C271.9,78.6,271.9,78.6,271.8,78.6L271.8,78.6C271.9,78.6,271.9,78.6,271.8,78.6
	 M280.4,135.7c0.1,0.1,0.2,0.3,0.4,0.4c0.2,0.5,0.5,0.9,0.7,1.4c0.2,0.6,0.4,1.2,0.5,1.9c0,0.1,0,0.1,0.1,0.2v0.1
	c0.1,0.4,0.1,0.8,0.2,1.2c0.1,0.9,0,1.8,0,2.8v0.2c-0.1,0.3-0.1,0.5-0.1,0.8c-0.1,0.3-0.1,0.6-0.1,0.9c-0.3,0.9-0.6,1.9-0.4,2.7
	c0,0.7,0.2,1.4,0.5,2c0,0.2,0,0.3,0,0.4c0,0,0.1,0,0.2,0c0,0.1,0.1,0.1,0.2,0.1c0.1,0.1,0.2,0.2,0.4,0.3c0.6,0.4,1.4,0.2,2.1,0.2
	c0.2,0,0.4,0.1,0.5,0.1c0,0,0.1,0,0.2,0c0,0,0.1,0,0.1,0c0.6,0.1,1.9,0.1,2.1,0.1c2.5,0.3,2.4,0,3.1-1.1c0.5-0.9,0.4-1,1.1-2.4
	c0.2-0.4,0.6-0.6,0.4-1.2c-1.7-4.4-5.3-6.6-8.5-9.7c-0.2-0.2-1-0.7-1.6-1.1c-0.1-0.1-0.2-0.1-0.3-0.2c-0.1-0.1-0.2-0.1-0.2-0.2
	c-0.3-0.3-0.7-0.5-1.1-0.5c-0.2,0-0.4,0.2-0.4,0.4C280.3,135.5,280.3,135.6,280.4,135.7C280.4,135.7,280.4,135.7,280.4,135.7
	 M77.9,576.2L199.8,541l121.6,35.2V51.8H77.9V576.2z M242.6,257.8c4.4-7,12.9-10.5,25.4-10.5c12.5,0,21,3.5,25.5,10.4
	c4.5,7,6.8,17.5,6.8,31.8v76.3c0,14.7-2.2,25.9-6.6,33.5c-4.4,7.7-12.9,11.5-25.7,11.5c-12.7,0-21.3-3.8-25.6-11.4
	c-4.4-7.6-6.5-18.8-6.5-33.6v-76.3C235.9,275.3,238.1,264.8,242.6,257.8 M236.1,234.5l9.2-64.3h12.9l9.8,64.3h-9.1l-1.5-11.5h-10.4
	l-1.4,11.5H236.1z M297.1,230.8c-2.2,3-5.7,4.5-10.5,4.5c-4.8,0-8.3-1.6-10.7-4.8c-2.4-3.2-3.5-7.8-3.5-13.7v-28
	c0-9.6,2.5-15.6,7.5-17.9c1.9-0.9,4.1-1.3,6.7-1.3c9,0,13.6,5.7,13.6,17.1v8.8h-9.5v-8.2c0-3.3-0.3-5.7-0.8-7.1
	c-0.6-1.4-1.7-2.1-3.3-2.1c-1.6,0-2.8,0.8-3.4,2.3c-0.6,1.5-1,3.8-1,6.9v30c0,3.5,0.3,5.9,0.9,7.4c0.6,1.5,1.7,2.2,3.3,2.2
	c1.6,0,2.7-0.8,3.3-2.3c0.6-1.5,0.9-4,0.9-7.5v-9.2h9.6v9.1C300.5,223.2,299.4,227.8,297.1,230.8 M98.7,142.5c3.9-0.7,8-0.7,9.3-0.2
	c1.1,0.4,1.6,0.5,2.4,0.7c0.7,0.2,1.5,0.1,2.3-0.2c2.3-3.5-0.6-8.1-1.2-11.7v0c-0.1-0.1-0.1-0.3-0.2-0.4c0,0,0-0.1,0-0.1
	c0-0.1-0.1-0.2-0.1-0.3c-0.6-0.4-1.2-0.7-1.8-1.1c-0.2-0.2-0.4-0.4-0.6-0.7c-1-0.7-1.3-1.3-1.6-2.8c-0.3-1.9-0.2-3.8-0.5-5.7
	c-0.2-1.2,0-3-0.2-4.2c0-0.1-0.1-0.2-0.2-0.3c0,0,0-0.1,0-0.1c-0.1-0.3-0.2-0.6-0.3-0.8c-0.1-0.1-0.2-0.3-0.3-0.4
	c-0.1-0.2-0.3-0.2-0.5-0.3c-0.5-0.2-1.3-0.2-1.8-0.3c-0.2-0.1-0.4-0.2-0.6-0.3c-0.8-0.3-1.6-0.6-2.5-0.8c0-0.2-0.5-0.2-0.4-0.5
	c0.4-3.1,0.8-4.2,1.7-6.9c0.4-1.3,0.5-3.3,1-4.8c0.5-1.7,0.3-3.3,0-4c0-0.1-0.2-0.3-0.2-0.3c-0.2-0.5,0.1-2.3,0.8-2.5
	c0.1,0,0.2-0.1,0.3-0.2c0.1-0.2,0.4-0.7,0.3-1.5c0-1.4-0.5-2.7,0.2-3.8c0.3-0.4,1.3-1.9,2.7-2.6c0.2-0.1,0.1-0.7-0.1-1
	c-0.1,0-0.3,0.1-0.5,0.1c-0.3,0-0.6,0-0.8,0c-0.1,0-0.1,0-0.2,0c-0.1,0-0.1,0-0.1,0c-0.1,0-0.1,0-0.2-0.1c-0.5-0.1-0.5-0.9-0.5-1.6
	c-0.2-0.3-0.3-0.7-0.4-1c-0.2-0.1-0.5-0.1-0.6-0.2c-0.1,0-0.2-0.1-0.2-0.2c0,0,0-0.1,0-0.1c0-0.1,0-0.2,0-0.4
	c0.1-0.3,0.2-0.6,0.2-0.8c0-0.2,0.1-0.4,0.1-0.6c0-0.2-0.1-0.4-0.2-0.6c-0.1-0.2-0.2-0.4-0.2-0.7c0-0.2,0.1-0.5,0.1-0.7l0,0
	c0-0.1,0-0.2,0-0.3c-0.1-0.4,0-0.4,0-0.6c-1.1-0.7-1.3-0.7-1.1-1.1c0.3-0.6,0.8-0.3,1.7-0.5c1.6-2.9,4.4-3,7.3-1.4
	c2.3,1.3,2.5,3.3,2,5c0,0.1,0.6,0.5,0.9,1.1c0.1,0.2,0.2,0.4,0.1,0.7c-0.1,0.2-0.9,0-1.8-0.2c-0.2,0.2-0.2,0.4-0.1,0.7
	c0.1,0.2-0.1,0.8,0.1,1.1c0.2,0.3,0.5,0.3,0.7,0.4c2.8,1.2,4.8,3.9,7.5,4.4c2.5,0.5,5.7-0.1,8.2-0.1c1,0,2.1-0.3,2.7,0.8
	c1.1,1.9,2.5,3.5,3.9,5.2c0.4,0.4,0.8,0.9,1.2,1.3c0.2,0.3,0.5,0.2,0.7,0.5c0.3,0.4,0.5,1,0.8,1.4c0.8,1,1.6,2,2.3,3.1
	c0.9,1.4-0.5,2.9-0.7,3.3c-0.2,0.3-1,1.3-1.7,2.1c-0.2,0.2-0.9,0.7-1.1,0.8c-0.1,0.1,0,0.2,0,0.4c0,0.3,0,1.4-0.1,2.1
	c-0.1,1,0,2-1.3,1.9c-1.2-0.1-1.2-1.1-1.2-2.2c-0.1-1.2-0.1-3.1,0.1-3.5c-0.1,0-0.2,0-0.4,0c-0.3,0-0.3,0.5-0.8,0.7
	c-0.6,0.3-1.2,0.1-1.1,0.4c1.5,2.5-1.1,2.6-1,4.4c0.1,2.7,1.4,2.5-2,5.6c-1,0.9-0.4,1.7-1,2c-0.3,0.2-0.6,0.2-1.1,0.3
	c-2.3,0.4-1.1-1.7-2-1.6c-1.8,0.2-2,0-2.3-0.3c-0.7-1-0.6-1.7-0.7-2.4c-0.3,0-0.6-0.7-0.9-0.8c-0.6-0.3,0.3,3.5-0.2,3.9
	c-0.5,0.5-0.8,1.3-1.4,2.1c-0.6,0.7-1.4,1.3-2,2c-0.1,0.6,0,1.2,0.1,1.8c0.1,0.9,0.2,1.8,0.3,2.7c0.1,1,0.4,2.8-0.5,3.6
	c0.1,0.3,0.1,0.6,0.2,1c1,1.7,1.9,3.4,2.6,5.2c0.5,1.2,0.8,2.4,1.2,3.6c0.6,0.9,1.2,1.8,1.9,2.6c0.8,0.9,2.4,1.3,4,1.3
	c1.2,0,3.1,0,3.9-0.4c1.2-0.5,1.9-0.5,3-0.8c1.1-0.3,2.6,0,3.7,0c1.4,0,1.6-0.1,3,0.2c0.9,0.2,2-0.2,2.9,0.1c0.5,0.2,2.7,1,2.7,0.2
	c0-1.4-0.6-4.7-0.9-5.8c-0.3-1.3-0.6-1.8-0.9-2.7c-0.5-1.8-0.5-4.2-0.6-7.2c0-0.3-0.4-0.3-0.7-0.8c-0.2-0.3-0.6-4.4-0.1-4.9
	c1.9-2.4,0-4.6,0.5-6.7c0.1-0.7-0.1-1.6-0.4-2c-0.2-0.3-1.2-0.7-1.6-1.5c-1.8,0.2-2.2,0.2-2.6,0c-0.3-0.1-0.1-1.1-0.2-2
	c-0.2-1-0.3-1.9-0.2-2.1c0.2-0.3,2.5-1.8,2.6-2.2c0.2-0.4-0.3-2.4,0.7-3c1.1-0.7,2.4-3.4,2.4-3.4s0.3-0.5-0.5-0.5
	c-0.5,0-1.7-0.1-2.1-0.5c-0.3-0.3,0.1-0.7,0.1-1c0.2-1.5-0.1-2.3,0.4-5.5c0.3-2.4-0.1-7,2.5-8.3c0.2-0.1,0.9-0.7,0.9-0.9
	c0.2-1.3,0.6-2,1-2.9c0-0.1-0.1-0.2-0.1-0.3c-0.1,0.1-0.2,0.1-0.3,0.2c-0.4,0.4-1,0.5-1.5,0.1c0,0-0.1-0.1-0.1-0.1
	c0,0,0-0.1-0.1-0.1c0,0,0-0.1,0-0.1c0,0,0,0,0-0.1c0,0,0-0.1-0.1-0.1c0,0,0,0,0,0c0,0-0.1,0-0.1-0.1c-0.1,0-0.1-0.1-0.2-0.1
	c-0.1,0-0.1,0-0.2,0c-0.1,0-0.2-0.2-0.2-0.2l0,0h0c0,0-0.1,0-0.1,0l0,0l0,0c0,0-0.1,0-0.1,0c0,0,0,0,0,0v0l0,0c0,0,0,0,0,0
	c0,0-0.1-0.1-0.1-0.2c-0.1-0.1-0.1-0.2-0.1-0.3c0,0,0,0,0,0c-0.2-0.1-0.5,0.2-0.7,0c-0.1-0.1-0.3-1.2-0.6-2
	c-0.1-0.2-0.1-0.3-0.2-0.5c-0.1,0-0.1,0-0.1-0.1c0-0.1,0-0.3,0-0.4c-1.4,0-2-0.1-2.6-0.2c-0.8-0.1-0.9-1.1-0.2-1.4
	c0.7-0.3,0.9-0.4,1.2-0.6c0.4-0.2,0.4-0.3,0.5-0.6c0.1-0.2,0.8-3.6,4.4-3.7c3-0.2,4.4,2.1,4.6,3.5c0.3,0.5,0.5,0.6,0.9,0.8
	c0.6,0.4,1,0.6,1.3,0.9c0.3,0.3,0.3,1-0.3,1.1c-0.4,0-0.8,0-1.4,0c0,0.3,0.3,0.9,0.7,1.5c0.2-0.2,0.5-0.1,0.5,0.2
	c0.1,0.2,0.1,0.4,0.2,0.5c0.2,0.3,0.4,0.7,0.6,1v0c0.1,0.1,0.1,0.1,0.2,0.2c3.1,2.6,4.5,4.8,4.5,8.8c0,1.9,0.1,5.3,0.1,7.2
	c0,1.2,0.6,4,1.2,5.1c1.9,3.3,1.7,4.8,3.6,8.1c0.4,0.7,0.8,2.6,1.3,3.3c-0.5,0.3-1.9,0.3-2.2,0.7c-0.3,0.5-0.5,1.7-0.7,2.2
	c-0.2,0.5,0.4,1.4,0,1.6c-0.2,0.1-1-0.1-1.1,0.3c0.6,0.8,0.7,1.1,0.8,1.8c0.5,1.9-0.4,5.2-0.8,7.5c-0.3,1.9-0.5,2.6,0.3,3.8
	c0.7,1,1.7,3.6,2.1,5.5c0.5,2.6,1,4.7,1.4,7.7c0.4,2.6,0.9,2.9,3.4,2.5c1.6-0.2,2.9,0,4.3-0.1c1.2-0.1,2.5-0.7,3.9-0.6
	c1.2,0.1,2.5,0.7,3.8,1.2c0.9,0.3,2.9,0.2,3.7,0.2c1.9,0,1.5,0.6,2.4,0.6c2.2,0.1,4.6,0.3,6.5,0.4c2,0.1,3.2-1.7,2.8-4.4
	c-0.4-3.1-1.3-6.2-1.5-9.4c-0.1-1.5-0.3-2.3-0.7-3.5c-0.1-0.2-1.5,0.3-1.8,0.2c-0.2-0.1-0.4-1.6-0.4-1.8c0.1-2.4-0.8-4.8,0.7-7
	c0.5-0.7,0.6-1.7,0.9-2.6c0.4-1.5-0.5-3.7-1.3-3.5c-0.6,0.2-2,1-2.7,0.6c-0.4-0.3-0.5-1.6-0.4-2.4c0-0.6-0.2-3.5-0.2-4.8
	c0-0.4-0.9,1.5-1.6,2.5c-0.1,0.2-0.3,0.3-0.4,0.5c-0.1,0.1-0.1,0.1-0.1,0.1l-1.7-0.8c-0.2,0.2-0.4,0.5-0.5,0.6
	c-0.3,1.2-0.7,1.8-1,1.9c0.1,0.1,0.1,0.3,0.1,0.4c0,0.2-0.7-0.2-1.2-0.4c0,0.6,0.1,1.4-0.1,1.4c-0.5,0-0.7-1.9-0.7-2.3
	c-0.1-0.2-0.1-0.3-0.2-0.5c-0.1-0.4,0.3-1.2,0.7-1.9c0,0,0,0,0-0.1c0.1-0.1,0.2-0.3,0.4-0.5c0,0-0.1-0.1-0.1-0.1h0
	c0,0,0-0.1-0.1-0.1c0,0,0,0,0,0c0-0.1,0-0.1,0-0.2c0.1-0.1,0.2-0.3,0.3-0.5c0.5-0.6,0.8-1.3,1.2-1.9c0.1-0.1,0.1-0.2,0.2-0.3
	c0.4-0.5,0.9-1.1,1.6-1.7c0.6-0.5,1.2-3.6,1.2-3.9c0.1-0.3,0-0.7-0.1-1c-0.1-0.6-0.2-1.1-0.2-1.7c-0.4-3-0.7-3.4-1.4-6.2
	c-0.1-0.5-0.1-0.9,0.1-1.3c0.1-0.3,0.2-0.4,0.5-0.4c0.5,0,0.7-0.5,1.1-0.5c0.3,0,0.5-0.2,0.8-0.1c0.2,0.1,0.3,0.1,0.5,0.2
	c0.1,0.1,0.4,0,0.4-0.2c0.1-1,0.7-2.2,1.1-3.5c0.4-1.2,0.5-2.6,0.9-3.6c0.1-0.4-0.1-1.1-0.5-1.3c0,0-0.1-0.1-0.1-0.1l0,0
	c0,0-0.1,0-0.1,0c0,0,0,0,0,0c-0.1,0-0.2,0-0.2,0.1c0,0,0,0-0.1,0c0,0,0,0,0,0c-0.2,0.1-0.3,0.2-0.5,0.2c-0.3,0.1-0.4,0-0.6-0.2
	c-0.2-0.1-0.3-0.4-0.4-0.6c0,0,0,0,0,0c-0.1-0.1-0.2-0.2-0.3-0.3c-0.1,0-0.2-0.1-0.2-0.1c0,0,0,0,0,0l0,0c0-0.1,0-0.3,0-0.4
	c0,0,0,0,0,0c-0.2,0-0.3-0.1-0.3-0.3v0c0,0,0-0.1,0-0.1v-0.1c-0.1-0.1-0.2-0.1-0.4-0.1c-0.3,0-0.4-0.2-0.5-0.5c0,0,0-0.1,0-0.1
	c0-0.1,0-0.1,0-0.1c0,0,0,0,0,0c0-0.3,0-0.6,0-0.9c0-0.1,0-0.1,0-0.2v-0.3c-0.1-0.2-0.1-0.5-0.2-0.7c0-0.1-0.1-0.1-0.1-0.2
	c-1.6,0.1-2.1-0.1-2.6-0.4c-0.4-0.3-0.6-0.6-0.4-1c0.2-0.3,0.9-0.9,2.2-1.6c0.9-5.4,7-6.6,9.8-1.1c0.9,0.4,1.8,0.7,2.1,1
	c0.4,0.4,0.2,0.9-0.5,1.2c-0.9,0.4-0.7,0.3-2.3,0.7c0,0,0.2,1.7,0.8,2.1c0.1,0.1,0.1-0.2,0.4,0.2c0.6,0.8,0.4,1.5,1.3,1.9
	c3.1,1.4,3.4,0.2,5.5,5c1.3,3,2.4,5.5,2.4,12.2c-0.2,1,0.7,0.6,0.9,1.1c0.3,0.7,0.4,0.9,0.5,2.3c0,0.3-0.1,0.6,0,0.9
	c0.1,1,0.7,1.9,0.9,2.9c0.2,1-0.1,1.2,0,2.2c0.2,1.4,0.5,2.8,0.5,4c0,0.4-0.6,0.7-0.5,1.1c0.1,0.3,0,0.9,0.5,1.2
	c0.2,0.1,1.1,0,1.2,0.1c2.1,1.7,3.8,2.9,5.6,4.6c0.3,0.3,1.3,1,0.6,1.5c-0.1,0.1-0.2,0.2-0.3,0.2c-0.1,0-0.5-0.4-0.8-0.7
	c-0.8,1-1.4,2.3-2.4,3.1c0,0-0.1,0-0.1,0c-0.3,0.2-0.6,0.3-1,0.2c-0.7-0.1-1.9-1-2.1-0.8c-0.2,0.1,0.9,2.7,1,3.2
	c0.3,2,1.3,3.9,1.5,6c0.3,3.3,0.2,6.1,0.7,9.4c0.5,3.4,1.5,2.6-2,2.8c-0.4,0-1-0.2-1.5-0.2c-0.5,0-1-0.3-1.2-0.1
	c-0.1,0.2-0.2,1.9-0.1,2.3c0.3,0.8,0.6,2.6,0.8,3.8c0.2,0.7,0.2,1.6,0.5,1.9c0.3,0.4,1.3,0.9,1.6,0.9c0.7,0,6,0.5,6.8,0.8
	c1.4,0.4,2.1-0.3,3.4,0.1c0.4,0.1,1.9-0.1,2.5,0.2c1.1-0.3,2.2-0.8,3.4-0.8c0.1,0,0.2,0,0.2,0.1c0.4-0.2,0.7-0.3,1.1-0.4
	c0.1,0,0.1,0,0.2,0.1c1.1-0.5,2.1-0.5,2.5-0.6c0.3,0,1-0.1,1.5-0.3c0.3-0.5,0.6-1,0.7-1.5c0-0.3,0-0.6,0-0.9c0-0.1,0-0.1,0-0.2
	c-0.1-0.7-0.1-1.3-0.1-2c0-0.2,0-0.5-0.1-0.7c-0.2-2.3-0.7-4.7-0.3-7v-0.3c-0.4-0.5-1-0.8-1.1-1.4c-0.2-0.7-0.2-1.6,0-2.3
	c-1.4-0.5-2.3-1.6-2.3-1.8c0-0.3,0.8-4.4,1.4-5.9c1-2.4,0.5-4.1-0.8-6c-0.6-1-1.2-2.4-1.1-3.4c0-0.2,0.5-1.1,0.8-1.7
	c-0.2,0.1-0.4,0.2-0.6,0.2c-0.2,0-0.4,0-0.5,0c-0.1,0-0.1,0.1-0.2,0.1c-0.2,0.2-0.4,0.4-0.6,0.5c-0.3,0.2-0.5,0.5-0.8,0.7
	c-0.1,0.1-0.2,0.3-0.3,0.4c-0.1,0.2-0.3,0.3-0.4,0.2c0,0,0,0,0,0c0,0,0,0,0,0c-0.5-0.1-0.9-0.8-1.1-1c0,0,0,0,0-0.1
	c-0.4,0.7-0.8,1.4-1,1.8c0,0-0.3,0.4-0.3,0.4c-0.1,0.1-0.1,0.2-0.4,0.3c-0.1,0-0.3,0-0.4,0c-0.1,0-0.4,0-0.4,0c-0.1,0-0.2,0-0.4-0.1
	c0,0-0.3,0-0.4,0c-0.5-0.1-0.8-0.4-0.9-0.5c-0.1,0-0.2-0.1-0.3-0.2c-0.1-0.2-0.2-0.4-0.2-0.5c0-0.2,0.1-0.5,0.2-0.6
	c0.1-0.2,0.1-0.2,0.1-0.3c0,0,0.2-0.3,0.3-0.4c0,0,0.6-0.5,0.9-0.7c0.1-0.1,0.4-0.3,0.6-0.4c0,0,0.4-0.2,0.5-0.3
	c0,0,0.1-0.1,0.2-0.2c0,0,0-0.1,0-0.1c-0.1-0.3,0.2-0.5,0.4-0.6c0.6-0.3,1.1-0.7,1.6-1.1c0.8-1.5,1.3-3.2,1.8-4.8
	c0.8-2.2,0.2-3.5,0-4.8c-0.2-1.3,0-1.8-0.2-3.2c-0.1-0.6-0.1-2-0.2-2.5c-0.1-0.9,0.2-1.4,0.4-2c0.3-0.6,0.4-0.8,0.8-1
	c0.4-0.2,1-0.2,1.4-0.3c0.2-0.1,0.6,0,0.9,0c0.2,0,0.4-0.3,0.4-0.3c0.1-0.1,0-0.7,0-1.1c0.1-1.5,0.5-2.8,1.2-4
	c0.2-0.3,0.6-0.6,1-0.9c-0.1-0.2-0.1-0.4-0.2-0.6c0-0.1,0-0.1-0.1-0.2c-0.1-0.2-0.2-0.5-0.4-0.7c-0.1,0-0.5,0-0.7,0.1
	c-0.3,0.1-0.6,0.1-0.6,0.1c0,0-0.1,0-0.2-0.1c-0.1-0.1-0.2-0.2-0.2-0.2l0,0c0-0.1-0.1-0.2-0.1-0.2c0,0,0-0.1,0-0.1v0
	c0-0.1-0.1-0.3-0.1-0.4v0c0,0,0,0,0-0.1c-0.1-0.1-0.2-0.2-0.3-0.3c0,0,0,0,0-0.1c0,0,0,0,0,0c-0.1-0.1-0.1-0.1-0.1-0.2
	c0,0,0-0.1,0-0.2v0c0,0,0-0.1,0-0.1v-0.1c0-0.1-0.1-0.3-0.1-0.4c-0.1,0-0.1,0-0.2,0c0,0-0.1,0-0.1,0c-0.2,0-0.4-0.1-0.3-0.3
	c0-0.1,0-0.2,0-0.3c0-0.4,0-0.8,0.1-1.2c0-0.3,0-0.6-0.1-0.9c-1-0.1-1.7-0.1-2.4-0.3c-1.4-0.4-0.8-1.4-0.2-1.8
	c0.7-0.4,1.5-0.7,1.9-1.8c1.2-3.2,3.3-2.9,5.7-2.7c2.1,0.1,3.5,1.3,3.7,3c0.1,0.5,0.8,0.9,1.6,1.6c1,0.8,0.7,1.2-0.3,1.6
	c-0.5,0.2-1.6,0.3-1.6,0.3c0,0.7-0.1,1.8,0.4,2.8c0.1,0.3,1-0.2,1.2,0c0.2,0.3,0,1.4,0.2,1.7c0.5,0.7,1.1,1.1,1.5,1.4
	c1.8,1.5,2.9,3,4,5c0.6,1.3,1.3,3.3,1.8,4.6c0.6,1.8,2.1,4.2,3.1,5.6c0.7,1,0.7,0.5,0.8,1.5c-0.1,0.4-0.1,0.7-0.2,1.1
	c0,0.1-0.1,0.2-0.1,0.3c0,0.2,0,0.4,0.2,0.5c0.6,0.4,1.2,0.6,1.8,1c0.2,0.3,0.1,0.7-0.1,0.8c-0.1,0.1-0.1,0.1-0.1,0.1
	c-1.4,1.2-1.7,2.2-2.9,3.8c-1.4,1.9-1.9,3.3-2,5.7c0,3-0.1,4.6-0.3,7.6c-0.1,1.6,0.6,2.6-1.6,2.7c-0.9,0.1-1.8,0-2.1,0.1
	c-0.3,0.6-0.6,2.9,0.2,6.3c0,0.2,0.1,0.4,0.1,0.7c0.1,0.4-0.3,1-0.1,1.8c0.5,2.7,1.4,4.9,1.5,7.7c0,2.9,0.1,4.6,0.1,7
	c0,0.8,0.2,0.7,0.4,1.3c0.2,0.5,0.1,1.6,0.5,1.9c0.3,0.2,1.6,0.5,2.3,0.5c1-0.1,4.2-1.1,4.5-1c1.1,0.3,1.6,0.4,3.4-0.3
	c1.9-0.6,7.6-0.4,8.1-0.3c1.1,0.2,6,0.1,7.3,0.4c1.3,0.4,5.9-0.4,6.3-0.4c0.5-0.1,1.2,0.1,2.1,0.4c1.2,0.5,1.6,0.6,1.9,0
	c0.1-0.4,0.2-0.9,0.1-1.5v0c0-1.1-0.2-2.2-0.5-3.3c0,0,0,0,0,0c-0.2-0.9-0.3-1.8-0.5-2.6c-0.1-0.8-0.3-1.6-0.4-2.4
	c0-0.3-0.1-0.7-0.1-1c0-0.5-0.1-1-0.3-1.5c-0.1-0.2-0.3-0.4-0.5-0.4c-0.1-0.1-0.2-0.2-0.4-0.3c-3-2.1-3.7-5.7-3.3-9.2
	c0.1-1.3,0.3-4.4,0.3-5.7c0.1-1.2,0.6-1.6-0.2-3.5c-0.3-0.5,0.2-0.7-0.8-0.4c-0.4,0.1-0.8,0.4-0.8,1.4c0,0.5,0.2,1.5,0.2,2.1
	c0,0.6-0.5,1.3-0.4,1.9c0.1,0.6,0.5,1.6,0.6,2c0.3,1.2,0.1,1.7-0.9,2.3c-2.1,1.3-6.2,1.1-8.1-0.5c-0.8-0.6-1.2-1.2-0.5-2.3
	c1.4-2.2,1.4-4.6,0.7-7.1c-1.6-5.7-0.4-11,2.9-15.8c0.3-0.5,0.7-1,0.5-1.6c-0.9-2.6,0.5-2.7,2.5-2.4c1.1,0.2,2.1,0.1,2.2-1.5
	c0.2-2,1.1-4.3,1.3-6.3c0.2-1.8,0-3.2,0.2-5c0.2-2.4,1.6-3.1,2.2-3.7c0,0,0.1-0.1,0.1-0.2c-0.2-0.2-0.3-0.5-0.5-0.6
	c-0.2-0.2-0.4-0.3-0.7-0.3c0,0-0.1,0-0.1,0c-0.1,0-0.2,0-0.3,0h-0.1c-0.6,0.3-1.3,0.5-1.7,0c-0.1-0.2-0.2-0.4-0.2-0.6
	c0-0.1,0-0.3-0.1-0.3c-0.1,0-0.2,0-0.2,0c-0.1,0-0.1-0.1-0.2-0.2c0,0-0.1-0.1-0.1-0.1c0-0.1,0.1-0.3,0-0.4c-0.1-0.2-0.3,0-0.5-0.1
	c-0.1,0-0.1-0.2-0.1-0.3c0-0.2-0.1-0.4-0.1-0.5c0-0.1,0-0.1-0.1-0.2c-0.1-0.1-0.4-0.1-0.5-0.1c-0.1,0-0.1,0-0.2,0
	c-0.1,0-0.1-0.1-0.2-0.1c0,0,0,0,0,0c0,0-0.1,0-0.1-0.1c0,0-0.1-0.1-0.1-0.1c0,0-0.1-0.1,0-0.1c0-0.1,0-0.3,0.1-0.4
	c0.1-0.2,0.1-0.4,0.2-0.6c0-0.1,0.1-0.3,0.1-0.4c0-0.1,0.1-0.2,0-0.3c0,0,0,0,0,0c-0.1,0-0.1,0-0.2,0c0,0,0,0,0,0l-1.9-0.4
	c-0.3-0.1-0.6-0.3-0.7-0.6c-0.1-0.2-0.1-0.5,0.1-0.8c0.4-0.5,0.9-0.8,1.1-1c0.2-0.1,0.3-0.4,0.3-0.4c0.8-5.5,9.9-6.1,11.5-0.9
	c0.2,0.6,2.2,1.4,1.7,2.1c-0.4,0.5-1.1,0.8-2.3,1.1c-0.3,1.1,0.2,2.6,0.9,3.4c0.6,0.4,1.4,0.6,2.3,0.8c1.3,0.3,2.7,0.6,3.9,1
	c2.4,0.8,2.3,0.8,2.5-1.8c0.2-2.1,0.2-3.3,0.3-4.8c0-0.6,0.1-1.3,0.1-2.1c0-0.1,0-0.5,0.1-0.9c0.1-0.6,0.2-1.2,0.4-1.3
	c0.3-0.1,0.6-0.1,1,0c0.3,0.1,0.7,0.2,1,0.4c0.2,0.2,0.3,0.5,0.3,0.6c-0.1,0.4-0.7,0.5-0.7,0.8c-0.1,0.9-0.1,1.7-0.1,2.6
	c0,0.7,0,1.5-0.1,2.5c-0.2,2.4-0.2,4.8-0.3,5.2c0,0.1,0.1,0.4,0.3,0.4c0.7,0.1,0.4,0.6,0.3,0.8c-1.9,2.2-0.5,7.2,1.1,9.7
	c1.5,2.4,2.9,4.3,4.5,6.6c1.6,2.2,1.4,2.3-0.8,3.9c-0.9,0.7-2.1,1.4-1.4,2.7c0.9,1.9,1.1,4.4,2,6.4c0.8,1.8,0.5,1.9-1.2,2.4
	c-1.3,0.4-3.1,0.1-3.7,0.3c0,0.9,0,1.4,0,2.5c0,0.5-0.5,1.7-0.6,2.2c-0.5,1.8-1.7,3.7-1.3,5.3c0.6,2.6,0,4.1-1.6,4.9
	c-0.5,0.3-1.3,1-1.3,1.3c0,0.4,1.1,0.9,1.4,1.3c1.7,1.8,3.3,3.7,4.7,5.8c1.9,3.1,4.4,6.7,7.8,8.7c2.6,1.5-0.2,3.4-1.5,5.3
	c-0.7,1.1,1.1,1.3,1.7,1.6c1.5,0.9,1.8,1.8,1.8,2.7v4.3c0,0.1-201.8,0.1-201.8,0.1V142.5z M230.3,226.1v8.4H207v-8.7l13.3-47.2
	h-12.1v-8.4h22.4v7.9l-13.3,48H230.3z M153.7,289.5c0-14.2,2.2-24.7,6.7-31.7c4.4-7,12.9-10.5,25.4-10.5s21,3.5,25.5,10.4
	c4.5,7,6.8,17.5,6.8,31.8v76.3c0,14.7-2.2,25.9-6.6,33.5c-4.4,7.7-12.9,11.5-25.7,11.5s-21.3-3.8-25.6-11.4
	c-4.4-7.6-6.5-18.8-6.5-33.6V289.5z M153.5,223h-10.4l-1.4,11.5h-9.4l9.2-64.3h12.9l9.8,64.3H155L153.5,223z M190.6,191.2v-21.1h8.8
	v64.3h-6.9l-14-40l0.5,16.9v23.1h-9v-64.3h7.7l13.6,38.6L190.6,191.2z M98.6,187.1c0-11.8,4.8-17.7,14.4-17.7c5,0,8.5,1.5,10.7,4.5
	c2.2,3,3.3,7.4,3.3,13.2v29.4c0,9.3-2.5,15.1-7.5,17.4l6,7l-4.8,4.2l-9.2-10c-4.3-0.3-7.5-1.9-9.7-4.8c-2.2-3-3.3-7.6-3.3-13.8
	V187.1z M97.3,269.1c5.1-0.7,10-2.8,14.7-6.3c4.6-3.4,8.2-8,10.6-13.7h13.2v159.8H117V274.3c-2.1,2.5-5,4.4-8.7,5.8
	c-3.8,1.4-7.4,2-11.1,2V269.1z M98.6,423h201.8c0.9,0,1.5,0.7,1.5,1.5c0,0.9-0.7,1.5-1.5,1.5H98.6c-0.9,0-1.5-0.7-1.5-1.5
	C97.1,423.7,97.8,423,98.6,423 M291.1,491.4v13.4h-3.4v-31h2.7l7.2,21.1l-0.4-9v-12.1h3.2v31h-2.7l-7-21.3L291.1,491.4z
	 M297.2,466.4l-0.9-5.9h-5.6l-0.8,5.9h-3.5l4.7-31h4.4l5.1,31H297.2z M265.3,466.4v-31h6.5c1.8,0,3.2,0.4,4,1.1
	c0.8,0.8,1.3,2.1,1.5,3.9c0.1,0.8,0.1,1.9,0.1,3.5c0,1.6-0.2,2.9-0.6,4c-0.4,1.1-1.2,1.8-2.2,2.1c0.8,0.1,1.4,0.5,1.8,1.2
	s0.7,1.8,0.8,3.3s0.2,3.7,0.2,6.7c0,3,0.1,4.7,0.3,5.2H274c-0.2-0.4-0.3-3.9-0.3-10.4c0-2.2-0.2-3.5-0.7-3.9c-0.4-0.4-1.1-0.5-2-0.5
	l-2.2-0.1v15H265.3z M266.4,504.8h-3.6v-31h3.6V504.8z M271.1,482.3c0-3.5,0.6-5.9,1.9-7.3c1-1,2.4-1.5,4.3-1.5
	c2.8,0,4.5,1.1,5.3,3.4c0.5,1.3,0.7,3.1,0.7,5.4v13.7c0,3.2-0.5,5.6-1.4,7.1c-0.9,1.5-2.5,2.2-4.7,2.2c-2.3,0-3.8-0.7-4.8-2.2
	c-0.9-1.5-1.4-3.8-1.4-7V482.3z M249.2,476.9v-3h10.2v3h-3.2v28h-3.6v-28H249.2z M259.3,464.5c-0.9,1.5-2.5,2.2-4.7,2.2
	c-2.3,0-3.8-0.7-4.8-2.2c-0.9-1.5-1.4-3.8-1.4-7v-13.7c0-3.5,0.6-5.9,1.9-7.3c1-1,2.4-1.5,4.3-1.5c2.8,0,4.5,1.1,5.3,3.4
	c0.5,1.4,0.7,3.1,0.7,5.4v13.7C260.7,460.7,260.2,463,259.3,464.5 M244.6,448.2v3.1h-5.4v15.1h-3.6v-31h9.3v3h-5.7v9.8H244.6z
	 M239.1,473.9h4.4l5.1,31h-3.4l-0.9-5.9h-5.6l-0.8,5.9h-3.5L239.1,473.9z M191.9,491.4v13.4h-3.4v-31h2.7l7.2,21.1l-0.4-9v-12.1h3.2
	v31h-2.7l-7-21.3L191.9,491.4z M190.9,435.4h3.6v31h-3.6V435.4z M199.7,466.4v-31h9.3v3h-5.6V449h5.3v3h-5.3v11.3h5.7v3H199.7z
	 M205.8,473.9h9.3v3h-5.6v10.6h5.3v3h-5.3v11.3h5.7v3h-9.3V473.9z M213.3,463c-0.4-1.4-0.7-3.2-0.7-5.4v-3.2h3.5v3.2
	c0,2.3,0.2,3.8,0.5,4.7c0.3,0.9,0.9,1.3,1.8,1.3c0.9,0,1.5-0.2,1.8-0.6c0.3-0.4,0.5-1.1,0.6-1.9c0.1-0.9,0.1-1.8,0.1-2.9
	c0-2.1-0.9-4.2-2.8-6.1l-2-2c-1.8-1.9-2.9-3.6-3.4-5.1c-0.2-0.7-0.3-1.6-0.3-2.7c0-2.2,0.4-4,1.2-5.3c0.8-1.3,2.4-2,4.7-2
	c3,0,4.8,1.4,5.3,4.3c0.2,1.2,0.4,2.8,0.4,4.7v1.8h-3.5v-2.1c0-2-0.1-3.3-0.3-4c-0.2-0.7-0.4-1.1-0.7-1.4c-0.3-0.2-0.7-0.3-1.1-0.3
	c-0.9,0-1.5,0.3-1.9,1c-0.4,0.6-0.6,1.6-0.6,2.9s0.2,2.2,0.5,2.8c0.4,0.6,0.8,1.1,1.3,1.7c0.5,0.5,0.8,0.8,0.9,0.9l2.1,2.2
	c2.5,2.7,3.8,5.6,3.8,8.9c0,2.7-0.4,4.7-1.2,6.1c-0.8,1.4-2.4,2.1-4.7,2.1C215.9,466.7,214.1,465.5,213.3,463 M219.2,473.9h6.5
	c1.8,0,3.2,0.4,4,1.1c0.8,0.8,1.3,2.1,1.5,3.9c0.1,0.8,0.1,1.9,0.1,3.5c0,1.6-0.2,2.9-0.6,4c-0.4,1.1-1.2,1.8-2.2,2.1
	c0.8,0.1,1.4,0.5,1.8,1.2c0.4,0.7,0.7,1.8,0.8,3.3c0.2,1.5,0.2,3.7,0.2,6.7c0,3,0.1,4.7,0.3,5.2h-3.6c-0.2-0.4-0.3-3.9-0.3-10.4
	c0-2.2-0.2-3.5-0.7-3.9c-0.4-0.4-1.1-0.5-2-0.5l-2.2-0.1v15h-3.6V473.9z M184.1,487.5v3h-5.3v11.3h5.7v3h-9.3v-31h9.3v3h-5.6v10.6
	H184.1z M182.7,466.4c-0.2-0.4-0.3-3.9-0.3-10.4c0-2.2-0.2-3.5-0.7-3.9c-0.4-0.4-1.1-0.5-2-0.5l-2.2-0.1v15H174v-31h6.5
	c1.8,0,3.2,0.4,4,1.1c0.8,0.8,1.3,2.1,1.5,3.9c0.1,0.8,0.1,1.9,0.1,3.5c0,1.6-0.2,2.9-0.6,4c-0.4,1.1-1.2,1.8-2.2,2.1
	c0.8,0.1,1.4,0.5,1.8,1.2s0.7,1.8,0.8,3.3c0.2,1.5,0.2,3.7,0.2,6.7c0,3,0.1,4.7,0.3,5.2H182.7z M166.7,477.7c-0.3-0.7-1-1-1.9-1
	c-0.9,0-1.6,0.4-2,1.3c-0.4,0.9-0.6,2.4-0.6,4.5v13c0,2.5,0.2,4.2,0.5,5.2c0.3,1,1,1.5,2,1.5c1,0,1.7-0.5,2.1-1.5
	c0.4-1,0.6-2.7,0.6-5.2v-4h-2.5v-2.8h5.9v16.3h-1.9l-0.5-2.4c-0.7,1.8-2,2.7-4,2.7c-2,0-3.4-0.8-4.3-2.3c-0.9-1.5-1.4-3.9-1.4-7.2
	v-13c0-4.6,1.1-7.4,3.2-8.5c0.8-0.4,1.8-0.6,2.8-0.7c1.9,0,3.3,0.4,4.1,1.2c0.8,0.8,1.4,1.9,1.6,3.2c0.2,1.3,0.4,2.9,0.4,4.8v2.4
	h-3.5v-4C167.1,479.5,167,478.3,166.7,477.7 M158.5,464.5c-0.9-1.5-1.4-3.8-1.4-7v-13.7c0-3.5,0.6-5.9,1.9-7.3c1-1,2.4-1.5,4.3-1.5
	c2.8,0,4.5,1.1,5.3,3.4c0.5,1.4,0.7,3.1,0.7,5.4v13.7c0,3.2-0.5,5.6-1.4,7c-0.9,1.5-2.5,2.2-4.7,2.2
	C161,466.7,159.4,466,158.5,464.5 M109.3,466.3h-3.3l-4.4-24l0.3,11.6v12.4h-3.2v-31h4.5l4.4,25.5l4.2-25.5h4.6v31h-3.2v-12.4
	l0.3-11.6L109.3,466.3z M102.1,491.4v13.4h-3.4v-31h2.7l7.2,21.1l-0.4-9v-12.1h3.2v31h-2.7l-7-21.3L102.1,491.4z M116.4,473.9h9.3v3
	H120v10.6h5.3v3H120v11.3h5.7v3h-9.3V473.9z M121.5,466.4v-31h9.3v3h-5.6V449h5.3v3h-5.3v11.3h5.7v3H121.5z M131.9,473.9l2.6,23.7
	l3.5-23.7h3l3.6,23.7l2.2-23.7h3.3l-3.7,31H143l-3.3-22.9l-3.5,22.9h-3.5l-4.1-31H131.9z M149.5,466.4v-12.4l0.3-11.6l-4.2,24h-3.3
	l-4.4-24l0.3,11.6v12.4H135v-31h4.5l4.4,25.5l4.2-25.5h4.6v31H149.5z M98.6,514.1h201.8c0.9,0,1.5,0.7,1.5,1.5
	c0,0.9-0.7,1.5-1.5,1.5H98.6c-0.9,0-1.5-0.7-1.5-1.5C97.1,514.8,97.8,514.1,98.6,514.1 M251.9,182.9h-0.1l-3.9,32.3h8.4L251.9,182.9
	z M232.8,145.7c0.1,0.6,0.3,1.1,0.7,1.4c0,0,0,0.1,0.1,0.1c0.3,0.1,0.5,0.2,0.8,0.3c0,0,0.1,0,0.1,0.1c0.1,0,0.2,0,0.4-0.1
	c1.7-0.3,1.3-3,1.2-3.3c-0.4-1.4-1.3-4.4-2-6.4v0c0-0.1,0-0.2-0.1-0.3c-0.3-0.8-0.5-1.4-0.5-1.4c-0.1-0.3-0.3-0.8-0.4-1.3
	c0.1,0.3,0.2,0.7,0.2,1.1c0,0.1,0,0.1,0,0.1c0,0.3,0.1,0.6,0,0.9c0,0,0,0,0,0.1c0,0.2,0,0.3,0,0.5c-0.1,0.1-0.2,0.2-0.2,0.3
	c0,2.3-0.8,4.4-0.6,6.7C232.5,144.8,232.6,145.2,232.8,145.7 M321.4,25.8H77.9c-3.8,0-6.8,3.1-6.8,6.8s3.1,6.8,6.8,6.8h243.5
	c3.8,0,6.9-3.1,6.9-6.8S325.2,25.8,321.4,25.8 M180,109.3c0.2,0.1,0.3,0.2,0.4,0.3c0-0.2,0-0.3,0-0.6c0.1-0.3,0.3-1,0.3-1.2
	C180.5,108.2,179.8,108.8,180,109.3 M254.6,438.1c-1,0-1.6,0.4-2,1.3c-0.4,0.8-0.6,2.2-0.6,4.2v13.9c0,2.4,0.2,4,0.5,4.8
	c0.3,0.9,1,1.3,2,1.3c1,0,1.7-0.4,2-1.3c0.3-0.9,0.5-2.5,0.5-4.8v-13.9c0-2-0.2-3.4-0.5-4.2C256.2,438.5,255.6,438.1,254.6,438.1
	 M272.8,448.3c0.3-0.3,0.6-0.8,0.7-1.5c0.1-0.8,0.2-2,0.2-3.6V443c0-2.4-0.2-3.8-0.6-4.1c-0.4-0.4-1-0.6-1.9-0.6h-2.3v10.5h2.3
	C272,448.7,272.5,448.6,272.8,448.3 M179.9,438.3h-2.3v10.5h2.3c0.7,0,1.2-0.1,1.5-0.4c0.3-0.3,0.6-0.8,0.7-1.5
	c0.1-0.8,0.2-2,0.2-3.6V443c0-2.4-0.2-3.8-0.6-4.1C181.3,438.5,180.7,438.3,179.9,438.3 M241.4,479.6L241.4,479.6l-2.3,16.4h4.8
	L241.4,479.6z M226.7,486.8c0.3-0.3,0.6-0.8,0.7-1.6c0.1-0.8,0.2-2,0.2-3.6v-0.2c0-2.4-0.2-3.8-0.6-4.1c-0.4-0.4-1-0.6-1.9-0.6h-2.3
	v10.5h2.3C225.9,487.2,226.4,487.1,226.7,486.8 M277.2,502.1c1,0,1.7-0.4,2-1.3c0.3-0.9,0.5-2.5,0.5-4.8v-13.9c0-2-0.2-3.4-0.5-4.2
	c-0.3-0.8-1-1.2-1.9-1.2c-1,0-1.6,0.4-2,1.3c-0.4,0.8-0.6,2.2-0.6,4.2V496c0,2.4,0.2,4,0.5,4.8C275.5,501.6,276.2,502.1,277.2,502.1
	 M112.8,226.8c1.8,0,2.9-0.8,3.5-2.3c0.6-1.5,0.8-4.1,0.8-7.8v-30c0-3-0.3-5.3-0.9-6.7c-0.6-1.4-1.7-2.1-3.4-2.1
	c-1.7,0-2.8,0.7-3.5,2.1c-0.7,1.4-1,3.6-1,6.6v30c0,3.8,0.3,6.4,0.9,7.9C109.9,226,111.1,226.8,112.8,226.8 M148,182.9l-3.9,32.3
	h8.4l-4.3-32.3H148z M163.3,463.6c1,0,1.7-0.4,2-1.3c0.3-0.9,0.5-2.5,0.5-4.8v-13.9c0-2-0.2-3.4-0.5-4.2c-0.3-0.8-1-1.2-1.9-1.2
	c-1,0-1.6,0.4-2,1.3c-0.4,0.8-0.6,2.2-0.6,4.2v13.9c0,2.4,0.2,4,0.5,4.8C161.6,463.2,162.3,463.6,163.3,463.6 M177.7,392.7
	c1.8,1.5,4,2.2,6.6,2.2c2.6,0,4.4-0.1,5.5-0.4c1.1-0.1,2.4-0.7,3.7-1.8c3.9-3,5.9-11.6,5.9-25.9v-78.4c0-15.5-3.3-23.8-9.9-25
	c-1-0.2-2.5-0.3-4.4-0.3c-1.9,0-3.8,0.4-5.6,1.1c-1.8,0.7-3.4,2.9-4.9,6.4c-1.5,3.6-2.2,9.4-2.2,17.6V367
	C172.4,381.4,174.2,390,177.7,392.7 M293.4,441.1l-2.3,16.4h4.8L293.4,441.1L293.4,441.1z"/>
</svg>
