<?xml version="1.0" encoding="utf-8"?>
<!-- Generator: Adobe Illustrator 18.1.1, SVG Export Plug-In . SVG Version: 6.00 Build 0)  -->
<!DOCTYPE svg PUBLIC "-//W3C//DTD SVG 1.1//EN" "http://www.w3.org/Graphics/SVG/1.1/DTD/svg11.dtd">
<svg version="1.1" id="Layer_1" xmlns="http://www.w3.org/2000/svg" xmlns:xlink="http://www.w3.org/1999/xlink" x="0px" y="0px"
	 viewBox="0 54 22.2 21" enable-background="new 0 54 22.2 21" xml:space="preserve">
<path fill="#FFFFFF" d="M19.8,69.3c0.9-1.8,1.3-3.8,1.1-6c-0.6-5.8-5.8-9.9-11.6-9.3c-5.8,0.6-9.9,5.8-9.3,11.6s5.8,9.9,11.6,9.3
	c1.7-0.2,3.2-0.8,4.6-1.7c0,0,6,1.7,6,1.7C22.1,74.7,19.8,69.3,19.8,69.3 M10.9,66.5c-0.2,1-0.8,1.6-1.8,1.8
	c-0.3,0.1-0.7,0.1-1.1,0.1c-1.1-0.1-1.8-0.5-2.1-1.5c-0.1-0.3-0.1-0.7-0.1-1.1h1.9c0,0.3,0,0.6,0.1,0.8c0.1,0.2,0.3,0.3,0.6,0.3
	c0.3,0,0.5-0.1,0.6-0.3c0.1-0.2,0.1-0.5,0-0.7c-0.1-0.2-0.3-0.3-0.5-0.4c-0.2-0.1-0.4-0.2-0.6-0.2c-0.4-0.2-0.8-0.3-1.1-0.6
	C6.3,64.4,6.1,64,6,63.6C6,63.3,6,63,6,62.8c0-0.3,0.1-0.5,0.1-0.7c0.3-0.8,0.9-1.2,1.9-1.3c0.4,0,0.9,0,1.3,0.1
	c0.6,0.2,1.1,0.6,1.3,1.2c0.1,0.3,0.1,0.7,0.1,1.1H8.9l0,0c0-0.4,0-0.8-0.3-0.9c-0.2-0.1-0.4,0-0.5,0c-0.1,0.1-0.2,0.2-0.2,0.3
	c0,0.2,0,0.4,0,0.5c0.1,0.1,0.2,0.2,0.3,0.3c0.1,0.1,0.3,0.1,0.4,0.2c0.1,0.1,0.3,0.1,0.4,0.2c0.3,0.1,0.6,0.2,0.8,0.4
	c0.5,0.3,0.9,0.7,1.1,1.3C11,65.8,11,66.2,10.9,66.5 M15.3,68.2h-3.8v-7.4h1.9v5.8h1.9L15.3,68.2L15.3,68.2z"/>
</svg>
