<?xml version="1.0" encoding="utf-8"?>
<!DOCTYPE svg PUBLIC "-//W3C//DTD SVG 1.1//EN" "http://www.w3.org/Graphics/SVG/1.1/DTD/svg11.dtd">
<svg version="1.1" xmlns="http://www.w3.org/2000/svg" xmlns:xlink="http://www.w3.org/1999/xlink" id="svgTag" viewBox="0 0 1000 1000" >
	<defs opacity="0.1">
		<pattern id="patternTag" x="0" y="0" width="935" height="662" patternUnits="userSpaceOnUse" patternTransform="scale(0.6,0.6) rotate(-20)"  >
			<g opacity="0.3"> 
				<!-- handwriting-set-01_bullets_whistled.svg -->
				<defs>
				  <mask id="bullets_whistled">
				    <rect x="0" y="0" width="0" height="145" fill="rgba(255,255,0,1)">
						<animate id="row1" attributeName="width"
			                  from="0"  to="876"
			                  begin="2s" dur="10s"
			                  fill="freeze" repeatCount="0"/>
					</rect>
				  </mask>
				</defs>
				<g width="870" height="145" style="fill: #000000; mask: url(#bullets_whistled)"  transform="translate(0,0)"  >
					<path d="M750.8,31.2c-1.8,2.6-7.3,1.4-9.9,3.4c-2.8,2.1-5.6,5.7-6.4,9.1c-0.8,3.2-0.6,8.7,3.5,9.6c3,0.7,7.2-2.5,9.5-4.1
						c1.1-0.8,3.1-3.4,4.7-3.2c2.5,0.3,0.2,2.6,0.1,3.9c-0.4,4.3,4.5,5.3,7.8,4.5c3.7-0.8,6.8-3.4,10.4-4.1c4.9-1,2.2,3.7,5.8,4.5
						c4.8,1,10.9-11.9,15.6-6.6c2.2,2.5,0.1,7.2,5,7.5c4,0.2,6.9-3.2,9.2-5.8c1.7-1.9,3.3-3.1,4.4-0.6c0.5,1.2-0.7,2.8,0.7,3.8
						c1.1,0.8,3.3-0.5,4.2-1c2.8-1.7,6.1-5.7,9-2.6c2.7,2.8,2.3,3.3,6.6,3.3c-2,3.2-7.5,4.3-10.9,2.5c-2.3-1.2-1.6-2.1-4.1-0.9
						c-2.2,1-3.6,1.9-6.2,2.2c-4.1,0.4-7.3-0.6-11.4,0.9c-3.6,1.3-7.4,2.2-10.1-1.4c-2-2.7-1.1-6.4-4.9-3.3c-3.3,2.7-5.9,5.4-10.6,5.6
						c-1.4,0.1-2.5,0-3.6-0.9c-1-0.8-1.2-2.8-2.2-3.4c-1.4-0.7-3.4,1.1-4.5,1.6c-1.7,0.7-3.5,1.1-5.4,1.4c-3.8,0.7-7.2,0.6-10.1-2
						c-1.8-1.6-0.9-2.1-3.7-1.1c-2.2,0.8-4,2.2-6.4,2.4c-3.8,0.3-6.1-1.9-6.8-5.5c-0.2-1.1,0.2-3.7-1-4.4c-1.4-0.8-3.4,0.9-4.4,1.6
						c-6,3.9-16.6,10.4-22.6,2.8c-2.4-3-2.2-5-6.4-2.5c-1.9,1.2-8.9,7.1-9.9,2.8c-0.6-2.8,4.5-7.3-0.9-7.7c-1.6-0.1-3.5,0.4-5.1,0.6
						c-1.7,0.2-5,0-6.4,0.7c-1.2,0.6-1,1.6-1.6,2.6c-1,1.8-1.3,2.4-3.2,3.4c-3.1,1.6-8.4,3.9-12,2.6c-1.5-0.5-2.3-2.1-3.8-2.6
						c-1.9-0.6-4.2,0.2-6.2,0.4c-3.4,0.4-8.6,0.2-10.2-3.6c-2.3-5.7,8.6-14.6,13.8-13.1c5,1.4,1,6.3-2.5,6.9c-2.7,0.5-8.7-2.1-6.2,3.9
						c1.3,3.2,5.9,4.1,8.9,3.6c1.7-0.3,3.2-1.2,4.8-1.3c2.5-0.2,2.5,0.7,4.3,2.1c2.3,1.8,8.1,1.1,4.4-1.8c-0.9-0.7-2.4-0.5-2.4-1.9
						c-0.1-2.2,4.1-2.2,5.4-2.4c4-0.7,8.1-0.8,12.1-1.1c3.3-0.3,11.2-3.1,13.6,0.1c0.8,1.1,0.1,2.8,1.4,3.5c1.3,0.7,3.4-1.5,4.5-2
						c5.3-2.4,6-0.2,8.6,3.8c5.6,8.5,18.7-1.1,23.7-6.4c2-2.2,1-3.6,1.9-6c0.6-1.6,2.5-2.6,3.7-3.8c3.5-3.7,6.1-8.5,10.1-11.6
						c0.9-0.7,3.4-2.6,4.5-1.3c1.2,1.4-1.3,4.7-2,5.7C745.8,28.9,744.9,29.9,750.8,31.2C750.1,32.1,750.3,31.1,750.8,31.2z"/>
					<path d="M173,48.9c-5.7,0.8-9.1,5.1-13.4,8.7c-7.9,6.6-1.1-4.3-2.2-6.8c-1.2-3-6.9,3.2-8.9,4.5c-4.6,2.9-9.5,7.1-15.4,6.8
						c-2.7-0.2-4.7-2.4-7.4-2.3c-2.6,0.1-5.3,1.9-7.9,2.3c-2.8,0.5-5.6,0.5-8-1.2c-1.9-1.4-2.3-4.4-4.8-3.6c-1.7,0.5-3.8,2.7-5.7,3.5
						c-2.2,0.9-4.7,2.1-7,2.6c-2.3,0.5-3.9,0-5.4-2c-1.7-2.3-0.1-5.9-1.8-7.8c-2.3-2.4-8.2,2.3-10.8,3.3c-3.3,1.2-4.5,1.7-7.7-0.1
						c-3.3-1.7-3.6-2-7,0.3c-3,2.1-12,6.8-14.2,1.2C44.1,55,48,44.8,51.3,43.5c3-1.3,2.3,1,1.8,2.8c-0.8,2.8-2.5,6.1-1,9
						c3.1,6.2,10.4-4.4,12.8-6.1c4.1-3.1,3.9,4.4,7.7,5.6c4.6,1.5,11.2-4.3,13.7-7.8c3-4.2,4-9.6,6.4-14.2c1.5-2.9,6.9-13.1,11.5-11.6
						c5.4,1.7-13.1,23.5-13.9,26.7c-0.9,3.4-1,11.1,3.3,12.7c3.1,1.2,10.7-4.4,12.3-6.8c2-2.9,1.5-8.1,3-11.5c2-4.6,4.9-8.9,8.4-12.6
						c1.6-1.8,8.5-10,11.6-7.9c3.6,2.4-4.5,12.8-6.1,15.3c-1.6,2.4-3.2,4.7-4.9,6.9c-1.7,2.1-4.4,4.3-5.5,6.8c-2.5,5.2,3.7,9.1,8.2,8.5
						c2-0.2,4.9-0.7,6.1-2.6c1-1.6,0.4-4,1.1-5.8c1.5-3.4,8.9-9.3,12.8-8.4c5.7,1.4-2.8,8.5-4.7,10c-1.7,1.4-4.3,2.9-2.6,5.2
						c1.4,1.9,5.2,1.2,7.2,0.7c5-1.3,10.1-5.9,13.6-9.5c4.3-4.5,7.1-9.3,9.2-15.1c0.7-1.9,2.1-5.8,3.8-7c3.2-2.4,3.4,1.3,2.5,3.6
						c-1.1,3-3.2,5.5-4.5,8.4c-1.2,2.9-2.1,6.1-3,9.2c-2.3,8.2,5.6,0.6,8.5-0.8c3.7-1.8,13.2-3.3,11.9,3.9c-0.4,2-2.5,4.6-4.1,5.8
						c-1.3,0.9-5.2,2.2-5.2-0.4c0-2.6,3.9-2,4.4-4C178.2,49.7,175,49,173,48.9C170.9,49.2,173.8,48.9,173,48.9z M111.1,45.1
						c-0.3,5.6,5.2-2.2,6.4-3.8c1.4-1.9,2.7-3.9,4-5.9c1.1-1.9,4.3-5.8,4.4-7.9c0.1-4.7-6.4,2.2-7.6,3.6
						C115.8,33.9,110.6,41.1,111.1,45.1C111.1,45.4,111,44.1,111.1,45.1z M132.2,53.4c2.4-0.2,9.2-8.5,3.9-7.8
						C133.6,45.9,128.3,53.5,132.2,53.4C133,53.3,131.2,53.4,132.2,53.4z M93.5,38.3c1.2,0.7,8.6-9,6.6-10.6
						C97.7,25.7,93.9,36.9,93.5,38.3C93.6,38.4,93.7,37.8,93.5,38.3z"/>
					<path d="M843.3,48c-2.3,2.5-4.8,7.4,0.7,7.3c1.7,0,5.1-1,4.8-3.2c-0.2-1.5-2.7-0.7-2.1-2.6c0.8-2.6,10.4-3.5,12.9-4.5
						c2.9-1.1,8.5-4.4,8.9,0.5c0.2,2.8-3.9,7.5,0.5,8.4c3.7,0.8,8.6-2.9,11-5.3c1.1-1.1,2.7-3.1,4.1-1.5c1.5,1.6-0.6,3,2.2,4
						c3.7,1.3,10.9-3.5,14.4-4.8c1.6-0.6,3.4-1.6,5.2-0.9c1.4,0.5,2,2.3,3.6,2.7c1.8,0.4,3.9-1,5.5-1.8c3.1-1.6,2.8-2.2,3.2-5.4
						c1.1-8.9,8-18.4,16.2-22.1c3.2-1.4,7.4-1.5,6.2,3c-1.1,4.3-6.2,9.4-9,12.8c-1.8,2.3-7.9,6.4-8.4,9.3c-0.6,3.9,5.5,5.1,8.1,4.8
						c1.7-0.2,4.7-1.6,6.4-1c1.7,0.7,1.7,2.6,2.4,4c2.8,6.1,6.4,0,9.5-2.6c3.5-3,6.7-2.1,7,2.6c0.3,4.4-1.6,9-2.4,13.4
						c-0.7,3.8-1,7.6-2.7,11.1c-1.7,3.4-6,5.3-8.5,1.4c-0.7-1.1-1.3-3.4,0.5-4c1.7-0.5,3,2.2,4.6,2c2.8-0.4,3.1-9.6,3.4-11.7
						c0.3-1.7,2.7-10.7,0.7-11.9c-1.3-0.7-2.5,1.5-3.3,2.2c-1.9,1.8-3.9,2.6-6.4,3.4c-4.2,1.4-6.8,0.7-8.6-3.5c-2.1-4.8-3.2-2.7-8-3.2
						c-3.6-0.4-6.4-4.1-9.7-3.4c-4.3,1-8.4,3.7-11.3,6.7c-2.1,2.2-6.6,4.6-9.1,1.1c-3.5-4.8,5.5-3.9,6.2-5.7c1.4-3.6-8.5,1.3-9.3,1.5
						c-4.6,1.2-7.7,3.3-12.4,2.1c-3.2-0.8-3.6-0.1-6.4,1.5c-2.2,1.3-4.8,1.9-7.4,2.1c-5.7,0.5-5.4-1.9-4-6.3c0.6-1.9,1.9-4-0.4-5
						c-1.6-0.7-3.8,0.5-5,1.4c-3.5,2.5-3.5,6.9-7.9,8.7c-2.4,1-12.1,4.4-13,0.4C835.7,53.7,842.3,46.1,843.3,48
						C843,48.3,843.2,47.9,843.3,48z M922.4,38.6c1.5,2.7,4-1.9,5.1-3.3c2.3-2.8,7.6-7.4,8.3-11.1c1-5.2-5.3-0.2-6.8,1.4
						C926.1,29,923.6,34.5,922.4,38.6C922.6,39,922.6,38,922.4,38.6z"/>
					<path d="M354,50c0,2.9-1.9,4.2-4.5,4.9c-2.6,0.6-6.2,0.2-3.4-2.5c0.9-0.8,2.4-0.6,2.7-2.1c0.2-1-0.7-2.6-1.6-3.1
						c-1.7-1-2.4,0.3-3.8,1.4c-1.5,1.1-3,1.5-4.6,2.3c-6.3,3.2-12.8,7.2-19.7,3.3c-1.4-0.8-1.7-1.4-3.4-1.3c-1.9,0.1-3.7,1.8-5.6,2.1
						c-4.8,0.6-4.8-2.4-6.9-5.4c-3.4-4.7-11.3,7.6-12.9,1.3c-0.9-3.3,3.1-7.5,3-10.8c-0.1-4.3-4.1,0.2-6.2,1.1c-3.9,1.6-5,1.5-6.8,5.6
						c-1.5,3.4-3.4,5.8-6.7,7.5c-2.9,1.5-5.9,2.6-8.9,1.1c-1.7-0.9-2-1.9-4.1-1.8c-1.8,0.1-3.1,1.2-5,0.6c-8-2.2-2.8-13.3,1.1-16.9
						c1.9-1.7,6.7-3.1,3.6,0.4c-1,1.1-1.8,0.9-2.5,2.4c-0.7,1.6-1.2,4.8-0.9,6.5c0.7,3.6,2.9,4.3,5.8,3.5c1-0.3,1.7-1.1,2.8-0.6
						c1.5,0.7,1.6,3.2,3.4,3.9c2.4,0.9,5-0.9,6.4-2.8c0.9-1.3,1.8-3.5,1.9-5.1c0.1-1.4-1-3.1,0.2-4.4c0.8-0.8,1.8-0.6,2.8-0.6
						c2.6,0,3.7,0.5,6.1-0.7c3.2-1.5,5.7-3.6,8.2-6c5.5-5.4,6.6-13.9,11.3-20.1c1.5-1.9,4.7-5.9,4.9-1.5c0.2,3.7-2.8,7.7-4.6,10.7
						c-1.7,2.9-4.2,5.4-5.7,8.4c-1.8,3.6-2.8,7.7-4.1,11.4c-0.9,2.8-2.6,7.8,2.2,5.4c2.5-1.2,5.4-5.6,8.7-4.4c3,1.1,1.5,6.1,4.4,7.7
						c3.8,2.2,5.8-3.3,9.3-2.9c2.6,0.4,3.8,4.2,6.9,4.7c3.5,0.5,8.2-2,11.2-3.7C345,46,352.2,39.5,354,50C354,52.1,353.9,49.2,354,50z"
						/>
					<path d="M545.7,49.6c5-0.9,9-3.3,13.8-4.7c2.5-0.7,4.2,0.7,6.6,0.3c3.2-0.6,5.4-3.3,8.9-1.9c3,1.3,2.3,2.6-0.1,3.9
						c-2.7,1.4-3.4,0.5-6,0.6c-5.5,0.3-4,7.3-7.7,9.5c-6.4,3.8-1.3-6.4-2.6-8.2c-2.2-3.2-10.2,2.1-13.4,2.7c-2.3,0.4-4.8,0.8-7-0.1
						c-2.3-0.9-2.5-2.8-4.3-3.9c-3.4-2.3-8.3,1-11.1,2.8c-3.9,2.6-9.6,6-13.9,2.5c-3.6-2.9-1.2-9.4-4.5-11.5c-2.7-1.7-10.3,0-11,3.2
						c-0.6,2.5,0.5,3.7-1.7,5.9c-2.1,2.2-5.6,4.1-8.6,4.8c-6.4,1.6-5.9-4-4-8.2c1.1-2.3,2.5-4.5,4.4-6.1c2.8-2.2,4.7-1,8.1-1.4
						c3.1-0.3,6.1-1.3,9.2-1.5c2.3-0.2,5.8-1.2,8-0.6c4.1,1.1,2.2,9.7,6.3,12.4c2.1,1.4,4.9,0.7,6.7-1c1.9-1.9,0.7-4.3,2.1-6.1
						c2-2.5,3.9-0.2,5.8,0.8c2.4,1.2,4.2,0.7,6.4-0.5c2.4-1.3,5.7-4.4,8.6-4.4c3,0.1,2.4,2,0.6,3.5c-1.4,1.1-6,1.9-6,4.1
						C539.4,48.8,544,49.5,545.7,49.6C546.4,49.4,543.7,49.5,545.7,49.6z M489.8,47.6c0.1-1.6-2.2-5.1-4.1-4.6c-1.5,0.4-3.1,5-3.2,6.5
						C482.2,55.3,489.5,51.8,489.8,47.6C489.8,46.7,489.6,50.5,489.8,47.6z"/>
					<path d="M31.6,34c-0.2-5.3-3.6-9.2-8.6-7.6c-1.2,0.4-4.4,2-5.2,0c-0.8-2,4.9-4,6.3-4.2c4.6-1,7.7-2.8,9.6-7.6
						c1.2-3.2-0.1-12.2-5.5-10.6c-2,0.6-1,2.2-2.3,3.3c-1.4,1.2-2.3,0.3-3.5,2c-1.4,1.8-2.2,5.6-3,7.7c-1.3,3.4-2.6,6.8-4,10.1
						c-1.9,4.9-3.5,10-5.1,14.9c-1.7,5.1-2.5,11-6.3,15.1c-1.1,1.2-3.3,3.8-4.1,1.4c-0.6-1.9,2.6-6.1,3.4-7.7c2.2-4.6,3.8-9.3,5.4-14.2
						c1.7-5.3,4.1-10.3,5.9-15.5c2-5.7,3.9-11.7,6.9-16.9c1.6-2.7,2.2-3.6,5-3.9c2.2-0.2,5.8-0.6,8.1,0c5.5,1.4,6.1,8.6,4.1,13
						c-1.6,3.5-8.2,6.8-7.2,10.6c0.5,2,2.6,3.5,3.2,5.6c0.8,2.7,0.3,5.7-0.1,8.4c-1.1,6.2-2.3,11.3-6.9,15.9c-2,2-10.7,8.1-12.1,1.7
						c-0.8-3.5,2.5-2.3,4.3-2c2.5,0.5,4.6,1.4,6.5-0.6C30.5,48.8,31.1,39.5,31.6,34C31.5,32.4,31.6,34.4,31.6,34z"/>
					<path d="M398.2,49.1c-1.9,2.9-6.6,3.1-9.7,3.8c-4.1,0.9-6.7,1.1-10.5-0.6c-3.4-1.5-5.1,0.7-8.5,1.2c-1.2,0.2-2.8,0.5-3.9-0.1
						c-1.2-0.6-1.2-1.8-2.1-2.5c-1.4-1.2-3.8,0.4-4.5-0.7c-0.5-0.8,5.1-6.9,5.8-7.9c3.9-5.9,6-12.8,9.7-18.9c0.9-1.5,4.1-7.2,5.9-7.2
						c3.1,0.1-0.3,4.9-1.2,6.5c-1.4,2.7-4.2,6-5.1,8.8c-0.9,2.9,2.1,2.7,4.4,1.2c2.3-1.5,2.4-4.7,3.3-7.1c1.2-3.4,3.3-6.5,6.5-8.4
						c2.9-1.7,4-0.5,2.6,2.4c-1.5,3.3-4.2,6.1-5.8,9.4c-1.5,3.3-1.3,7.4,0.7,10.2c1.1,1.5,1.9,1.2,1.3,3.3c-0.5,1.8-2.7,2.8-3.8,4
						c-2.3,2.6-1,4.3,2.3,4.5C390.1,51.4,394.1,48.4,398.2,49.1C397.5,50.3,397,48.9,398.2,49.1z M368.1,46.7c-0.3,5.5,5.5,4.9,8,2
						c1.5-1.8,2.4-3.3,4.2-4.8c1.8-1.5,2.1-1.4,1.4-3.8c-1.3-4.5-3.8-7.1-8.5-4.6C370.2,37.1,368.4,43.5,368.1,46.7
						C368,47.8,368.1,46.4,368.1,46.7z"/>
					<path d="M400.1,48c3.9-2.8,9.7-5.4,12.6-9.1c3-3.8,4.5-9.1,6.6-13.4c0.4-0.8,4.3-10.6,5.4-5.6c0.3,1.5-1.9,4.7-2.5,6.2
						c-1.1,2.5-2.3,5-3.4,7.6c-1,2.6-4.3,10-2.7,12.6c0.8,1.4,4,1.9,3.8,3.9c-0.1,1.5-3.6,2.3-4.8,2.2c-1.9-0.2-3-2.4-4.8-2.4
						c-1.7,0-2.6,2.6-4.3,2.6c-2.9,0-0.4-3.3-1.8-4.7C403.3,46.9,401.4,48.4,400.1,48C403,45.9,400.5,48.1,400.1,48z"/>
					<path d="M179.4,32.6c2.4,0,0.8,2-0.3,2.8c-0.8,0.5-6.4,2.4-7.4,1.7C167.7,34.3,179.2,32,179.4,32.6
						C179.6,32.6,179.4,32.5,179.4,32.6z"/>
					<path d="M980.3,56.1c-4-0.9,0.3-5,2.6-4.4C986.1,52.4,982.6,56.2,980.3,56.1C980,56,982.4,56.1,980.3,56.1z"/>
					<path d="M338.2,38.2c-3.3,0-2.1-3.7,0.7-3.5C342.8,35,340.3,37.3,338.2,38.2C337.1,38.2,338.8,38,338.2,38.2z"/>
					<path d="M752.4,31c2.1-1,4.3-1.2,6.7-0.8C758,31.5,754.2,32,752.4,31z"/>
				</g>




				<!-- handwriting-set-01_bully beef.svg -->
				<defs>
				  <mask id="bully_beef">
				    <rect x="0" y="0" width="0" height="144" fill="rgba(255,255,255,1)">
						<animate id="row1" attributeName="width"
			                  from="0"  to="531"
			                  begin="12s" dur="3s"
			                  fill="freeze" repeatCount="0"/>
					</rect>
				  </mask>
				</defs>
				<g width="531" height="144" style="fill: #000000;mask: url(#bully_beef)" transform="translate(180,80)" >
					<path d="M56.1,51.1c6.5-9.2,11.3-15.4,9.1-27.2c-1.5-7.9-10.7-18-19.9-17.7C34.8,6.6,22.7,52.3,29.7,55.3
						c6.8,2.9,17.2-5.1,23.4,1.5c5,5.3,5.9,18.6,5.9,25.6c-0.1,9.5-2.2,17.1-8.1,24.7c-3.3,4.2-17.6,14.2-21.2,3.3
						c-3.2-10,12.8-4.7,16.4-6.2c4.8-2,7.5-17.7,7-22.5c-0.7-7.3-6.2-17.9-13.8-17.7C25,64.2,21.1,75.5,17.1,86.5
						c-2.3,6.3-4.9,23.5-10.8,27.1c-11.4,6.9-1.1-12.8,0.3-16c9-19.9,12.5-40,17.6-60.9c2.2-9.2,2.1-25.3,9.3-32.1
						C40.6-2.2,53-0.2,60.6,4.1c9.2,5.2,14.5,14.3,13.3,25.2C73.4,33.3,61.2,57.3,56.1,51.1C57,49.9,56.3,51.3,56.1,51.1z"/>
					<path d="M209.1,83.7c-2.5,5.2-7.4,10.4,0.6,13.6c6.3,2.5,15.2-2.3,20.3-5.3c3.3-2,10.2-8.4,14.3-5.1c3.8,3.1,0.2,10.6,3.6,14.6
						c8.7,10.2,26.1-20.8,24,6c-0.8,9.9-3.7,34.5-16.5,36.1c-4.4,0.5-12.6-3.1-12.8-8.3c-0.2-8.6,12-5.6,16.9-9.8
						c2.1-1.8,5.1-13.6,4-16.1c-3-6.5-9.1,1.6-13.5,3.4c-16.1,6.5-10.3-17.7-22.4-15.7c-7.9,1.3-14.1,8.3-22.9,7.6c-3-0.2-5.5-2-8.4-2.6
						c-3.4-0.7-6.4-0.3-9.8-0.7c1.8-4.7,5.2-7.6,6.5-12.8c2-7.7,2.9-13.9,7.2-20.9c7.2-11.7,13-23.6,23-33.5c8.7-8.6,27.8-15.3,19.9,4.7
						c-3.1,7.8-14.1,29.7-22.6,31.8c0.8-10.5,13.4-19.4,16-30.1c3.7-15.2-12.8-2-16.6,3.3c-5.2,7.1-10.6,14.1-14,22.2
						c-1.3,3.1-4.9,11.2-3.7,14.5C204.5,86.4,206.7,81,209.1,83.7C208.8,84.3,209,83.5,209.1,83.7z"/>
					<path d="M467,106.8c-7.4,9.2-19.2,6.7-29.3,6.4c-6.6-0.2-12.6,3.4-19.3,2.5c-5.6-0.8-9.1-6.1-14.1-7c-9.6-1.7-20.1,7.1-29.4,7.6
						c-5.3,0.3-13.1-2.2-7.9-8.1c3.4-3.9,10-1.7,11-8.6c0.5-3.3-3-10.1-5.9-11.7c-5.6-3.1-8.6,0.9-12.1,4.6c-3,3.2-16.4,28.9-18.2,19.8
						c-1-4.8,7.6-11.5,9.6-15.3c2.4-4.6,2.6-10.7,4.2-15.7c3-9.4,5.3-29,14.1-34.6c3,9.5-10.2,23.8-5.5,31.1c2.4,3.7,9.8,2,13.4,3.7
						c5.1,2.4,6.5,7.3,8.1,12.4c2.4,7.2,7.1,14.7,16.4,9.6c3.4-1.8,14.8-22.3,20.3-11.2c2,4.2-4.4,6.3-4.4,10.1c0,5.8,8.5,7.6,13,6.5
						c6.2-1.4,5.7-5.4,9.3-10.2c2.8-3.7,7.4-7,11.4-9.2c12.6-6.6,8.4,2.1,3.5,9.4C445,114,464.8,101.7,467,106.8
						C466.6,107.4,466.9,106.6,467,106.8z"/>
					<path d="M163.5,113.2c-7.8-0.2-8.7-9.6-15.3-10.6c-6.3-1-13.2,7-18.1,9.5c-7.7,3.9-15.3,4.2-22.4-0.7c-3.5-2.4-4.3-5.2-8.9-4.7
						c-4.9,0.5-9,6-13.7,7.3c-6.5,1.7-13.7-0.1-14.1-7.8c-0.2-3.1,2.6-9.5,5.6-10.9c4.7-2.2,3.5-0.8,6,2.1c3.5,4.1,1.4,7.2,8,8.4
						c3,0.6,5.3-0.4,8-1.5c3.7-1.6,6.7-6.3,11.6-5.7c4.5,0.5,5.6,4.6,9.3,6.8c13.4,8,31-6.7,35.3-18.8c2.9-8.3,4.4-16.5,9.1-24.1
						c2-3.3,12.1-19.2,18-16c12.9,7-17.1,38.1-19.8,43.8c-1.5,3.2-1.6,6.8,0.1,10c2.6,4.9,5.5,3.2,9.3,5.5c2.6,1.5,3.6-0.8,3.4,2.8
						C174.7,111.9,165.6,113.2,163.5,113.2C160.2,113.1,168.5,113.2,163.5,113.2z"/>
					<path d="M479.3,99.5c3.8-4.6,9.5-7.2,13.6-11.6c4.1-4.4,5.7-9.9,7.9-15.3c5.2-12.8,9.7-25.5,17-37.2c10-16.3,15.6-1.2,11.3,11.2
						c-2.2,6.4-5.8,12.7-9.3,18.5c-2.7,4.5-11.2,11.3-12.4,16c-1.2,4.6,4.3,4.6,3.5,8.7c-0.7,3.7-11.9,7-14.6,10.4
						c-7.9,10-6.8,25.7-12.8,36.6c-2,3.7-7.4,8.8-9.4,2.8c-1-3.1,5.2-13.4,6.2-15.9c2.1-5,7-13.3,7.2-18.9
						C487.7,94.4,481.5,104.4,479.3,99.5C479.7,99,479.4,99.8,479.3,99.5z M512.1,61.2c0.3,0.6,0.6,1.2,0.9,1.8
						c1.7-0.9,9.5-8.9,6.4-11.5C515.1,48,512.6,58.9,512.1,61.2C512.4,61.8,512.6,59.2,512.1,61.2z"/>
					<path d="M369,38.9c2-4.5,4.1-13.8,7.7-17.3c3.3-3.1,3.2-3.8,4.4,0.6C382.6,27.4,375.1,49.9,369,38.9
						C370.3,35.8,369.8,40.3,369,38.9z"/>
					<path d="M218.1,74.1c0,1.3-4.1,7.7-5.6,5.1C211.5,77.4,216.7,73.8,218.1,74.1C218.1,76.4,217.7,74,218.1,74.1z"/>

				</g>
				<!-- handwriting-set-01_Gallipoli.svg -->
				<defs>
				  <mask id="gallipoli" x="0" y="0">
				    <rect x="0" y="0" width="0" height="525" fill="rgba(255,255,255,1)">
						<animate id="row1" attributeName="width"
			                  from="0"  to="535"
			                  begin="5s" dur="2s"
			                  fill="freeze" repeatCount="0"/>
					</rect>
				  </mask>
				</defs>
				<g width="535" height="183" style="fill: #000000;mask: url(#gallipoli)" transform="translate(0,224)" >
					<path d="M388.5,126.1c12.9,0,13.7-19.9,29.9-23.2c18.7-3.9,21.3,11.1,33.2,11.8c13.7,0.8,25.9-29.6,33.4-38.5
					c3.7-4.5,20.3-21.1,21.3-10.1c1.3,14.1-50.8,40.4-26.5,60.3c14.9,12.3,18.1-12.1,27.4-12c9.9,0.1,2.7,8,8.3,10.5
					c2,0.9,13.9-0.6,14.7,0.9c5.5,9.7-53.4,14.7-61.1,7.3c-10.9-10.5,2.5-21.4-17.4-11c-12.6,6.6-20.2,13.5-35.2,16.1
					c-13,2.3-21-1.6-33.1-4.9c-3.3-0.9-13.5-2.8-16.4-3.2c-11-1.8,0.6-6.8-8.4-4.8c-7.7,1.7-30.7,48.9-37.1,42.9
					c-6.1-5.7,27.7-44,17.7-51.4c-2.5-1.8-15.2,5-18.1,6.3c-11.1,4.6-16.2,4.7-28,5.6c-7.1,0.5-14,2.6-21.1,3.8
					c-15.7,2.6-13.4-0.1-26.2-5.3c-10.2-4.2-2.4-2.4-13.4-1.3c-7.6,0.8-17.8,7.1-26,8.7c-13,2.5-15.6-0.5-26.6-3.6
					c-12.1-3.4-15.6-0.6-29.1,3c-11.9,3.2-11.7,1.3-23-0.9c-9.9-1.9-15.8,2.6-25.2,2.1c-28.1-1.3-3-29.1,9.6-35.4
					c4.6-2.3,25.4-9.3,30.7-3.1c8.7,10.4-7.4,16.5-5.4,25.2c3.6,15.8,32,1.6,38.4-5.4c10.4-11.5,15.7-29.4,26-42
					c5.8-7.1,36.5-46.6,49.9-32.7c20.2,20.9-64.4,62.1-62.6,78.7c2,18.6,37.9,4.1,46-1.7c17.3-12.2,21.2-36.1,37.5-50.4
					c22.3-19.6,29.2-5.4,13.2,15c-6.4,8.3-33.5,25-28.8,37.7c4.1,11.1,16.1,6.1,23.2,3.9c4.8-1.5,8.2-5,13.5-5.8
					c6.7-1,12.6,3.5,19.5,2.5c18-2.7,33.2-20,43.7-33.4c3.3-4.2,11.5-24.9,16.3-26.3c11-3.3,3,8.4,0.8,13.3c-1.8,3.9-29.9,41-22.5,45
					c6.5,3.4,12.9-13.9,22.7-8.2C381.8,116.5,371.9,127.2,388.5,126.1C390.2,126.1,384.7,126.4,388.5,126.1z M239,47.7
					c-1.9-5.2-62.9,59.2-42.4,56.6c7.4-0.9,31-27.9,35.1-32.5C235.2,68,254.5,47.7,239,47.7C239,47.5,239.3,47.7,239,47.7z M129.3,99.3
					c-8.9,1.8-40.6,20.4-21.4,27.6C119.5,131.3,149.2,103.4,129.3,99.3C128.2,99.6,130.7,99.6,129.3,99.3z M424.3,107.7
					c-10.9,1.6-26.5,12.2-9.5,20.4C430.3,135.6,444.9,108.4,424.3,107.7C422.3,108,429,107.9,424.3,107.7z M278.5,81
					c0.1-9.9-14.9,8.5-14.9,13.5C268.8,93.3,276.1,85.6,278.5,81C278.6,78.5,278.3,81.4,278.5,81z"/>
					<path d="M59.3,108.7c-1.6-9.7-35.3,17.3-46.4-3c-1.6-2.9-0.3-8.4-2.1-11.4c-0.7-1.2-8.3-5.2-8.3-5.1c-2.6-11.3,2.3-3,8.6-8.2
					c14.5-11.9,23.2-30.6,37-44.6c8.1-8.2,29.9-32.2,42.6-29.4c-2.4,6.5-16.4,10.9-21.9,15.4c-6.2,4.9-11.1,11.2-16.3,17
					c-5.7,6.3-36.9,39.1-17.9,39.3C46.9,78.7,67,57.1,75.6,49.2c12.8-11.7,38-31.7,18.8-44.9c6.5-8.6,17.2-3.8,18.4,5.4
					c1,8.1-13.3,22.7-18.4,28C81.3,51.2,65.3,66,49,75.4c-7.3,4.2-46.4,27-14.5,31.9c13.4,2.1,38.4-35.7,38.3-11.5
					c0,15.2-13.9,39.1-20.1,53.3c-3.5,8.1-9.1,23.6-17.3,28.9c-6,3.8-23.8,6.1-24-6.8c-0.1-7.5,10.9-9.7,15.3-8.7
					c6.9,1.6-2.5,17.6,10.6,2.4C47.4,153.1,57.6,123.8,59.3,108.7C59.1,107.5,59.1,110.1,59.3,108.7z"/>
					<path d="M529.9,76.3c11.6,0.4-1.4,9.1-1.4,8.9C528.3,85.9,516.9,76.3,529.9,76.3C533.9,76.4,528,76.3,529.9,76.3z"/>
					<path d="M322.5,77.9c-12-3.2,2.1-6.4,2.3-7.3C324.7,71.2,335.4,76.5,322.5,77.9C321.3,77.6,324.6,77.7,322.5,77.9z"/>
				</g>
				<!-- handwriting-set-01_I volunteered on.svg -->
				<defs>
				  <mask id="i_volunteered_on" x="0" y="0">
				    <rect x="0" y="0" height="110" fill="rgba(255,255,255,1)">
						<animate id="row1" attributeName="width"
			                  from="0"  to="965"
			                  begin="8s" dur="7s"
			                  fill="freeze" repeatCount="0"/>
					</rect>
				  </mask>
				</defs>
				<g width="965" height="110" style="fill: #000000;mask: url(#i_volunteered_on)" transform="translate(0,407)">
					<path d="M403.4,27.5c-3.7,9.7-8,18.1-10.2,28.5c-3,14.5,7,18,18.1,10.3c4.3-2.9,7.8-11.2,11.5-13.3c4.4-2.5,4.6-0.2,3.4,4.3
					c-2.3,8.6-16.7,17.5-24.8,17c-3.9-0.2-9-1.7-11.4-4.8c-2.9-3.7-0.2-7.6-5.1-7.8c-6.6-0.3-17.2,22.9-27.3,15.8
					c-4.3-3,0.7-8.5-1.3-10.4c-2.3-2.3-6,2.2-8.2,3.4c-2.5,1.3-4.2,2.4-7,2.4c-3.9,0-4.5-2.4-7.6-2.9c-4.3-0.6-12.1,3.5-16.2,1.3
					c-7.5-4.2,2.8-18.9-7.9-8.9c-4,3.7-5.6,7.8-12,7.6c-2.8-0.1-4.4-2.2-7.1-2.6c-3.4-0.5-6.2,1.7-9.3,2.6c-4.8,1.4-8.7,2-12.8-1
					c-3.5-2.6-7.2-9.2-12.7-8.7c-4.9,0.4-3.2,5.3-7.5,6.3c-3.9,0.9-2.5-3.1-5.8-3c-6.3,0.2-13.8,22.2-22.7,10
					c-2.7-3.7,8.7-28.7-5.1-15.6c-1.8,1.7-10.9,26.5-12.7,13.4c-0.5-3.9,6.5-9.1,4.2-13.1c-3.3-5.9-8.9-0.9-11.6,2.7
					c-3.5,4.8-12.6,24.6-17.5,10.1c-1.1-3.3,1.6-5-2.2-6.5c-1.5-0.6-5.2,2.7-7.1,3.1c-3.1,0.6-6-0.8-8.7-0.1c-4.6,1.2-5.8,6.1-11.4,4.8
					c-5.7-1.3-4.3-5.5-6.8-9.2c-1.6-2.4-5.3-6.9-9.7-4.3c-3.5,2-2.9,9.9-6.2,12.9c-4.2,3.8-8.8,4.1-11.9-1.2c-3-5.1,1.9-11.6-0.6-15.6
					c-2.5-4.1-6.2-3.1-8.2,0.1c-3.4,5.2,0.6,10.1-5.5,15.1c-3.8,3.2-9.6,6.2-14,2.5c-4-3.4-0.5-9.4-2-13.5C77.9,47.3,67.7,65.4,65,70.2
					c-7.1,12.2-3.6-5.9,0.3-10.3c6.1-6.9,18.1-15.1,20.6-2.5c0.5,2.7-0.9,11.1,1.6,12.9c3.3,2.5,8.8-1.8,10.9-4.5
					c5.2-6.3-1.1-9.2,1.6-14.8c2.7-5.5,10.6-1,14.6-0.8c4.4,0.2,8.5-1.9,12.5-0.5c3.8,1.4,6.4,8.2,11.8,5.1c8.7-5,6.2-21.9,10.5-29.7
					c1.9-3.4,7.9-13,12.3-12.5c7.2,0.7,3.8,10.2,2.3,14.8c-1.6,4.8-3.2,10.8-6.4,14.8c-4.1,5.2-10.1,6.5-12.7,13.2
					c-1.8,4.8-2.1,13.8,4.9,14c7.7,0.2,9-11.5,12.9-15.5c9.8-10-4.8,13,8.1,8.3c6.4-2.3,14-20,11.4-2.9c-1.4,9.1-1.8,17.7,6.4,5.6
					c3.5-5.1,5.3-11.6,12.4-12.3c4.3-0.4,6.9,2,10.9,1.9c3.8-0.2,8.9-6.3,12.9-1.8c3.8,4.3-1.8,8.9-2.2,13.1c-1.4,16,16.1-2.7,19.7-7.4
					c2.5-3.3,16-33.3,17.5-33.1c6.6,1.1-12.8,31.2,1.9,34.5c8.3,1.8,8-9.3,14.2-13.1c3.4-2.1,4.2-3.3,7.8-0.9c1.8,1.2,3,8.3,5.1,8.4
					c2.1,0.1,13.3-18.8,16.8-6.2c1.6,5.8-7.5,9-9,13.4c-3.2,9.3,5.9,3,9.9-0.6c2.4-2.2,11.4-14.8,15.9-11.5c3.3,2.5-7.8,13.5-4.9,17.2
					c3.8,4.8,13.1-1.3,15.1-4.4c2.6-4.2,2.6-16.5,9.4-18c8.5-1.8,4.5,10.4,3.8,10.2c-3.5-0.7-2.1-9.7-6.3-0.4c-2.2,4.8-1.3,5,3.1,5.6
					c-0.6,3.1-11.6,11.4-0.3,10.1c3.7-0.4,6.8-5.2,10-7c4.6-2.5,8.8-3.9,13.2-7c4.1-3,7.8-6.4,13.1-7c4.3-0.5,7.1,1.8,10.5-0.7
					C390.7,47,400,24.1,403.4,27.5C403.2,27.9,403.3,27.4,403.4,27.5z M380,55c-0.7-4.8-31.2,18.6-16.7,19.3
					C369.3,74.7,388.4,55,380,55C380,55,380.2,55,380,55z M149,41.2c2.7,6.3,18.7-19.4,13.2-22.4C155.8,15.2,149.7,37,149,41.2
					C149.1,41.6,149.1,40.1,149,41.2z M126.1,60.9c-1.7-8.7-10.1-5.5-11,2.2C113.7,76,125.7,70.2,126.1,60.9
					C125.9,60,126,64.2,126.1,60.9z M274.8,60.9c3.7-0.8,15.9-9.5,6.3-12.4C277.7,47.4,267.4,60.8,274.8,60.9
					C275.6,60.7,272.2,60.8,274.8,60.9z M289.6,61.1c-1.1-5.3-2.5-2.8-6.5-1c-1.2,0.6-10.9,4.2-11.1,4.7C270,71,287.4,65.9,289.6,61.1
					C289.4,60,289.3,61.8,289.6,61.1z M293.7,57.2c3,4.9,9.2-4.3,8.3-6.6C299.4,43.7,294.4,54.4,293.7,57.2
					C294,57.7,294.5,53.9,293.7,57.2z"/>
					<path d="M567.6,55.2c0.2-3-2.4-5.1-1.8-7.9c0.7-3.2,4.4-6.2,6.1-9.1c2.9-5.1,1.3-13.1,4.3-17.3c5.2-7.4,7,2.7,6.7,7.5
					c-0.5,7.5-7.3,15.1,3.5,16c19.2,1.6,18.1-19.9,23-33c1.9-5.1,6.7-16.8,11.8-7.8c2.5,4.4-0.1,11.6-1.8,15.7c-2,5-3.5,10.3-6.3,14.8
					c-2.3,3.6-10.3,8.6-10.7,12.4c-0.7,5.5,5.9,7,10.6,8c11.1,2.2,5.5-4.1,11.5-9.7c3.6-3.4,12.4-4.1,14,1.9c1.9,6.9-7.6,7.1-9.6,11.1
					c-5.7,11.2,26.6,2.9,27.9,4.9c2.8,4.2-26.8,3.9-29.8,2.4c-4.7-2.4-6.8-5.2-12.5-6.7c-5.6-1.5-11.1-3.4-16.1-2.5
					c-3.9,0.7-3.7,6.1-4.9-1.5c-0.3-1.7,3.2-3.6,2.4-5.4c-1.3-2.8-4.2-1-6.6-1.3c-7.8-0.8-9.9-0.4-13.7,5.5
					C573.4,56.7,567.6,65.5,567.6,55.2C567.7,53.1,567.6,56.1,567.6,55.2z M617.2,11.5c-1.5,0.7,0-4.1-3.7,2.3
					c-0.9,1.6-6.8,17.9-4.7,19C614.2,35.6,617,13.5,617.2,11.5C617.3,11.4,617,13.5,617.2,11.5z M625.8,51.5c-0.1,5.5,9-0.1,8.8-3.6
					C634.1,41.8,625.9,47.3,625.8,51.5C625.7,53.6,625.8,48.2,625.8,51.5z"/>
					<path d="M7.6,71.1c8.8,1.5,15.4-2,20.6-8.7c4.7-6.1,5-8.9,3.7-15.5c-1.5-7.8-2.7-15,0-22.7C33.1,20.5,38.3,6.4,43,7.5
					c5.1,1.2,3.9,14.1,3.5,17.5c-0.5,4.4-6.7,20.7-5,24.3c3,6.2,12.7,1.3,15.7-2c1.3-1.5,8.7-17.9,10.5-17.3c4.6,1.6-9.2,20.8-11,22.4
					c-4.4,3.7-6.9,2.9-11.9,3.1c-6.9,0.2-6.3,1.1-10.7,7.3c-6.6,9.2-11.8,14-23.6,13C2.2,75.1-4.9,71.1,7.6,71.1
					C11.5,71.8,5.6,71.1,7.6,71.1z M41.5,27.8c0.4-2,0-3.6-1.4-4.7c-4.7-1-7,17.4-3.1,18.1C39.2,41.7,41,29.7,41.5,27.8
					C41.3,26.3,41,29.6,41.5,27.8z"/>
					<path d="M445.5,61.6c0.4-7.6,10.6-14.1,17.1-16.6c9-3.5,12.8,4.9,21.1,3.7c8.4-1.2,12.4-9.3,16.7,3.3c1,2.8,0,6.8,2.7,8.9
					c1.9,1.4,7.5-0.6,8.2,1.3c1.3,3.7-11.6,2.1-13.8-1.9c-1.5-2.8,0.4-10-3.2-11.5c-7.5-3.3-9.7,25.9-14.3,10
					c-0.9-3.1-1.4-11.6-8.4-8.4c-3.4,1.5-1.1,10.1-4.2,13.5c-2.9,3.2-11.5,6.6-15,3.3C448.2,63.2,454.5,56.1,445.5,61.6
					C445.7,58.1,446.6,60.9,445.5,61.6z M466.2,55.4c-0.9-9.8-10.9-0.8-10.1,4.9C457.3,69.2,466.3,61.6,466.2,55.4
					C466.2,54.7,466.3,59.1,466.2,55.4z"/>
					<path d="M718,25.6c16.4,2.9,9.5,14.5,1.9,24c-3.2,4-7,6.1-1.4,9.3c5.1,3,7.6-1.5,10.3-3.9c1-0.9,2.5-7.6,3.7-0.3
					c1,5.6-5.4,9-9.8,9.2c-3.8,0.1-6.3-2.4-9.6-3.2c-2.4-0.6-5.1-0.2-7.3-0.8c-3.1-0.8-9.7-2.9-10.5-7c-1.1-6.1,5-3.6,8.3-2.5
					c5.2,1.8,6.9,3.1,11.8,0.4c7.1-4,17.4-21.3,2.4-21.7c-9.5-0.3-4.5,6.4-7,12.2c-2.4,5.5-7.9,7-11.1,1.4
					C691.4,28.3,717.6,29.4,718,25.6C720.2,26,718,25.7,718,25.6z M707.1,36.5c-0.2-3.6-2.7-3.4-4.5-0.7
					C699.2,41.1,707.1,44,707.1,36.5C707.1,36.2,707.1,38.2,707.1,36.5z"/>
					<path d="M826.8,89.1c2-8.1,6.5-15.8,9.8-23.4c0.9-2,3-4.9,2.5-7.1c-0.6-2.5-3.9,0.3-4.7-1.4c-0.6-1.5,4.4-4.4,4.8-5
					c1.3-2.4,1.6-5,1.4-7.7c-0.6-8.2-4.7-5.9-9.7-1.8c-2.7,2.2-9.2,6.7-10.2,10.1c-2.2,6.9,2.2,3.6,6.3,5.7c-2.6,3.1-9.8,3-10.8-1.6
					c-0.7-3.3,4.6-7.3,6.1-9.5c3-4.3,6.1-8,10.9-10.5c2-1,3.6-3.1,6.2-2.3c3.2,1,1.9,4.7,3.8,6c3.5,2.2,5.2-0.9,6.4,4.2
					c1.3,5.4-4.6,14.9-6.6,19.5c-3.3,7.4-6.6,15.2-10.4,22.3C831.6,88.5,827.2,96.8,826.8,89.1C827,88.3,826.9,90.8,826.8,89.1z"/>
					<path d="M932,53.8c-0.7-9.7,3.8-20.2,7.7-28.8c1-2.2,3.3-11.2,5.6-11c4.1,0.3-0.6,7.9-1.4,10.1c-3.4,8.6-7.8,20-7.1,29.4
					c0.3,4.7-0.5,5.6,4.8,6.9c4.6,1.1,13.2-3.1,15.8-7c6.9-10.2-6.1,3-8.8-0.8c-3.4-4.9,9.4-12,13.7-9.1
					C976.4,53.4,930.3,80.5,932,53.8C931.7,49.8,931.9,54.8,932,53.8z"/>
					<path d="M767.8,27.3c7.3,0.4,7.3,5.6,5.8,10.7c-1.4,4.9-2.7,0.5-2.3,5.7c0.2,1.8,3,3.7,3.2,6.2c0.3,4.9-4.8,12-9.9,11.7
					c-2.1-0.1-12.8-6.9-10.7-10.2c2.9-4.7,7.9,5.1,10.2,5.2c6,0.4,6.9-6.7,4-9.8c-3.6-3.9-10.5-2.6-12.1-9.7
					C754.2,29.7,761.8,28.1,767.8,27.3C770.9,27.5,766.7,27.5,767.8,27.3z M765,37.4c2.8,0,8-5,2.8-5.6C765.1,31.5,761.7,37.5,765,37.4
					z"/>
					<path d="M771.9,94.5c2.9-7.5,6.5-12.3,10.9-18.8c4.2-6.3,6.5-15.5,12.3-20.4c1.3,7.1-8.7,21.9-11.9,28.1
					C782.7,84.6,772,104.2,771.9,94.5C772.1,94.1,772,96.1,771.9,94.5z"/>
					<path d="M917.6,40.3c-1.1,5.6-2.3,17.6-6.1,21.8c-5.3,5.8-6.3,1.5-4.3-4.6c1.4-4.3,3.3-14.4,6.2-17.5
					C915,38.2,917.1,35.2,917.6,40.3C916.8,44.2,917.5,39.7,917.6,40.3z"/>
					<path d="M678.1,33.9c-0.7,6.7-5.5,26.1-14.9,25.3c0.7-7.4,8.5-14.1,9.9-21.9c0.3-1.7-0.6-6.7,1-7.8C677,27.6,678.8,33.6,678.1,33.9
					C678.1,34.3,678.2,33.8,678.1,33.9z"/>
					<path d="M913.3,19.7c0.2,3.8-3.9,9.7-7.5,11c-8.7,3.2-0.9-4.1-0.4-6.8c0.8-3.8-2.8-6.4,0.2-10.2C909.9,8.1,913.2,14.5,913.3,19.7
					C913.4,22.4,913.2,16.7,913.3,19.7z"/>
					<path d="M534.6,45.6c-0.5,4.2-17.2,20.7-19.7,15c-0.3-0.7,15.6-11.3,15.3-17.1c-0.1-1.7-4.2-6.7-0.4-7.3
					C533.7,35.8,534.6,43.3,534.6,45.6C534.2,48.8,534.6,41.7,534.6,45.6z"/>
					<path d="M856.2,106.3c0.7-2.2,7-20.3,11.1-19.6C871.7,87.5,856.2,116.9,856.2,106.3C856.3,106,856.2,108,856.2,106.3z"/>
					<path d="M885.7,35.4c0-1.6,0.7-2.4,2.1-2.6c1,3.8-3.5,15.8-6.4,18.5C878.4,45.2,886.8,41,885.7,35.4
					C885.9,35,886.1,37.6,885.7,35.4z"/>
					<path d="M877.4,64.3c-0.5,1.4-4.8,15.3-6.3,14.6C869.6,78.3,875,59.6,877.4,64.3C876.7,66.5,877.1,63.9,877.4,64.3z"/>
					<path d="M891.1,23.6c0,1.8-0.7,3.1-1.9,4.1c-2.7,0.3-3.5-6-0.5-6.1C890.5,21.6,890.2,23.3,891.1,23.6
					C890.7,24.8,891.1,23.6,891.1,23.6z"/>
					<path d="M799.6,46.7c0-3.3,1.2-8.4,4.3-10.2C804.5,38.3,801.5,47.2,799.6,46.7C799.6,46.3,799.7,46.7,799.6,46.7z"/>
				</g>
				<!-- handwriting-set-01_leaving brisbane.svg -->
				<defs>
				  <mask id="leaving_brisbane" x="0" y="0">
				    <rect x="0" y="0" height="145" fill="rgba(255,255,255,1)">
						<animate id="row1" attributeName="width"
			                  from="0"  to="870"
			                  begin="10s" dur="8s"
			                  fill="freeze" repeatCount="0"/>
					</rect>
				  </mask>
				</defs>
				<g width="870" height="145" style="fill: #000000;mask: url(#leaving_brisbane)" transform="translate(0,517)">
					<path d="M250,110.3c-0.5-3.4,4-8.4-0.4-10.1c-3.7-1.4-12.4,4.7-16.1,5.6c-1.8,0.4-4.6,1.4-4.3-1.5c0.2-2.2,4.4-3.1,6.1-3.7
					c4.7-1.7,12.5-2.1,16.1-5.9c2-2.1,4.1-5.3,5.4-7.9c1.1-2.2,1.9-4.8,2.5-7.2c0.3-1.3,3.2-7.6,2.7-8.9c-1.1-3.3-4.9-0.2-6.8,1.3
					c-3.9,3-7.8,6.6-13.4,5.7c-2.1-0.3-2.9-2.3-4.6-2.7c-2.7-0.7-2.5,0.4-5.1,2c-2.7,1.7-9.4,4-12.2,1.6c-5.7-5,8.3-22.6-7-17.2
					c-3.9,1.4-6.4,4.9-8.8,8.1c-1.5,1.9-5.2,11.1-7.5,10.9c-5.3-0.5-0.2-7,0.6-9.1c2.7-6.7-1.7-9.1-8.2-8.7c-5.5,0.4-10.6,4.9-14.9,8
					c-3.5,2.6-6.6,8.7-11.1,9.5c-6.8,1.2-6.5-3.8-6.4-8.3c0.2-6.9-2.9-3.3-7.8-3.6c-6.1-0.3-5.4-3-9.7,2.2c-2.3,2.8-6,7.4-9.7,8.2
					c-12.3,2.8,1.2-16.8-5.5-17.4c-3.1-0.3-8.4,7.9-10.1,9.9c-3.1,3.6-7.1,8.1-11.8,9.5c-2.1,0.6-4.3,0.9-6-0.8
					c-1.3-1.3-0.6-4.9-2.5-5.6c-2.5-0.9-10.8,6.1-14,6.7c-1.6,0.3-6.3,1-7.8-0.4c-1.5-1.4-0.5-1.8-0.9-3.6c-0.4-1.6,0.6-3-1.4-4
					c-2.1-1.1-7.3,2.9-9.6,3.2c-4.2,0.6-6.4-2.9-10.6-2.2c-4.1,0.6-9.7,5.9-14,3.8c-3.5-1.7-3.3-7.6-6-10c-3.1-2.7-9.1,0.4-12.2,2.5
					c-4.8,3.2-7.7,9.4-12.4,12.4c-3,1.9-6,1.5-4.3-2.6c1.8-4.2,9.4-8.5,13-11.2c4.4-3.2,11.4-3.5,15-7.5c3.2-3.7,1.9-8.4,3-12.8
					c1.6-6.2,5.1-12.5,7.8-18.3c1.6-3.5,12.4-27.9,17.4-18.9c1.6,2.8,0.2,11.3-0.5,14.4c-0.9,4.1-3.1,8.7-4.8,12.6
					c-2,4.6-4.2,9.2-7.4,13.1c-3.3,4.1-8,8.1-9,13.6c-2.3,12.4,12.8,9.6,16.9,1.8c2.5-4.7,1.4-23.1,10-22c3.8,0.5,5.3,6.2,5.1,9.4
					c-0.3,4.3-5.1,7.9-7.6,11.4c-8.8,12.5,13.5,1.8,17.7-1.1c5.1-3.5,21.1-17.1,24.8-5c1.4,4.6-3.9,9.3-2.4,13.9
					c1.8,5.5,6.5,0.9,9.1-1.7c3.8-3.8,14.6-20.7,21.2-13.1c3.9,4.5-2.4,8.6-1.6,12.9c1,5.5,6.5-0.3,8.5-2.7c2.7-3.2,2.9-7.4,4.9-10.6
					c4.1-6.5,3.3,2.6,5.5,4.8c7.1,7.1,13.4-10.4,18.1-8.8c5.2,1.7-11.4,18.9-3.3,21.3c2.8,0.8,10-7.4,12.2-9.1c4.6-3.3,10.3-7,16.1-7.6
					c5-0.5,8.7,3.6,13,3.4c2.3-0.1,4.6-2.8,6.7-3.8c2.6-1.3,5.5-1.7,8.4-1.8c14.1-0.3-0.3,13.4,4.9,18.6c5.4,5.4,16.7-11.6,19.4-14.6
					c3-3.3,7.3-6.7,11.7-7.8c2.2-0.5,4.2-0.5,6.4,0.1c1,0.3,6.8,1.1,7.3,1.5c3,2.3-0.4,8.8-1,11.8c-1,5.4-2.5,10.6-4.1,15.8
					c-1.7,5.3-3.4,10.8-5.5,16C256,101.2,253.6,108.8,250,110.3C249.8,108.8,251.4,109.7,250,110.3z M52.8,24c-1.6-8.7-5.5,1.4-7.4,5.2
					c-3.1,6.1-6.6,12.3-8.2,19.1c-2,8.3,4.5,1.2,6.7-2.3C47.8,39.9,51.6,31,52.8,24C52.6,22.9,52.7,24.5,52.8,24z M79,77.3
					c5.5-1.3,10.4-4.8,14-9.2c2-2.4,5.8-7.1,0.7-7.8C90.6,60,82.3,66,80,68.1C78,69.9,72.5,77.1,79,77.3C79.8,77.1,76.4,77.2,79,77.3z
					M254.2,58.5c-5.4,1.8-19.1,17.2-7.5,14.3C252.6,71.4,269.2,59.9,254.2,58.5C253.6,58.7,256.8,58.8,254.2,58.5z M63.3,53.8
					c-2.9-3.9-5.9,2.9-4.9,4.7C60.2,61.8,63,55.2,63.3,53.8C63,53.3,62.8,56.1,63.3,53.8z"/>
					<path d="M357.5,35.9c-1.8,4-5.6,7.2-7.1,11.1c-0.9,2.2-0.4,5.4-0.9,7.7c-0.3,1.3-2.1,4.8-1.9,6.2c1.3,9.5,12.2-5,13.8-8.6
					c1.4-3.3,1.5-7.5,6.3-7.6c3.7,0,5.9,3.7,6.1,7.1c0.2,3.6-5.1,11-2.8,14.2c2.5,3.4,7.7-1.1,9.7-2.8c4.3-3.4,5-6.7,7.9-10.9
					c2.3-3.3,3.5-3.3,4.1,0.6c0.5,3.2-3.3,10.2-0.1,13.1c3.5,3.2,7.6-3.2,9.6-5.6c5-6.1,9.5-13.7,15.5-19c9.9-8.8,12.4,9.7,9.5,10.4
					c-2.3-6.1-3.4-12.1-10.4-5.2c-3.3,3.3-9.2,10.2-10.5,14.5c2.2,0.4,3.9-0.2,6-0.2c2.4,0,5.1,1.6,7.4,1c2.6-0.7,5.7-7.4,7.5-7.2
					c0.6,3.9-0.4,5.1,3.3,5.9c3.2,0.7,8.3-1.8,10.9-3.6c6.5-4.5,7.5-13.9,9.2-21.1c1.5-6.4,3.5-12.7,6.5-18.6
					c1.7-3.4,11.3-22.2,14.6-9.1c1.3,5.2-3.1,18.1-5.6,22.5c-1.2,2.1-8.6,16.3-10.9,14.8c-1.9-1.3,7-11.3,7.8-12.9
					c1.1-2.3,7.7-21.7,3.9-22.7c-3.8-1-13,23.9-14.3,26.9c-0.9,2.2-4.4,7.6-3.3,9.9c1.4,3,4.7,0.1,3.3,4.5c-0.9,2.7-10.4,10.4-3.9,13
					c6.6,2.6,12.1-14,13.8-16.9c4.6-8,14.4-3.7,21.6-4.4c3.2-0.3,8-3.1,10.9-0.1c2.7,2.8-1.4,9.9-1.5,13.2c-0.2,9,6-0.2,9.3-3.5
					c2.2-2.2,4.6-5.3,7.6-6.3c4.2-1.5,7.4,1.6,11.7,0.9c3.4-0.5,8.7-1.6,11.6,1.3c2.8,2.7,0.4,6.7,2.5,9.2c2.7,3.2,8.7,1.1,11.1-1.4
					c2.6-2.7,1.5-7,3.6-10.3c1.7-2.6,5.8-6.6,9.3-5.8c3.2,0.8,4.2,6.9,0.9,8.4c-3,1.4-0.7-2.6-3.4-3.2c-2.9-0.6-8.1,7.4-0.9,6.7
					c-4.7,9.5,5.5,7.5,11.5,4.7c8-3.8,13.4-9.7,18-17.1c4.3-6.9,5.5-15.4,3.6-23.3c-1-4.2-3.3-7.5-6.7-10.2c-1.9-1.4-8.9-3.3-6.3-5.6
					c1.7-1.5,8,2.2,9.2,3.1c3,2.3,4.7,5.9,6,9.3c3.4,9,2.3,18.7-2.4,27c-3.7,6.4-9.9,13.2-16,17.4c-3.4,2.3-6.3,3.8-10.3,4.7
					c-5.9,1.3-6.5,0.4-11.7-1.4c-7.3-2.7-16.6,7.4-20-3.5c-1-3.1,1-5.7-3.4-6.5c-5.5-0.9-6.7,3.3-7.9,7c-1.1,3.3-4.8,8.7-7.1,3.3
					c-1.5-3.3,3.2-5.7,2.6-8.4c-2.1-9.1-16.1,8.6-17.9,10.5c-2.1,2.2-5.5,7.3-8.7,3.7c-2.4-2.6,1.1-6.6-0.3-9
					c-3.4-5.7-13.1,11.9-19,7.5c-6.4-4.7,4.7-11.9,6.3-15.2c1.8-3.8-1.4-4.5-5.1-3.8c-4.5,0.9-5.6,4.2-7.6,7.7
					c-2.1,3.7-12.4,17.9-17.9,15c-3.9-2,0.6-6.8-3.3-8.3c-1.9-0.7-12.7,3.4-15,4.2c-1.2,0.4-3,1.8-4.1,2c-3.8,0.8-0.8-0.1-3.6-1.4
					c-3.2-1.5-8.9-1.2-12.1,0.4c-2.5,1.3-7,5.8-2.1,7c3.8,1,10.2-3.4,14.1-3.6c-0.5,5.2-7.6,5.4-11.7,6c-4.3,0.7-4.3,0.3-7.7-1.3
					c-1.9-0.9-1.8-2.3-4.5-2.4c-1.6,0-3.5,2-5.1,1.1c-1.9-1.1-0.5-6.4-2-7.9c-3.4-3.6-9.2,4.2-13.1,5.3c-15.5,4.6-2.6-14-5.3-19.1
					c-3-5.5-8,5.8-9.3,8c-2.8,4.7-5.2,7.7-10.9,9.1c-2,0.5-4,0.1-5.9,1.1c-2.6,1.5-4.1,4.3-6.9,5.6c-3.6,1.6-9.8,2-12.1-1.7
					c-3.2-5.1,2-8,6.2-8.4c5.9-0.6,10.7,2,13.4-4.5c3.8-9.1-1.3-5-6-4.3c-4.7,0.7-8.3-2.7-5.3-7.6c3.2-5.2,10.3-2.6,14.8-4.3
					C350.3,43.1,355.5,34.5,357.5,35.9C356.9,37.3,357.4,35.8,357.5,35.9z M474.7,61.2c4.7-1.1,7.3-3.5,10.2-7.2
					c1.7-2.1,5.9-5.9,1.5-6.5C481.9,46.9,469,61.2,474.7,61.2C475.6,61,472.9,61.2,474.7,61.2z M337.8,54.3c2.7-0.9,10.4-8.5,3.3-9.1
					C337.9,45,332.3,54.3,337.8,54.3C338,54.3,336.1,54.3,337.8,54.3z M331.7,72.5c-0.2-0.7,11.1-2.1,2.4-3.9
					C328,67.2,326.1,72.6,331.7,72.5C331.7,72.6,330.5,72.5,331.7,72.5z"/>
					<path d="M357.7,34.3c0.9-8.9,1.6-27.5-11.7-25.8C333.9,10,324.3,19.7,317,28.8c-7.6,9.6-10.2,21.5-13.9,32.9
					c-1.1,3.2-3.8,12.9,2.7,12.5c5.2-0.3,10.6-11.1,12.6-15.1c2.2-4.5,5.8-10.4,4.9-15.4c-0.5-2.9-2.2-3.1-0.1-5.4
					c1.6-1.8,5.3-2.1,6.4,0.2c1.4,3-3.2,11.9-4.4,14.8c-2.6,6.2-6.1,11.7-9.4,17.5c-2.5,4.3-6.7,8.6-12.3,7.6
					c-6.4-1.2-5.6-9.7-4.9-14.6c0.8-5.6,3.8-10.7,5.2-16.2c1.7-6.6,4.3-12.4,8.1-18.1c7.9-11.7,20.3-22.8,34.6-25c7-1,11.3,4.5,13.4,11
					C360.7,17.8,361.2,35.8,357.7,34.3C357.8,33.7,357.9,34.4,357.7,34.3z"/>
					<path d="M644.1,44.5c0.2,5-1.2,7.7-3.7,11.8c-2,3.1-2.9,4.7,1.6,5.4c1.5,0.2,5.1-1.6,4.2,1.6c-0.8,2.8-6.5,2.6-8.7,2.1
					c-2.4-0.5-3.3-1.7-5.8-1.5c-1.9,0.1-3.6,1.6-5.6,1.7c-4.4,0.3-6.4-3.1-7.9-6.8c-0.9-2.4-2.4-6.9,0.5-8.1c2.4-1,7.3,3.9,9.2,4.9
					c7,3.4,11.6-2.2,12.5-8.9c0.2-1.9,0.9-6.6-1.7-7c-2.4-0.4-4.8,5.2-6.9,6c-2.9,1.2-4.2-0.2-4.3-3.2c-0.2-4.1,3.3-6.3,6.4-8.1
					C642.5,29.4,644.1,37.1,644.1,44.5C644.2,47,644.1,43.3,644.1,44.5z M621.3,58.1c0.1,2.3,4.5,5.2,5.7,2
					C627.7,58.3,621.2,54.9,621.3,58.1C621.4,60.2,621.3,57.1,621.3,58.1z"/>
					<path d="M831,96.8c3.8-15,17.7-26.4,21-41.7c0.9-4-0.3-4.4-3.3-7.1c-1-0.9-2-2.8-3.6-2.9c-1.8-0.1-2.2,2.2-3.7,2.4
					c-5.9,0.9-2.6-12.4,6.2-6c3.6,2.6,4.4,5.7,8.5,1.8c1.2-1.1,2.5-5.1,4.8-4c3.1,1.5-4.9,16.5-6,19.1c-3.5,8.1-8.1,15.4-12.1,23.3
					c-2.1,4.1-4.1,8.2-6.1,12.3C836.1,95.7,831,104.7,831,96.8C831.1,96.5,831,98.5,831,96.8z"/>
					<path d="M682.4,59.5c0.2-3.9-5.2-5.7-4.8-9.2c0.3-2,5-3.9,3.6-6.2c-2-3.4-7,5.7-11,3.3c-3.6-2.2-0.6-5.8,1.5-7.9
					c3.2-3.1,4.3-2.6,8.5-1.3c2.9,0.9,5.9,1.2,6.5,4.6c0.6,3.4-3.1,5.3-3,8.4c0.1,2.3,2.6,3.7,3.1,5.9c0.6,2.7-1.2,7.2-2.4,9.6
					c-2.7,5.7-9.7,6.9-13,0.9c-2.8-5.1-1.7-14.6,2.3-5.6c1.1,2.4,0.9,5.6,4.6,5C681.2,66.6,682.5,61.8,682.4,59.5
					C682.5,57.7,682.5,62.3,682.4,59.5z"/>
					<path d="M249.4,111.9c-1.1,6.8-3.8,12.2-7.2,18.1c-2.8,5-5.7,14.7-13.1,14.7c-9.4,0-9.5-32.2-2.3-35.3c2,4.8-1.4,12.5-1.7,17.6
					c-0.1,3,0.1,15.4,5.6,14.8c4.4-0.5,7.8-11.7,9.4-15.1C241.2,124.8,247.7,111.4,249.4,111.9C249.1,113.9,249.2,111.9,249.4,111.9z"
					/>
					<path d="M752.3,46.9c-1,6.5-3.2,13.1-6.6,18.7c-2.3,3.9-6.7,6.5-4.1-0.1c2.4-6.1,7-11.1,6.9-17.5c0-1.7-2.2-2.8,0.6-3.7
					C750.7,43.7,753.6,46.2,752.3,46.9C752.2,47.7,752.4,46.9,752.3,46.9z"/>
					<path d="M722.2,31.8c-0.6,7.6-1.3,15.1-3.1,22.5c-0.2,1-0.9,5.7-2.4,3c-1.1-1.9,1.5-7.2,1.8-9.3c0.4-2.5,0.6-5.3,0.6-7.8
					c0-3.9-2.5-7.4-1.5-11.2C720.2,19.7,722.8,31.8,722.2,31.8C721.9,36,722.3,31.8,722.2,31.8z"/>
					<path d="M695.5,119.3c1.9-5.7,4.4-19.3,9.7-22.6c1.5,4.1-2.2,11.4-3.5,15.4C700.9,114.7,699.2,124.4,695.5,119.3
					C696.1,117.3,695.9,119.9,695.5,119.3z"/>
					<path d="M761.6,108.2c1.6-4.6,5.6-14.9,10-17.3c1.6,4-2.8,10.5-4.5,14.2C766.2,107,762,114.8,761.6,108.2
					C761.8,107.6,761.7,109.5,761.6,108.2z"/>
					<path d="M819.2,54.8c-0.8,2.7-7.4,19.9-8.3,10.6c-0.3-2.6,3.1-8.7,4.7-10.7C819.4,49.9,817.1,54.1,819.2,54.8
					C818.8,56.2,819.2,54.8,819.2,54.8z"/>
					<path d="M398.9,39.5c-0.8,3-4.2,6.2-4.6,1C393.9,36.5,397.4,35.7,398.9,39.5C398.6,40.6,398.6,38.8,398.9,39.5z"/>
					<path d="M864.7,63.6c0.8-4,6.8-3.7,4.9,0.2C868.1,67,866.3,65.8,864.7,63.6C865,62.2,865.2,64.3,864.7,63.6z"/>
					<path d="M175.2,38.3c-2.8-0.1-3.9-4.7-0.6-4.5C177.2,34,178.5,38.5,175.2,38.3C173.7,38.3,176.3,38.4,175.2,38.3z"/>
					<path d="M717.5,68.2c0,2.2-4,4.6-4.2,1.3C713.3,66.7,716.4,65.1,717.5,68.2C717.5,69.8,717.4,67.9,717.5,68.2z"/>
					<path d="M788.2,22.4c0.4-6.9,5.4,3.9,1.3,3.5C788.4,25.1,788,23.9,788.2,22.4C788.3,21,788.4,23.3,788.2,22.4z"/>
					<path d="M788.1,41.9c0-1.7-0.4-3.1,0.8-4.4C789.2,38.3,789.3,41.9,788.1,41.9C788.1,40.7,788.2,41.9,788.1,41.9z"/>
					<path d="M782.1,68.1c-0.5,0.6-1,1.2-1.6,1.7C779.5,68.1,780.5,66.6,782.1,68.1C781.5,68.8,781.6,67.6,782.1,68.1z"/>
				</g>
			</g>
			<!-- <rect width="350" height="320" style="fill: #000000;" transform="translate(550,80)" opacity="0.1"/> -->
			<animate  attributeName="x" attributeType="XML"
	         from="0"  to="935"
	         begin="0" dur="25s"
	         repeatCount="1"
	         calcMOde="spline"/>
		</pattern>
	</defs>

	<rect x="0" y="0" width="1000" height="1000"
      style="stroke: #000000; fill: url(#patternTag); " />
</svg>