<?xml version="1.0" encoding="utf-8"?>
<!-- Generator: Adobe Illustrator 18.1.1, SVG Export Plug-In . SVG Version: 6.00 Build 0)  -->
<!DOCTYPE svg PUBLIC "-//W3C//DTD SVG 1.1//EN" "http://www.w3.org/Graphics/SVG/1.1/DTD/svg11.dtd">
<svg version="1.1" id="Layer_1" xmlns="http://www.w3.org/2000/svg" xmlns:xlink="http://www.w3.org/1999/xlink" x="0px" y="0px"
	 viewBox="0 0 300 300" enable-background="new 0 0 300 300" xml:space="preserve">
<path id="twitter-4-icon" fill="#231F20" d="M12.5,0C5.6,0,0,5.6,0,12.5S5.6,25,12.5,25S25,19.4,25,12.5S19.4,0,12.5,0z M18.8,10.3
	c0.2,4.1-2.9,8.6-8.2,8.6c-1.6,0-3.2-0.5-4.4-1.3c1.5,0.2,3.1-0.2,4.3-1.2c-1.3,0-2.3-0.9-2.7-2c0.5,0.1,0.9,0.1,1.3,0
	c-1.4-0.3-2.4-1.5-2.3-2.9c0.4,0.2,0.8,0.3,1.3,0.4C6.7,11,6.3,9.3,7.1,8c1.4,1.8,3.6,2.9,6,3c-0.4-1.8,1-3.6,2.8-3.6
	c0.8,0,1.6,0.4,2.1,0.9c0.7-0.1,1.3-0.4,1.8-0.7c-0.2,0.7-0.7,1.2-1.3,1.6c0.6-0.1,1.1-0.2,1.7-0.5C19.8,9.4,19.4,9.9,18.8,10.3z"/>
</svg>
