<?xml version="1.0" encoding="utf-8"?>
<!-- Generator: Adobe Illustrator 18.1.1, SVG Export Plug-In . SVG Version: 6.00 Build 0)  -->
<!DOCTYPE svg PUBLIC "-//W3C//DTD SVG 1.1//EN" "http://www.w3.org/Graphics/SVG/1.1/DTD/svg11.dtd">
<svg version="1.1" id="Layer_1" xmlns="http://www.w3.org/2000/svg" xmlns:xlink="http://www.w3.org/1999/xlink" x="0px" y="0px"
	 viewBox="0 0 300 300" enable-background="new 0 0 300 300" xml:space="preserve">
<path id="facebook-circle-icon" fill="#231F20" d="M12.5,0C5.6,0,0,5.6,0,12.5S5.6,25,12.5,25S25,19.4,25,12.5S19.4,0,12.5,0z
	 M16.2,7.4c0,0-1.2,0-1.7,0c-0.6,0-0.7,0.3-0.7,0.9c0,0.5,0,1.5,0,1.5h2.5L16,12.5h-2.3v8.1h-3.2v-8.1H8.8V9.8h1.7c0,0,0-0.4,0-2.2
	c0-2,1.1-3.1,3.5-3.1c0.4,0,2.2,0,2.2,0L16.2,7.4L16.2,7.4z"/>
</svg>
